<svg id="Livello_1" data-name="Livello 1" xmlns="http://www.w3.org/2000/svg" viewBox="0 0 99.78 99.71">
  <defs>
    <style>
      .cls-1 {
        fill: #303030;
      }
    </style>
  </defs>
  <title>delete</title>
  <path class="cls-1" d="M-149.44,16.24h0a5.69,5.69,0,0,1,5.69,5.69V53.29A5.69,5.69,0,0,1-149.44,59h0a5.69,5.69,0,0,1-5.69-5.69V21.93A5.69,5.69,0,0,1-149.44,16.24Z" transform="translate(183.89 20.96)"/>
  <path class="cls-1" d="M-155.13,53.29h0a5.69,5.69,0,0,1,5.69-5.69h31.36a5.68,5.68,0,0,1,5.69,5.69h0A5.68,5.68,0,0,1-118.08,59h-31.36A5.68,5.68,0,0,1-155.13,53.29Z" transform="translate(183.89 20.96)"/>
  <path class="cls-1" d="M-155.13,21.93h0a5.69,5.69,0,0,1,5.69-5.69h31.36a5.69,5.69,0,0,1,5.69,5.69h0a5.68,5.68,0,0,1-5.69,5.68h-31.36A5.68,5.68,0,0,1-155.13,21.93Z" transform="translate(183.89 20.96)"/>
  <path class="cls-1" d="M-118.08,16.24h0a5.69,5.69,0,0,1,5.69,5.69V53.29A5.69,5.69,0,0,1-118.08,59h0a5.68,5.68,0,0,1-5.68-5.69V21.93A5.68,5.68,0,0,1-118.08,16.24Z" transform="translate(183.89 20.96)"/>
  <path class="cls-1" d="M-133.76,16.24h0a5.69,5.69,0,0,1,5.69,5.69V53.29A5.69,5.69,0,0,1-133.76,59h0a5.68,5.68,0,0,1-5.68-5.69V21.93A5.68,5.68,0,0,1-133.76,16.24Z" transform="translate(183.89 20.96)"/>
  <path class="cls-1" d="M-107.1,11h0a5.55,5.55,0,0,1-5.55,5.54,5.8,5.8,0,0,1-1.38-.18,94.58,94.58,0,0,0-38.8-.29,5.54,5.54,0,0,1-6.59-4.22,5.76,5.76,0,0,1-.12-1.31h0a5.68,5.68,0,0,1,5.39-5.63,5.8,5.8,0,0,0,.93-.14,88.37,88.37,0,0,1,39.87.35,6,6,0,0,0,.94.16A5.7,5.7,0,0,1-107.1,11Z" transform="translate(183.89 20.96)"/>
  <path class="cls-1" d="M-133.88-1.47h2a4.14,4.14,0,0,1,4.15,4.14h0a4.15,4.15,0,0,1-4.15,4.15h-2A4.15,4.15,0,0,1-138,2.67h0A4.14,4.14,0,0,1-133.88-1.47Z" transform="translate(183.89 20.96)"/>
  <path class="cls-1" d="M-94.11,28.91c0,1.16,0,2.33-.13,3.49-.05.57-.11,1.14-.17,1.72s.15.6,0-.31a4.41,4.41,0,0,1-.15,1,44.45,44.45,0,0,1-1.58,6.56c-.35,1.06-.74,2.1-1.15,3.13-.34.87.13-.23.12-.27,0,.16-.33.74-.4.9-.23.5-.47,1-.72,1.49a44.71,44.71,0,0,1-3.39,5.63,5.23,5.23,0,0,1-1,1.32c.71-.43.46-.57.08-.12-.17.21-.34.43-.52.64-.7.83-1.42,1.65-2.18,2.43s-1.54,1.54-2.35,2.27c-.41.36-.82.72-1.24,1.07l-.5.41-.51.41.49-.38c-.21.36-1,.71-1.32,1s-.9.62-1.35.92c-.92.6-1.86,1.16-2.82,1.69s-1.94,1-2.94,1.49l-.6.27c-1.06.5,1.06-.41,0,0-.52.2-1,.41-1.55.6a45.36,45.36,0,0,1-6.47,1.82c-.55.11-1.11.21-1.67.3l-.85.13c-.74.12,1.3-.15.14,0s-2.3.22-3.45.26a52.28,52.28,0,0,1-7-.26c-1.2-.12,1.16.19,0,0l-.68-.11c-.56-.09-1.12-.19-1.67-.3-1.1-.23-2.2-.49-3.28-.79s-2.14-.65-3.18-1c-.53-.19-1-.4-1.56-.6s-.09.17.28.12c-.21,0-.69-.31-.91-.41A45.37,45.37,0,0,1-156,62.2c-.46-.3-.91-.61-1.36-.92a6.16,6.16,0,0,1-1.32-1c.37.56.64.5.24.18l-.76-.62c-.42-.35-.83-.71-1.24-1.07A46.76,46.76,0,0,1-165,54.1l-.62-.76c-.32-.4-.38-.13.18.24a6.08,6.08,0,0,1-1-1.32c-.63-.9-1.23-1.81-1.79-2.75s-1.1-1.9-1.6-2.88c-.24-.49-.48-1-.71-1.49-.1-.2-.18-.4-.28-.6-.45-1,.35.9,0,0a47.13,47.13,0,0,1-2.05-6.36c-.27-1.1-.49-2.21-.67-3.33,0-.22-.07-.45-.11-.67-.19-1.19.12,1.17,0,0,0-.58-.12-1.15-.16-1.72a45.31,45.31,0,0,1,0-7c0-.57.1-1.14.16-1.71.12-1.16-.14.88,0,.13,0-.28.08-.56.13-.84.18-1.12.4-2.23.67-3.33a47.59,47.59,0,0,1,2.05-6.36c.43-1.09-.48,1,0,0,.1-.2.18-.4.28-.6.23-.5.47-1,.71-1.49.5-1,1-1.94,1.6-2.88s1.16-1.85,1.79-2.74c.25-.36.61-1.11,1-1.32-.06,0-.75.93-.18.24l.62-.77A45.62,45.62,0,0,1-160.43-1c.41-.37.82-.72,1.24-1.07l.63-.52c.46-.38.32-.63-.11.07a5.26,5.26,0,0,1,1.32-1c.45-.32.9-.63,1.36-.93a45.37,45.37,0,0,1,5.75-3.18c.17-.07.74-.44.91-.41,0,0-1.14.47-.28.12.52-.2,1-.41,1.56-.6q1.56-.57,3.18-1c1.08-.31,2.18-.57,3.28-.8.56-.11,1.11-.21,1.67-.3l.68-.1c1.1-.17-1,.1,0,0a50.66,50.66,0,0,1,7-.27c1.15,0,2.3.15,3.45.27.93.09-.22-.07-.3-.05a3.53,3.53,0,0,1,1,.15c.56.09,1.12.19,1.67.3a46.71,46.71,0,0,1,6.47,1.82c.52.19,1,.4,1.55.6,1,.41-.78-.38-.13,0,.25.13.51.23.76.34,1,.46,2,1,2.94,1.49s1.9,1.1,2.82,1.69c.45.3.91.61,1.35.93s1.09.58,1.32,1l-.49-.38.51.41.5.42c.42.35.83.7,1.24,1.07.81.72,1.59,1.48,2.35,2.26s1.48,1.6,2.18,2.43l.42.51.2.26q.49.63-.18-.24c.39.23.71.94,1,1.32a44.6,44.6,0,0,1,3.39,5.62c.25.49.49,1,.72,1.49.11.25.21.51.34.75.33.65-.47-1.16-.06-.12s.8,2.07,1.15,3.13A44.76,44.76,0,0,1-94.51,23a4.41,4.41,0,0,1,.15,1c0-.09-.14-1.23,0-.3.06.57.12,1.14.17,1.71.09,1.17.13,2.33.13,3.5a5.06,5.06,0,0,0,5,5,5.09,5.09,0,0,0,5-5A49.84,49.84,0,0,0-93.18.24a51.13,51.13,0,0,0-24.1-18.34c-19.23-7-42-.82-55,15a50.72,50.72,0,0,0-11.51,28.51,49.7,49.7,0,0,0,7,29.29A49.84,49.84,0,0,0-155,74.15a51,51,0,0,0,31.23,3.58c19.71-4,35.85-20.68,38.93-40.58a54.34,54.34,0,0,0,.71-8.24,5.05,5.05,0,0,0-5-5A5.08,5.08,0,0,0-94.11,28.91Z" transform="translate(183.89 20.96)"/>
</svg>
