<svg id="Capa_1" data-name="Capa 1" xmlns="http://www.w3.org/2000/svg" viewBox="0 0 68.59 89.41">
  <defs>
    <style>
      .cls-1 {
        fill: #303030;
        stroke: #303030;
        stroke-miterlimit: 10;
        stroke-width: 2px;
      }
    </style>
  </defs>
  <title>document</title>
  <path class="cls-1" d="M271.33,230.44l-16.46-15.56a9.36,9.36,0,0,0-6.45-2.58H217.07a9.4,9.4,0,0,0-9.39,9.39v68.63a9.39,9.39,0,0,0,9.39,9.39h47.81a9.39,9.39,0,0,0,9.39-9.39V237.26A9.44,9.44,0,0,0,271.33,230.44Zm-18.57-7.14a1.46,1.46,0,0,1,2.45-1.06L265.48,232a.48.48,0,0,1-.34.83h-10a2.42,2.42,0,0,1-2.42-2.42Zm16.38,67a4.27,4.27,0,0,1-4.26,4.28H217.07a4.27,4.27,0,0,1-4.26-4.28V221.69a4.27,4.27,0,0,1,4.26-4.27h28.14a2.42,2.42,0,0,1,2.42,2.43v12.09a6,6,0,0,0,6,6h15.53Z" transform="translate(-206.68 -211.3)"/>
  <rect class="cls-1" x="218.86" y="274.43" width="30.96" height="5.43" rx="2.51" transform="translate(262 342.99) rotate(180)"/>
  <rect class="cls-1" x="218.86" y="260.25" width="44.23" height="5.43" rx="2.51" transform="translate(275.27 314.62) rotate(180)"/>
  <rect class="cls-1" x="218.86" y="246.06" width="44.23" height="5.43" rx="2.51" transform="translate(275.27 286.26) rotate(-180)"/>
</svg>
