<svg id="Livello_1" data-name="Livello 1" xmlns="http://www.w3.org/2000/svg" viewBox="0 0 99.78 99.7">
  <defs>
    <style>
      .cls-1 {
        fill: #303030;
      }
    </style>
  </defs>
  <title>edit</title>
  <path class="cls-1" d="M-107.68,7.18c-.14,2.64-1.77,5.88-5,9.91-5.8,7.29-16.06,16.07-23.49,21.76a12.14,12.14,0,0,1-3.22,10.35c-4.16,4.38-13,6.23-19.94,3.26a1.54,1.54,0,0,1-.81-2,1.54,1.54,0,0,1,.3-.45c4.23-4.47.48-9.47,5-15.08a11.42,11.42,0,0,1,10.49-4.12c5.37-7.53,13.7-18,20.76-24,3.91-3.34,7.09-5.11,9.74-5.38A5.41,5.41,0,0,1-107.68,7.18Z" transform="translate(183.89 20.96)"/>
  <path class="cls-1" d="M-94.13,30.19c0,1.16-.11,2.33-.23,3.48,0,.23,0,.46-.08.69-.13,1.21.2-1.15,0,0-.1.56-.19,1.13-.29,1.69A45.7,45.7,0,0,1-96.5,42.6c-.19.52-.38,1-.59,1.56,0,.1-.5,1.09-.13.33s-.1.22-.14.31q-.69,1.52-1.47,3a48.43,48.43,0,0,1-3.55,5.52c-.67.94.72-.86,0,0l-.41.51c-.34.42-.7.83-1.06,1.24q-1.08,1.23-2.25,2.37c-.77.76-1.58,1.5-2.41,2.2-.29.25-.93,1-1.27,1,.06,0,1-.73.24-.19l-.79.58a44.54,44.54,0,0,1-5.59,3.43,12.37,12.37,0,0,1-3,1.41c.9-.15.67-.28.28-.13l-.93.36c-.52.2-1,.38-1.56.56a45.71,45.71,0,0,1-6.52,1.63l-1,.16c-.66.11,0,.2.31,0a5.29,5.29,0,0,1-1.7.18c-1.16.1-2.31.16-3.47.17s-2.34,0-3.5-.1q-.87-.06-1.74-.15l-.69-.08c-1.11-.12,1,.17,0,0a49.87,49.87,0,0,1-6.61-1.53c-1.07-.33-2.12-.71-3.16-1.12a3.14,3.14,0,0,1-.61-.25l.58.25-.61-.27-1.49-.71A45.39,45.39,0,0,1-157,61.49c-.45-.31-.89-.63-1.33-1-.89-.65.65.56.11.09l-.64-.52c-.84-.69-1.66-1.41-2.45-2.16s-1.55-1.53-2.29-2.33l-1.08-1.23c-.25-.3-1-.88-1-1.27l.38.5-.39-.52-.39-.53-.93-1.35c-.6-.91-1.17-1.84-1.71-2.8s-1-1.93-1.51-2.92A6,6,0,0,1-171,44c0,.09.45,1.12.13.28-.12-.31-.25-.62-.36-.93a43.29,43.29,0,0,1-1.87-6.42c-.12-.55-.23-1.1-.32-1.66-.06-.35-.2-2.22-.13-.69-.05-1.14-.24-2.28-.29-3.43a44,44,0,0,1,.2-7,3.93,3.93,0,0,1,.12-1c0,.09-.19,1.22,0,.31.1-.57.18-1.13.29-1.69.21-1.11.47-2.22.77-3.31s.62-2.15,1-3.2c.18-.53.38-1.05.59-1.57a2.6,2.6,0,0,1,.25-.61l-.12.28.14-.31a44.36,44.36,0,0,1,3.14-5.79c.59-.93,1.23-1.81,1.87-2.7.54-.73-.17.17-.18.23.05-.21.47-.59.61-.76.35-.42.7-.84,1.06-1.25a46.85,46.85,0,0,1,4.67-4.57c.25-.21.91-1,1.26-1l-.49.38.39-.29.66-.49c.89-.63,1.8-1.24,2.73-1.81S-153-6.17-152-6.67a11.28,11.28,0,0,1,3-1.41l-.58.25.61-.25.62-.23c.52-.2,1-.38,1.57-.56,1.06-.35,2.13-.66,3.21-.94s2.2-.5,3.3-.69l.67-.11.34-.06-.31,0c.29-.24,1.31-.14,1.7-.18a45.05,45.05,0,0,1,7-.06c.58,0,1.16.08,1.74.14l.85.1c.76.09-1.28-.2-.13,0s2.24.39,3.35.64a44.54,44.54,0,0,1,6.41,2l.31.12q.75.32-.27-.12a2.54,2.54,0,0,1,.6.27c.51.23,1,.46,1.5.71,1,.49,2,1,2.9,1.57s1.87,1.15,2.77,1.77l1.32,1c.45.33.32,0-.23-.18.25.07.56.44.77.61a45.74,45.74,0,0,1,4.73,4.5q.55.6,1.08,1.23c.22.26,1,.93,1,1.26-.09-.43-.55-.72-.19-.23.2.26.39.52.58.79q.48.66.93,1.35a42.86,42.86,0,0,1,3.23,5.72,6.34,6.34,0,0,1,.68,1.5c-.15-1-.24-.57-.07-.12l.3.77c.39,1,.74,2.1,1,3.16s.59,2.17.82,3.26c.12.55.22,1.11.32,1.66,0,.23.08.45.11.67s.07.45.1.68l-.09-.65c.22.24.15,1.33.18,1.7,0,.57.09,1.15.12,1.72.06,1.17.06,2.33,0,3.5a5,5,0,0,0,5,5,5.09,5.09,0,0,0,5-5A49.88,49.88,0,0,0-92.45,1.3a51.08,51.08,0,0,0-23.64-18.94c-19-7.57-41.9-1.85-55.32,13.57a50.68,50.68,0,0,0-12.22,28.22,49.64,49.64,0,0,0,6.27,29.45,49.9,49.9,0,0,0,21.23,20A51,51,0,0,0-125,78c19.84-3.42,36.33-19.77,40-39.56a54.11,54.11,0,0,0,.9-8.22,5,5,0,0,0-5-5A5.1,5.1,0,0,0-94.13,30.19Z" transform="translate(183.89 20.96)"/>
</svg>
