<svg id="Livello_1" data-name="Livello 1" xmlns="http://www.w3.org/2000/svg" xmlns:xlink="http://www.w3.org/1999/xlink" viewBox="0 0 396.21 374.02">
  <defs>
    <style>
      .cls-1 {
        fill: url(#Sfumatura_senza_nome_2);
      }

      .cls-2 {
        fill: #17182d;
      }

      .cls-3 {
        fill: #3b3a3a;
      }

      .cls-4 {
        fill: #676866;
      }

      .cls-5 {
        fill: #343331;
      }

      .cls-6 {
        fill: #313030;
      }

      .cls-7 {
        fill: #efecd0;
      }
    </style>
    <linearGradient id="Sfumatura_senza_nome_2" data-name="Sfumatura senza nome 2" x1="208.96" y1="1114.82" x2="581.52" y2="1114.82" gradientTransform="translate(-99.69 -689.95)" gradientUnits="userSpaceOnUse">
      <stop offset="0" stop-color="#294696"/>
      <stop offset="0.11" stop-color="#28408b"/>
      <stop offset="0.49" stop-color="#253167"/>
      <stop offset="0.8" stop-color="#232754"/>
      <stop offset="1" stop-color="#22224c"/>
    </linearGradient>
  </defs>
  <title>experiencenight</title>
  <path class="cls-1" d="M481.83,424.87c0,102.88-83.4,186.28-186.28,186.28s-186.28-83.4-186.28-186.28S192.66,238.6,295.52,238.59h0C398.44,238.59,481.83,322,481.83,424.87Z" transform="translate(-100.27 -238.59)"/>
  <path class="cls-2" d="M444.2,538.6C382.2,620.69,265.37,637,183.28,575a186.1,186.1,0,0,1-36.36-36.36c13.12-21.86,47.84-39.52,92.74-47.66,1.73-.32,3.47-.61,5.22-.89s3.74-.6,5.63-.86c1.38-.2,2.78-.39,4.18-.56.48-.07,1-.13,1.45-.18,1.23-.16,2.47-.31,3.71-.44q5.76-.63,11.68-1.07c7.83-.57,15.86-.87,24-.87q7.28,0,14.39.31c2.4.1,4.79.23,7.15.39q9.12.59,17.87,1.68c1.87.22,3.73.46,5.56.73h.07q5.22.75,10.28,1.65a245.71,245.71,0,0,1,35.33,8.95C414,509.19,434.71,522.8,444.2,538.6Z" transform="translate(-100.27 -238.59)"/>
  <path class="cls-3" d="M416.9,366.21c-1.62-4.45-9-4.45-10.58,0L373.52,457a5.61,5.61,0,0,0,3.34,7.21h0L420.62,469l13.15-55.53Z" transform="translate(-100.27 -238.59)"/>
  <path class="cls-4" d="M495.43,496a5.65,5.65,0,0,1-4.61,2.39H455.31l-9.91-8.55-38.07-32.78,32.77-90.8a5.84,5.84,0,0,1,10.59,0l45.42,124.59A5.65,5.65,0,0,1,495.43,496Z" transform="translate(-100.27 -238.59)"/>
  <path class="cls-5" d="M495.43,496a5.65,5.65,0,0,1-4.61,2.39H455.31l-9.91-8.55v-127a5.42,5.42,0,0,1,5.29,3.38L496.11,490.8A5.67,5.67,0,0,1,495.43,496Z" transform="translate(-100.27 -238.59)"/>
  <path class="cls-6" d="M460.6,462.88,451,472.56V477a5.63,5.63,0,0,1-11.26,0V436.43a5.63,5.63,0,1,1,11.26,0v20.16l1.69-1.57a5.57,5.57,0,0,1,7.88,7.88h0Z" transform="translate(-100.27 -238.59)"/>
  <path class="cls-3" d="M460.6,462.88,451,472.56V477a5.57,5.57,0,0,1-5.53,5.63h-.1v-51.8A5.57,5.57,0,0,1,451,436.3h0v20.29l1.69-1.57a5.57,5.57,0,0,1,7.88,7.88Z" transform="translate(-100.27 -238.59)"/>
  <path class="cls-6" d="M495.52,546.38,438.8,455.92a5.69,5.69,0,0,0-4.73-2.59h-78.8l19.47,57.48L409.52,555h81.36a5.69,5.69,0,0,0,4.95-2.93A5.55,5.55,0,0,0,495.52,546.38Z" transform="translate(-100.27 -238.59)"/>
  <path class="cls-4" d="M409.52,555H360.94l-5.64-11.27L349.67,555H309.88a5.84,5.84,0,0,1-4.84-2.71,5.77,5.77,0,0,1-.23-5.4l44.86-89.34h11.26Z" transform="translate(-100.27 -238.59)"/>
  <path class="cls-5" d="M409.52,555H360.94l-5.64-11.27V457.59h5.64Z" transform="translate(-100.27 -238.59)"/>
  <path class="cls-3" d="M360.94,457.59V555H349.67V457.59l.57-1.13a5.65,5.65,0,0,1,10.13,0Z" transform="translate(-100.27 -238.59)"/>
  <path class="cls-7" d="M225.9,346.64a11.77,11.77,0,0,0-12.56-4.34,32.15,32.15,0,0,1-9.59,1.37h-.85c-18.27-.45-33.35-16.29-33.35-35a34.33,34.33,0,0,1,22.16-32,11.52,11.52,0,0,0-.23-21.7,71.33,71.33,0,0,0-21.93-3.43c-37.68,0-69.28,31.6-69.28,69.29s31.6,68.51,69.28,68.51a69,69,0,0,0,56.35-29.43A11.7,11.7,0,0,0,225.9,346.64Z" transform="translate(-100.27 -238.59)"/>
</svg>
