<svg id="Livello_1" data-name="Livello 1" xmlns="http://www.w3.org/2000/svg" xmlns:xlink="http://www.w3.org/1999/xlink" viewBox="0 0 395.95 382.23">
  <defs>
    <style>
      .cls-1 {
        fill: url(#Sfumatura_senza_nome);
      }

      .cls-2 {
        fill: #724c21;
      }

      .cls-3 {
        fill: #31aa4e;
      }

      .cls-4 {
        fill: #7ebb43;
      }

      .cls-5 {
        fill: #64b32e;
      }

      .cls-6 {
        fill: #b36049;
      }

      .cls-7 {
        fill: #9a513f;
      }

      .cls-8 {
        fill: #f59d1b;
      }

      .cls-9 {
        fill: #ffe571;
      }

      .cls-10 {
        fill: #ffd405;
      }

      .cls-11 {
        fill: #fcbf05;
      }

      .cls-12 {
        fill: #303030;
      }
    </style>
    <linearGradient id="Sfumatura_senza_nome" data-name="Sfumatura senza nome" x1="108.44" y1="-42.55" x2="481" y2="-42.55" gradientTransform="matrix(1, 0, 0, -1, -99.69, 151.94)" gradientUnits="userSpaceOnUse">
      <stop offset="0" stop-color="#f9b233"/>
      <stop offset="1" stop-color="#e6332a"/>
    </linearGradient>
  </defs>
  <title>experiencenew</title>
  <path class="cls-1" d="M381.31,194.49c0,102.88-83.4,186.28-186.28,186.28S8.75,297.37,8.75,194.49,92.14,8.22,195,8.21h0C297.92,8.21,381.31,91.61,381.31,194.49Z" transform="translate(0 0)"/>
  <path class="cls-2" d="M343.68,308.22c-62,82.09-178.83,98.37-260.92,36.36A186.37,186.37,0,0,1,46.4,308.22c13.12-21.86,47.84-39.52,92.74-47.66,1.73-.32,3.47-.61,5.22-.89s3.74-.6,5.63-.86c1.38-.2,2.78-.39,4.18-.56.48-.07,1-.13,1.45-.18,1.23-.16,2.47-.31,3.71-.44q5.76-.64,11.68-1.07c7.83-.57,15.86-.87,24-.87q7.28,0,14.39.31c2.4.1,4.79.23,7.15.39q9.12.58,17.87,1.68c1.87.22,3.73.46,5.56.73h.07q5.22.74,10.28,1.65a244.4,244.4,0,0,1,35.33,8.95C313.43,278.81,334.19,292.42,343.68,308.22Z" transform="translate(0 0)"/>
  <path class="cls-3" d="M316.38,135.83c-1.62-4.45-9-4.45-10.58,0L273,226.63a5.62,5.62,0,0,0,3.34,7.21h0l43.76,4.73,13.15-55.53Z" transform="translate(0 0)"/>
  <path class="cls-4" d="M394.91,265.61A5.69,5.69,0,0,1,390.3,268H354.79l-9.91-8.55-38.07-32.78,32.77-90.8a5.84,5.84,0,0,1,10.59,0l45.42,124.59A5.66,5.66,0,0,1,394.91,265.61Z" transform="translate(0 0)"/>
  <path class="cls-5" d="M394.91,265.61A5.69,5.69,0,0,1,390.3,268H354.79l-9.91-8.55v-127a5.4,5.4,0,0,1,5.29,3.38l45.42,124.59A5.68,5.68,0,0,1,394.91,265.61Z" transform="translate(0 0)"/>
  <path class="cls-6" d="M360.08,232.5l-9.57,9.68v4.4a5.63,5.63,0,1,1-11.26,0V206.05a5.63,5.63,0,1,1,11.26,0v20.16l1.69-1.57a5.57,5.57,0,1,1,7.88,7.88Z" transform="translate(0 0)"/>
  <path class="cls-7" d="M360.08,232.5l-9.57,9.68v4.4a5.58,5.58,0,0,1-5.53,5.63h-.1v-51.8a5.57,5.57,0,0,1,5.63,5.51v20.29l1.69-1.57a5.57,5.57,0,1,1,7.88,7.88Z" transform="translate(0 0)"/>
  <path class="cls-8" d="M395,316l-56.72-90.46a5.66,5.66,0,0,0-4.73-2.59h-78.8l19.47,57.48L309,324.66h81.36a5.73,5.73,0,0,0,4.95-2.93A5.56,5.56,0,0,0,395,316Z" transform="translate(0 0)"/>
  <path class="cls-9" d="M309,324.66H260.42l-5.64-11.27-5.63,11.27H209.36a5.87,5.87,0,0,1-4.84-2.71,5.77,5.77,0,0,1-.23-5.4l44.86-89.34h11.26Z" transform="translate(0 0)"/>
  <path class="cls-10" d="M309,324.66H260.42l-5.64-11.27V227.21h5.64Z" transform="translate(0 0)"/>
  <path class="cls-11" d="M260.42,227.21v97.45H249.15V227.21l.57-1.13a5.65,5.65,0,0,1,10.13,0Z" transform="translate(0 0)"/>
  <circle class="cls-10" cx="77.33" cy="90.06" r="77.33"/>
  <rect class="cls-12" x="258.91" y="42.34" width="115.38" height="30.7" rx="15.35"/>
  <rect class="cls-12" x="301.24" width="30.7" height="115.38" rx="15.35"/>
</svg>
