<svg id="Livello_1" data-name="Livello 1" xmlns="http://www.w3.org/2000/svg" viewBox="0 0 146.95 146.95"><defs><style>.cls-1{fill:#616160;}.cls-2{fill:#fff;}</style></defs><title>forward</title><circle class="cls-1" cx="73.47" cy="73.47" r="73.47"/><path class="cls-2" d="M355.66,405.19,325.45,375a3.78,3.78,0,0,0-6.43,2.65v12.76a2.35,2.35,0,0,1-2.35,2.35H305.8q-42.07,0-51.63,23.78-3.12,7.91-3.13,19.65,0,9.78,7.5,26.61c.12.27.32.74.62,1.41s.56,1.26.79,1.77a7.08,7.08,0,0,0,.77,1.3,2,2,0,0,0,1.65,1,1.7,1.7,0,0,0,1.39-.59,2.2,2.2,0,0,0,.5-1.47,11.6,11.6,0,0,0-.15-1.56,11.25,11.25,0,0,1-.14-1.39q-.3-4-.3-7.26a50.13,50.13,0,0,1,1-10.68,32.42,32.42,0,0,1,2.86-8.17,20.54,20.54,0,0,1,4.73-6,27.55,27.55,0,0,1,6.22-4.1,33.85,33.85,0,0,1,7.85-2.51,75.68,75.68,0,0,1,9.08-1.27c3.05-.23,6.51-.35,10.36-.35h10.87a2.35,2.35,0,0,1,2.35,2.34v12.76a3.75,3.75,0,0,0,6.43,2.66l30.21-30.21a3.71,3.71,0,0,0,0-5.31Z" transform="translate(-224.35 -347.58)"/></svg>