<svg id="Livello_1" data-name="Livello 1" xmlns="http://www.w3.org/2000/svg" viewBox="0 0 184.89 219.93"><defs><style>.cls-1{fill:#1bae89;}.cls-2{fill:#1c8264;}.cls-3{fill:#1E90FF;}.cls-4{fill:#9b4a7e;}.cls-5{fill:#179e7f;}.cls-6{fill:#1f6e55;}.cls-7{fill:#020303;}.cls-8{fill:#303030;}.cls-9{fill:#1d1d1b;}</style></defs><title>friend_add</title><path class="cls-1" d="M412.81,187.77c-46.33,0-83.87,17.39-83.87,68,0,45,29.65,98.8,68.78,110.22v7.56h0c13.49-5.28,28,0,28,0v-4.37a47.12,47.12,0,0,1-16.18-1.1c1.07.07,2.14.1,3.22.1a53.51,53.51,0,0,0,13-1.6h0c40.18-10,70.94-65,70.94-110.81C496.69,205.16,459.13,187.77,412.81,187.77ZM396.06,326.52c-10,8.81-26.32,16.92-38.79.05-5.07-6.88-8.73-16.83-10.6-26.81-2.86-8.38-3.39-17.25-1.69-24.26v0a20,20,0,0,1,.75-2.86l.2-.54.12-.33.07-.12,0-.07c0-.13.1-.25.15-.37l.3-.66c.16-.34.33-.67.52-1a1.4,1.4,0,0,1,.1-.16l.19-.33a4.78,4.78,0,0,1,.26-.42l0,0,.06-.08v0l0,0v0l.06-.09a14.49,14.49,0,0,1,2.36-2.71l.08-.07,0,0,.09-.08,0,0,.08-.07,0,0,.11-.09.06-.05.06-.06.06-.05c.23-.18.46-.36.7-.53l.17-.12c10.2-7.31,28.27-5.42,40.39,9.6,8.11,10,11.57,23.51,10.21,33.91.45,7.77-1.61,14.52-6.28,18.64Zm72.29.05c-12.47,16.88-28.77,8.76-38.79-.05-4.67-4.12-6.72-10.87-6.31-18.6-1.34-10.4,2.1-23.86,10.21-33.92,12.2-15.13,30.46-16.94,40.62-9.44l.06.05c.19.14.39.29.57.44l0,0,.27.22,0,0,.21.18.1.09.09.08.16.15.27.26a17.58,17.58,0,0,1,4.72,9.12,2.38,2.38,0,0,1,.05.26h0c1.71,7,1.19,15.89-1.68,24.27-1.86,10-5.52,20-10.6,26.84Z" transform="translate(-328.94 -187.77)"/><path class="cls-1" d="M400.06,373.23c-.78.11-1.57.24-2.34.37h0C398.49,373.46,399.26,373.34,400.06,373.23Z" transform="translate(-328.94 -187.77)"/><path class="cls-1" d="M425.76,373.59h0l-.15,0Z" transform="translate(-328.94 -187.77)"/><path class="cls-1" d="M425.76,366.62v2.6a47.08,47.08,0,0,1-16.17-1.1c1.07.07,2.15.1,3.23.1A53.26,53.26,0,0,0,425.76,366.62Z" transform="translate(-328.94 -187.77)"/><path class="cls-2" d="M425.76,366.62v2.6h0a47.08,47.08,0,0,1-16.17-1.1c1.07.07,2.15.1,3.23.1A53.26,53.26,0,0,0,425.76,366.62Z" transform="translate(-328.94 -187.77)"/><path class="cls-3" d="M479.86,407.7H343.61c0-11.26,22.24-26.69,47.43-32.72a27.66,27.66,0,0,0,20.69,9.74,28.36,28.36,0,0,0,14-3.82,31.79,31.79,0,0,0,7.41-5.74C458.05,381.32,479.86,396.55,479.86,407.7Z" transform="translate(-328.94 -187.77)"/><path class="cls-3" d="M397.48,373.64c-.87.15-1.73.31-2.59.48C395.75,373.94,396.62,373.78,397.48,373.64Z" transform="translate(-328.94 -187.77)"/><path class="cls-3" d="M400.06,373.23c-.78.11-1.57.24-2.34.37h0l-.23,0,.23-.05h0C398.49,373.46,399.26,373.34,400.06,373.23Z" transform="translate(-328.94 -187.77)"/><path class="cls-3" d="M426.5,373.72l-.75-.13h0l-.15,0,.15,0Z" transform="translate(-328.94 -187.77)"/><path class="cls-3" d="M430.24,374.46l-2.4-.49C428.64,374.12,429.45,374.29,430.24,374.46Z" transform="translate(-328.94 -187.77)"/><path class="cls-4" d="M433.16,375.14a31.47,31.47,0,0,1-7.4,5.74,28.41,28.41,0,0,1-14,3.83A27.72,27.72,0,0,1,391.06,375l1-.23,1-.22,1.94-.4c.86-.17,1.72-.33,2.59-.48l.23,0h0c.13.15,4.25,5.08,14,5.08s13.88-4.93,14-5.08h0l.75.13,1.32.24c.81.16,1.61.34,2.41.49l.5.11c.75.17,1.5.33,2.25.53Z" transform="translate(-328.94 -187.77)"/><path class="cls-5" d="M425.6,373.57l.15,0c-.13.15-4.26,5.08-14,5.08s-13.88-4.93-14-5.08c.77-.13,1.56-.26,2.34-.37-.78.11-1.57.23-2.34.36,13.49-5.28,28,0,28,0Z" transform="translate(-328.94 -187.77)"/><path class="cls-5" d="M400.06,373.23c-.78.11-1.57.24-2.34.37h0C398.49,373.46,399.26,373.34,400.06,373.23Z" transform="translate(-328.94 -187.77)"/><path class="cls-5" d="M425.76,373.59h0l-.15,0Z" transform="translate(-328.94 -187.77)"/><path class="cls-1" d="M349.77,266.09a20.24,20.24,0,0,0-4.78,9.37,21.5,21.5,0,0,1,.76-2.86c.06-.18.12-.36.2-.54l.12-.33a1.8,1.8,0,0,1,.08-.21c.09-.22.19-.43.29-.64l.12-.27.05-.11.09-.18.09-.17.18-.33.07-.12v0a.64.64,0,0,1,.08-.14.7.7,0,0,1,.1-.16l.19-.34.13-.2.13-.21,0,0,.06-.08v0l0,0v0l.06-.08.17-.25.13-.18.16-.21a8.22,8.22,0,0,1,.52-.65c.06-.06.11-.13.17-.2l.57-.61.18-.18.23-.22.1-.09-.12.12Z" transform="translate(-328.94 -187.77)"/><path class="cls-1" d="M402.37,307.91c.42,7.74-1.65,14.49-6.31,18.61-10,8.81-26.32,16.92-38.79.05-5.07-6.88-8.73-16.83-10.6-26.81a44.8,44.8,0,0,0,7.43,13.72c12.22,15.14,31.19,15.59,41.35,8l.23-.17.37-.29.33-.28c3.16-2.74,5.12-7.06,5.88-12.17,0-.3.06-.61.08-.91.63-8.82-3.08-19.73-10.75-29.23-8.44-10.46-19.5-16.58-28.86-16.95h-1.28c-.2,0-.41,0-.61,0s-.34,0-.48,0l-.49.05h0l-.21,0h-.11c-.56.07-1.11.16-1.65.28l-.58.14-.56.15h0l-.49.16-.09,0-.47.16-.12.05-.39.16-.19.08-.37.16-.12.06-.47.23,0,0-.42.23-.19.11-.33.18-.5.32a5,5,0,0,0-.47.33l-.52.38c-.18.14-.33.27-.49.41l-.16-.19-.05.05-.08.06.06-.06.06-.05c.23-.19.46-.36.7-.53l.17-.12c10.2-7.33,28.27-5.42,40.39,9.6C400.28,284.06,403.71,297.52,402.37,307.91Z" transform="translate(-328.94 -187.77)"/><path class="cls-1" d="M479,299.75c-1.87,10-5.53,19.94-10.6,26.82-12.47,16.88-28.78,8.76-38.79-.05-4.67-4.12-6.72-10.87-6.31-18.6-1.34-10.4,2.09-23.86,10.2-33.92,12.21-15.13,30.47-16.94,40.62-9.44-10.12-7.32-27.83-1.26-40,13.88-7.67,9.49-11.38,20.4-10.76,29.23a9.06,9.06,0,0,0,.07.91c.75,5,2.61,9.17,5.62,11.9.2.18.4.36.61.52l.29.23.09.06,0,0,0,0,0,0,.1.08h0l.1.07c10.18,7.54,29.08,7.05,41.27-8.06A44.64,44.64,0,0,0,479,299.75Z" transform="translate(-328.94 -187.77)"/><path class="cls-5" d="M479,299.75c-1.87,10-5.53,19.94-10.6,26.82-12.47,16.88-28.78,8.76-38.79-.05-4.67-4.12-6.72-10.87-6.31-18.6-1.34-10.4,2.09-23.86,10.2-33.92,12.21-15.13,30.47-16.94,40.62-9.44-10.12-7.32-27.83-1.26-40,13.88-7.67,9.49-11.38,20.4-10.76,29.23a9.06,9.06,0,0,0,.07.91c.75,5,2.61,9.17,5.62,11.9.2.18.4.36.61.52l.29.23.09.06,0,0,0,0,0,0,.1.08h0l.1.07c10.18,7.54,29.08,7.05,41.27-8.06A44.64,44.64,0,0,0,479,299.75Z" transform="translate(-328.94 -187.77)"/><path class="cls-2" d="M396.06,326.52c-10,8.81-26.32,16.92-38.79.05-5.07-6.88-8.73-16.83-10.6-26.81a44.8,44.8,0,0,0,7.43,13.72c12.22,15.14,31.19,15.59,41.35,8l.23-.17.37-.29.33-.28c3.16-2.74,5.12-7.06,5.88-12.17,0-.3.06-.61.08-.91v.25C402.79,315.65,400.73,322.4,396.06,326.52Z" transform="translate(-328.94 -187.77)"/><path class="cls-6" d="M348,268.11a15.89,15.89,0,0,1,1.73-2,20.21,20.21,0,0,0-4.78,9.36,19.91,19.91,0,0,1,.75-2.85l.2-.54.12-.33.05-.13a.3.3,0,0,0,0-.08l.15-.37c.08-.18.17-.36.26-.54l.14-.29c0-.05.05-.11.08-.17s.13-.22.19-.33l.07-.12v0l.17-.3.2-.34.12-.2c.08-.12.16-.23.23-.35l0,0v0A1.7,1.7,0,0,0,348,268.11Z" transform="translate(-328.94 -187.77)"/><path class="cls-6" d="M350.36,265.54l0,0-.23.21.07-.07.08-.07Z" transform="translate(-328.94 -187.77)"/><path class="cls-6" d="M350.61,265.3l.05,0-.17.14.09-.07Z" transform="translate(-328.94 -187.77)"/><path class="cls-6" d="M402.37,307.91c0,.22-.06.44-.1.66,0-.3.06-.6.08-.91.62-8.82-3.09-19.73-10.76-29.23-8.44-10.46-19.5-16.58-28.86-16.95h-1.28c-.2,0-.41,0-.61,0s-.34,0-.48,0l-.49.05h0l-.21,0h-.11c-.56.07-1.11.16-1.65.28l-.58.14-.56.15h0l-.49.16-.09,0-.47.16-.12.05-.39.16-.19.08-.37.16-.12.06-.47.23,0,0-.42.23-.19.11-.33.18-.5.32a5,5,0,0,0-.47.33l-.52.38c-.18.14-.33.27-.49.41l-.16-.19c.22-.18.45-.36.69-.53l.17-.12c10.2-7.33,28.27-5.42,40.39,9.6C400.28,284.06,403.71,297.52,402.37,307.91Z" transform="translate(-328.94 -187.77)"/><path class="cls-7" d="M391.59,278.43c-8.44-10.46-19.5-16.58-28.86-16.95h-1.28c-.2,0-.41,0-.61,0s-.34,0-.48,0l-.49.05h0l-.21,0h-.11c-.56.07-1.11.16-1.65.28l-.58.14-.56.15h0l-.49.16-.09,0-.47.16-.12.05-.39.16-.19.08-.37.16-.12.06-.47.23,0,0-.42.23-.19.11-.33.18-.5.32a5.59,5.59,0,0,0-.47.33l-.52.38c-.18.14-.33.27-.49.41l-.16-.19-.05.05-.08.06-.06,0-.07.05-.16.15-.05,0-.05.05-.23.21h0l0,0-.12.12-.21.21a20.21,20.21,0,0,0-4.78,9.36v.05c-1.7,7-1.17,15.88,1.69,24.25a44.69,44.69,0,0,0,7.43,13.72c12.22,15.14,31.18,15.59,41.35,8l.23-.18.37-.29.33-.28c3.16-2.73,5.12-7.05,5.88-12.17,0-.3.06-.6.08-.91C403,298.84,399.26,287.93,391.59,278.43Z" transform="translate(-328.94 -187.77)"/><path class="cls-7" d="M350,265.86l.1-.09-.12.12-.21.2a20.24,20.24,0,0,0-4.78,9.37,21.5,21.5,0,0,1,.76-2.86c.06-.18.12-.36.2-.54l.12-.33a1.8,1.8,0,0,1,.08-.21c.09-.22.19-.43.29-.64l.12-.27.05-.11.09-.18.09-.17.18-.33.07-.12v0a.64.64,0,0,1,.08-.14.7.7,0,0,1,.1-.16l.19-.34.13-.2.13-.21,0,0,.06-.08v0l0,0v0l.06-.08.17-.25.13-.18.16-.21a8.22,8.22,0,0,1,.52-.65c.06-.06.11-.13.17-.2l.57-.61.18-.18A3.4,3.4,0,0,0,350,265.86Z" transform="translate(-328.94 -187.77)"/><path class="cls-7" d="M359.54,261.6c-.56.07-1.11.16-1.65.28l-.58.14-.56.16h0l-.49.15-.09,0-.47.17-.12,0-.39.16-.19.08-.37.17-.12,0-.47.23,0,0-.42.23-.19.11-.33.19-.5.31a5,5,0,0,0-.47.33c-.14.12-.33.25-.52.39s-.33.27-.49.41l-.16-.2-.05.05-.08.06.06-.06.06-.05c.23-.18.46-.36.7-.53l.17-.12A16.6,16.6,0,0,1,359.54,261.6Z" transform="translate(-328.94 -187.77)"/><path class="cls-7" d="M402.27,308.57c-.52,5-2.46,9.25-5.88,12.17C399.55,318,401.51,313.68,402.27,308.57Z" transform="translate(-328.94 -187.77)"/><path class="cls-7" d="M350,265.86l.1-.09-.12.12Z" transform="translate(-328.94 -187.77)"/><path class="cls-7" d="M350.36,265.54l0,0-.23.21.07-.07.08-.07Z" transform="translate(-328.94 -187.77)"/><path class="cls-7" d="M350.66,265.27l-.17.14.09-.07,0,0Z" transform="translate(-328.94 -187.77)"/><path class="cls-2" d="M479,299.75c-1.87,10-5.53,19.94-10.6,26.82-12.47,16.88-28.78,8.76-38.79-.05-4.67-4.12-6.72-10.87-6.31-18.6a1,1,0,0,1,0-.25c0,.31,0,.61.08.91.74,5,2.61,9.17,5.61,11.9a7.75,7.75,0,0,0,.62.52l.29.23a.24.24,0,0,0,.08.06l0,0,.05,0,0,0,.09.08h0a.41.41,0,0,0,.11.07c10.18,7.54,29.07,7.05,41.27-8.06A44.87,44.87,0,0,0,479,299.75Z" transform="translate(-328.94 -187.77)"/><path class="cls-6" d="M474.08,264.56c-10.12-7.32-27.84-1.26-40,13.88-7.68,9.49-11.39,20.4-10.77,29.23a6.84,6.84,0,0,0,.08.91c0-.22-.07-.44-.1-.66-1.34-10.4,2.1-23.86,10.21-33.91C445.66,258.87,463.92,257.07,474.08,264.56Z" transform="translate(-328.94 -187.77)"/><path class="cls-7" d="M480.63,275.47h0v0a19.37,19.37,0,0,0-5.36-9.91l-.23-.2,0,0-.26-.21,0,0-.57-.45-.07,0c-10.12-7.33-27.83-1.27-40,13.88-7.68,9.47-11.39,20.38-10.77,29.21a6.84,6.84,0,0,0,.08.91c.74,5,2.61,9.17,5.61,11.9a7.75,7.75,0,0,0,.62.52l.29.23a.24.24,0,0,0,.08.06l0,0,0,0,0,0,.09.08h0a.41.41,0,0,0,.11.07c10.18,7.54,29.07,7.05,41.27-8.06A44.62,44.62,0,0,0,479,299.73C481.82,291.36,482.34,282.47,480.63,275.47Z" transform="translate(-328.94 -187.77)"/><path class="cls-7" d="M429,320.49a18.22,18.22,0,0,1-5.62-11.9C424.11,313.54,426,317.75,429,320.49Z" transform="translate(-328.94 -187.77)"/><path class="cls-8" d="M457.92,212.16l47.29-.25a8.57,8.57,0,0,1,8.62,8.52h0a8.58,8.58,0,0,1-8.53,8.62L458,229.3a8.58,8.58,0,0,1-8.62-8.53h0A8.56,8.56,0,0,1,457.92,212.16Z" transform="translate(-328.94 -187.77)"/><path class="cls-8" d="M481.81,252.82a8.59,8.59,0,0,1-8.64-8.51v0L472.93,197a8.57,8.57,0,0,1,8.51-8.62h0a8.59,8.59,0,0,1,8.62,8.53l.24,47.29a8.57,8.57,0,0,1-8.5,8.63" transform="translate(-328.94 -187.77)"/><path class="cls-9" d="M423.19,339.89a12,12,0,0,1-22.92.22c-1-3.05-5.82-1.74-4.82,1.33a17,17,0,0,0,32.56-.22c.95-3.08-3.87-4.4-4.82-1.33Z" transform="translate(-328.94 -187.77)"/></svg>