<svg id="Livello_1" data-name="Livello 1" xmlns="http://www.w3.org/2000/svg" viewBox="0 0 432.1 649.38"><defs><style>.cls-1{fill:#eee648;}.cls-2{fill:#f7f2b0;}.cls-3{fill:#f4e76a;}.cls-4{fill:#1d1d1b;}.cls-5{fill:#fff;}.cls-6{fill:#ee9c8b;}</style></defs><title>halfmoon</title><path class="cls-1" d="M514.28,727.17a323.84,323.84,0,0,1-100.9,18.13c-152-27-267.45-159.85-267.45-319.64,0-177.19,141.93-321.23,318.27-324.63a323.43,323.43,0,0,1,50.08,13.14C387.75,158.51,297,279,297,420.68S387.75,682.83,514.28,727.17Z" transform="translate(-82.18 -95.98)"/><path class="cls-2" d="M514.28,727.17a323.84,323.84,0,0,1-100.9,18.13c-2.16.05-4.34.06-6.51.06-179.61,0-325.15-145.83-324.69-325.54C82.65,241.69,228.22,96.26,406.34,96a327.17,327.17,0,0,1,57.86,5,323.43,323.43,0,0,1,50.08,13.14C387.75,158.51,297,279,297,420.68S387.75,682.83,514.28,727.17Z" transform="translate(-82.18 -95.98)"/><path class="cls-3" d="M514.28,727.17a323.84,323.84,0,0,1-100.9,18.13h0c-152-27-267.45-159.84-267.45-319.63,0-177.19,141.92-321.22,318.27-324.63h0a323.43,323.43,0,0,1,50.08,13.14C387.75,158.51,297,279,297,420.68s90.75,262.15,217.28,306.49Z" transform="translate(-82.18 -95.98)"/><circle class="cls-2" cx="187.58" cy="420.16" r="21.32"/><circle class="cls-2" cx="216.05" cy="124.54" r="13.93"/><circle class="cls-2" cx="247.92" cy="88.29" r="36.25"/><circle class="cls-2" cx="284.17" cy="590.81" r="21.32"/><circle class="cls-2" cx="166.26" cy="398.84" r="21.32"/><path class="cls-4" d="M327.1,234.38a33.24,33.24,0,1,1-33.18-33.18A33.24,33.24,0,0,1,327.1,234.38Z" transform="translate(-82.18 -95.98)"/><circle class="cls-5" cx="190.76" cy="138.45" r="11.81"/><path class="cls-6" d="M276.35,313.89a15.73,15.73,0,1,1-15.7-15.71A15.72,15.72,0,0,1,276.35,313.89Z" transform="translate(-82.18 -95.98)"/><path class="cls-4" d="M292.45,416.58a81.52,81.52,0,0,1-9.88-.62c-1-.12.83.13-.15,0l-1.1-.17c-.85-.13-1.7-.29-2.55-.45-1.55-.31-3.09-.66-4.62-1.06a71.65,71.65,0,0,1-8.78-2.91l-.49-.2.39.16a8,8,0,0,0-.95-.41c-.74-.33-1.47-.67-2.2-1-1.28-.63-2.54-1.29-3.77-2s-2.51-1.49-3.73-2.3c-.6-.4-1.19-.8-1.78-1.22l-.8-.59c-.17-.13-1.1-.89-.54-.4s-.4-.33-.52-.43-.51-.41-.76-.62c-.54-.45-1.07-.91-1.59-1.39-1-.93-2-1.9-3-2.9s-1.86-2-2.73-3.09l-.59-.73c-.34-.42.31.39.3.39a2.82,2.82,0,0,0-.37-.5c-.41-.54-.8-1.09-1.18-1.65a46.85,46.85,0,0,1-3.95-7,6.22,6.22,0,0,0-.44-1s.4,1,.21.49c-.08-.19-.16-.38-.23-.57-.28-.71-.55-1.42-.79-2.15q-.71-2.1-1.2-4.26-.22-1-.42-2.1c-.07-.41-.12-.82-.19-1.22-.09-.55.08.6.08.57a3.29,3.29,0,0,0-.08-.62,42.66,42.66,0,0,1-.25-4.66,5,5,0,0,0-10,0c0,12.37,5,24,13,33.23,8.4,9.66,20,16.36,32.21,20a82.68,82.68,0,0,0,23.39,3.36,5,5,0,0,0,0-10Z" transform="translate(-82.18 -95.98)"/></svg>