<svg id="Livello_1" data-name="Livello 1" xmlns="http://www.w3.org/2000/svg" xmlns:xlink="http://www.w3.org/1999/xlink" viewBox="0 0 199.24 157.31">
  <defs>
    <style>
      .cls-1 {
        fill: #efac29;
      }

      .cls-2 {
        fill: #fbbe14;
      }

      .cls-3 {
        fill: #fcc01a;
      }

      .cls-4 {
        fill: #efad2b;
      }

      .cls-5 {
        fill: url(#Sfumatura_senza_nome);
      }

      .cls-6 {
        fill: #ee7652;
      }

      .cls-7 {
        fill: #010202;
      }

      .cls-8 {
        fill: #f4e769;
      }

      .cls-9 {
        fill: #f7f2b0;
      }

      .cls-10 {
        fill: #f5cd4b;
      }

      .cls-11 {
        fill: #fff;
        opacity: 0.29;
        isolation: isolate;
      }
    </style>
    <linearGradient id="Sfumatura_senza_nome" data-name="Sfumatura senza nome" x1="299.7" y1="-965.62" x2="299.7" y2="-857.78" gradientTransform="matrix(1, 0, 0, -1, -158.98, -832.99)" gradientUnits="userSpaceOnUse">
      <stop offset="0" stop-color="#eb5b59"/>
      <stop offset="0.42" stop-color="#ea5c59"/>
      <stop offset="0.58" stop-color="#eb6459"/>
      <stop offset="0.69" stop-color="#ee6f5d"/>
      <stop offset="0.77" stop-color="#f07f5e"/>
      <stop offset="0.85" stop-color="#f39661"/>
      <stop offset="0.92" stop-color="#f8b265"/>
      <stop offset="0.97" stop-color="#fcd169"/>
      <stop offset="1" stop-color="#ffdf6a"/>
    </linearGradient>
  </defs>
  <title>morningnigsdhtenum</title>
  <g>
    <circle class="cls-1" cx="78.91" cy="65.81" r="3.06"/>
    <circle class="cls-1" cx="76.19" cy="93.69" r="2.05"/>
    <circle class="cls-1" cx="54.22" cy="79.23" r="1.53"/>
    <circle class="cls-1" cx="101.25" cy="73.75" r="3.06"/>
    <circle class="cls-1" cx="60.95" cy="48.29" r="5.31"/>
    <circle class="cls-1" cx="60.95" cy="54.53" r="2.05"/>
    <circle class="cls-1" cx="43.54" cy="64.96" r="2.05"/>
    <circle class="cls-1" cx="56.85" cy="78.71" r="2.05"/>
    <path class="cls-2" d="M67.39,1C63,8.84,64.31,18.58,59.24,26.19c-.51.77.16,1.72,1.25,1.77l14.25.58c1,0,1.72-.7,1.47-1.47C73.28,17.82,69.76,9,70.2,1.35A1,1,0,0,0,70,.64,1.6,1.6,0,0,0,67.39,1Z" transform="translate(-0.67 -0.15)"/>
    <circle class="cls-1" cx="88.77" cy="43.63" r="3.06"/>
    <path class="cls-1" d="M68.48,133c4.36-7.84,3.08-17.59,8.14-25.2.51-.77-.16-1.72-1.25-1.76l-14.25-.58c-1,0-1.71.69-1.47,1.46,2.93,9.25,6.45,18.09,6,25.72a1,1,0,0,0,.24.72A1.61,1.61,0,0,0,68.48,133Z" transform="translate(-0.67 -0.15)"/>
    <path class="cls-1" d="M1.51,67.38c7.85,4.36,17.59,3.08,25.21,8.14.77.51,1.72-.16,1.76-1.24L29.06,60c0-1-.69-1.71-1.47-1.46C18.35,61.49,9.5,65,1.87,64.57a1,1,0,0,0-.71.24A1.61,1.61,0,0,0,1.51,67.38Z" transform="translate(-0.67 -0.15)"/>
    <path class="cls-2" d="M133.48,66.73c-7.85-4.36-17.59-3.08-25.2-8.14-.77-.51-1.72.16-1.77,1.24l-.58,14.25c0,1,.7,1.72,1.47,1.47,9.25-2.93,18.09-6.45,25.72-6a1,1,0,0,0,.71-.24A1.6,1.6,0,0,0,133.48,66.73Z" transform="translate(-0.67 -0.15)"/>
    <path class="cls-2" d="M116.15,21.62c-8.63,2.46-14.61,10.26-23.58,12.06-.9.18-1.1,1.33-.36,2.13l9.66,10.49a1.26,1.26,0,0,0,2.08,0c4.47-8.61,8.23-17.35,13.94-22.44a1,1,0,0,0,.33-.67C118.28,22.2,117.11,21.16,116.15,21.62Z" transform="translate(-0.67 -0.15)"/>
    <path class="cls-1" d="M20.2,112.4c8.63-2.47,14.61-10.27,23.58-12.07.9-.18,1.1-1.33.36-2.13L34.48,87.72c-.67-.73-1.71-.73-2.08,0-4.47,8.62-8.23,17.36-13.94,22.44a1,1,0,0,0-.33.68C18.07,111.81,19.24,112.86,20.2,112.4Z" transform="translate(-0.67 -0.15)"/>
    <path class="cls-2" d="M114.48,114.52C112,105.89,104.22,99.91,102.42,91c-.18-.91-1.33-1.11-2.13-.37L89.8,100.25a1.26,1.26,0,0,0,0,2.07c8.61,4.47,17.35,8.23,22.44,13.94a.92.92,0,0,0,.67.33C113.9,116.65,114.94,115.48,114.48,114.52Z" transform="translate(-0.67 -0.15)"/>
    <path class="cls-1" d="M21,19.38C23.51,28,31.3,34,33.11,43c.18.91,1.32,1.1,2.12.37l10.49-9.67a1.27,1.27,0,0,0,0-2.08c-8.61-4.46-17.35-8.23-22.43-13.93a1,1,0,0,0-.68-.34C21.63,17.26,20.58,18.42,21,19.38Z" transform="translate(-0.67 -0.15)"/>
    <path class="cls-2" d="M89.39,15.35c-6,3.28-7.25,10-13.91,12.89-.67.29-.27,1.16.74,1.63L89.53,36c.91.41,1.79.24,1.75-.35-.49-7.11-1.63-14.18.67-18.9a.55.55,0,0,0,0-.55C91.47,15.42,90,14.84,89.39,15.35Z" transform="translate(-0.67 -0.15)"/>
    <path class="cls-2" d="M118.35,48.7c-6.24-2.91-12.38.14-18.64-3.51-.63-.37-1.1.47-.87,1.56l3,14.32c.21,1,.87,1.58,1.32,1.19,5.43-4.61,10.44-9.74,15.59-10.69a.57.57,0,0,0,.42-.37C119.53,50.41,119.1,48.86,118.35,48.7Z" transform="translate(-0.67 -0.15)"/>
    <path class="cls-2" d="M119.14,88.69c-3-6.19-9.72-7.67-12.29-14.44-.26-.68-1.15-.32-1.66.67L98.56,88c-.46.9-.32,1.78.27,1.77,7.12-.19,14.24-1,18.85,1.47a.56.56,0,0,0,.56,0C119,90.76,119.62,89.29,119.14,88.69Z" transform="translate(-0.67 -0.15)"/>
    <path class="cls-1" d="M87.5,121.05c2.63-6.37-.71-12.37,2.66-18.78.34-.65-.52-1.08-1.6-.8L74.4,105.15c-1,.25-1.54.94-1.14,1.38,4.86,5.2,10.21,10,11.4,15.08a.56.56,0,0,0,.39.4C85.85,122.3,87.37,121.8,87.5,121.05Z" transform="translate(-0.67 -0.15)"/>
    <path class="cls-1" d="M45.06,120.25c6.39-3.11,7.48-9.92,14.53-12.56.71-.27.26-1.18-.84-1.69L44.34,99.34c-1-.46-1.92-.31-1.86.29.71,7.23,2.13,14.45-.2,19.15a.54.54,0,0,0,.07.56C42.83,120.1,44.45,120.74,45.06,120.25Z" transform="translate(-0.67 -0.15)"/>
    <path class="cls-1" d="M13.9,90.71c6.71,1.55,12.07-2.73,19-.46.7.23,1-.69.53-1.71l-6-13.36c-.41-.92-1.18-1.37-1.54-.9C21.54,79.93,17.71,86,12.87,88a.56.56,0,0,0-.33.45C12.38,89.29,13.13,90.71,13.9,90.71Z" transform="translate(-0.67 -0.15)"/>
    <path class="cls-1" d="M12.8,46.47c3.63,5.85,10.44,6.66,13.67,13.14.33.66,1.18.21,1.59-.83l5.3-13.63c.37-.94.14-1.8-.45-1.73-7.06.89-14.06,2.44-18.9.41a.57.57,0,0,0-.55.08C12.76,44.39,12.27,45.92,12.8,46.47Z" transform="translate(-0.67 -0.15)"/>
    <path class="cls-2" d="M46.07,13.73C44,20.3,47.86,26,45.08,32.67c-.28.67.61,1,1.66.65l13.78-4.91c.95-.34,1.45-1.07,1-1.47-5.29-4.76-11-9-12.68-14a.57.57,0,0,0-.42-.37C47.61,12.33,46.13,13,46.07,13.73Z" transform="translate(-0.67 -0.15)"/>
    <path class="cls-1" d="M48.41,13.73c-2,6.57,1.8,12.25-1,18.94a.52.52,0,0,0,0,.42l-.66.23c-1.05.37-2,0-1.66-.65C47.86,26,44,20.3,46.07,13.73c.06-.77,1.54-1.4,2.36-1.18a.57.57,0,0,1,.42.37.42.42,0,0,0,0,.1A1.06,1.06,0,0,0,48.41,13.73Z" transform="translate(-0.67 -0.15)"/>
    <g>
      <path class="cls-1" d="M109.05,67.07a41.44,41.44,0,1,1-41.41-41.4A41.37,41.37,0,0,1,109.05,67.07Z" transform="translate(-0.67 -0.15)"/>
      <path class="cls-2" d="M109.05,67.07a41.37,41.37,0,0,1-16.31,33A41.42,41.42,0,0,1,51.31,29a41.44,41.44,0,0,1,57.74,38.06Z" transform="translate(-0.67 -0.15)"/>
    </g>
    <circle class="cls-1" cx="74.8" cy="65.81" r="3.06"/>
    <circle class="cls-1" cx="72.08" cy="93.69" r="2.05"/>
    <circle class="cls-1" cx="50.11" cy="79.23" r="1.53"/>
    <circle class="cls-1" cx="97.15" cy="73.75" r="3.06"/>
    <circle class="cls-1" cx="56.85" cy="48.29" r="5.31"/>
    <circle class="cls-1" cx="56.85" cy="54.53" r="2.05"/>
    <circle class="cls-1" cx="39.43" cy="64.96" r="2.05"/>
    <circle class="cls-1" cx="52.74" cy="78.71" r="2.05"/>
    <circle class="cls-1" cx="84.66" cy="43.63" r="3.06"/>
    <path class="cls-1" d="M113.07,116.64a.93.93,0,0,1-.66-.32c-.2-.22-.4-.44-.61-.65a28.6,28.6,0,0,0-3.44-3,47.6,47.6,0,0,0-4.07-2.68c-1.48-.88-3-1.7-4.52-2.5s-3.2-1.64-4.8-2.44l-2.46-1.24-1.23-.63a7.85,7.85,0,0,1-1.16-.74l-.06,0a.37.37,0,0,1,0-.11.7.7,0,0,1,.08-.56,2,2,0,0,1,.36-.46c.16-.17.31-.35.48-.5a.91.91,0,0,0,.37.33c8.31,4.3,16.75,7.91,21.66,13.39a.93.93,0,0,0,.65.32,1.47,1.47,0,0,0,.93-.29s0,.08,0,.13C115,115.58,114,116.7,113.07,116.64Z" transform="translate(-0.67 -0.15)"/>
  </g>
  <path class="cls-3" d="M120.69,126.16,112,108.53l-8.13,6.83,15.55,11.8a.84.84,0,0,0,1.16-.21.82.82,0,0,0,.08-.79Z" transform="translate(-0.67 -0.15)"/>
  <circle class="cls-4" cx="81.5" cy="111.17" r="2.69"/>
  <path class="cls-3" d="M134,108,118.77,95.58l-4.58,9.58,19.12,4.3a.84.84,0,0,0,1-.64A.86.86,0,0,0,134,108Z" transform="translate(-0.67 -0.15)"/>
  <path class="cls-3" d="M140.62,74.16l-20.18-2.32,1.39,10.9,19-6.94a.85.85,0,0,0-.21-1.64Z" transform="translate(-0.67 -0.15)"/>
  <path class="cls-3" d="M128.69,32.8,109,41.8,116.29,51l13.5-16.8a.91.91,0,0,0-1.08-1.4Z" transform="translate(-0.67 -0.15)"/>
  <path class="cls-3" d="M140.31,51.7l-21.69,3.46,4.59,10.94L141,53.41a.93.93,0,0,0,.26-1.28.94.94,0,0,0-.94-.39Z" transform="translate(-0.67 -0.15)"/>
  <path class="cls-4" d="M101.48,139.43l-3.18-18.6-10.61,5.08,12.18,14.25a1,1,0,0,0,1.4-.18A.94.94,0,0,0,101.48,139.43Z" transform="translate(-0.67 -0.15)"/>
  <path class="cls-3" d="M140.53,91.48,122.31,84l-1.55,10.53,19.52-1.5a.83.83,0,0,0,.25-1.59Z" transform="translate(-0.67 -0.15)"/>
  <circle class="cls-4" cx="114.28" cy="85.08" r="4"/>
  <circle class="cls-5" cx="140.72" cy="78.71" r="53.92"/>
  <ellipse class="cls-4" cx="72.53" cy="105.67" rx="2.82" ry="2.79"/>
  <path class="cls-4" d="M91.22,144.16a2.82,2.82,0,0,1-4.57,2.17,2.8,2.8,0,0,1-3-4.7,2.75,2.75,0,0,1,1.55-.45,2.81,2.81,0,0,1,1.76.61,2.81,2.81,0,0,1,3.88.92,2.87,2.87,0,0,1,.42,1.45Z" transform="translate(-0.67 -0.15)"/>
  <ellipse class="cls-4" cx="94.97" cy="97.88" rx="2.63" ry="2.6"/>
  <path class="cls-4" d="M99.38,103.3a1.41,1.41,0,1,1-1.17-1.6A1.42,1.42,0,0,1,99.38,103.3Z" transform="translate(-0.67 -0.15)"/>
  <path class="cls-4" d="M101.46,71.09a2.2,2.2,0,0,0-.91,1L88.33,96.6a2.34,2.34,0,0,1-1.75,1.26L59.26,101.8a2.42,2.42,0,0,0-1.31.66,2.3,2.3,0,0,0,0,3.25h0L77.72,124.8a2.26,2.26,0,0,1,.67,2l-4.67,26.94a2.32,2.32,0,0,0,1.86,2.65l-1.44.75a2.37,2.37,0,0,1-3.19-1,2.29,2.29,0,0,1-.23-1.48l4.73-27.3a2.35,2.35,0,0,0-.68-2.07L54.69,106a2.32,2.32,0,0,1,0-3.28l0,0A2.35,2.35,0,0,1,56,102l27.69-4a2.38,2.38,0,0,0,1.78-1.27L97.88,71.89A2.36,2.36,0,0,1,101,70.82,1.94,1.94,0,0,1,101.46,71.09Z" transform="translate(-0.67 -0.15)"/>
  <path class="cls-4" d="M102.69,127.1a2.41,2.41,0,0,1-2.42,2.4h0a2.3,2.3,0,0,1-.86-.16,7.13,7.13,0,0,1-.55,1.15,8.57,8.57,0,0,1-.55.79,7.21,7.21,0,0,1-12.62-2.95H85.2a3.34,3.34,0,1,1-.37-6.67h.37a3.4,3.4,0,0,1,2,.64,7.22,7.22,0,0,1,12.4,2.48,2.58,2.58,0,0,1,.73-.11A2.4,2.4,0,0,1,102.69,127.1Z" transform="translate(-0.67 -0.15)"/>
  <path class="cls-4" d="M117.45,100.51a4.26,4.26,0,0,1-8.35,1.11,2.88,2.88,0,0,1-.59.06,2.79,2.79,0,1,1,2.18-4.52,4.28,4.28,0,0,1,3.68-.66l.14.28a2.39,2.39,0,0,0,1.78,1.28l.38,0A4.21,4.21,0,0,1,117.45,100.51Z" transform="translate(-0.67 -0.15)"/>
  <path class="cls-4" d="M118.05,123.89a3.37,3.37,0,1,1-3.41-3.33h0A3.34,3.34,0,0,1,118.05,123.89Z" transform="translate(-0.67 -0.15)"/>
  <path class="cls-4" d="M125.89,123.92a2.55,2.55,0,0,1-.18,1l-.47.45a2.26,2.26,0,0,0-.53.77,2.59,2.59,0,1,1,.76-3.58A2.53,2.53,0,0,1,125.89,123.92Z" transform="translate(-0.67 -0.15)"/>
  <path class="cls-4" d="M127,141.57a3.33,3.33,0,0,1-6.38-1.32,3.23,3.23,0,0,1,.61-1.9v-.19a1.42,1.42,0,0,1,1.41-1.4,1.36,1.36,0,0,1,.78.24,3.29,3.29,0,0,1,3,1Z" transform="translate(-0.67 -0.15)"/>
  <path class="cls-4" d="M128.9,156.42a2.3,2.3,0,0,1-1.53,1,2.36,2.36,0,0,1-1.5-.23l-24.76-12.93a2.25,2.25,0,0,0-.66-.23l1.1-.57a2.32,2.32,0,0,1,2.17,0l24.44,12.7A2.18,2.18,0,0,0,128.9,156.42Z" transform="translate(-0.67 -0.15)"/>
  <path class="cls-6" d="M88.53,125a3.36,3.36,0,0,1-2.88,3.31h-.49a3.34,3.34,0,0,1-.37-6.67h.37a3.4,3.4,0,0,1,2,.64A3.33,3.33,0,0,1,88.53,125Z" transform="translate(-0.67 -0.15)"/>
  <path class="cls-6" d="M118.05,123.89a3.37,3.37,0,1,1-3.41-3.33h0A3.34,3.34,0,0,1,118.05,123.89Z" transform="translate(-0.67 -0.15)"/>
  <path class="cls-7" d="M98.87,130.49a8.57,8.57,0,0,1-.55.79l-.63-.12a4.36,4.36,0,0,1-3.36-3.9.43.43,0,1,1,.86,0,2.92,2.92,0,0,0,1,2.09A4.6,4.6,0,0,0,98.87,130.49Z" transform="translate(-0.67 -0.15)"/>
  <path class="cls-8" d="M88,144a2.82,2.82,0,1,1-2.85-2.79h0A2.79,2.79,0,0,1,88,144Z" transform="translate(-0.67 -0.15)"/>
  <path class="cls-8" d="M111.32,98.9a2.79,2.79,0,0,1-2.22,2.72,2.88,2.88,0,0,1-.59.06,2.79,2.79,0,1,1,2.18-4.52A2.75,2.75,0,0,1,111.32,98.9Z" transform="translate(-0.67 -0.15)"/>
  <path class="cls-8" d="M99.38,103.3a1.41,1.41,0,1,1-1.17-1.6A1.42,1.42,0,0,1,99.38,103.3Z" transform="translate(-0.67 -0.15)"/>
  <path class="cls-8" d="M124.05,138.16a1.41,1.41,0,0,1-2.8.19v-.19a1.41,1.41,0,0,1,2.82,0Z" transform="translate(-0.67 -0.15)"/>
  <path class="cls-9" d="M144,102l-27.27-3.93a4.23,4.23,0,1,1-7.56,3.55,2.88,2.88,0,0,1-.59.06,2.79,2.79,0,1,1,2.15-4.52,4.28,4.28,0,0,1,3.68-.66L102.13,71.93a2.55,2.55,0,0,0-.66-.8,2.2,2.2,0,0,0-.91,1L88.34,96.64a2.34,2.34,0,0,1-1.75,1.26l-27.32,3.94a2.42,2.42,0,0,0-1.31.66,2.3,2.3,0,0,0,0,3.25h0l19.77,19.08a2.26,2.26,0,0,1,.67,2l-4.67,26.94a2.32,2.32,0,0,0,1.86,2.65l23.32-12.14a2.39,2.39,0,0,1,1.53-.23l1.1-.57a2.32,2.32,0,0,1,2.17,0l24.45,12.67a2.13,2.13,0,0,0,.74.23,2.31,2.31,0,0,0,.4-1.73L127,141.54a3.33,3.33,0,0,1-6.38-1.32,3.23,3.23,0,0,1,.61-1.9v-.19a1.42,1.42,0,0,1,1.41-1.4,1.36,1.36,0,0,1,.78.24,3.29,3.29,0,0,1,3,1l-1.84-10.62a2.37,2.37,0,0,1,.15-1.29,2.59,2.59,0,1,1,.76-3.58,2.58,2.58,0,0,1,.24,2.36L145.31,106a2.38,2.38,0,0,0,.69-1.34,2.34,2.34,0,0,0-2-2.61ZM73.2,108.61A2.79,2.79,0,1,1,76,105.82a2.79,2.79,0,0,1-2.81,2.79Zm26.18-5.31a1.41,1.41,0,1,1-1.17-1.6,1.42,1.42,0,0,1,1.17,1.6Zm-3.69-7.87A2.6,2.6,0,1,1,93.06,98a2.59,2.59,0,0,1,2.63-2.6Zm-7.23,51.5a2.81,2.81,0,0,1-1.76-.61,2.8,2.8,0,0,1-3-4.7,2.75,2.75,0,0,1,1.55-.45,2.81,2.81,0,0,1,1.76.61,2.79,2.79,0,1,1,1.49,5.15ZM92.69,134a7.16,7.16,0,0,1-7-5.66H85.2a3.34,3.34,0,1,1-.37-6.67h.37a3.4,3.4,0,0,1,2,.64,7.22,7.22,0,0,1,12.4,2.48,2.58,2.58,0,0,1,.73-.11,2.4,2.4,0,1,1,0,4.8h0a2.3,2.3,0,0,1-.86-.16,7.13,7.13,0,0,1-.55,1.15,8.57,8.57,0,0,1-.55.79A7.19,7.19,0,0,1,92.69,134Zm22-6.75a3.34,3.34,0,0,1,0-6.68h0a3.34,3.34,0,0,1,0,6.68Z" transform="translate(-0.67 -0.15)"/>
  <ellipse class="cls-10" cx="72.53" cy="105.67" rx="2.82" ry="2.79"/>
  <path class="cls-10" d="M91.22,144.16a2.82,2.82,0,0,1-4.57,2.17,2.8,2.8,0,0,1-3-4.7,2.75,2.75,0,0,1,1.55-.45,2.81,2.81,0,0,1,1.76.61,2.81,2.81,0,0,1,3.88.92,2.87,2.87,0,0,1,.42,1.45Z" transform="translate(-0.67 -0.15)"/>
  <ellipse class="cls-10" cx="94.97" cy="97.88" rx="2.63" ry="2.6"/>
  <path class="cls-10" d="M99.38,103.3a1.41,1.41,0,1,1-1.17-1.6A1.42,1.42,0,0,1,99.38,103.3Z" transform="translate(-0.67 -0.15)"/>
  <path class="cls-10" d="M100.45,144,77.12,156.16a2.35,2.35,0,0,1-1.52.22l23.32-12.14A2.38,2.38,0,0,1,100.45,144Z" transform="translate(-0.67 -0.15)"/>
  <path class="cls-10" d="M102.69,127.1a2.41,2.41,0,0,1-2.42,2.4h0a2.3,2.3,0,0,1-.86-.16,7.13,7.13,0,0,1-.55,1.15,8.57,8.57,0,0,1-.55.79,7.21,7.21,0,0,1-12.62-2.95H85.2a3.34,3.34,0,1,1-.37-6.67h.37a3.4,3.4,0,0,1,2,.64,7.22,7.22,0,0,1,12.4,2.48,2.58,2.58,0,0,1,.73-.11A2.4,2.4,0,0,1,102.69,127.1Z" transform="translate(-0.67 -0.15)"/>
  <path class="cls-10" d="M118.05,123.89a3.37,3.37,0,1,1-3.41-3.33h0A3.34,3.34,0,0,1,118.05,123.89Z" transform="translate(-0.67 -0.15)"/>
  <path class="cls-10" d="M148,104.38a2.33,2.33,0,0,1-.67,1.32l-19.78,19.08a2.26,2.26,0,0,0-.67,2l4.67,26.94a2.31,2.31,0,0,1-1.9,2.66h0a2.24,2.24,0,0,1-.73,0,2.31,2.31,0,0,0,.4-1.73L127,141.53a3.33,3.33,0,0,1-6.38-1.32,3.23,3.23,0,0,1,.61-1.9v-.19a1.42,1.42,0,0,1,1.41-1.4,1.36,1.36,0,0,1,.78.24,3.29,3.29,0,0,1,3,1l-1.84-10.62a2.37,2.37,0,0,1,.15-1.29,2.59,2.59,0,1,1,.76-3.58,2.58,2.58,0,0,1,.24,2.36l19.56-18.89a2.38,2.38,0,0,0,.69-1.34,2.34,2.34,0,0,0-2-2.64h0l-27.31-3.89a4.23,4.23,0,1,1-7.56,3.55,2.88,2.88,0,0,1-.59.06,2.79,2.79,0,1,1,2.15-4.52,4.28,4.28,0,0,1,3.68-.66L102.13,71.93a2.55,2.55,0,0,0-.66-.8,2.35,2.35,0,0,1,2.2-.09,2.29,2.29,0,0,1,1,1h0l12.22,24.51a2.34,2.34,0,0,0,1.75,1.26L146,101.76a2.31,2.31,0,0,1,2,2.57Z" transform="translate(-0.67 -0.15)"/>
  <path class="cls-8" d="M91.22,144.16a2.82,2.82,0,0,1-4.57,2.17,2.74,2.74,0,0,1-1.06-2.17,2.82,2.82,0,0,1,5.63,0Z" transform="translate(-0.67 -0.15)"/>
  <path class="cls-8" d="M117.45,100.51a4.26,4.26,0,0,1-8.35,1.11,4.14,4.14,0,0,1-.16-1.11,4.25,4.25,0,0,1,4.25-4.21,4.18,4.18,0,0,1,1.17.16,4.24,4.24,0,0,1,2.3,1.61A4.18,4.18,0,0,1,117.45,100.51Z" transform="translate(-0.67 -0.15)"/>
  <ellipse class="cls-8" cx="94.97" cy="97.88" rx="2.63" ry="2.6"/>
  <path class="cls-8" d="M127.3,140.25a3.2,3.2,0,0,1-.28,1.32,3.33,3.33,0,0,1-6.38-1.32,3.31,3.31,0,0,1,2.78-3.25,3.29,3.29,0,0,1,3,1A3.24,3.24,0,0,1,127.3,140.25Z" transform="translate(-0.67 -0.15)"/>
  <path class="cls-8" d="M99.86,126.88a7,7,0,0,1-1,3.61,8.57,8.57,0,0,1-.55.79,7.21,7.21,0,0,1-12.63-2.95,7.1,7.1,0,0,1,1.5-6,7.22,7.22,0,0,1,12.4,2.48A6.58,6.58,0,0,1,99.86,126.88Z" transform="translate(-0.67 -0.15)"/>
  <path class="cls-8" d="M102.69,127.1a2.41,2.41,0,0,1-2.42,2.4h0a2.3,2.3,0,0,1-.86-.16,2.39,2.39,0,0,1,.13-4.53,2.58,2.58,0,0,1,.73-.11,2.39,2.39,0,0,1,2.42,2.38Z" transform="translate(-0.67 -0.15)"/>
  <path class="cls-8" d="M125.89,123.92a2.55,2.55,0,0,1-.18,1,2.6,2.6,0,1,1-.24-2.36A2.53,2.53,0,0,1,125.89,123.92Z" transform="translate(-0.67 -0.15)"/>
  <ellipse class="cls-8" cx="72.53" cy="105.67" rx="2.82" ry="2.79"/>
  <path class="cls-11" d="M85,50.45c1.11,5.15,8.48,7.57,10.5,8.22a33.8,33.8,0,0,0,6.72,1.11c9.52,1.11,10.57.06,14.94,1.5,4.63,1.5,4.56,3,7.5,3,4-.07,5.35-3,10.11-3.72,2.74-.39,2.87.46,7.83,1.11a48.38,48.38,0,0,0,17.61-1.11c3.59-.85,5.41-1.3,7.5-2.61,3.59-2.28,3.91-4.5,7.11-5.61,2.41-.78,2.87.2,7.11,0,3.06-.13,8.41-.45,9.72-3.39,1-2.28-.59-5.74-3-7.5-2.87-2-5.22-.33-12.72-.39-6.07-.07-10-.07-13.44-2.61s-3.39-5.42-6.33-6c-3.45-.72-5.74,2.67-7.82,1.5-1.83-1.05-.72-3.85-2.29-6.4-2.41-4-10.17-5.41-16.11-3.39-8.28,2.94-9.26,11.68-16.44,11.94-2.35.07-2.28-.85-6.32-1.11a23.63,23.63,0,0,0-12,1.89C90.49,39.17,83.79,44.91,85,50.45Z" transform="translate(-0.67 -0.15)"/>
  <path class="cls-11" d="M117.52,96.51c9.39-3.2,12.59-10,17-8.81a21.17,21.17,0,0,1,4.7,2c1.56.91,1.5,1.24,2.15,1.37,2.54.45,3.52-4.7,8-6.85s9.59.19,10,.39a13.51,13.51,0,0,1,5.48,5.09c1.37,2.35,1.05,3.72,2.55,4.69,1.69,1.11,2.8-.19,5.48.39,3.39.72,3.65,3.07,7.43,4.7,1.31.52,2.94.72,6.27,1,6.45.59,8.61-.2,11.15,1.57.26.19,2.48,1.76,2.15,3.13-.39,1.82-5,1.63-7,2.34-11.81,4.11-41.23,3.79-48.08.4,0,0-2.15,3.65-4.89,5.28-3.39,2-9.07,1.7-12.33-.2a7.59,7.59,0,0,0-3.72-1.37c-1.56-.06-1.89.53-3.13.4-2.21-.2-2.41-2.22-5.08-3.53s-3.92.07-5.29-1.24c-1.69-1.5-1.69-5.15-.19-7.43S113.69,97.81,117.52,96.51Z" transform="translate(-0.67 -0.15)"/>
</svg>
