<svg id="Livello_1" data-name="Livello 1" xmlns="http://www.w3.org/2000/svg" viewBox="0 0 189.13 192.37"><defs><style>.cls-1,.cls-2{fill:#17ad88;}.cls-2{stroke:#1a8164;stroke-miterlimit:10;}.cls-3{fill:#1a8163;}.cls-4{fill:#323c90;}.cls-5{fill:#eb568c;}.cls-6{fill:#99497d;}.cls-7{fill:#139d7f;}.cls-8{fill:#010202;}.cls-9{fill:#1d6d54;}.cls-10{fill:#1e1e1c;}.cls-11{fill:#303030;}</style></defs><title>people_search</title><path class="cls-1" d="M383.39,565.48a.2.2,0,0,0,0-.11c0,.15,0,.29,0,.43-.05.34-.12.68-.19,1a.43.43,0,0,1,0,.05c0,.1,0,.2,0,.31a13.31,13.31,0,0,1,0,2,.13.13,0,0,1,0,.06,11.87,11.87,0,0,1-.22,1.49,12.51,12.51,0,0,0,.29-1.88.06.06,0,0,0,0,0,14.58,14.58,0,0,0,.18-3.07A2.09,2.09,0,0,0,383.39,565.48ZM394.72,583c-.05,3.32-3.66,5.28-6.82,5.28s-6.77-2-6.81-5.28a1.32,1.32,0,0,0-2.63,0c.05,3.67,2.89,6.42,6.23,7.43a10.77,10.77,0,0,0,10.39-2.29,7.32,7.32,0,0,0,2.27-5.14A1.32,1.32,0,0,0,394.72,583Zm4.93-34.21a16.7,16.7,0,0,0-1.48,1.63,22.73,22.73,0,0,0-4.91,16.3c-.2,3.7.79,6.94,3,8.91.49.43,1,.87,1.57,1.27-.54-.41-1.06-.84-1.54-1.27-2.22-1.94-3.2-5.11-3-8.75v-.28a22.67,22.67,0,0,1,4.91-16.18C398.66,549.82,399.15,549.28,399.65,548.77Zm6.36-4.09c.55-.19,1.11-.36,1.66-.49A13,13,0,0,0,406,544.68ZM420,563a40.92,40.92,0,0,1-1.29,5.1,39.88,39.88,0,0,0,1.37-5.29C420,562.82,420,562.89,420,563Z" transform="translate(-285.64 -470)"/><path class="cls-2" d="M388.25,508.94c-22.26,0-40.31,8.36-40.31,32.7,0,21.63,14.25,47.48,33.05,53v3.64l.05,0,.52-.19.56-.19c.32-.1.65-.19,1-.26l.65-.14.65-.11.56-.08.62-.07.62,0,.54,0h1c.61,0,1.21,0,1.77.1h0l.61.07h.06l.3,0c.43.06.83.12,1.21.2l.71.14c.35.07.69.16,1,.25h0c.11,0,.21.07.32.09l.6.19.07,0v-2.1c-.2,0-.4,0-.6,0l-.56.05a4.1,4.1,0,0,1-.61,0h-1.51l-.5,0-.72-.05-.72-.09h-.08l-.43-.06-.3,0-.26-.05-.68-.13-.78-.17h.06c.24,0,.48,0,.73,0s.52,0,.77,0h.52l1,0,.27,0,.15,0c.35,0,.69-.06,1-.1l.64-.08c.62-.08,1.24-.2,1.87-.33.25-.05.5-.11.74-.18h0c9.66-2.4,18.18-10.21,24.3-20.16s9.81-22.07,9.81-33.08C428.56,517.3,410.51,508.94,388.25,508.94Zm-26.82,65.49A30.76,30.76,0,0,1,356.57,563a2.18,2.18,0,0,1-.09-.23,22.5,22.5,0,0,1-1-3.78.07.07,0,0,0,0-.05A22.92,22.92,0,0,1,355,554a17.68,17.68,0,0,1,.46-4.14,9.83,9.83,0,0,1,2.16-4.31c.11-.13.24-.24.36-.37l.05,0,0,0,.1-.1.13-.1.27-.21h0c2.82-2,6.87-1.93,10.91-.11a3.06,3.06,0,0,1,.43.13c-3.91-1.84-7.85-2.11-10.73-.45,5.06-3.12,13.52-2.07,19.24,4.92a22.58,22.58,0,0,1,5,16.3s0,.06,0,.1a1.48,1.48,0,0,0,0-.21,16.61,16.61,0,0,0-1.05-6.79,18.34,18.34,0,0,1,.47,1.91l0,.1a19.85,19.85,0,0,1,.35,5.58c0,.22,0,.44-.06.64.07-.32.14-.66.19-1,0-.14,0-.28,0-.43a.2.2,0,0,1,0,.11,1.85,1.85,0,0,1,0,.23s0,0,0,0a14.58,14.58,0,0,1-.18,3.07.06.06,0,0,1,0,0,12.51,12.51,0,0,1-.29,1.88,11.87,11.87,0,0,0,.22-1.49,9,9,0,0,1-2.83,5.18C375.45,578.63,367.5,582.54,361.43,574.43Zm33.65,13.69a10.77,10.77,0,0,1-10.39,2.29c-3.34-1-6.18-3.76-6.23-7.43a1.32,1.32,0,0,1,2.63,0c0,3.32,3.66,5.28,6.81,5.28s6.77-2,6.82-5.28a1.32,1.32,0,0,1,2.63,0A7.32,7.32,0,0,1,395.08,588.12Zm23.58-20.07c-.18.58-.39,1.14-.61,1.7a24.83,24.83,0,0,1-3.11,5.89h0a13.49,13.49,0,0,1-2.74,2.83c-.36.26-.72.5-1.07.71a7.14,7.14,0,0,1-.73.37,8.46,8.46,0,0,1-1.09.42,9.32,9.32,0,0,1-4.8.16c-.38-.08-.77-.18-1.15-.3a16.58,16.58,0,0,1-3.79-1.78,20.78,20.78,0,0,1-1.72-1.17c-.55-.4-1.08-.84-1.57-1.27-2.24-2-3.23-5.21-3-8.91a22.73,22.73,0,0,1,4.91-16.3,16.7,16.7,0,0,1,1.48-1.63c.16-.18.34-.33.5-.49a16,16,0,0,1,1.27-1.07,17,17,0,0,1,4.59-2.53,13,13,0,0,1,1.66-.49,13.71,13.71,0,0,1,5.61-.19,10.72,10.72,0,0,1,4.43,1.86h0l.27.22.13.1.1.09.05.05,0,0,.08.07.13.13a8.39,8.39,0,0,1,2.27,4.38V551a18.19,18.19,0,0,1,.46,4.15,23.46,23.46,0,0,1-1.27,7.52L420,563c0-.06.05-.13.08-.19A39.88,39.88,0,0,1,418.66,568.05Z" transform="translate(-285.64 -470)"/><path class="cls-1" d="M382.12,598.06c-.38.05-.75.11-1.13.18h0C381.37,598.17,381.74,598.11,382.12,598.06Z" transform="translate(-285.64 -470)"/><path class="cls-1" d="M394.46,598.24Z" transform="translate(-285.64 -470)"/><path class="cls-1" d="M394.46,594.88v1.26a22.77,22.77,0,0,1-7.76-.53c.52,0,1.05,0,1.54,0A25.06,25.06,0,0,0,394.46,594.88Z" transform="translate(-285.64 -470)"/><path class="cls-3" d="M394.46,594.88v1.26h0a22.77,22.77,0,0,1-7.76-.53c.52,0,1.05,0,1.54,0a25.53,25.53,0,0,0,6.22-.77Z" transform="translate(-285.64 -470)"/><path class="cls-4" d="M420.46,613.91H355c0-5.17,10.69-12.24,22.8-15a13.53,13.53,0,0,0,9.94,4.47,14.21,14.21,0,0,0,6.73-1.76A14.93,14.93,0,0,0,398,599C410,601.81,420.46,608.79,420.46,613.91Z" transform="translate(-285.64 -470)"/><path class="cls-5" d="M380.88,598.28l-1.24.23A7.52,7.52,0,0,1,380.88,598.28Z" transform="translate(-285.64 -470)"/><path class="cls-5" d="M382.12,598.06c-.38.05-.75.11-1.13.18h0C381.37,598.17,381.74,598.11,382.12,598.06Z" transform="translate(-285.64 -470)"/><path class="cls-5" d="M394.82,598.28l-.36-.06h0Z" transform="translate(-285.64 -470)"/><path class="cls-5" d="M396.62,598.65l-1.15-.23Z" transform="translate(-285.64 -470)"/><path class="cls-6" d="M398,599a15.18,15.18,0,0,1-3.56,2.76,13.74,13.74,0,0,1-6.73,1.84,13.3,13.3,0,0,1-9.94-4.68l.45-.11.47-.11.93-.19,1.24-.23H381c.06.07,2,2.44,6.74,2.44s6.67-2.37,6.73-2.44h0l.36,0,.65.12,1.15.24.25.05L398,599Z" transform="translate(-285.64 -470)"/><path class="cls-7" d="M394.38,598.22h.08c-.07.08-2,2.45-6.74,2.45s-6.67-2.37-6.73-2.45l1.12-.17-1.12.17c6.48-2.54,13.47,0,13.47,0Z" transform="translate(-285.64 -470)"/><path class="cls-7" d="M382.12,598.06c-.38.05-.75.11-1.13.18h0C381.37,598.17,381.74,598.11,382.12,598.06Z" transform="translate(-285.64 -470)"/><path class="cls-7" d="M394.46,598.24Z" transform="translate(-285.64 -470)"/><path class="cls-1" d="M383.22,568.79a.06.06,0,0,1,0,0,12.51,12.51,0,0,1-.29,1.88,11.87,11.87,0,0,0,.22-1.49.13.13,0,0,0,0-.06,13.31,13.31,0,0,0,0-2,1.18,1.18,0,0,0,0-.2v-.13a.78.78,0,0,0,0-.16h0a.13.13,0,0,1,0-.06.11.11,0,0,0,0,0A18.93,18.93,0,0,1,383.22,568.79Z" transform="translate(-285.64 -470)"/><path class="cls-8" d="M420,562.75a21.35,21.35,0,0,1-3.57,6.6c-5.86,7.26-14.94,7.49-19.83,3.87l-.06,0,0,0h0l0,0-.15-.11-.29-.26A9.45,9.45,0,0,1,393.3,567c0-.14,0-.28,0-.43-.3-4.25,1.49-9.48,5.18-14.05,5.86-7.28,14.37-10.19,19.23-6.67h0l.28.22h0l.13.1h0l.11.1a9.25,9.25,0,0,1,2.57,4.76h0A21.74,21.74,0,0,1,420,562.75Z" transform="translate(-285.64 -470)"/><path class="cls-1" d="M420,562.76a39.88,39.88,0,0,1-1.37,5.29c-.18.58-.39,1.14-.61,1.7a24.83,24.83,0,0,1-3.11,5.89,14.24,14.24,0,0,1-2.73,2.83c-.36.26-.72.5-1.07.71s-.49.26-.73.37a8.46,8.46,0,0,1-1.09.42,9.32,9.32,0,0,1-4.8.16c-.38-.08-.77-.18-1.15-.3a16.58,16.58,0,0,1-3.79-1.78,23.58,23.58,0,0,1-3.29-2.44c-2.24-2-3.23-5.21-3-8.91a22.73,22.73,0,0,1,4.91-16.3,19.2,19.2,0,0,1,2-2.12,16,16,0,0,1,1.27-1.07,17,17,0,0,1,4.59-2.53,13,13,0,0,1,1.66-.49,13.71,13.71,0,0,1,5.61-.19,10.79,10.79,0,0,1,4.4,1.86c-4.86-3.52-13.37-.61-19.23,6.67-3.68,4.56-5.47,9.8-5.17,14.05v.22a.82.82,0,0,0,0,.21,9.5,9.5,0,0,0,2.69,5.72l.07.07.07.07.15.12.14.11,0,0,0,0,.05,0a13.63,13.63,0,0,0,12.3,1.49,16,16,0,0,0,5.37-3.1,18.16,18.16,0,0,0,2.18-2.27c.39-.49.76-1,1.1-1.51h0a21,21,0,0,0,1.41-2.43,19.63,19.63,0,0,0,1-2.42C420,562.89,420,562.82,420,562.76Z" transform="translate(-285.64 -470)"/><path class="cls-7" d="M420,562.76a39.88,39.88,0,0,1-1.37,5.29c-.18.58-.39,1.14-.61,1.7a24.83,24.83,0,0,1-3.11,5.89,14.24,14.24,0,0,1-2.73,2.83c-.36.26-.72.5-1.07.71s-.49.26-.73.37a8.46,8.46,0,0,1-1.09.42,9.32,9.32,0,0,1-4.8.16c-.38-.08-.77-.18-1.15-.3a16.58,16.58,0,0,1-3.79-1.78,23.58,23.58,0,0,1-3.29-2.44c-2.24-2-3.23-5.21-3-8.91a22.73,22.73,0,0,1,4.91-16.3,19.2,19.2,0,0,1,2-2.12,16,16,0,0,1,1.27-1.07,17,17,0,0,1,4.59-2.53,13,13,0,0,1,1.66-.49,13.71,13.71,0,0,1,5.61-.19,10.79,10.79,0,0,1,4.4,1.86c-4.86-3.52-13.37-.61-19.23,6.67-3.68,4.56-5.47,9.8-5.17,14.05v.22a.82.82,0,0,0,0,.21,9.5,9.5,0,0,0,2.69,5.72l.07.07.07.07.15.12.14.11,0,0,0,0,.05,0a13.63,13.63,0,0,0,12.3,1.49,16,16,0,0,0,5.37-3.1,18.16,18.16,0,0,0,2.18-2.27c.39-.49.76-1,1.1-1.51h0a21,21,0,0,0,1.41-2.43,19.63,19.63,0,0,0,1-2.42C420,562.89,420,562.82,420,562.76Z" transform="translate(-285.64 -470)"/><path class="cls-9" d="M383.23,566.67c0,.11,0,.21,0,.32a2.22,2.22,0,0,1,0-.44A.49.49,0,0,0,383.23,566.67Z" transform="translate(-285.64 -470)"/><path class="cls-3" d="M420,562.76a39.88,39.88,0,0,1-1.37,5.29c-.18.58-.39,1.14-.61,1.7a24.83,24.83,0,0,1-3.11,5.89,14.24,14.24,0,0,1-2.73,2.83c-.36.26-.72.5-1.07.71s-.49.26-.73.37a8.46,8.46,0,0,1-1.09.42,9.32,9.32,0,0,1-4.8.16c-.38-.08-.77-.18-1.15-.3a16.58,16.58,0,0,1-3.79-1.78,23.58,23.58,0,0,1-3.29-2.44c-2.24-2-3.23-5.21-3-8.91v-.12a1.37,1.37,0,0,0,0,.28.39.39,0,0,0,0,.15,9.5,9.5,0,0,0,2.69,5.72.27.27,0,0,0,.08.07l.07.07.15.12.14.11,0,0,0,0,.05,0a13.63,13.63,0,0,0,12.3,1.49,16,16,0,0,0,5.37-3.1,19.52,19.52,0,0,0,2.16-2.27c.4-.49.77-1,1.12-1.51h0a21,21,0,0,0,1.41-2.43,19.63,19.63,0,0,0,1-2.42C420,562.89,420,562.82,420,562.76Z" transform="translate(-285.64 -470)"/><path class="cls-9" d="M417.68,545.85c-4.86-3.53-13.37-.61-19.23,6.66-3.68,4.57-5.48,9.8-5.18,14a1.64,1.64,0,0,0,0,.44l-.05-.32a22.75,22.75,0,0,1,4.91-16.3C404,543.11,412.81,542.24,417.68,545.85Z" transform="translate(-285.64 -470)"/><path class="cls-10" d="M397.35,583a7.32,7.32,0,0,1-2.27,5.14,10.77,10.77,0,0,1-10.39,2.29c-3.34-1-6.18-3.76-6.23-7.43a1.32,1.32,0,0,1,2.63,0c0,3.32,3.66,5.28,6.81,5.28s6.77-2,6.82-5.28A1.32,1.32,0,0,1,397.35,583Z" transform="translate(-285.64 -470)"/><path class="cls-8" d="M383.22,566.16a9.46,9.46,0,0,1-2.39,5.13,2.11,2.11,0,0,1-.27.25,2.51,2.51,0,0,1-.31.26l-.13.11,0,0,0,0-.05,0a12,12,0,0,1-1.19.75,11.19,11.19,0,0,1-1.73.76,15.71,15.71,0,0,1-17.13-5.41,21.36,21.36,0,0,1-3.67-6.57,24.47,24.47,0,0,1-.74-2.59.07.07,0,0,0,0-.05A22.92,22.92,0,0,1,355,554a17.68,17.68,0,0,1,.46-4.14,9.83,9.83,0,0,1,2.16-4.31c.11-.13.24-.24.36-.37l.05,0,0,0,.1-.1.13-.1.27-.21h0c2.82-2,6.87-1.93,10.91-.11a25.22,25.22,0,0,1,13.35,15.91l0,.1A19.85,19.85,0,0,1,383.22,566.16Z" transform="translate(-285.64 -470)"/><path class="cls-8" d="M377.07,573.53c-5.13,1.81-12.28.62-17.19-5.39a21.2,21.2,0,0,1-3.61-6.59,21.36,21.36,0,0,0,3.67,6.57A15.71,15.71,0,0,0,377.07,573.53Z" transform="translate(-285.64 -470)"/><path class="cls-8" d="M383.33,565.39a1.57,1.57,0,0,0,0,.43,2.9,2.9,0,0,1-.07.34,19.85,19.85,0,0,0-.35-5.58A15.62,15.62,0,0,1,383.33,565.39Z" transform="translate(-285.64 -470)"/><path class="cls-3" d="M383.15,569.16a.13.13,0,0,1,0,.06,9,9,0,0,1-2.83,5.18c-4.86,4.23-12.81,8.14-18.88,0A30.76,30.76,0,0,1,356.57,563c-.12-.47-.21-1-.3-1.42a21.2,21.2,0,0,0,3.61,6.59c4.91,6,12.06,7.2,17.19,5.39a11.19,11.19,0,0,0,1.73-.76,9.37,9.37,0,0,0,1.25-.78l.05,0,0,0,0,0,.14-.11a3.61,3.61,0,0,0,.3-.25l.27-.26a9.22,9.22,0,0,0,2.26-4.42c0,.1,0,.2,0,.31A13.31,13.31,0,0,1,383.15,569.16Z" transform="translate(-285.64 -470)"/><path class="cls-3" d="M377.07,573.53c-5.13,1.81-12.28.62-17.19-5.39a21.2,21.2,0,0,1-3.61-6.59,21.36,21.36,0,0,0,3.67,6.57A15.71,15.71,0,0,0,377.07,573.53Z" transform="translate(-285.64 -470)"/><path class="cls-3" d="M383.4,565.72a14.58,14.58,0,0,1-.18,3.07.06.06,0,0,1,0,0,1.91,1.91,0,0,1-.06.33,13.31,13.31,0,0,0,0-2c0-.11,0-.21,0-.31a.43.43,0,0,0,0-.05c.07-.32.14-.66.19-1,0-.14,0-.28,0-.43a.2.2,0,0,1,0,.11A2.09,2.09,0,0,1,383.4,565.72Z" transform="translate(-285.64 -470)"/><path class="cls-3" d="M358.59,544.64a6.17,6.17,0,0,1,.6-.39C359,544.38,358.78,544.5,358.59,544.64Z" transform="translate(-285.64 -470)"/><path class="cls-3" d="M383.43,565.47s0,.06,0,.1a1.48,1.48,0,0,0,0-.21,16.61,16.61,0,0,0-1.05-6.79v0a24.8,24.8,0,0,0-4.19-7.25,24.29,24.29,0,0,0-8.24-6.59h0c-3.91-1.84-7.85-2.11-10.73-.45,5.06-3.12,13.52-2.07,19.24,4.92A22.58,22.58,0,0,1,383.43,565.47Z" transform="translate(-285.64 -470)"/><path class="cls-1" d="M326.46,557.16a.29.29,0,0,0,0-.13,4,4,0,0,1,0,.5c-.06.41-.14.81-.22,1.19,0,0,0,0,0,.06l0,.36a20.36,20.36,0,0,1,0,2.35.15.15,0,0,1,0,.07,14.06,14.06,0,0,1-.26,1.76,13,13,0,0,0,.34-2.22.06.06,0,0,0,0,0,17,17,0,0,0,.21-3.61C326.47,557.36,326.47,557.26,326.46,557.16Zm13.35,20.61c-.06,3.91-4.32,6.22-8,6.22s-8-2.31-8-6.22c0-2-3.13-2-3.1,0,.06,4.33,3.41,7.56,7.35,8.76a12.68,12.68,0,0,0,12.23-2.71,8.61,8.61,0,0,0,2.68-6.05A1.55,1.55,0,0,0,339.81,577.77Zm5.8-40.3a20.19,20.19,0,0,0-1.74,1.92,26.73,26.73,0,0,0-5.78,19.2c-.24,4.36.93,8.18,3.57,10.5.58.51,1.2,1,1.84,1.5-.63-.49-1.24-1-1.81-1.5-2.61-2.28-3.77-6-3.58-10.3a.22.22,0,0,1,0-.08,2.35,2.35,0,0,1,0-.26,26.76,26.76,0,0,1,5.78-19.06C344.44,538.71,345,538.07,345.61,537.47Zm7.5-4.81a18,18,0,0,1,1.95-.58A14.41,14.41,0,0,0,353.11,532.66Zm16.42,21.52a48,48,0,0,1-1.52,6,47.2,47.2,0,0,0,1.61-6.24A1.57,1.57,0,0,1,369.53,554.18Z" transform="translate(-285.64 -470)"/><path class="cls-2" d="M309,532l.84.34h0Zm.84.34s0,0,0,.07.21.09.32.13a3.17,3.17,0,0,1,.5.15C310.33,532.55,310.06,532.44,309.8,532.33ZM375.48,510c-7.25-13.72-23-19.14-41.53-19.45a96,96,0,0,0-22.77,37.22c-.36,1-.68,2.06-1,3.09.13,0,.25.07.39.13s.44.14.68.22c.4.14.81.29,1.21.47a18.22,18.22,0,0,1,2.12,1.06,22.28,22.28,0,0,1,6,5.18c4.64,5.7,6.65,13.31,5.88,19.21a.22.22,0,0,0,0,.11V557a19.45,19.45,0,0,0-1.22-8c.22.74.4,1.49.55,2.23a.28.28,0,0,0,0,.13,23.58,23.58,0,0,1,.41,6.57c0,.26,0,.51-.07.76,0-.1,0-.19.07-.3.05-.29.11-.58.15-.89a4.1,4.1,0,0,0,.06-.49v.41a16.27,16.27,0,0,1-.21,3.6v.05a15.59,15.59,0,0,1-.35,2.22,14.07,14.07,0,0,0,.25-1.76,10.58,10.58,0,0,1-3.33,6.11c-4,3.51-9.84,6.82-15.43,5.15a94.57,94.57,0,0,0,2.39,11.09,39.5,39.5,0,0,0,13.85,7.55v4.28h0l0,0h0l.31-.11.67-.25a10.53,10.53,0,0,1,1.41-.38l.76-.17.76-.12.68-.09c.23,0,.48-.07.73-.09a1.5,1.5,0,0,1,.36,0l.36,0,.63,0h1.15c.72,0,1.42.07,2.08.12h0l.72.07h.07l.36.06c.5.06,1,.15,1.41.23l.84.17,1.22.29a3,3,0,0,1,.4.11l.71.23h.05l0,0v-2.47l-1.39.11a3.94,3.94,0,0,1-.69,0h-1.26a7.31,7.31,0,0,1-.81,0l-.51,0a5.66,5.66,0,0,1-.72-.07,6.31,6.31,0,0,1-.76-.08h-.1c-.08,0-.16,0-.25,0a1,1,0,0,1-.24,0,2,2,0,0,1-.36,0l-.31-.05-.32-.06-.48-.09-.69-.16-.22-.05c.61,0,1.23.05,1.82.05h.61c.4,0,.79,0,1.16,0H334c.49,0,1-.08,1.47-.14h0l.36,0a3.31,3.31,0,0,0,.55-.08l.71-.11h0c.33,0,.66-.11,1-.18l.48-.1.87-.21h0c7.68-1.92,14.76-6.73,20.75-13.28.82-.87,1.59-1.77,2.33-2.69.9-1.08,1.76-2.18,2.57-3.33,0,0,0,0,0,0,1-1.42,2-2.9,2.94-4.42a80.71,80.71,0,0,0,8.31-18.51.19.19,0,0,0,0-.1c.19-.59.37-1.21.54-1.82a69.12,69.12,0,0,0,2.68-18.53C379.69,521.45,378.19,515.16,375.48,510Zm-35.25,73.8A12.68,12.68,0,0,1,328,586.53c-3.94-1.2-7.29-4.43-7.35-8.75,0-2,3.05-2,3.1,0,.05,3.9,4.32,6.21,8,6.21s8-2.31,8-6.21a1.56,1.56,0,0,1,3.11,0A8.58,8.58,0,0,1,340.23,583.82ZM371.08,545v.25a.25.25,0,0,1,0,.08,2.3,2.3,0,0,1,0,.37c0,.13,0,.25,0,.37a10.5,10.5,0,0,1-.07,1.11c-.06.73-.15,1.48-.28,2.24a27.57,27.57,0,0,1-1.1,4.43,2.47,2.47,0,0,0-.06.29q0-.1.09-.24a45,45,0,0,1-1.61,6.24c-.22.68-.47,1.36-.71,2a29.56,29.56,0,0,1-3.68,6.94h0c-.1.14-.2.26-.31.39s-.4.48-.59.72l-.32.37s0,0,0,0a5.32,5.32,0,0,1-.75.75c-.4.38-.81.74-1.22,1.06l-.2.14h0c-.35.25-.71.48-1.05.68a5.38,5.38,0,0,1-.86.44,7.89,7.89,0,0,1-.91.37l-.37.13a11.22,11.22,0,0,1-5.66.19c-.46-.1-.9-.22-1.36-.35a19.71,19.71,0,0,1-4.46-2.09c-.7-.43-1.38-.9-2-1.38s-1.28-1-1.86-1.51c-2.63-2.32-3.79-6.13-3.56-10.48v-.21a20.17,20.17,0,0,1-.12-3.59,13,13,0,0,1,.12-1.5c.08-.68.2-1.37.33-2.06,0-.18.06-.35.1-.54a1.29,1.29,0,0,1,.06-.25c0-.09,0-.2.06-.3s.09-.33.13-.51.07-.29.12-.44c.16-.57.33-1.14.53-1.72h0s0-.05,0-.08c.26-.72.53-1.45.85-2.16.07-.13.14-.29.21-.44s.15-.33.23-.49c.17-.35.35-.7.53-1h0a4.63,4.63,0,0,1,.24-.43l.33-.56s0,0,0,0c.13-.21.25-.41.39-.62l.23-.37c.25-.39.53-.78.82-1.15a6.43,6.43,0,0,1,.56-.73h0c.16-.2.32-.39.49-.57a.24.24,0,0,1,.08-.1h0s0,0,0,0a.23.23,0,0,1,.08-.09l.13-.14s0,0,0,0l0,0a.71.71,0,0,0,.15-.15c0-.06.1-.1.14-.15.19-.21.4-.42.59-.61s.4-.39.61-.58.48-.44.73-.65l.75-.61c.23-.18.48-.35.73-.53,0,0,0,0,0,0s0,0,.05,0l0,0a2.68,2.68,0,0,1,.37-.25.28.28,0,0,1,.12-.08l.67-.42.69-.39.33-.19.34-.16.69-.34c.45-.2.89-.36,1.34-.52h.05l.22-.09c.41-.14.84-.26,1.27-.37l.69-.18a.19.19,0,0,1,.08,0c.3-.07.59-.12.88-.16a.3.3,0,0,1,.18,0,15.46,15.46,0,0,1,2.7-.19,1.54,1.54,0,0,1,.48,0l.69,0c.47.06.91.11,1.37.19l.71.16.27.05a2.44,2.44,0,0,1,.44.13c.16,0,.33.09.5.16,0,0,0,0,.06,0a.75.75,0,0,1,.25.09h0a4.55,4.55,0,0,1,.51.21h0a10.67,10.67,0,0,1,1.27.62l.44.26c.24.15.47.31.69.47,0,0,0,0,0,0h0l.32.24.15.14.13.1.05.05,0,0,.1.08.15.15a9.87,9.87,0,0,1,2.68,5.17v.12a20.17,20.17,0,0,1,.5,3.52v0s0,0,0,0C371.07,544.17,371.08,544.6,371.08,545Z" transform="translate(-285.64 -470)"/><path class="cls-1" d="M325,595.54l-1.32.2h0Z" transform="translate(-285.64 -470)"/><path class="cls-1" d="M339.5,595.74Z" transform="translate(-285.64 -470)"/><path class="cls-1" d="M339.5,591.79v1.48a26.29,26.29,0,0,1-9.14-.62c.61.05,1.23.06,1.82.06A29.61,29.61,0,0,0,339.5,591.79Z" transform="translate(-285.64 -470)"/><path class="cls-3" d="M339.5,591.79v1.48h0a26.29,26.29,0,0,1-9.14-.62c.61.05,1.23.06,1.82.06a29.6,29.6,0,0,0,7.32-.91Z" transform="translate(-285.64 -470)"/><path class="cls-5" d="M370.13,614.2H324.27a95.4,95.4,0,0,1-9.43-16.32c1.63-.53,3.31-1,5-1.38l0,0a16,16,0,0,0,11.67,5.24,16.69,16.69,0,0,0,7.94-2.07,17.47,17.47,0,0,0,4.17-3.08l0,0a58.11,58.11,0,0,1,19.18,8.27c4.31,3,7.05,6.24,7.22,9A1,1,0,0,1,370.13,614.2Z" transform="translate(-285.64 -470)"/><path class="cls-5" d="M323.5,595.79l-1.46.28A10.44,10.44,0,0,1,323.5,595.79Z" transform="translate(-285.64 -470)"/><path class="cls-5" d="M325,595.54l-1.32.2h0Z" transform="translate(-285.64 -470)"/><path class="cls-5" d="M339.93,595.79l-.43-.06h0Z" transform="translate(-285.64 -470)"/><path class="cls-5" d="M342.05,596.24l-1.36-.28Z" transform="translate(-285.64 -470)"/><path class="cls-6" d="M343.69,596.62a17.65,17.65,0,0,1-4.19,3.25,16.11,16.11,0,0,1-7.93,2.17,15.67,15.67,0,0,1-11.71-5.52l.54-.13.54-.12L322,596l1.46-.27h.14c.06.08,2.4,2.87,7.93,2.87s7.86-2.79,7.93-2.87h0l.43.07.76.14,1.36.28.29.06c.42.09.85.19,1.27.3Z" transform="translate(-285.64 -470)"/><path class="cls-7" d="M339.41,595.73h.09c-.08.09-2.41,2.88-7.94,2.88s-7.86-2.79-7.93-2.88l1.32-.2-1.32.2c7.63-3,15.87,0,15.87,0Z" transform="translate(-285.64 -470)"/><path class="cls-7" d="M325,595.54l-1.32.2h0Z" transform="translate(-285.64 -470)"/><path class="cls-7" d="M339.5,595.74Z" transform="translate(-285.64 -470)"/><path class="cls-1" d="M326.26,561.06a.06.06,0,0,1,0,0,13,13,0,0,1-.34,2.22,14.06,14.06,0,0,0,.26-1.76.15.15,0,0,0,0-.07,20.36,20.36,0,0,0,0-2.35l0-.23a.71.71,0,0,1,0-.14v0a1.11,1.11,0,0,0,0-.19h0a.22.22,0,0,1,0-.08.2.2,0,0,0,0,.07A21,21,0,0,1,326.26,561.06Z" transform="translate(-285.64 -470)"/><path class="cls-8" d="M369.55,554a25.47,25.47,0,0,1-4.2,7.77c-6.91,8.55-17.61,8.82-23.37,4.56l-.06,0-.05,0h0l-.05,0-.17-.12-.35-.3a11.25,11.25,0,0,1-3.17-6.74c0-.17,0-.34,0-.51-.35-5,1.75-11.17,6.09-16.56,6.91-8.56,16.94-12,22.66-7.85h0l.33.26h0l.15.12h0l.13.12a11,11,0,0,1,3,5.6h0A25.74,25.74,0,0,1,369.55,554Z" transform="translate(-285.64 -470)"/><path class="cls-1" d="M369.62,554a47.2,47.2,0,0,1-1.61,6.24c-.22.67-.46,1.34-.72,2a29.38,29.38,0,0,1-3.67,6.94,16.8,16.8,0,0,1-3.21,3.33,13,13,0,0,1-1.26.83c-.29.16-.57.31-.86.44a9.09,9.09,0,0,1-1.28.49,11.11,11.11,0,0,1-5.66.2c-.45-.1-.9-.21-1.35-.35a19.81,19.81,0,0,1-4.47-2.1,28,28,0,0,1-3.87-2.88c-2.64-2.32-3.81-6.14-3.57-10.5a26.73,26.73,0,0,1,5.78-19.2,21.46,21.46,0,0,1,2.34-2.49c.48-.45,1-.88,1.48-1.27a20.13,20.13,0,0,1,5.42-3,14.41,14.41,0,0,1,1.95-.58,16.14,16.14,0,0,1,6.61-.22,12.54,12.54,0,0,1,5.18,2.19c-5.72-4.15-15.75-.72-22.65,7.85-4.33,5.38-6.45,11.55-6.09,16.55a2.35,2.35,0,0,0,0,.26,2.11,2.11,0,0,0,0,.25,11.2,11.2,0,0,0,3.18,6.74l.08.08.09.08a1.14,1.14,0,0,0,.16.15l.17.12.05,0,.06.05.05,0c3.62,2.68,9.16,3.57,14.5,1.75a18.68,18.68,0,0,0,6.32-3.65,19.66,19.66,0,0,0,2.56-2.66,20.49,20.49,0,0,0,1.31-1.79h0a25.08,25.08,0,0,0,2.85-5.71A1.57,1.57,0,0,0,369.62,554Z" transform="translate(-285.64 -470)"/><path class="cls-7" d="M369.62,554a47.2,47.2,0,0,1-1.61,6.24c-.22.67-.46,1.34-.72,2a29.38,29.38,0,0,1-3.67,6.94,16.8,16.8,0,0,1-3.21,3.33,13,13,0,0,1-1.26.83c-.29.16-.57.31-.86.44a9.09,9.09,0,0,1-1.28.49,11.11,11.11,0,0,1-5.66.2c-.45-.1-.9-.21-1.35-.35a19.81,19.81,0,0,1-4.47-2.1,28,28,0,0,1-3.87-2.88c-2.64-2.32-3.81-6.14-3.57-10.5a26.73,26.73,0,0,1,5.78-19.2,21.46,21.46,0,0,1,2.34-2.49c.48-.45,1-.88,1.48-1.27a20.13,20.13,0,0,1,5.42-3,14.41,14.41,0,0,1,1.95-.58,16.14,16.14,0,0,1,6.61-.22,12.54,12.54,0,0,1,5.18,2.19c-5.72-4.15-15.75-.72-22.65,7.85-4.33,5.38-6.45,11.55-6.09,16.55a2.35,2.35,0,0,0,0,.26,2.11,2.11,0,0,0,0,.25,11.2,11.2,0,0,0,3.18,6.74l.08.08.09.08a1.14,1.14,0,0,0,.16.15l.17.12.05,0,.06.05.05,0c3.62,2.68,9.16,3.57,14.5,1.75a18.68,18.68,0,0,0,6.32-3.65,19.66,19.66,0,0,0,2.56-2.66,20.49,20.49,0,0,0,1.31-1.79h0a25.08,25.08,0,0,0,2.85-5.71A1.57,1.57,0,0,0,369.62,554Z" transform="translate(-285.64 -470)"/><path class="cls-9" d="M326.27,558.56a2.2,2.2,0,0,1,0,.37,2.24,2.24,0,0,1,0-.51A.61.61,0,0,0,326.27,558.56Z" transform="translate(-285.64 -470)"/><path class="cls-3" d="M369.62,554a47.2,47.2,0,0,1-1.61,6.24c-.22.67-.46,1.34-.72,2a29.38,29.38,0,0,1-3.67,6.94,16.8,16.8,0,0,1-3.21,3.33,13,13,0,0,1-1.26.83c-.29.16-.57.31-.86.44a9.09,9.09,0,0,1-1.28.49,11.11,11.11,0,0,1-5.66.2c-.45-.1-.9-.21-1.35-.35a19.81,19.81,0,0,1-4.47-2.1,28,28,0,0,1-3.87-2.88c-2.64-2.32-3.81-6.14-3.57-10.5v-.14a2,2,0,0,0,0,.34.47.47,0,0,0,0,.17,11.13,11.13,0,0,0,3.16,6.74l.1.08.09.08a1.14,1.14,0,0,0,.16.15l.17.12.05,0,.06.05.05,0c3.62,2.68,9.16,3.57,14.5,1.75a18.68,18.68,0,0,0,6.32-3.65,22.32,22.32,0,0,0,2.55-2.66c.47-.58.91-1.18,1.32-1.79h0a25.08,25.08,0,0,0,2.85-5.71A1.57,1.57,0,0,0,369.62,554Z" transform="translate(-285.64 -470)"/><path class="cls-9" d="M366.86,534c-5.73-4.15-15.76-.72-22.66,7.85-4.33,5.38-6.45,11.55-6.1,16.55a2.28,2.28,0,0,0,0,.52l-.05-.38a26.78,26.78,0,0,1,5.78-19.2C350.78,530.81,361.11,529.78,366.86,534Z" transform="translate(-285.64 -470)"/><path class="cls-10" d="M342.91,577.77a8.61,8.61,0,0,1-2.68,6.05A12.68,12.68,0,0,1,328,586.53c-3.94-1.2-7.29-4.43-7.35-8.76,0-2,3.06-2,3.1,0,.05,3.91,4.32,6.22,8,6.22s8-2.31,8-6.22A1.55,1.55,0,0,1,342.91,577.77Z" transform="translate(-285.64 -470)"/><path class="cls-8" d="M326.26,558a11,11,0,0,1-2.82,6,1.57,1.57,0,0,1-.32.31,3.27,3.27,0,0,1-.35.3l-.16.13-.05,0,0,0-.07.06c-.22.16-.44.3-.68.45a5.27,5.27,0,0,1-.72.43,18,18,0,0,1-2,.9l-.63.2c-.28.09-.57.16-.86.24a3.12,3.12,0,0,1-.44.09c-.35.07-.69.14-1.05.18a4.48,4.48,0,0,1-.64.09l-.85.07a18.56,18.56,0,0,1-6.44-.86c-.49-.15-1-.33-1.48-.52q-.33-4-.33-8c0-.44,0-.88,0-1.31v-.4c0-.42,0-.83,0-1.23v-.15c0-.15,0-.29,0-.43a96.37,96.37,0,0,1,3.41-22.22c.11,0,.21.09.32.13a23.76,23.76,0,0,1,2.93,1.56,29.74,29.74,0,0,1,7.19,6.4,28.36,28.36,0,0,1,5.61,10.77.28.28,0,0,0,0,.13A23.58,23.58,0,0,1,326.26,558Z" transform="translate(-285.64 -470)"/><path class="cls-8" d="M314.54,567.52a17.79,17.79,0,0,1-6.47-.82c-.48-.14-1-.32-1.45-.51v-.05c.49.19,1,.37,1.48.52A18.56,18.56,0,0,0,314.54,567.52Z" transform="translate(-285.64 -470)"/><path class="cls-8" d="M326.39,557.05a1.8,1.8,0,0,0-.05.51c0,.14,0,.28-.08.41a23.39,23.39,0,0,0-.42-6.59A18.21,18.21,0,0,1,326.39,557.05Z" transform="translate(-285.64 -470)"/><path class="cls-3" d="M326.18,561.5a.07.07,0,0,1,0,.06,10.58,10.58,0,0,1-3.33,6.11c-4,3.51-9.84,6.82-15.43,5.15-.18-1.2-.35-2.42-.47-3.65-.13-1-.22-2-.31-3,.49.19,1,.37,1.45.51a17.79,17.79,0,0,0,6.47.82l.85-.07a4.48,4.48,0,0,0,.64-.09c.36,0,.7-.11,1.05-.18a3.12,3.12,0,0,0,.44-.09c.29-.08.58-.15.86-.24l.63-.2a18,18,0,0,0,2-.9,5.27,5.27,0,0,0,.72-.43,6,6,0,0,0,.75-.48l.07,0,0-.06.05,0,.17-.13a2.2,2.2,0,0,0,.34-.28c.11-.1.22-.2.32-.31a10.71,10.71,0,0,0,2.67-5.2c0,.12,0,.23,0,.35A15.58,15.58,0,0,1,326.18,561.5Z" transform="translate(-285.64 -470)"/><path class="cls-3" d="M314.54,567.52a17.79,17.79,0,0,1-6.47-.82c-.48-.14-1-.32-1.45-.51v-.05c.49.19,1,.37,1.48.52A18.56,18.56,0,0,0,314.54,567.52Z" transform="translate(-285.64 -470)"/><path class="cls-3" d="M326.47,557.45a17,17,0,0,1-.21,3.61.06.06,0,0,1,0,0c0,.14,0,.26-.07.39a20.36,20.36,0,0,0,0-2.35l0-.36s0,0,0-.06c.08-.38.16-.78.22-1.19a4,4,0,0,0,0-.5.29.29,0,0,1,0,.13C326.47,557.26,326.47,557.36,326.47,557.45Z" transform="translate(-285.64 -470)"/><path class="cls-3" d="M326.51,557.15a.22.22,0,0,0,0,.11V557a19.45,19.45,0,0,0-1.22-8,0,0,0,0,0,0,0,29.08,29.08,0,0,0-4.93-8.55A29.78,29.78,0,0,0,313,534a22.15,22.15,0,0,0-2.37-1.3s0,0,0,0c-.26-.13-.53-.24-.79-.35L309,532l.84.33c.12-.48.26-1,.41-1.44.13,0,.25.07.39.13s.44.14.68.22c.4.14.81.29,1.21.47a18.22,18.22,0,0,1,2.12,1.06,22.28,22.28,0,0,1,6,5.18C325.27,543.64,327.28,551.25,326.51,557.15Z" transform="translate(-285.64 -470)"/><path class="cls-11" d="M367.44,494c23.59.23,46.3,15.17,54.09,37.25,4.36,12.37,5,23.93,1.59,36-3.27,11.69-9.56,21.1-19.24,29.34-8,6.84-20.68,12-31.25,12.78a57.46,57.46,0,0,1-35.33-8.27c-20.12-12.23-31.3-37-26.74-59.88A58.39,58.39,0,0,1,367.44,494c15.44-.15,15.48-24.15,0-24a83,83,0,0,0-77.11,54.53c-11.5,31.29-1.27,68.64,24.44,89.79,26.6,21.89,64.73,25.65,94.53,7.7s44.84-52.86,38.23-86.82c-7.36-37.79-42.11-64.83-80.09-65.2-15.45-.15-15.46,23.85,0,24Z" transform="translate(-285.64 -470)"/><rect class="cls-11" x="401.55" y="619.4" width="81.9" height="21.85" rx="10.92" transform="translate(28.06 919.63) rotate(-135.3)"/></svg>