<svg id="Livello_1" data-name="Livello 1" xmlns="http://www.w3.org/2000/svg" viewBox="0 0 317.69 325.16">
  <defs>
    <style>
      .cls-1 {
        fill: #eb5956;
      }

      .cls-2 {
        fill: #dc3b3c;
      }

      .cls-3 {
        fill: #efefef;
      }

      .cls-4 {
        fill: #c5d9df;
      }

      .cls-5 {
        fill: #303030;
      }
    </style>
  </defs>
  <title>pòace_search_close</title>
  <g>
    <path class="cls-1" d="M352.61,381.76c-.37,22.16-12.09,48.2-26.46,71.92a164.53,164.53,0,0,1-39.62,5.37,167.3,167.3,0,0,1-83.15-20.79c-10-20.21-17.22-41.1-16.92-59.16a83.09,83.09,0,1,1,166.15,2.66Z" transform="translate(-139.5 -212.47)"/>
    <path class="cls-2" d="M352.61,381.76c-.37,22.16-12.09,48.2-26.46,71.92a164.53,164.53,0,0,1-39.62,5.37,166.72,166.72,0,0,1-18.24-.74l.57-36.09,1.34-83.57h0l.67-41.29A83.2,83.2,0,0,1,352.61,381.76Z" transform="translate(-139.5 -212.47)"/>
    <path class="cls-3" d="M272.27,422.14a41.8,41.8,0,1,1,38.87-37.63A41.84,41.84,0,0,1,272.27,422.14Z" transform="translate(-139.5 -212.47)"/>
    <path class="cls-4" d="M270.2,338.63l-1.34,83.59a41.8,41.8,0,1,0,1.34-83.59Z" transform="translate(-139.5 -212.47)"/>
    <rect class="cls-5" x="329.75" y="462.49" width="135.16" height="31.35" rx="15.67" transform="translate(314.99 -353.38) rotate(45)"/>
    <path class="cls-1" d="M311.6,472.4c-15.86,26.18-36.28,48.37-37.66,49.86a5.27,5.27,0,0,1-7.85-.13c-1.5-1.72-25.94-30.05-41.12-60.61a116.84,116.84,0,0,0,45.79,14.15,119.15,119.15,0,0,0,12.87.52A116.32,116.32,0,0,0,311.6,472.4Z" transform="translate(-139.5 -212.47)"/>
    <path class="cls-2" d="M311.6,472.4c-15.86,26.18-36.28,48.37-37.66,49.86A5.27,5.27,0,0,1,270,524l.77-48.28a119.15,119.15,0,0,0,12.87.52A116.32,116.32,0,0,0,311.6,472.4Z" transform="translate(-139.5 -212.47)"/>
    <rect class="cls-5" x="332.81" y="464.78" width="139.16" height="36.88" rx="18.44" transform="translate(209.05 897.26) rotate(-135.3)"/>
    <path class="cls-5" d="M140,259.65s0,0,0,0a18.5,18.5,0,0,1,5.34-11.94L174.72,218a18.58,18.58,0,0,1,26.41,26.13L185.37,260a2,2,0,0,0,0,2.79l15.76,15.59A18.58,18.58,0,0,1,175,304.83l-29.68-29.38A18.53,18.53,0,0,1,140,259.65Z" transform="translate(-139.5 -212.47)"/>
    <polygon class="cls-2" points="131.17 271.47 129.7 271.47 129.7 311.4 130.49 311.48 131.17 271.47"/>
    <polygon class="cls-2" points="131.37 84.88 129.7 84.88 129.7 126.14 130.98 126.16 131.37 84.88"/>
    <polygon class="cls-4" points="130.7 126.16 129.7 126.14 129.58 196.19 130.7 126.16"/>
    <polygon class="cls-3" points="129.36 209.75 129.7 209.76 129.58 180.5 129.36 209.75"/>
    <polygon class="cls-1" points="129.7 209.76 129.36 209.75 128.79 235.81 129.7 235.81 129.7 209.76"/>
    <path class="cls-5" d="M139.5,348.34c.23,40.12,18.2,79.53,49.6,104.83,33,26.55,76,37,117.38,27.38,38.5-8.9,72.83-36,90.27-71.5a137.7,137.7,0,0,0,.13-121.38c-20.68-42.4-62.92-69.44-109.16-74.54-9.4-1-18.41,9-18,18,.47,10.64,7.93,16.89,18,18,.22,0,4.71.73,1.75.2s1.51.28,1.72.32q2.7.48,5.4,1.08a117.46,117.46,0,0,1,13.08,3.76c.84.3,1.69.61,2.53.93.18.06,4.33,1.65,1.61.59s1.35.62,1.54.7c.81.37,1.62.76,2.43,1.15a117.26,117.26,0,0,1,11.64,6.51c1.68,1.07,3.34,2.18,5,3.34.91.64,1.79,1.3,2.68,2-.44-.32-3-2.43-.5-.36,3.4,2.82,6.71,5.73,9.83,8.88,2.8,2.83,5.38,5.84,7.95,8.88.58.69,1.93,2.72-.37-.5.52.72,1.06,1.42,1.58,2.13,1.42,2,2.78,4,4.08,6.07a116.77,116.77,0,0,1,5.86,10.48c.9,1.8,1.72,3.64,2.54,5.47-1.9-4.22.68,1.93,1.14,3.23a119.65,119.65,0,0,1,3.46,11.74c.53,2.23,1,4.48,1.39,6.73.17.91.31,1.82.46,2.74.75,4.65-.35-4,.06.73.19,2.14,1.41,26.67-.2,26.66-.08,0,.6-3.61.07-.69-.2,1.13-.37,2.26-.58,3.38q-.57,3-1.29,6a118.44,118.44,0,0,1-3.94,12.9c-.57,1.52-2.33,5.54-.69,1.91-.92,2-1.83,4-2.84,6A116.13,116.13,0,0,1,358.79,403q-1.62,2.5-3.36,4.92c-.51.71-1.05,1.41-1.57,2.12,2.48-3.35.64-.81,0,0-2.73,3.19-5.46,6.32-8.44,9.27s-6.31,5.49-9.36,8.34c-2,1.84,3.49-2.48,0,0-.72.51-1.42,1-2.14,1.55q-2.7,1.9-5.52,3.66a118.12,118.12,0,0,1-10.44,5.81c-.9.44-7.56,3.28-3,1.47-2.08.82-4.16,1.63-6.28,2.36a115.65,115.65,0,0,1-11.7,3.35q-3,.69-6,1.22a24.67,24.67,0,0,1-3.39.55c3-.09,1.41-.18-.7,0a129.37,129.37,0,0,1-25.73-.3c-2.85-.29,4.45.82,0,0-.89-.17-1.78-.3-2.68-.47q-3.31-.61-6.6-1.42a119.84,119.84,0,0,1-12.15-3.71c-1.22-.44-7-2-2.46-.9a29,29,0,0,1-5.38-2.52A115.71,115.71,0,0,1,221,432.13c-2-1.29-4-2.69-5.94-4.06-.88-.62-3.28-2.6,0,.05-1-.82-2-1.63-3-2.48a116,116,0,0,1-9.47-8.95c-1.65-1.73-3.24-3.52-4.78-5.35-.7-.83-1.37-1.68-2.06-2.52,1.84,2.24.85,1.12-.34-.52a117.74,117.74,0,0,1-7.08-11q-2-3.44-3.66-7c-.38-.8-.74-1.6-1.12-2.39-1.94-4.06,1.36,3.63-.26-.57a129.09,129.09,0,0,1-4.41-13.28c-.64-2.39-1.21-4.8-1.69-7.22-.31-1.55-.19-5.48-1.15-6.71,1.05,1.34.32,3,.14.7-.1-1.38-.26-2.75-.36-4.12-.19-2.79-.27-5.58-.29-8.37-.05-9.42-8.24-18.44-18-18s-18.06,7.91-18,18Z" transform="translate(-139.5 -212.47)"/>
  </g>
</svg>
