<svg id="Livello_1" data-name="Livello 1" xmlns="http://www.w3.org/2000/svg" viewBox="0 0 317.7 324.58">
  <defs>
    <style>
      .cls-1 {
        fill: #303030;
      }

      .cls-2 {
        fill: #eb5956;
      }

      .cls-3 {
        fill: #dc3b3c;
      }

      .cls-4 {
        fill: #efefef;
      }

      .cls-5 {
        fill: #c5d9df;
      }
    </style>
  </defs>
  <title>place_search_open</title>
  <path class="cls-1" d="M373.39,309.66c1.24,10.84-29.1,34-34.72,41.67-17.17,17.18-43.42-8.78-26.41-26.13L328,309.28a2,2,0,0,0,0-2.8l-15.75-15.59c-11.94-11-2.88-32.35,13.06-31.78,11.78-2,34.62,28.82,42.75,34.75A18.53,18.53,0,0,1,373.39,309.66Z" transform="translate(-101.33 -258.29)"/>
  <g>
    <path class="cls-2" d="M314.45,427c-.36,22.17-12.08,48.2-26.45,71.92a164.61,164.61,0,0,1-39.63,5.37,169.47,169.47,0,0,1-18.24-.73,165.5,165.5,0,0,1-64.9-20.06c-10-20.2-17.22-41.09-16.92-59.16A83.08,83.08,0,0,1,314.45,427Z" transform="translate(-101.33 -258.29)"/>
    <path class="cls-3" d="M314.45,427c-.36,22.17-12.08,48.2-26.45,71.92a164.61,164.61,0,0,1-39.63,5.37,169.47,169.47,0,0,1-18.24-.73l.57-36.1,1.35-83.57h0l.66-41.28A83.17,83.17,0,0,1,314.45,427Z" transform="translate(-101.33 -258.29)"/>
    <path class="cls-4" d="M234.11,467.38A41.8,41.8,0,1,1,273,429.75,41.84,41.84,0,0,1,234.11,467.38Z" transform="translate(-101.33 -258.29)"/>
    <path class="cls-5" d="M232.05,383.87l-1.34,83.6a41.81,41.81,0,0,0,1.34-83.6Z" transform="translate(-101.33 -258.29)"/>
    <rect class="cls-1" x="291.6" y="507.73" width="135.16" height="31.35" rx="15.67" transform="translate(373.97 -358.97) rotate(45)"/>
    <path class="cls-2" d="M273.45,517.64c-15.86,26.18-36.28,48.37-37.66,49.86a5.27,5.27,0,0,1-7.85-.13c-1.5-1.72-25.94-30-41.12-60.61a116.84,116.84,0,0,0,45.79,14.15,119.15,119.15,0,0,0,12.87.52A116.32,116.32,0,0,0,273.45,517.64Z" transform="translate(-101.33 -258.29)"/>
    <path class="cls-3" d="M273.45,517.64c-15.86,26.18-36.28,48.37-37.66,49.86a5.27,5.27,0,0,1-3.95,1.69l.77-48.28a119.15,119.15,0,0,0,12.87.52A116.32,116.32,0,0,0,273.45,517.64Z" transform="translate(-101.33 -258.29)"/>
    <rect class="cls-1" x="294.66" y="510.02" width="139.16" height="36.88" rx="18.44" transform="translate(150.12 902.01) rotate(-135.3)"/>
    <polygon class="cls-3" points="131.19 270.89 129.72 270.89 129.72 310.82 130.51 310.9 131.19 270.89"/>
    <polygon class="cls-3" points="131.38 84.3 129.72 84.3 129.72 125.56 131 125.58 131.38 84.3"/>
    <polygon class="cls-5" points="130.72 125.58 129.72 125.56 129.59 195.61 130.72 125.58"/>
    <polygon class="cls-4" points="129.37 209.17 129.72 209.18 129.59 179.92 129.37 209.17"/>
    <polygon class="cls-2" points="129.72 209.18 129.37 209.17 128.8 235.23 129.72 235.23 129.72 209.18"/>
    <path class="cls-1" d="M337,393.58c0,4.19-.34,8.32-.66,12.49-.33,4.5.51-2.84.05,0-.19,1.12-.35,2.24-.55,3.36q-.58,3.33-1.36,6.63a119.6,119.6,0,0,1-3.38,11.57c-.65,1.88-1.46,3.71-2.11,5.58-.9,2.59,1.88-3.93,0,0-.58,1.18-1.11,2.39-1.7,3.57A117.09,117.09,0,0,1,321.55,447c-1,1.66-2.13,3.29-3.25,4.9-.63.9-1.28,1.77-1.91,2.65-2.14,3,2.21-2.56-.39.49a152.14,152.14,0,0,1-17,17.06c-.82.69-3.34,2.51.05,0-.7.52-1.39,1.05-2.1,1.56q-2.38,1.71-4.86,3.32a117.91,117.91,0,0,1-10.8,6.21c-1.81.92-4,2.31-6,2.81.47-.12,3.73-1.46.64-.28-.83.32-1.65.65-2.48.95a116.27,116.27,0,0,1-12.77,3.94c-2.19.54-4.39,1-6.61,1.43l-2.67.46c-3.32.59.2,0,.72-.05a75.09,75.09,0,0,1-13.82.93,117.61,117.61,0,0,1-12.59-.55,18.35,18.35,0,0,1-2.75-.3c4.1,1.1,1.21.16,0,0q-3.7-.6-7.37-1.45a115.65,115.65,0,0,1-11.7-3.35c-1.69-.58-3.36-1.24-5-1.86-4.11-1.52,2.49,1.2,0,0-1.21-.57-2.43-1.1-3.63-1.68a118.25,118.25,0,0,1-10.48-5.75c-1.69-1-3.36-2.13-5-3.25-.73-.5-1.45-1-2.17-1.53-1.59-1.15-2.85-2.22-.57-.37a127.64,127.64,0,0,1-17.9-17.5c-.12-.16-2.83-3.56-1.06-1.28s-.86-1.19-1-1.35c-1-1.43-2-2.89-3-4.36a116.1,116.1,0,0,1-6.64-11.49c-.91-1.78-1.71-3.61-2.57-5.42-1.19-2.5,1.53,4.1,0,0-.31-.84-.65-1.67-1-2.51a118.44,118.44,0,0,1-3.94-12.9c-.43-1.77-.81-3.54-1.16-5.33-.22-1.12-.42-2.24-.6-3.37s-1.14-4.09,0,0c-1.09-4.05-.82-9.08-.85-13.25,0-4.5.31-8.94.64-13.41.18-2.39-.67-.61-.13.63a11.65,11.65,0,0,1,.42-2.74c.41-2.49.91-5,1.48-7.43a114.57,114.57,0,0,1,3.39-11.77c.66-1.91,1.43-3.78,2.13-5.68-1.59,4.31.85-1.8,1.47-3.06A116.26,116.26,0,0,1,154,338.32c1.21-1.86,2.5-3.65,3.78-5.46,1.87-2.63-.05.05-.4.48.84-1,1.66-2.07,2.52-3.08A117.73,117.73,0,0,1,170,319.74c1.62-1.5,3.29-3,5-4.36.68-.57,1.38-1.12,2.07-1.67-3.49,2.8-.24.22.59-.38a118.75,118.75,0,0,1,12.4-7.78q2.94-1.6,6-3c1-.48,2-.92,3.06-1.39,1.22-.53.81-.36-1.21.51l1.89-.74a115,115,0,0,1,13.58-4.29c2.22-.56,4.46-1.05,6.7-1.47,1.14-.22,2.28-.37,3.41-.59q2-.32-1.35.15c.92-.12,1.85-.23,2.77-.33,9.33-1,18.47-7.54,18-18-.39-8.86-8-19.1-18-18C182.88,263,145.55,285,122.54,320.71,100.36,355.1,95,400.48,109.23,438.94A139,139,0,0,0,193.09,522c38.08,13.61,82.63,8.21,116.62-13.54A137.63,137.63,0,0,0,373,393.58c0-9.42-8.32-18.43-18-18s-17.94,7.91-18,18Z" transform="translate(-101.33 -258.29)"/>
  </g>
</svg>
