<svg id="Capa_1" enable-background="new 0 0 512 512" height="512" viewBox="0 0 512 512" width="512" xmlns="http://www.w3.org/2000/svg"><g><path d="m345.166 300.794c101.153 67.98 166.269 133.096 166.269 133.096s6.469 22.284-24.396 53.149-53.149 24.396-53.149 24.396-65.116-65.116-133.096-166.269" fill="#365e7d"/><path d="m300.8 345.165 16.111-16.111c78.096 85.992 143.225 152.142 158.903 167.964-24.896 19.354-41.921 14.419-41.921 14.419s-65.12-65.12-133.093-166.272z" fill="#2b4d66"/><circle cx="201.375" cy="201.374" fill="#b96658" r="201.374"/><path d="m216.598 402.189c-5.031.372-10.095.564-15.216.564-111.214 0-201.382-90.167-201.382-201.382 0-111.214 90.168-201.37 201.382-201.37 5.121 0 10.185.192 15.216.564-104.109 7.772-186.166 94.702-186.166 200.806s82.057 193.046 186.166 200.818z" fill="#b4546c"/><circle cx="201.171" cy="201.374" fill="#d3effb" r="137.629"/><path d="m225.219 337.009c-7.621 1.321-15.464 1.999-23.459 1.999-76.011 0-137.634-61.622-137.634-137.634s61.623-137.634 137.634-137.634c7.995 0 15.838.678 23.459 1.999-64.825 11.128-114.163 67.619-114.163 135.635s49.338 124.507 114.163 135.635z" fill="#9dc6fb"/><path d="m201.171 357.436c-86.053 0-156.063-70.009-156.063-156.063 0-86.053 70.009-156.062 156.063-156.062 86.053 0 156.062 70.009 156.062 156.062 0 86.054-70.009 156.063-156.062 156.063zm0-289.381c-73.512 0-133.319 59.806-133.319 133.318s59.807 133.319 133.319 133.319 133.318-59.807 133.318-133.319-59.806-133.318-133.318-133.318z" fill="#b4546c"/></g></svg>
