<svg id="Livello_1" data-name="Livello 1" xmlns="http://www.w3.org/2000/svg" viewBox="0 0 89.53 100.2">
  <defs>
    <style>
      .cls-1 {
        fill: #303030;
      }
    </style>
  </defs>
  <title>share</title>
  <path class="cls-1" d="M217.77,554.86a1.7,1.7,0,0,0,0-.22l0,0A2,2,0,0,1,217.77,554.86Z" transform="translate(-181.15 -505.01)"/>
  <path class="cls-1" d="M270.66,586.61c0,.11,0,.22,0,.34-.14,8.53-6.12,16.28-14.64,17.92a18.51,18.51,0,0,1-19.32-8.48,18.23,18.23,0,0,1-2.07-13.69,4.29,4.29,0,0,0-2-4.75l-16.3-9.4a4.25,4.25,0,0,0-4.95.54,17.89,17.89,0,0,1-9.47,4.36,18.28,18.28,0,1,1,9.44-31.89,4.29,4.29,0,0,0,5.06.52l16.25-9.86a4.26,4.26,0,0,0,1.9-4.64,18.66,18.66,0,0,1,3.71-16A18.27,18.27,0,0,1,270.66,523c0,.11,0,.22,0,.34-.15,8.52-6.14,16.27-14.64,17.91A18.48,18.48,0,0,1,240.33,537a4.27,4.27,0,0,0-5-.48l-16.18,9.82a4.26,4.26,0,0,0-2,4.67,18.91,18.91,0,0,1,.56,4c0,.1,0,.2,0,.31v0a2.26,2.26,0,0,1,0,.26h0a18.33,18.33,0,0,1-.58,4.07,4.16,4.16,0,0,0,2,4.6l19.12,11a.61.61,0,0,1,.07-.1,18.37,18.37,0,0,1,20.09-5.59A18.56,18.56,0,0,1,270.66,586.61Z" transform="translate(-181.15 -505.01)"/>
</svg>
