<svg id="Livello_1" data-name="Livello 1" xmlns="http://www.w3.org/2000/svg" xmlns:xlink="http://www.w3.org/1999/xlink" viewBox="0 0 255.8 189.48"><defs><style>.cls-1{fill:url(#Sfumatura_senza_nome);}.cls-2{fill:#fff;opacity:0.29;isolation:isolate;}</style><linearGradient id="Sfumatura_senza_nome" x1="191.44" y1="10.41" x2="191.44" y2="199.89" gradientTransform="matrix(1, 0, 0, -1, -73.61, 199.89)" gradientUnits="userSpaceOnUse"><stop offset="0" stop-color="#ea5a58"/><stop offset="0.42" stop-color="#ea5c58"/><stop offset="0.58" stop-color="#eb6359"/><stop offset="0.69" stop-color="#ed6e5b"/><stop offset="0.77" stop-color="#f07f5d"/><stop offset="0.85" stop-color="#f39560"/><stop offset="0.92" stop-color="#f8b164"/><stop offset="0.97" stop-color="#fcd068"/><stop offset="1" stop-color="#ffe06a"/></linearGradient></defs><title>sunset</title><circle class="cls-1" cx="117.83" cy="94.74" r="94.74"/><path class="cls-2" d="M86.7,96c14.36-4.93,19.25-15.29,26.08-13.48a31.22,31.22,0,0,1,7.19,3c2.4,1.45,2.33,1.94,3.3,2.1,3.9.67,5.44-7.2,12.29-10.49s14.69.31,15.26.61a21.35,21.35,0,0,1,8.39,7.8c2.07,3.57,1.63,5.7,3.9,7.19,2.56,1.68,4.27-.26,8.39.61,5.16,1.08,5.56,4.74,11.39,7.2,2,.84,4.54,1.06,9.6,1.5,9.89.85,13.23-.35,17.09,2.39.41.29,3.79,2.7,3.3,4.8-.61,2.76-7.73,2.53-10.79,3.59-18.1,6.32-63.19,5.77-73.74.62,0,0-3.29,5.59-7.49,8.09-5.21,3.1-13.87,2.65-18.89-.3a11.94,11.94,0,0,0-5.69-2.1c-2.45-.14-2.87.78-4.8.61-3.43-.32-3.72-3.45-7.79-5.39s-6,.07-8.08-1.85c-2.6-2.33-2.63-7.94-.3-11.39S80.93,98,86.7,96Z" transform="translate(-73.61 0)"/><path class="cls-2" d="M165.48,51.48c1.72,7.91,13,11.62,16.06,12.62,2.37.78,5,1.09,10.32,1.72,14.64,1.73,16.2.09,22.94,2.29,7.09,2.32,7,4.65,11.48,4.59,6.23-.09,8.21-4.64,15.48-5.74,4.16-.62,4.39.74,12,1.73a73.09,73.09,0,0,0,27-1.73c5.54-1.33,8.31-2,11.46-4,5.55-3.55,6-6.93,10.9-8.6,3.69-1.23,4.42.34,10.9,0,4.73-.25,12.93-.7,14.91-5.17,1.53-3.46-.85-8.84-4.58-11.46-4.38-3.08-8-.5-19.51-.58-9.31-.06-15.37-.11-20.64-4S279,24.86,274.45,24c-5.28-1.06-8.79,4.08-12.05,2.29-2.8-1.55-1.07-5.86-3.46-9.76-3.69-6.07-15.65-8.31-24.66-5.15-12.73,4.48-14.21,17.9-25.23,18.35-3.61.14-3.51-1.29-9.75-1.72-2.84-.2-10.8-.76-18.36,2.87C173.87,34.24,163.65,43,165.48,51.48Z" transform="translate(-73.61 0)"/><path class="cls-2" d="M158.43,168.26c1.71,7.91,13,11.62,16.06,12.62,2.36.78,5,1.09,10.32,1.72,14.64,1.73,16.2.09,22.94,2.29,7.09,2.32,7,4.65,11.47,4.59,6.24-.09,8.21-4.64,15.49-5.74,4.16-.62,4.39.74,12,1.73a73.31,73.31,0,0,0,27-1.73c5.54-1.33,8.31-2,11.46-4,5.55-3.55,6-6.93,10.9-8.61,3.69-1.22,4.42.35,10.9,0,4.73-.24,12.93-.69,14.91-5.16,1.53-3.46-.85-8.84-4.59-11.46-4.38-3.08-8-.5-19.5-.58-9.31-.06-15.38-.11-20.64-4s-5.18-8.27-9.75-9.18c-5.28-1-8.79,4.09-12,2.3-2.81-1.55-1.07-5.86-3.46-9.76-3.7-6.07-15.65-8.31-24.66-5.15C214.5,132.6,213,146,202,146.46c-3.6.15-3.5-1.28-9.75-1.71-2.83-.2-10.79-.76-18.35,2.87C166.81,151,156.59,159.77,158.43,168.26Z" transform="translate(-73.61 0)"/></svg>