<svg id="Livello_1" data-name="Livello 1" xmlns="http://www.w3.org/2000/svg" viewBox="0 0 200.44 199.59"><defs><style>.cls-1{fill:#010101;}.cls-2{fill:#fff;}.cls-3{fill:#1E90FF;}.cls-4{fill:#eb5b58;}</style></defs><title>ToDo_plus_blue</title><rect class="cls-1" x="14.28" y="11.3" width="147.92" height="176.98" rx="5.77" transform="translate(-17.12 18.28) rotate(-10.79)"/><rect class="cls-2" x="28.42" y="27.18" width="119.52" height="140.45" rx="4.9" transform="translate(-16.68 18.23) rotate(-10.79)"/><path class="cls-3" d="M62.44,44.31h0a4,4,0,0,1,1.07,5.61h0L51,68.32a4,4,0,0,1-5.57,1.08l0,0h0a4,4,0,0,1-1-5.58h0L56.85,45.4a4,4,0,0,1,5.59-1.09Z"/><path class="cls-3" d="M42.25,57.84l7.5,5.09a4,4,0,0,1,1.07,5.61h0a4,4,0,0,1-5.6,1.06l-7.5-5.1a4,4,0,0,1-1.07-5.6h0a4,4,0,0,1,5.6-1.07Z"/><path class="cls-3" d="M69.67,82.23h0a4,4,0,0,1,1.07,5.59h0L58.2,106.22a4,4,0,0,1-5.6,1.07h0a4,4,0,0,1-1.06-5.6h0l12.52-18.4A4,4,0,0,1,69.67,82.23Z"/><path class="cls-3" d="M49.47,95.73l7.51,5.1a4,4,0,0,1,1.06,5.6h0a4,4,0,0,1-5.6,1l-7.5-5.09a4,4,0,0,1-1.06-5.61h0A4,4,0,0,1,49.47,95.73Z"/><path class="cls-3" d="M69.67,82.23h0a4,4,0,0,1,1.07,5.59h0L58.2,106.22a4,4,0,0,1-5.6,1.07h0a4,4,0,0,1-1.06-5.6h0l12.52-18.4A4,4,0,0,1,69.67,82.23Z"/><path class="cls-3" d="M49.47,95.73l7.51,5.1a4,4,0,0,1,1.06,5.6h0a4,4,0,0,1-5.6,1l-7.5-5.09a4,4,0,0,1-1.06-5.61h0A4,4,0,0,1,49.47,95.73Z"/><rect class="cls-4" x="49.1" y="127.8" width="8.06" height="28.03" rx="1.59" transform="translate(-25.61 12.45) rotate(-10.79)"/><rect class="cls-4" x="50.8" y="145.71" width="28.1" height="8.06" rx="1.59" transform="translate(-26.89 14.79) rotate(-10.79)"/><rect class="cls-4" x="47.05" y="126.09" width="28.1" height="8.06" rx="1.59" transform="translate(-23.28 13.74) rotate(-10.79)"/><rect class="cls-4" x="68.78" y="124.06" width="8.06" height="28.03" rx="1.59" transform="translate(-24.56 16.07) rotate(-10.79)"/><rect class="cls-1" x="78" y="47.55" width="50.28" height="8.32" rx="1.64" transform="translate(-7.86 20.22) rotate(-10.79)"/><rect class="cls-1" x="85.34" y="86.1" width="50.28" height="8.32" rx="1.64" transform="translate(-14.95 22.28) rotate(-10.79)"/><rect class="cls-1" x="92.81" y="125.3" width="50.28" height="8.32" rx="1.64" transform="translate(-22.15 24.37) rotate(-10.79)"/><rect class="cls-3" x="155.92" width="16.94" height="72.11" rx="8.46"/><rect class="cls-3" x="128.33" y="27.45" width="72.11" height="16.94" rx="8.46"/></svg>