<svg id="Livello_1" data-name="Livello 1" xmlns="http://www.w3.org/2000/svg" viewBox="0 0 146.95 146.95"><defs><style>.cls-1{fill:#38a4dd;}.cls-2{fill:#fbfbfb;}</style></defs><title>twitter</title><circle class="cls-1" cx="73.47" cy="73.47" r="73.47"/><path class="cls-2" d="M344.39,392.18a39.4,39.4,0,0,1-11,3,19,19,0,0,0,8.4-10.55,37.93,37.93,0,0,1-12.11,4.62,19.18,19.18,0,0,0-32.58,17.41,54,54,0,0,1-39.36-20,19.08,19.08,0,0,0,5.87,25.52,18.92,18.92,0,0,1-8.63-2.35v.21a19.18,19.18,0,0,0,15.3,18.76,18.9,18.9,0,0,1-5,.63,16.56,16.56,0,0,1-3.61-.33,19.26,19.26,0,0,0,17.84,13.31,38.4,38.4,0,0,1-23.68,8.14,36.2,36.2,0,0,1-4.57-.26,53.82,53.82,0,0,0,29.3,8.57c35.13,0,54.34-29.11,54.34-54.34,0-.84,0-1.66-.07-2.47A38.06,38.06,0,0,0,344.39,392.18Z" transform="translate(-224.35 -347.58)"/></svg>