<?xml version="1.0" encoding="UTF-8"?>
<svg version="1.1" viewBox="0 0 512 512" xmlns="http://www.w3.org/2000/svg">
<style type="text/css">.st0{fill:#3DB9C4;}.st1{fill:#B1D17A;}.st2{opacity:0.55;fill:#3D9FA1;}.st3{fill:#DD3C3C;}.st4{fill:#EB5B58;}.st5{fill:#C5DAE0;}.st6{fill:#EFEEEE;}.st7{opacity:0.75;fill:#BCE1E5;}</style>
<circle class="st0" cx="254" cy="254" r="199"/>
<path class="st1" d="m152.2 98.4c3.7-1.4 7.3 6.5 17.1 10.8 3 1.3 7.3 2.5 11.2 0.9 1.3-0.5 2.4-1.4 2.3-1.9-0.2-1-4.5 0.8-7.3-1.5-1.9-1.5-1.2-3.2-3.2-4.9-2-1.6-4-0.5-4.9-1.8-1.3-1.8 0.4-6.1 3.4-7.5 1.4-0.6 3-0.4 6 0.2 3.8 0.8 6 1.2 8.3 2.8 3.1 2.4 2.4 4.3 5.1 5.5 2.6 1.1 5.6 0.8 7.9-0.9 1.7-1.3 1.7-2.5 3.2-2.8 2-0.5 4.7 1.1 4.9 2.6 0.1 1.8-3.4 3.4-4.1 3.7-3.1 1.3-4.9 0.4-7.5 2.3-1.5 0.8-2.2 2.5-1.4 4 0.1 0.3 0.3 0.6 0.6 0.9 0.3 0.4 1.6 1.7 9.9 1 3.4-0.3 5.3-0.4 6-1.3 2.6-2.4 0.4-6.1 3-8.3 1.8-1.4 4.3-1.5 6.3-0.2 0.9 0.8 1.4 1.7 1.6 2.8 0.5 2.4-0.6 3.2 0 5.3 0.1 0.2 0.8 2.2 2.3 2.5s2.6-1.2 4.3-2.6c2.2-1.8 4.4-3.4 6.9-4.9 6.4-3.6 14.7 0.1 16.4 0.9 3.1 1.2 5.8 3.1 7.9 5.7 1.9 2.2 3.2 4.7 3.9 7.5 0.5 1.9 0.5 4.1 0 6-0.9 3.1-3 5.8-5.9 7.3-3.1 1.4-6.8 1.4-9.9 0-1.8-0.4-3.3-1.6-4.3-3.2-1-1.9-0.9-4.7 0.6-5.9 1-0.8 1.9-0.2 4.1-1.3 0.8-0.4 2-1.1 2-1.8 0-1.2-2.7-1.9-3.7-2.3-2.6-1-5.4-1-8.1-0.2-1.4 0.5-1.8 1-4.6 2-0.9 0.3-1.3 0.4-2.3 0.9-1.7 0.6-2.4 1.1-3.7 1.6-1.9 0.9-4 1.5-6.1 2-1.1 0.3-2.2 0.5-3.2 0.6-1.8 0-3.8-0.2-5.5-0.9-1.7-0.4-8-1.6-13.2 0.9-0.6 0.3-1.3 0.6-1.8 1-3.4 2-5.2 3.1-5.7 4.9-0.3 1.4-0.1 2.9 0.6 4.1 0.5 0.9 1.2 1.5 2 2 0.9 0.6 1.8 1.3 2.8 1.8 0.8 0.3 1.5 0.8 2.3 1.3 2 1.6 2.3 4.4 2.5 5.9s-0.3 1.7-0.2 3.9c0.1 1.7 0.2 3.1 1 3.7 0.8 0.5 2.4 0 3.9-0.6 2.8-1.3 3.1-2.3 5.3-3.4 2.9-1.5 3.6-0.3 6.7-1.8 1.6-0.8 4-1.8 5.1-4.2 1.4-3-0.6-5.1 1.1-8.1 0.6-1.1 1.5-1.9 2.5-2.7 1.6-1.3 3.7-2.2 5.7-2.3 0.4 0 4.7-0.1 6.7 2.6 0.8 1.2 1.2 2.5 1.4 3.9 0.1 1 0.3 1.8 0.6 2.8 0.1 1 0.4 1.8 1 2.6 0.9 0.8 2 1.1 3.2 0.9 3-0.3 4.2-3 5.7-2.5 0.9 0.3 1.2 1.6 1.3 1.8 0.2 0.9-0.1 1.4-0.4 2.8-0.3 1-0.4 1.9-0.4 2.9 0.3 2.5 4.7 2.2 6.9 5.3 1.5 2.3 1.5 5.3 0 7.5-2.4 2.9-8.2 1.6-8.9 1.4-2.3-0.5-2.6-1.3-4.4-1.3-2.8 0.1-3.2 1.8-5.7 2-3 0.2-3.6-2.2-7.1-2.5-2.4-0.1-4.7 0.6-6.7 2-2.3 1.8-3.8 4.3-4.5 7.1-4.2 13.3-39.5 24.5-46.2 31.9-1.6 1.5-2.7 3.4-3.2 5.6-0.3 2 0.3 2.9-0.5 4.1-1.3 1.7-4.3 1.9-6.5 1.2-1.7-0.6-3.1-1.8-4.1-3.3s-0.6-2.2-1.5-3.8c-0.9-1.3-2-2.4-3.3-3.2-4.5-2.8-12.1-0.6-13.6-0.2-2.4 0.6-11.9 3.3-16.8 12.1-1.3 2.2-2.7 4.9-1.8 7.8 1 3 3.7 5.3 6.8 5.8 2.9 0.3 5.9-1.4 8.3-2.7 1.5-0.9 3.2-1.5 5-1.8 1.4-0.4 1.8-0.4 2-0.2 0.6 0.5 0 2.3-1.5 7.3-1.1 3.4-1.3 4.1-0.9 4.7 1.1 1.9 4.2 0.4 6.1 2.3 2.5 2.5-1.4 7 1.3 12.7 0.8 1.7 2 3.2 3.6 4.3 2 1.3 4.5 2 7 2 3.2 0.5 6.5 0.2 9.5-1 4.9-2.2 4.7-5.7 8-6 4.2-0.4 8.2 5.3 8.7 6 2.4 3.6 1.6 5.4 3.7 6.7 2.7 1.6 4.7-1.1 9.4-0.3 4.2 0.6 7 3.4 9.4 5.7 4.2 4.1 3.1 5.8 6.7 8.4 4.3 3.1 6.9 1.4 9.4 4.3 2.3 2.8 0.5 5 2.7 9.7 1.5 3.1 3.8 5.8 6.7 7.7 4.1 2.7 5.8 1.3 13.7 3.3 4.5 1.3 9.2 2.5 13.4 6.4 1.8 1.7 5.6 5.1 5.4 9.7-0.2 2-1 4.1-2.4 5.7-3.3 4.3-6.9 3-9.7 6-4.1 4.4 0.8 9.8-3 18.8-1.1 2.5-2.9 6.8-7 8.7-5.4 2.5-9.2-1.6-14 1.3-3.8 2.3-5.1 6.7-5.4 7.7-1.2 4 0.3 5.3-0.3 8.4-1.1 5.1-6.3 7.8-14.3 12.1-8.4 4.4-12.6 6.7-15.4 7.7-2 0.8-5.6 1.9-6 4.3-0.3 1.9 1.5 2.9 1.3 5.4s-2.3 2.8-3.3 5.1c-1.8 3.9 1.5 9.4 5.4 15.7 3.2 5.3 5.1 6.9 4.3 9.1-1 3.1-6.1 4-6.7 4-4.5 0.6-9.6-1.7-11.4-5.4-0.8-1.6-0.3-2.3-1.6-6-0.4-1.7-1.3-3.2-2.4-4.6-2-2.3-3.7-1.3-5.7-3.3s-2.3-5.3-2.4-7c0-1.2 0.1-1.4 1-6.7 1-5.5 1-6.4 1-7.3-0.1-2-0.4-4.1-1-6-0.9-3.2-1.8-6.4-3-9.4-2-5.2-0.3-9.3 3-28.1 2.5-14.1 2.4-16.4 1.4-18.8-2.5-5.8-6.3-5.2-12.7-12.4-2.5-2.7-9.7-10.8-10.3-22.1-0.1-2.2-0.6-13.5 6.4-20.7 2.9-3 6.8-5 7.3-9.4 0.3-1.9-0.2-3.9-1.3-5.4-1.6-1.7-4-1.7-6-2-4.3-0.5-8.5-1.8-12.4-4-6.5-3.9-3.6-9.7-11-16.7-3-2.7-6.5-4.7-10.3-6-7.2-2.3-9.1 0.5-13-1.3-7.8-3.7-10.9-19-10.3-29.7 0.2-4.7 1.3-10.2-1.7-12.4-1.3-0.9-2.9-1.1-4.3-0.3-2 1.4-1.6 5.7-0.6 8.4 0.8 2.2 1.5 2.3 1.7 4 0.2 2-0.5 5.1-2.7 6-2.5 1.3-5.7-0.6-7.3-2.7-2.4-2.9-1.8-7-1.4-11 0.2-1.9 0.5-3 1-6.7 0.4-3.3 0.3-4.5 0-5.7-0.4-1.5-1.1-1.9-3-4.6-3.2-5.2-0.4-12.5 0.9-15.7 7.5-18.5 27.8-40.7 27.9-40.7 18.2-19.8 29.1-29 35-26.1 2.5 1.3 5.5 5.3 8.5 4.3 0.3-1.3 0.2-2.4 1.5-3z"/>
<path class="st1" d="m451.6 259.3c-0.1 3.1-0.2 6.1-0.4 9.3-7.2 42.5-11.3 56.3-25.2 82.5-1.3 1.7-2.7 3.7-4.4 5.8-2.8 3.8-6.4 8.3-10.8 13.9s-7.5 9.6-9.4 8.8c-1.4-0.5-1.5-3-1.9-7.9-0.6-7.1 0.5-8.1-0.5-12.3-1.1-4.5-2.5-4.3-3-8.4-0.3-2.8 0.2-3.4 0.5-8.8 0.2-5.8-0.4-5.6 0-7.9 1.2-6.3 5.7-6.6 6.4-11.3 0.8-5.1-4.2-5.9-5.4-13.4-1.2-7.1 2.9-9.8 0.5-14.8-2.2-4.5-7.1-6.1-7.9-6.4-5.1-1.6-7.8 1-16.3 1.9-4.4 0.5-8.5 1.1-12.8 0-9.2-2.3-18.8-11.3-18.2-19.7 0.3-5.5 4.9-7 5-14.8 0-3.6-0.9-4.6 0-7.9 1-3.6 3-6.7 5.9-8.8 3.7-2.8 5.2-1.5 8.8-4 4.7-3.2 3.6-6.4 7.4-9.4 4.1-3.2 9.2-2.6 19.2-1.5 7.7 0.9 11.5 1.3 14.8 4.4s2.2 5.4 5.9 8.4c3.3 2.6 7.7 3.9 11.9 3.4 4-0.5 4.7-2.5 7.9-1.9 3.1 0.5 3.7 2.4 6.9 4 4.5 2.3 7.2-0.6 10.3 1.5 0.6 0.4 2 1.5 3.4 5.6 0.3 1 0.6 2 1 3v0.2c0.5 2.1 0.2 4.4 0.4 6.5z"/>
<path class="st1" d="m449.6 223.6-0.3 0.6c-0.5 0.4-1.1 0.8-1.7 0.9-3.2 1-6.3-0.8-8.3-1.7-1.9-0.6-3.6-1.9-4.7-3.6-2.4-3.8 0-8.4-1.2-8.9-1-0.4-2.6 2.4-5.9 5.6-2 2-7.3 7.1-9.5 5.9-2.8-1.4 2.3-11.2-1.2-22.3-1-2.9-2.5-5.6-4.4-8-2.5-3-4.4-3.7-5.1-3.9h-0.3c-1.6-0.4-3.2-0.4-4.9 0-2 0.4-5 1-5.6 3-0.1 0.2-0.2 0.5-0.2 0.9 0.2 1.4 0.8 2.8 1.6 4 1.3 2 3.2 3.7 5.6 4.4 3.4 1 5.3-1 6.8 0.3s0.2 3.1 1.5 6.8c0.9 2.2 2 4.2 3.6 5.9-0.6-0.6-1.3-1.3-2-1.7-1.7-0.9-4.1-1-4.7 0-0.8 1.3 1.8 3.1 1.2 4.4s-4.4 1-7.4 0.6c-0.8-0.1-7.8-1-7.8-2.4s5.5-1 7.1-4.4c0.4-1 0.6-2.2 0.3-3.2-1-2.8-4.6-1.9-7.8-5.1-3.1-3.1-2-6.4-4.4-7.1-1.8-0.6-2.7 1.4-6.6 2.4-4.3 1.2-5.5-0.9-8.9 0.3s-3.1 3-7.4 6.3c-2.8 2-6 3.6-9.5 4.4-4.1 1.4-8.6 1.5-12.8 0.3-2.3-0.8-6.6-2.2-8.6-6.3-2.5-4.9-1.1-11.9 2.7-14 5.1-2.9 11.3 4.9 17.6 1.5 2-1.3 3.8-3.1 4.7-5.4 2.3-4.4 0.5-7.5 2.7-9.2 2.2-1.6 4.3 0.9 8.3-0.6 2.9-1.1 4.5-3.3 5.9-5.4 3.4-4.7 2.5-7.8 5.1-8.9 1.9-0.9 2.8 0.6 6.3 0.9h1.3c1 0 2-0.1 3-0.2 1.9-0.3 4.2-1.2 5-3 0.6-1.6 0.3-3.4-0.9-4.7-1.4-1.2-3-0.4-5.1-0.2-1 0.1-2 0-3-0.3-0.2-0.1-0.3-0.1-0.5-0.2-2.8-1.5-4.3-5.2-4.5-8.1-0.2-4.2 1.8-8.2 5.4-10.5 0.3-0.2 0.8-0.3 1.2-0.4l0.4-0.1c3.4-1 6.6 0.6 8.8-1.7 1.7-1.8 0.9-3.9 2-4.4 0.9-0.4 2.2 0.1 3.7 1.3 1.3 1 2.5 2 3.6 3.2 2.7 2.9 5.2 6 7.5 9.2 1.4 1.8 2.6 3.7 3.8 5.4 0.1 0.2 0.2 0.4 0.4 0.5 2.4 3.7 4.3 7 6 10.1 1.3 2.3 2.3 4.3 3.2 6.1 1.8 3.6 3.3 6.7 4.5 9.3 0.3 0.6 0.5 1.2 0.9 1.8 0.9 2 1.5 3.6 1.9 4.5 0.2 0.5 0.8 1.9 1.6 3.9 0 0.1 0.1 0.1 0.1 0.2 0.4 1.2 1 2.6 1.5 4.1 1 2.8 2.2 6 3.1 9.5 0.5 1.8 1.1 3.8 2.2 7.5 0.6 1.9 1.1 4 1.5 6 0.4 2.5 0.2 2.5 0.6 5.1 0.4 4.8 1.6 7.3 1 8.8z"/>
<path class="st2" d="m235.6 451.6c-16.4-7.5-31.6-17.5-45.2-29.3l-0.1-0.1c-8.2-7.3-15.8-15.3-22.6-23.9l-0.1-0.1c-29.9-37.6-45.7-87.3-41.2-142.5 0.3-4.6 0.9-9.3 1.6-13.9 0.6-4.6 1.5-9.2 2.6-13.7v-0.1c1.8-8.4 4.3-16.6 7.3-24.7v-0.1c26.7-72.1 92.7-122.1 169.3-128.6 9.7-0.9 19.5-1 29.2-0.4-22.3-10.3-46.3-16.4-70.8-17.9-9.6-0.5-19.3-0.3-28.9 0.6-11.7 1-23.5 3-34.9 6l-1.5 0.4-1.1 0.3c-24.8 6.9-47.9 18.8-68.1 34.6l-0.2 0.1c-11.6 9.1-22.3 19.3-31.6 30.7l-0.1 0.2c-1.1 1.3-2 2.6-3 3.8l-0.6 0.8c-0.9 1.2-1.8 2.4-2.7 3.6-0.1 0.2-0.3 0.3-0.4 0.5-6.4 8.8-12.1 18.1-16.9 27.9l-0.1 0.4c-11.1 22.4-17.9 46.8-19.8 71.8-0.5 5.8-0.8 11.5-0.8 17.1 0.6 103.2 79.8 187.6 180.7 196.5z"/>
<path class="st3" d="m492.1 116.5c-1 6.1-3 12-6.1 17.4-0.3 0.5-0.6 1.1-1.1 1.6-3.7 5.4-8.1 10.1-13.2 14.2-3.8 3.1-7.8 6-11.9 8.6-0.1 0.1-0.2 0.1-0.4 0.2-7.8 5-15.8 9.4-24.3 13.3l-0.2 0.1c-6.5 3-12.5 5.6-17.6 7.5-8.3 3.2-14 5.2-14.8 5.4-0.2 0.1-0.5 0.1-0.8 0.2-0.5 0.1-1.1 0.1-1.5-0.1-0.4-0.1-0.9-0.2-1.3-0.4h-0.1c-1.1-0.6-1.8-1.7-2.2-2.9-1.4-7-2.5-14-3.3-21l-0.9-8.1c-0.4-4.2-0.8-8.5-1-12.7l-0.3-6.9v-5.9c0-5.7 0.3-11.5 1.1-17.2 0.4-3.4 1.1-6.9 1.8-10.3 1.2-5.4 3.1-10.6 5.8-15.4 3.4-5.9 8.1-11.1 13.7-15.2 22.2-16.2 53.2-11.2 69.4 11 3.1 4.3 5.6 9.2 7.2 14.2v0.1l0.6 2.4c0.1 0.4 0.2 0.9 0.3 1.2 0.2 0.9 0.4 1.8 0.5 2.7 0.1 0.5 0.2 1 0.2 1.5l0.3 3c0.8 3.8 0.7 7.6 0.1 11.5z"/>
<path class="st4" d="m492.1 116.5c-1 6.1-3 12-6.1 17.4-0.3 0.5-0.6 1.1-1.1 1.6-3.7 5.4-8.1 10.1-13.2 14.2-3.8 3.1-7.8 6-11.9 8.6-0.1 0.1-0.2 0.1-0.4 0.2-7.8 5-15.8 9.4-24.3 13.3l-0.2 0.1c-6.5 3-12.5 5.6-17.6 7.5-8.3 3.2-14 5.2-14.8 5.4-0.2 0.1-0.5 0.1-0.8 0.2-0.5 0.1-1.1 0.1-1.5-0.1-0.4-0.1-0.9-0.2-1.3-0.4h-0.1l22.2-38.3 0.4-0.6 4.3-7.3 4.5-7.8 7.1-12.2 0.2-0.3 0.3-0.5 0.1-0.1 0.3-0.4 4-6.9 3.3-5.7 9.7-16.6 0.1-0.2v-0.1l12.7-21.3c10.7 6.3 18.6 16.2 22.4 27.9v0.1l0.6 2.4c0.1 0.4 0.2 0.9 0.3 1.2 0.2 0.9 0.4 1.8 0.5 2.7 0.1 0.5 0.2 1 0.2 1.5l0.3 3c0.5 3.9 0.4 7.8-0.2 11.5z"/>
<path class="st5" d="m430.4 130.5c-12-6.9-16-22.2-9.1-34.2s22.2-16 34.2-9.1 16 22.2 9.1 34.2c-6.9 11.9-22.2 16-34.2 9.1z"/>
<path class="st6" d="m455.5 87.3-25.1 43.1c12 6.9 27.3 2.8 34.2-9.2 6.7-11.6 3-26.5-8.3-33.6-0.2-0.1-0.5-0.2-0.8-0.3z"/>
<path class="st7" d="m510.69 229.06c5.097-17.69-5.097-36.279-22.786-41.476-3.8976-13.392-8.7947-26.285-14.891-38.877-0.89946 0.79953-1.7989 1.4991-2.8982 2.3986-1.3991 1.1993-2.8982 2.2986-4.3974 3.2981 0-0.0999-0.0999-0.0999-0.0999-0.1999-10.494 6.9959-25.285 14.891-31.581 17.989 44.972 99.841 0.49969 217.37-99.34 262.25-25.484 11.493-53.268 17.49-81.351 17.59-109.43-0.0999-198.18-88.848-198.18-198.38 0-109.53 88.847-198.18 198.28-198.08 51.769 0 101.54 20.388 138.62 56.567 0.9994-10.294 4.2974-22.887 9.4943-30.582 7.7953-11.793 19.988-19.588 33.779-21.787-3.7977-1.2992-7.8953-1.8989-11.893-1.7989-6.7959-0.09994-13.492 1.9988-19.088 5.8965-11.193-8.7948-23.286-16.69-35.878-23.386 0.89946-1.5991 1.4991-3.2981 1.9988-5.1969 4.0975-14.791-4.4972-30.082-19.288-34.18-2.3985-0.59965-4.7972-0.99941-7.1957-1.0994-12.292-0.099941-23.586 7.8954-26.983 20.288-54.468-14.292-112.23-9.1946-163.3 14.591-8.295-12.193-24.785-15.291-36.977-6.9959-10.194 6.9959-14.291 20.088-9.7941 31.581-11.893-6.3962-26.584-1.8989-32.98 9.8942-4.0975 7.6955-3.8976 16.99 0.79952 24.486-10.693 11.993-19.988 24.985-28.083 38.777-3.9976-0.89947-7.9952-1.2992-12.093-1.2992-18.988 0-34.379 9.1946-34.379 20.388 0 9.9942 12.093 18.389 27.983 20.088-3.8976 10.694-6.9958 21.687-9.2944 32.781-10.594 1.3992-18.888 16.19-18.888 34.28 0 15.391 5.9964 28.583 14.291 32.881 1.599 23.986 6.9958 47.772 15.69 70.259-14.391 1.8989-24.685 15.291-22.686 29.882 0.59964 4.9971 2.6983 9.6943 5.8965 13.492-8.0951 4.6972-12.992 11.193-12.992 18.289 0 14.691 20.887 26.484 46.771 26.484 13.492 0 25.784-3.2981 34.279-8.495 18.089 18.989 39.176 34.78 62.463 46.972-0.0999 0.79953-0.0999 1.3992-0.0999 2.1987 0 14.691 11.893 26.584 26.584 26.584 8.1951 0 15.79-3.7978 20.887-10.094 20.787 5.6966 42.374 8.595 63.962 8.595h0.19988c-0.0999 0.49971-0.19988 0.99941-0.19988 1.4991 0 8.0952 15.491 14.591 34.579 14.591s34.579-6.4962 34.579-14.591c0-3.6978-2.9982-6.896-8.0951-9.3945 42.374-11.093 80.851-33.48 111.43-64.862 4.997 6.5961 16.09 11.093 29.082 11.093 17.489 0 31.681-8.2951 31.681-18.489 0-6.4962-5.6966-12.193-14.291-15.491 1.7989-2.6984 2.8982-5.7966 2.8982-9.0946 0-6.896-4.6972-12.992-12.292-17.19 16.29-28.483 26.484-59.765 30.182-92.346 7.9952-2.8983 13.292-10.494 13.292-18.989-0.0999-6.5961-3.0981-12.792-8.295-16.89 5.1968-4.4974 8.9946-10.294 10.893-16.69z"/>
</svg>
