<?xml version="1.0" encoding="UTF-8"?>
<svg version="1.1" viewBox="0 0 512 512" xmlns="http://www.w3.org/2000/svg">
<style type="text/css">.st0{fill:#6CB958;}.st1{fill:#3DB9C4;}.st2{fill:#B1D17A;}.st3{opacity:0.55;fill:#3D9FA1;}.st4{fill:#DD3C3C;}.st5{fill:#EB5B58;}.st6{fill:#C5DAE0;}.st7{fill:#EFEEEE;}.st8{opacity:0.75;fill:#BCE1E5;}</style>
<rect class="st0" width="512" height="512"/>
<circle class="st1" cx="254" cy="254" r="160"/>
<path class="st2" d="m172.47 129.18c2.9774-1.1266 5.8742 5.2305 13.76 8.6907 2.4141 1.0461 5.8743 2.0117 9.0126 0.72423 1.0461-0.40234 1.9313-1.1266 1.8508-1.5289-0.16094-0.80469-3.6211 0.64375-5.8742-1.207-1.5289-1.207-0.96564-2.575-2.575-3.943-1.6094-1.2875-3.2188-0.40234-3.943-1.4484-1.0461-1.4484 0.32187-4.9086 2.736-6.0352 1.1266-0.48282 2.4141-0.32188 4.8282 0.16093 3.0578 0.64376 4.8282 0.96563 6.679 2.2531 2.4945 1.9313 1.9312 3.4602 4.1039 4.4258 2.0922 0.88516 4.5063 0.64375 6.3571-0.72422 1.368-1.0461 1.368-2.0117 2.575-2.2531 1.6094-0.40234 3.782 0.88516 3.943 2.0922 0.0805 1.4484-2.736 2.736-3.2992 2.9774-2.4945 1.0461-3.943 0.32187-6.0352 1.8508-1.207 0.64375-1.7703 2.0117-1.1266 3.2188 0.0805 0.24141 0.24141 0.48282 0.48282 0.72422 0.2414 0.32188 1.2875 1.368 7.9664 0.80469 2.736-0.24141 4.2649-0.32187 4.8282-1.0461 2.0922-1.9313 0.32188-4.9086 2.4141-6.6789 1.4484-1.1266 3.4602-1.207 5.0696-0.16094 0.72422 0.64376 1.1266 1.368 1.2875 2.2531 0.40235 1.9313-0.48282 2.575 0 4.2649 0.0805 0.16094 0.64375 1.7703 1.8508 2.0117 1.207 0.2414 2.0922-0.96563 3.4602-2.0922 1.7703-1.4484 3.5406-2.736 5.5524-3.943 5.15-2.8969 11.829 0.0805 13.197 0.72422 2.4946 0.96563 4.6672 2.4945 6.3571 4.5867 1.5289 1.7703 2.575 3.782 3.1383 6.0352 0.40235 1.5289 0.40235 3.2992 0 4.8281-0.72423 2.4945-2.4141 4.6672-4.7477 5.8742-2.4945 1.1266-5.4719 1.1266-7.9664 0-1.4484-0.32187-2.6555-1.2875-3.4602-2.575-0.8047-1.5289-0.72423-3.782 0.48281-4.7477 0.80469-0.64375 1.5289-0.16094 3.2992-1.0461 0.64375-0.32187 1.6094-0.88516 1.6094-1.4484 0-0.96563-2.1727-1.5289-2.9774-1.8508-2.0922-0.80469-4.3454-0.80469-6.518-0.16094-1.1266 0.40234-1.4484 0.80469-3.7016 1.6094-0.72423 0.24141-1.0461 0.32188-1.8508 0.72422-1.368 0.48281-1.9313 0.88517-2.9774 1.2875-1.5289 0.72422-3.2188 1.207-4.9086 1.6094-0.88516 0.24141-1.7703 0.40235-2.575 0.48282-1.4484 0-3.0578-0.16094-4.4258-0.72422-1.368-0.32189-6.4375-1.2875-10.622 0.72422-0.48282 0.2414-1.0461 0.48281-1.4484 0.80468-2.736 1.6094-4.1844 2.4946-4.5868 3.943-0.24141 1.1266-0.0805 2.3336 0.48282 3.2992 0.40234 0.72423 0.96562 1.207 1.6094 1.6094 0.72422 0.48281 1.4484 1.0461 2.2531 1.4484 0.64376 0.24141 1.207 0.64375 1.8508 1.0461 1.6094 1.2875 1.8508 3.5406 2.0117 4.7477 0.16094 1.207-0.24141 1.368-0.16094 3.1383 0.0805 1.368 0.16094 2.4945 0.8047 2.9774 0.64375 0.40235 1.9312 0 3.1383-0.48281 2.2531-1.0461 2.4946-1.8508 4.2649-2.736 2.3336-1.207 2.8969-0.24141 5.3914-1.4484 1.2875-0.64376 3.2188-1.4484 4.1039-3.3797 1.1266-2.4141-0.48281-4.1039 0.88516-6.518 0.48282-0.88516 1.207-1.5289 2.0117-2.1727 1.2875-1.0461 2.9774-1.7703 4.5868-1.8508 0.32188 0 3.7821-0.0805 5.3914 2.0922 0.64375 0.96563 0.96563 2.0117 1.1266 3.1383 0.0805 0.80469 0.24141 1.4484 0.48281 2.2531 0.0805 0.80469 0.32188 1.4484 0.8047 2.0922 0.72422 0.64376 1.6094 0.88517 2.575 0.72423 2.4141-0.24141 3.3797-2.4141 4.5867-2.0117 0.72422 0.24141 0.96563 1.2875 1.0461 1.4484 0.16094 0.72423-0.0805 1.1266-0.32188 2.2531-0.24141 0.80469-0.32188 1.5289-0.32188 2.3336 0.24141 2.0117 3.7821 1.7703 5.5524 4.2649 1.207 1.8508 1.207 4.2649 0 6.0352-1.9313 2.3336-6.5985 1.2875-7.1618 1.1266-1.8508-0.40235-2.0922-1.0461-3.5406-1.0461-2.2531 0.0805-2.575 1.4484-4.5867 1.6094-2.4141 0.16093-2.8969-1.7703-5.7133-2.0117-1.9313-0.0805-3.782 0.48281-5.3914 1.6094-1.8508 1.4484-3.0578 3.4602-3.6211 5.7133-3.3797 10.702-31.785 19.715-37.177 25.67-1.2875 1.207-2.1727 2.736-2.575 4.5063-0.24141 1.6094 0.24141 2.3336-0.40235 3.2992-1.0461 1.368-3.4602 1.5289-5.2305 0.96563-1.368-0.48281-2.4945-1.4484-3.2992-2.6555-0.80469-1.207-0.48281-1.7703-1.207-3.0578-0.72422-1.0461-1.6094-1.9312-2.6555-2.575-3.6211-2.2531-9.7368-0.48282-10.944-0.16094-1.9313 0.48281-9.5758 2.6555-13.519 9.7368-1.0461 1.7703-2.1727 3.943-1.4484 6.2766 0.80469 2.4141 2.9774 4.2649 5.4719 4.6672 2.3336 0.24141 4.7477-1.1266 6.6789-2.1727 1.207-0.72423 2.575-1.207 4.0235-1.4484 1.1266-0.32188 1.4484-0.32188 1.6094-0.16094 0.48281 0.40234 0 1.8508-1.207 5.8742-0.88517 2.736-1.0461 3.2992-0.72422 3.782 0.88516 1.5289 3.3797 0.32187 4.9086 1.8508 2.0117 2.0117-1.1266 5.6328 1.0461 10.22 0.64375 1.368 1.6094 2.575 2.8969 3.4602 1.6094 1.0461 3.6211 1.6094 5.6328 1.6094 2.575 0.40235 5.2305 0.16094 7.6446-0.80469 3.943-1.7703 3.7821-4.5867 6.4375-4.8281 3.3797-0.32188 6.5985 4.2649 7.0008 4.8281 1.9312 2.8969 1.2875 4.3453 2.9774 5.3914 2.1727 1.2875 3.782-0.88516 7.5641-0.24141 3.3797 0.48282 5.6328 2.736 7.5641 4.5868 3.3797 3.2992 2.4946 4.6672 5.3914 6.7594 3.4602 2.4945 5.5524 1.1266 7.5641 3.4602 1.8508 2.2531 0.40234 4.0234 2.1727 7.8055 1.207 2.4945 3.0578 4.6672 5.3914 6.1961 3.2992 2.1727 4.6672 1.0461 11.024 2.6555 3.6211 1.0461 7.4032 2.0117 10.783 5.15 1.4484 1.368 4.5063 4.1039 4.3453 7.8055-0.16094 1.6094-0.80469 3.2992-1.9313 4.5867-2.6555 3.4602-5.5524 2.4141-7.8055 4.8282-3.2992 3.5406 0.64375 7.886-2.4141 15.128-0.88516 2.0117-2.3336 5.4719-5.6328 7.0008-4.3453 2.0117-7.4032-1.2875-11.266 1.0461-3.0578 1.8508-4.1039 5.3914-4.3454 6.1961-0.96562 3.2188 0.24141 4.2649-0.2414 6.7594-0.88517 4.1039-5.0696 6.2766-11.507 9.7368-6.7594 3.5406-10.139 5.3914-12.392 6.1961-1.6094 0.64375-4.5063 1.5289-4.8282 3.4602-0.2414 1.5289 1.207 2.3336 1.0461 4.3453-0.16095 2.0117-1.8508 2.2531-2.6555 4.1039-1.4484 3.1383 1.207 7.5641 4.3453 12.634 2.575 4.2649 4.1039 5.5524 3.4602 7.3227-0.80469 2.4945-4.9086 3.2188-5.3914 3.2188-3.6211 0.48282-7.725-1.368-9.1735-4.3453-0.64376-1.2875-0.24142-1.8508-1.2875-4.8281-0.32189-1.368-1.0461-2.575-1.9313-3.7016-1.6094-1.8508-2.9774-1.0461-4.5867-2.6555-1.6094-1.6094-1.8508-4.2649-1.9313-5.6328 0-0.96563 0.0805-1.1266 0.8047-5.3914 0.80469-4.4258 0.80469-5.15 0.80469-5.8742-0.0805-1.6094-0.32188-3.2992-0.80469-4.8282-0.72423-2.575-1.4484-5.15-2.4141-7.5641-1.6094-4.1844-0.24141-7.4836 2.4141-22.612 2.0117-11.346 1.9313-13.197 1.1266-15.128-2.0117-4.6672-5.0696-4.1844-10.22-9.9782-2.0117-2.1727-7.8055-8.6907-8.2883-17.784-0.0805-1.7703-0.48281-10.863 5.15-16.657 2.3336-2.4141 5.4719-4.0234 5.8742-7.5641 0.2414-1.5289-0.16094-3.1383-1.0461-4.3453-1.2875-1.368-3.2188-1.368-4.8282-1.6094-3.4602-0.40235-6.8399-1.4484-9.9782-3.2188-5.2305-3.1383-2.8969-7.8055-8.8516-13.438-2.4141-2.1727-5.2305-3.782-8.2883-4.8282-5.7938-1.8508-7.3227 0.40234-10.461-1.0461-6.2766-2.9774-8.7711-15.289-8.2883-23.899 0.16094-3.782 1.0461-8.2078-1.368-9.9782-1.0461-0.72423-2.3336-0.88517-3.4602-0.24142-1.6094 1.1266-1.2875 4.5868-0.48282 6.7594 0.64376 1.7703 1.207 1.8508 1.368 3.2188 0.16094 1.6094-0.40235 4.1039-2.1727 4.8281-2.0117 1.0461-4.5868-0.48281-5.8742-2.1727-1.9313-2.3336-1.4484-5.6328-1.1266-8.8516 0.16094-1.5289 0.40234-2.4141 0.80469-5.3914 0.32188-2.6555 0.24141-3.6211 0-4.5867-0.32188-1.207-0.88516-1.5289-2.4141-3.7016-2.575-4.1844-0.32187-10.059 0.72423-12.634 6.0352-14.887 22.37-32.751 22.451-32.751 14.645-15.933 23.417-23.336 28.164-21.002 2.0117 1.0461 4.4258 4.2649 6.8399 3.4602 0.2414-1.0461 0.16093-1.9313 1.207-2.4141z"/>
<path class="st2" d="m413.39 258.65c-0.0805 2.4945-0.16094 4.9086-0.32188 7.4836-5.7938 34.199-9.093 45.304-20.278 66.387-1.0461 1.368-2.1727 2.9774-3.5406 4.6672-2.2532 3.0578-5.15 6.6789-8.6907 11.185-3.5406 4.5063-6.0352 7.725-7.5641 7.0813-1.1266-0.40234-1.207-2.4141-1.5289-6.357-0.48282-5.7133 0.40234-6.518-0.40235-9.8977-0.88516-3.6211-2.0117-3.4602-2.4141-6.7594-0.24141-2.2531 0.16094-2.7359 0.40235-7.0813 0.16094-4.6672-0.32188-4.5063 0-6.3571 0.96563-5.0696 4.5867-5.311 5.15-9.093 0.64375-4.1039-3.3797-4.7477-4.3453-10.783-0.96563-5.7133 2.3336-7.886 0.40235-11.909-1.7703-3.6211-5.7133-4.9086-6.3571-5.15-4.1039-1.2875-6.2766 0.80469-13.116 1.5289-3.5406 0.40235-6.8399 0.88517-10.3 0-7.4032-1.8508-15.128-9.093-14.645-15.852 0.24141-4.4258 3.943-5.6328 4.0235-11.909 0-2.8969-0.72422-3.7016 0-6.3571 0.80469-2.8969 2.4141-5.3914 4.7477-7.0813 2.9774-2.2531 4.1844-1.207 7.0813-3.2188 3.782-2.575 2.8969-5.15 5.9547-7.5641 3.2992-2.575 7.4032-2.0922 15.45-1.207 6.1961 0.72423 9.254 1.0461 11.909 3.5406 2.6555 2.4945 1.7703 4.3453 4.7477 6.7594 2.6555 2.0922 6.1961 3.1383 9.5758 2.736 3.2188-0.40235 3.7821-2.0117 6.3571-1.5289 2.4945 0.40235 2.9774 1.9313 5.5524 3.2188 3.6211 1.8508 5.7938-0.48281 8.2883 1.207 0.48281 0.32187 1.6094 1.207 2.736 4.5063 0.24141 0.80469 0.48282 1.6094 0.8047 2.4141v0.16094c0.40234 1.6898 0.16094 3.5406 0.32188 5.2305z"/>
<path class="st2" d="m411.78 229.92-0.2414 0.48281c-0.40236 0.32188-0.88517 0.64376-1.368 0.72423-2.575 0.80469-5.0696-0.64376-6.679-1.368-1.5289-0.48281-2.8969-1.5289-3.782-2.8969-1.9313-3.0578 0-6.7594-0.96564-7.1617-0.80469-0.32188-2.0922 1.9313-4.7477 4.5063-1.6094 1.6094-5.8743 5.7133-7.6446 4.7477-2.2531-1.1266 1.8508-9.0125-0.96563-17.945-0.80469-2.3336-2.0117-4.5063-3.5406-6.4375-2.0117-2.4141-3.5406-2.9774-4.1039-3.1383h-0.2414c-1.2875-0.32187-2.575-0.32187-3.943 0-1.6094 0.32188-4.0235 0.80469-4.5063 2.4141-0.0805 0.16094-0.16094 0.40235-0.16094 0.72423 0.16094 1.1266 0.64375 2.2531 1.2875 3.2188 1.0461 1.6094 2.575 2.9774 4.5063 3.5406 2.736 0.80469 4.2649-0.80469 5.4719 0.2414 1.207 1.0461 0.16094 2.4946 1.207 5.4719 0.72423 1.7703 1.6094 3.3797 2.8969 4.7477-0.48281-0.48282-1.0461-1.0461-1.6094-1.368-1.368-0.72422-3.2992-0.8047-3.7821 0-0.64375 1.0461 1.4484 2.4945 0.96564 3.5406-0.48282 1.0461-3.5406 0.80469-5.9547 0.48281-0.64376-0.0805-6.2766-0.80469-6.2766-1.9313s4.4258-0.80468 5.7133-3.5406c0.32187-0.80469 0.48281-1.7703 0.2414-2.575-0.80468-2.2531-3.7016-1.5289-6.2766-4.1039-2.4946-2.4946-1.6094-5.15-3.5406-5.7133-1.4484-0.48282-2.1727 1.1266-5.311 1.9312-3.4602 0.96563-4.4258-0.72422-7.1618 0.24141s-2.4946 2.4141-5.9547 5.0696c-2.2531 1.6094-4.8282 2.8969-7.6446 3.5406-3.2992 1.1266-6.9204 1.207-10.3 0.2414-1.8508-0.64375-5.311-1.7703-6.9204-5.0695-2.0117-3.943-0.88516-9.5758 2.1727-11.266 4.1039-2.3336 9.093 3.943 14.163 1.207 1.6094-1.0461 3.0578-2.4945 3.782-4.3453 1.8508-3.5406 0.40235-6.0352 2.1727-7.4032 1.7703-1.2875 3.4602 0.72423 6.6789-0.48281 2.3336-0.88516 3.6211-2.6555 4.7477-4.3453 2.736-3.782 2.0117-6.2766 4.1039-7.1618 1.5289-0.72422 2.2531 0.48281 5.0696 0.72422h1.0461c0.80468 0 1.6094-0.0805 2.4141-0.16094 1.5289-0.24141 3.3797-0.96563 4.0235-2.4141 0.48282-1.2875 0.24141-2.736-0.72422-3.782-1.1266-0.96563-2.4141-0.32187-4.1039-0.16094-0.8047 0.0805-1.6094 0-2.4141-0.2414-0.16094-0.0805-0.2414-0.0805-0.40234-0.16094-2.2531-1.207-3.4602-4.1844-3.6211-6.518-0.16094-3.3797 1.4484-6.5985 4.3453-8.4492 0.2414-0.16094 0.64375-0.24141 0.96563-0.32188l0.32187-0.0805c2.736-0.80469 5.311 0.48282 7.0813-1.368 1.368-1.4484 0.72423-3.1383 1.6094-3.5406 0.72421-0.32188 1.7703 0.0805 2.9774 1.0461 1.0461 0.80469 2.0117 1.6094 2.8969 2.575 2.1727 2.3336 4.1844 4.8281 6.0352 7.4032 1.1266 1.4484 2.0922 2.9774 3.0578 4.3453 0.0805 0.16094 0.16094 0.32188 0.32188 0.40235 1.9312 2.9774 3.4602 5.6328 4.8282 8.1274 1.0461 1.8508 1.8508 3.4602 2.575 4.9086 1.4484 2.8969 2.6555 5.3914 3.6211 7.4836 0.24141 0.48281 0.40234 0.96563 0.72423 1.4484 0.72422 1.6094 1.207 2.8969 1.5289 3.6211 0.16094 0.40234 0.64375 1.5289 1.2875 3.1383 0 0.0805 0.0805 0.0805 0.0805 0.16095 0.32187 0.96562 0.80469 2.0922 1.207 3.2992 0.80468 2.2531 1.7703 4.8282 2.4945 7.6446 0.40235 1.4484 0.88516 3.0578 1.7703 6.0352 0.48281 1.5289 0.88516 3.2188 1.207 4.8282 0.32188 2.0117 0.16094 2.0117 0.48282 4.1039 0.32187 3.8625 1.2875 5.8742 0.80469 7.0813z"/>
<path class="st3" d="m239.58 413.39c-13.197-6.0352-25.428-14.082-36.372-23.577l-0.0805-0.0805c-6.5985-5.8742-12.714-12.312-18.186-19.232l-0.0805-0.0805c-24.06-30.256-36.774-70.25-33.153-114.67 0.2414-3.7016 0.72422-7.4836 1.2875-11.185 0.48282-3.7016 1.207-7.4032 2.0922-11.024v-0.0805c1.4484-6.7594 3.4602-13.358 5.8742-19.876v-0.0805c21.485-58.018 74.595-98.253 136.23-103.48 7.8055-0.72422 15.691-0.80469 23.497-0.32188-17.945-8.2883-37.257-13.197-56.972-14.404-7.725-0.40234-15.531-0.24141-23.256 0.48282-9.4149 0.80469-18.91 2.4141-28.084 4.8281l-1.207 0.32188-0.88517 0.24141c-19.956 5.5524-38.545 15.128-54.8 27.842l-0.16094 0.0805c-9.3344 7.3228-17.945 15.531-25.428 24.704l-0.0805 0.16094c-0.88516 1.0461-1.6094 2.0922-2.4141 3.0578l-0.48282 0.64376c-0.72422 0.96562-1.4484 1.9312-2.1727 2.8969-0.0805 0.16094-0.24141 0.24141-0.32188 0.40235-5.15 7.0813-9.7368 14.565-13.599 22.451l-0.0805 0.32188c-8.9321 18.025-14.404 37.66-15.933 57.777-0.40235 4.6672-0.64375 9.2539-0.64375 13.76 0.48282 83.044 64.214 150.96 145.41 158.12z"/>
<path class="st4" d="m445.98 143.74c-0.80468 4.9086-2.4141 9.6563-4.9086 14.002-0.24141 0.40234-0.48282 0.88515-0.88516 1.2875-2.9774 4.3453-6.518 8.1274-10.622 11.427-3.0578 2.4945-6.2766 4.8282-9.5758 6.9203-0.0805 0.0805-0.16093 0.0805-0.32187 0.16094-6.2766 4.0234-12.714 7.5641-19.554 10.702l-0.16094 0.0805c-5.2305 2.4141-10.059 4.5063-14.163 6.0352-6.679 2.575-11.266 4.1844-11.909 4.3453-0.16095 0.0805-0.40236 0.0805-0.64376 0.16094-0.40235 0.0805-0.88517 0.0805-1.207-0.0805-0.32188-0.0805-0.72422-0.16094-1.0461-0.32188h-0.0805c-0.88516-0.48281-1.4484-1.368-1.7703-2.3336-1.1266-5.6328-2.0117-11.266-2.6555-16.899l-0.72422-6.518c-0.32188-3.3797-0.64375-6.8399-0.80469-10.22l-0.24141-5.5524v-4.7477c0-4.5868 0.24141-9.254 0.88516-13.841 0.32188-2.736 0.88516-5.5524 1.4484-8.2883 0.96564-4.3453 2.4946-8.5297 4.6672-12.392 2.736-4.7477 6.518-8.9321 11.024-12.231 17.864-13.036 42.81-9.0125 55.846 8.8516 2.4945 3.4602 4.5063 7.4032 5.7938 11.427v0.0805l0.48281 1.9313c0.0805 0.32188 0.16094 0.72422 0.24141 0.96563 0.16094 0.72422 0.32188 1.4484 0.40235 2.1727 0.0805 0.40234 0.16094 0.80469 0.16094 1.207l0.2414 2.4141c0.64376 3.0578 0.56329 6.1156 0.0805 9.2539z"/>
<path class="st5" d="m445.98 143.74c-0.80468 4.9086-2.4141 9.6563-4.9086 14.002-0.24141 0.40234-0.48282 0.88515-0.88516 1.2875-2.9774 4.3453-6.518 8.1274-10.622 11.427-3.0578 2.4945-6.2766 4.8282-9.5758 6.9203-0.0805 0.0805-0.16093 0.0805-0.32187 0.16094-6.2766 4.0234-12.714 7.5641-19.554 10.702l-0.16094 0.0805c-5.2305 2.4141-10.059 4.5063-14.163 6.0352-6.679 2.575-11.266 4.1844-11.909 4.3453-0.16095 0.0805-0.40236 0.0805-0.64376 0.16094-0.40235 0.0805-0.88517 0.0805-1.207-0.0805-0.32188-0.0805-0.72422-0.16094-1.0461-0.32188h-0.0805l17.864-30.82 0.32188-0.48281 3.4602-5.8742 3.6211-6.2766 5.7133-9.8172 0.16094-0.2414 0.24141-0.40235 0.0805-0.0805 0.24141-0.32187 3.2188-5.5524 2.6555-4.5867 7.8055-13.358 0.0805-0.16094v-0.0805l10.22-17.14c8.6102 5.0696 14.967 13.036 18.025 22.451v0.0805l0.48281 1.9313c0.0805 0.32187 0.16094 0.72422 0.24141 0.96563 0.16094 0.72422 0.32188 1.4484 0.40235 2.1727 0.0805 0.40234 0.16093 0.80469 0.16093 1.207l0.24141 2.4141c0.40235 3.1383 0.32188 6.2766-0.16094 9.2539z"/>
<path class="st6" d="m396.33 155.01c-9.6563-5.5524-12.875-17.864-7.3227-27.52 5.5524-9.6563 17.864-12.875 27.52-7.3227 9.6563 5.5524 12.875 17.864 7.3227 27.52-5.5524 9.5758-17.864 12.875-27.52 7.3227z"/>
<path class="st7" d="m416.53 120.25-20.198 34.682c9.6563 5.5524 21.968 2.2531 27.52-7.4032 5.3914-9.3344 2.4141-21.324-6.679-27.038-0.16094-0.0805-0.40235-0.16094-0.64376-0.24141z"/>
<path class="st8" d="m460.94 234.32c4.1015-14.235-4.1015-29.193-18.336-33.375-3.1364-10.776-7.077-21.151-11.983-31.284-0.72379 0.64337-1.4476 1.2063-2.3322 1.9301-1.1258 0.96507-2.3322 1.8497-3.5386 2.654 0-0.0804-0.0804-0.0804-0.0804-0.16087-8.4444 5.6295-20.347 11.983-25.413 14.476 36.189 80.341 0.4021 174.92-79.938 211.03-20.507 9.2483-42.864 14.074-65.463 14.155-88.057-0.0804-159.47-71.495-159.47-159.63 0-88.138 71.494-159.47 159.55-159.39 41.658 0 81.708 16.406 111.55 45.519 0.80421-8.2835 3.4581-18.417 7.64-24.609 6.2728-9.4897 16.084-15.762 27.182-17.532-3.056-1.0455-6.3533-1.528-9.5702-1.4476-5.4686-0.08042-10.857 1.6084-15.36 4.7449-9.0069-7.0771-18.738-13.43-28.871-18.819 0.72379-1.2868 1.2063-2.654 1.6084-4.1819 3.2972-11.902-3.6188-24.207-15.521-27.504-1.9301-0.48253-3.8603-0.80422-5.7903-0.88468-9.8913-0.08042-18.979 6.3534-21.713 16.326-43.83-11.501-90.311-7.3988-131.41 11.741-6.6749-9.8116-19.944-12.305-29.755-5.6295-8.203 5.6295-11.5 16.165-7.8812 25.413-9.5702-5.147-21.392-1.528-26.539 7.9618-3.2972 6.1925-3.1364 13.672 0.64337 19.704-8.6046 9.6507-16.084 20.105-22.598 31.204-3.2168-0.72379-6.4337-1.0454-9.7311-1.0454-15.279 0-27.665 7.3988-27.665 16.406 0 8.0422 9.7311 14.797 22.518 16.165-3.1364 8.6054-5.6295 17.451-7.4791 26.379-8.5249 1.1259-15.199 13.028-15.199 27.585 0 12.385 4.8253 23 11.5 26.459 1.2867 19.301 5.6295 38.442 12.626 56.537-11.58 1.528-19.864 12.305-18.255 24.046 0.48253 4.0211 2.1713 7.8009 4.7449 10.857-6.5141 3.7798-10.455 9.0069-10.455 14.717 0 11.822 16.808 21.311 37.636 21.311 10.857 0 20.748-2.654 27.584-6.8358 14.556 15.28 31.525 27.987 50.263 37.798-0.0804 0.64337-0.0804 1.1259-0.0804 1.7693 0 11.822 9.5702 21.392 21.392 21.392 6.5945 0 12.706-3.056 16.808-8.1226 16.727 4.584 34.098 6.9163 51.47 6.9163h0.16085c-0.0804 0.40211-0.16085 0.80421-0.16085 1.2063 0 6.5141 12.465 11.741 27.825 11.741s27.825-5.2274 27.825-11.741c0-2.9756-2.4126-5.5492-6.5141-7.5597 34.098-8.9264 65.06-26.941 89.667-52.194 4.021 5.3078 12.947 8.9264 23.402 8.9264 14.073 0 25.493-6.675 25.493-14.878 0-5.2274-4.584-9.8116-11.5-12.465 1.4476-2.1714 2.3322-4.6645 2.3322-7.3184 0-5.5491-3.7798-10.455-9.8913-13.833 13.108-22.92 21.311-48.092 24.287-74.31 6.4337-2.3322 10.696-8.4444 10.696-15.28-0.0804-5.3078-2.493-10.294-6.6749-13.591 4.1818-3.619 7.2379-8.2835 8.7655-13.43z"/>
</svg>
