<svg id="Livello_1" data-name="Livello 1" xmlns="http://www.w3.org/2000/svg" xmlns:xlink="http://www.w3.org/1999/xlink" viewBox="0 0 395.95 374.01"><defs><style>.cls-1{fill:url(#Sfumatura_senza_nome_2);}.cls-2{fill:#724c21;}.cls-3{fill:#31aa4e;}.cls-4{fill:#7ebb43;}.cls-5{fill:#64b32e;}.cls-6{fill:#b36049;}.cls-7{fill:#9a513f;}.cls-8{fill:#f59d1b;}.cls-9{fill:#ffe571;}.cls-10{fill:#ffd405;}.cls-11{fill:#fcbf05;}</style><linearGradient id="Sfumatura_senza_nome_2" x1="108.62" y1="419.93" x2="481.18" y2="419.93" gradientUnits="userSpaceOnUse"><stop offset="0" stop-color="#f9b233"/><stop offset="1" stop-color="#e6332a"/></linearGradient></defs><title>experiencesun</title><path class="cls-1" d="M481.18,419.93c0,102.88-83.4,186.28-186.28,186.28s-186.28-83.4-186.28-186.28A186.27,186.27,0,0,1,294.9,233.65C397.78,233.65,481.18,317.05,481.18,419.93Z" transform="translate(-99.87 -233.65)"/><path class="cls-2" d="M443.54,533.66a186.28,186.28,0,0,1-297.28,0C159.38,511.8,194.1,494.14,239,486c1.73-.32,3.47-.61,5.22-.89s3.74-.6,5.63-.86c1.38-.2,2.78-.39,4.18-.56.48-.07,1-.13,1.45-.18,1.23-.16,2.47-.31,3.71-.44q5.76-.65,11.68-1.07c7.83-.57,15.86-.87,24-.87q7.28,0,14.39.31c2.4.1,4.79.23,7.15.39q9.12.59,17.87,1.68,2.81.33,5.56.73h.07q5.22.74,10.28,1.65a243.89,243.89,0,0,1,35.33,9C413.29,504.25,434.05,517.86,443.54,533.66Z" transform="translate(-99.87 -233.65)"/><path class="cls-3" d="M416.25,361.27c-1.62-4.45-9-4.45-10.58,0l-32.76,90.8a5.62,5.62,0,0,0,3.36,7.22L420,464l13.12-55.58Z" transform="translate(-99.87 -233.65)"/><path class="cls-4" d="M494.78,491.05a5.72,5.72,0,0,1-4.62,2.36H454.65l-9.91-8.55-38.06-32.78,32.77-90.8a5.83,5.83,0,0,1,10.58,0l45.43,124.59A5.73,5.73,0,0,1,494.78,491.05Z" transform="translate(-99.87 -233.65)"/><path class="cls-5" d="M494.78,491.05a5.72,5.72,0,0,1-4.62,2.36H454.65l-9.91-8.55v-127a5.39,5.39,0,0,1,5.29,3.38l45.43,124.59A5.73,5.73,0,0,1,494.78,491.05Z" transform="translate(-99.87 -233.65)"/><path class="cls-6" d="M460,457.94l-9.58,9.68V472a5.63,5.63,0,0,1-11.26,0V431.48a5.63,5.63,0,0,1,11.26,0v20.15l1.69-1.57a5.58,5.58,0,0,1,7.89,7.88Z" transform="translate(-99.87 -233.65)"/><path class="cls-7" d="M460,457.94l-9.58,9.68V472a5.57,5.57,0,0,1-5.63,5.63v-51.8a5.57,5.57,0,0,1,5.63,5.63v20.15l1.69-1.57a5.58,5.58,0,0,1,7.89,7.88Z" transform="translate(-99.87 -233.65)"/><path class="cls-8" d="M494.89,541.43,438.21,451a5.67,5.67,0,0,0-4.73-2.59H354.65l19.46,57.49,34.71,44.24h81.34a5.75,5.75,0,0,0,5-2.93A5.54,5.54,0,0,0,494.89,541.43Z" transform="translate(-99.87 -233.65)"/><path class="cls-9" d="M408.82,550.1H360.28l-5.63-11.26L349,550.1H309.23a5.85,5.85,0,0,1-4.84-2.71,5.71,5.71,0,0,1-.23-5.4L349,452.65h11.26Z" transform="translate(-99.87 -233.65)"/><path class="cls-10" d="M408.82,550.1H360.28l-5.63-11.26V452.65h5.63Z" transform="translate(-99.87 -233.65)"/><path class="cls-11" d="M360.28,452.65V550.1H349V452.65l.56-1.13a5.66,5.66,0,0,1,10.14,0Z" transform="translate(-99.87 -233.65)"/><circle class="cls-10" cx="77.33" cy="81.84" r="77.33"/></svg>