<svg id="Livello_1" data-name="Livello 1" xmlns="http://www.w3.org/2000/svg" viewBox="0 0 182.24 219.93"><defs><style>.cls-1{fill:#1bae89;}.cls-2{fill:#1c8264;}.cls-3{fill:#1E90FF;}.cls-4{fill:#9b4a7e;}.cls-5{fill:#179e7f;}.cls-6{fill:#1f6e55;}.cls-7{fill:#020303;}.cls-8{fill:#303030;}.cls-9{fill:#1d1d1b;}</style></defs><title>friend_remove</title><path class="cls-1" d="M414.14,187.77c-46.33,0-83.88,17.39-83.88,68,0,45,29.66,98.8,68.78,110.22v7.56h0c13.49-5.28,28,0,28,0v-4.37a47.14,47.14,0,0,1-16.18-1.1c1.07.07,2.15.1,3.23.1a53.42,53.42,0,0,0,13-1.6h0c40.18-10,70.94-65,70.94-110.81C498,205.16,460.46,187.77,414.14,187.77ZM397.38,326.52c-10,8.81-26.32,16.92-38.79.05-5.07-6.88-8.72-16.83-10.6-26.81-2.86-8.38-3.38-17.25-1.69-24.26v0a21.5,21.5,0,0,1,.76-2.86c.06-.18.12-.36.2-.54l.12-.33.06-.12a.25.25,0,0,0,0-.07l.15-.37c.1-.23.2-.44.31-.66s.33-.67.51-1a1.4,1.4,0,0,0,.1-.16l.19-.33c.09-.14.17-.28.27-.42l0,0,.05-.08v0l0,0v0l.06-.09a14.86,14.86,0,0,1,2.36-2.71l.08-.07,0,0,.09-.08,0,0,.09-.07,0,0,.1-.09.06-.05.07-.06.06-.05c.22-.18.45-.36.69-.53l.18-.12c10.19-7.31,28.27-5.42,40.39,9.6,8.11,10,11.56,23.51,10.2,33.91.45,7.77-1.6,14.52-6.28,18.64Zm72.3.05c-12.47,16.88-28.78,8.76-38.79-.05-4.68-4.12-6.73-10.87-6.31-18.6-1.35-10.4,2.09-23.86,10.2-33.92,12.2-15.13,30.47-16.94,40.62-9.44l.06.05.58.44,0,0,.26.22,0,0,.2.18.11.09.08.08.17.15.26.26a17.59,17.59,0,0,1,4.73,9.12,2.34,2.34,0,0,1,0,.26h0c1.71,7,1.19,15.89-1.68,24.27-1.86,10-5.52,20-10.59,26.84Z" transform="translate(-330.26 -187.77)"/><path class="cls-1" d="M401.38,373.23c-.78.11-1.56.24-2.34.37h0C399.82,373.46,400.59,373.34,401.38,373.23Z" transform="translate(-330.26 -187.77)"/><path class="cls-1" d="M427.08,373.59h0l-.14,0Z" transform="translate(-330.26 -187.77)"/><path class="cls-1" d="M427.08,366.62v2.6a47,47,0,0,1-16.16-1.1c1.07.07,2.14.1,3.22.1A53.26,53.26,0,0,0,427.08,366.62Z" transform="translate(-330.26 -187.77)"/><path class="cls-2" d="M427.08,366.62v2.6h0a47,47,0,0,1-16.16-1.1c1.07.07,2.14.1,3.22.1A53.26,53.26,0,0,0,427.08,366.62Z" transform="translate(-330.26 -187.77)"/><path class="cls-3" d="M481.18,407.7H344.93c0-11.26,22.25-26.69,47.44-32.72a27.65,27.65,0,0,0,20.68,9.74,28.33,28.33,0,0,0,14-3.82,31.79,31.79,0,0,0,7.41-5.74C459.37,381.32,481.18,396.55,481.18,407.7Z" transform="translate(-330.26 -187.77)"/><path class="cls-3" d="M398.8,373.64l-2.58.48Q397.51,373.85,398.8,373.64Z" transform="translate(-330.26 -187.77)"/><path class="cls-3" d="M401.38,373.23c-.78.11-1.56.24-2.34.37h0l-.23,0,.23-.05h0C399.82,373.46,400.59,373.34,401.38,373.23Z" transform="translate(-330.26 -187.77)"/><path class="cls-3" d="M427.83,373.72l-.76-.13h0l-.14,0,.15,0Z" transform="translate(-330.26 -187.77)"/><path class="cls-3" d="M431.57,374.46l-2.41-.49C430,374.12,430.77,374.29,431.57,374.46Z" transform="translate(-330.26 -187.77)"/><path class="cls-4" d="M434.48,375.14a31.47,31.47,0,0,1-7.4,5.74,28.41,28.41,0,0,1-14,3.83A27.68,27.68,0,0,1,392.39,375l.95-.23,1-.22,1.93-.4c.86-.17,1.72-.33,2.59-.48l.23,0h0c.13.15,4.26,5.08,14,5.08s13.88-4.93,14-5.08h0l.76.13,1.32.24c.8.16,1.6.34,2.4.49l.5.11c.76.17,1.51.33,2.26.53Z" transform="translate(-330.26 -187.77)"/><path class="cls-5" d="M426.92,373.57l.15,0c-.13.15-4.25,5.08-14,5.08s-13.87-4.93-14-5.08c.78-.13,1.56-.26,2.34-.37q-1.17.16-2.34.36c13.49-5.28,28,0,28,0Z" transform="translate(-330.26 -187.77)"/><path class="cls-5" d="M401.38,373.23c-.78.11-1.56.24-2.34.37h0C399.82,373.46,400.59,373.34,401.38,373.23Z" transform="translate(-330.26 -187.77)"/><path class="cls-5" d="M427.08,373.59h0l-.14,0Z" transform="translate(-330.26 -187.77)"/><path class="cls-1" d="M351.1,266.09a20.15,20.15,0,0,0-4.78,9.37,20,20,0,0,1,.75-2.86c.06-.18.13-.36.2-.54l.12-.33a1.89,1.89,0,0,1,.09-.21c.08-.22.19-.43.28-.64l.12-.27.05-.11.09-.18.09-.17.19-.33.06-.12v0l.08-.14.1-.16.19-.34.13-.2.14-.21,0,0,.05-.08v0l0,0v0l.06-.08.18-.25.12-.18.17-.21a6.44,6.44,0,0,1,.52-.65l.17-.2c.18-.21.37-.41.57-.61l.17-.18a2.28,2.28,0,0,0,.23-.22l.1-.09-.12.12Z" transform="translate(-330.26 -187.77)"/><path class="cls-1" d="M403.69,307.91c.42,7.74-1.65,14.49-6.31,18.61-10,8.81-26.32,16.92-38.79.05-5.07-6.88-8.72-16.83-10.6-26.81a45,45,0,0,0,7.43,13.72c12.23,15.14,31.19,15.59,41.35,8l.23-.17.38-.29.33-.28c3.16-2.74,5.11-7.06,5.88-12.17,0-.3.06-.61.08-.91.62-8.82-3.08-19.73-10.76-29.23-8.44-10.46-19.5-16.58-28.86-16.95h-1.28c-.2,0-.41,0-.61,0s-.33,0-.48,0l-.48.05h0l-.22,0h-.11c-.55.07-1.1.16-1.65.28l-.58.14-.55.15h0l-.49.16-.08,0-.47.16-.12.05a3.52,3.52,0,0,0-.39.16l-.2.08L356,263l-.11.06-.47.23,0,0c-.15.07-.29.15-.43.23l-.19.11-.33.18-.5.32a5,5,0,0,0-.47.33l-.51.38c-.19.14-.33.27-.5.41l-.16-.19-.05.05-.08.06.07-.06.06-.05c.22-.19.45-.36.69-.53l.17-.12c10.21-7.33,28.28-5.42,40.4,9.6C401.6,284.06,405,297.52,403.69,307.91Z" transform="translate(-330.26 -187.77)"/><path class="cls-1" d="M480.28,299.75c-1.86,10-5.52,19.94-10.6,26.82-12.47,16.88-28.77,8.76-38.78-.05-4.68-4.12-6.73-10.87-6.32-18.6-1.34-10.4,2.1-23.86,10.21-33.92,12.2-15.13,30.47-16.94,40.62-9.44-10.12-7.32-27.84-1.26-40,13.88-7.68,9.49-11.39,20.4-10.77,29.23a6.84,6.84,0,0,0,.08.91c.74,5,2.61,9.17,5.61,11.9a7.75,7.75,0,0,0,.62.52l.29.23a.2.2,0,0,0,.09.06l0,0,0,0,0,0,.09.08h0a.41.41,0,0,0,.11.07c10.18,7.54,29.08,7.05,41.27-8.06A44.61,44.61,0,0,0,480.28,299.75Z" transform="translate(-330.26 -187.77)"/><path class="cls-5" d="M480.28,299.75c-1.86,10-5.52,19.94-10.6,26.82-12.47,16.88-28.77,8.76-38.78-.05-4.68-4.12-6.73-10.87-6.32-18.6-1.34-10.4,2.1-23.86,10.21-33.92,12.2-15.13,30.47-16.94,40.62-9.44-10.12-7.32-27.84-1.26-40,13.88-7.68,9.49-11.39,20.4-10.77,29.23a6.84,6.84,0,0,0,.08.91c.74,5,2.61,9.17,5.61,11.9a7.75,7.75,0,0,0,.62.52l.29.23a.2.2,0,0,0,.09.06l0,0,0,0,0,0,.09.08h0a.41.41,0,0,0,.11.07c10.18,7.54,29.08,7.05,41.27-8.06A44.61,44.61,0,0,0,480.28,299.75Z" transform="translate(-330.26 -187.77)"/><path class="cls-2" d="M397.38,326.52c-10,8.81-26.32,16.92-38.79.05-5.07-6.88-8.72-16.83-10.6-26.81a45,45,0,0,0,7.43,13.72c12.23,15.14,31.19,15.59,41.35,8l.23-.17.38-.29.33-.28c3.16-2.74,5.11-7.06,5.88-12.17,0-.3.06-.61.08-.91v.25C404.11,315.65,402.06,322.4,397.38,326.52Z" transform="translate(-330.26 -187.77)"/><path class="cls-6" d="M349.37,268.11a15.05,15.05,0,0,1,1.72-2,20.21,20.21,0,0,0-4.78,9.36,21.36,21.36,0,0,1,.76-2.85c.06-.18.12-.36.2-.54l.12-.33.05-.13,0-.08c0-.12.11-.24.16-.37s.16-.36.25-.54l.14-.29.09-.17.18-.33.07-.12v0l.18-.3.19-.34.13-.2.22-.35,0,0v0A2.24,2.24,0,0,0,349.37,268.11Z" transform="translate(-330.26 -187.77)"/><path class="cls-6" d="M351.68,265.54l0,0-.23.21.07-.07a.27.27,0,0,0,.08-.07Z" transform="translate(-330.26 -187.77)"/><path class="cls-6" d="M351.94,265.3l0,0-.17.14.09-.07Z" transform="translate(-330.26 -187.77)"/><path class="cls-6" d="M403.69,307.91q0,.33-.09.66c0-.3.06-.6.08-.91.61-8.82-3.09-19.73-10.77-29.23-8.44-10.46-19.5-16.58-28.86-16.95h-1.28c-.2,0-.41,0-.61,0s-.33,0-.48,0l-.48.05h0l-.22,0h-.11c-.55.07-1.1.16-1.65.28l-.58.14-.55.15h0l-.49.16-.08,0-.47.16-.12.05a3.52,3.52,0,0,0-.39.16l-.2.08L356,263l-.11.06-.47.23,0,0c-.15.07-.29.15-.43.23l-.19.11-.33.18-.5.32a5,5,0,0,0-.47.33l-.51.38c-.19.14-.33.27-.5.41l-.16-.19c.22-.18.46-.36.69-.53l.17-.12c10.21-7.33,28.28-5.42,40.4,9.6C401.6,284.06,405,297.52,403.69,307.91Z" transform="translate(-330.26 -187.77)"/><path class="cls-7" d="M392.91,278.43c-8.44-10.46-19.5-16.58-28.86-16.95h-1.28c-.2,0-.41,0-.61,0s-.33,0-.48,0l-.48.05h0l-.22,0h-.11c-.55.07-1.1.16-1.65.28l-.58.14-.55.15h0l-.49.16-.08,0-.47.16-.12.05a3.52,3.52,0,0,0-.39.16l-.2.08L356,263l-.11.06-.47.23,0,0c-.15.07-.29.15-.43.23l-.19.11-.33.18-.5.32a5.59,5.59,0,0,0-.47.33l-.51.38c-.19.14-.33.27-.5.41l-.16-.19-.05.05-.08.06-.06,0-.06.05-.17.15-.05,0,0,.05-.23.21h0l0,0-.12.12-.21.21a20.21,20.21,0,0,0-4.78,9.36v.05c-1.69,7-1.17,15.88,1.69,24.25a44.9,44.9,0,0,0,7.43,13.72c12.23,15.14,31.19,15.59,41.35,8l.23-.18.38-.29.33-.28c3.16-2.73,5.11-7.05,5.88-12.17,0-.3.06-.6.08-.91C404.28,298.84,400.59,287.93,392.91,278.43Z" transform="translate(-330.26 -187.77)"/><path class="cls-7" d="M351.32,265.86l.11-.09-.13.12-.2.2a20.15,20.15,0,0,0-4.78,9.37,20,20,0,0,1,.75-2.86c.06-.18.13-.36.2-.54l.12-.33a1.89,1.89,0,0,1,.09-.21c.08-.22.19-.43.28-.64l.12-.27.05-.11.09-.18.09-.17.19-.33.06-.12v0l.08-.14.1-.16.19-.34.13-.2.14-.21,0,0,.05-.08v0l0,0v0l.06-.08.18-.25.12-.18.17-.21a6.44,6.44,0,0,1,.52-.65l.17-.2c.18-.21.37-.41.57-.61l.17-.18A2.22,2.22,0,0,0,351.32,265.86Z" transform="translate(-330.26 -187.77)"/><path class="cls-7" d="M360.86,261.6c-.55.07-1.1.16-1.65.28l-.58.14-.55.16h0l-.49.15-.08,0c-.17.05-.31.11-.47.17l-.12,0a3.52,3.52,0,0,0-.39.16l-.2.08-.37.17-.11,0-.47.23,0,0c-.15.07-.29.15-.43.23l-.19.11-.33.19-.5.31a5,5,0,0,0-.47.33c-.14.12-.33.25-.51.39s-.33.27-.5.41l-.16-.2-.05.05-.08.06.07-.06.06-.05c.22-.18.45-.36.69-.53l.18-.12A16.56,16.56,0,0,1,360.86,261.6Z" transform="translate(-330.26 -187.77)"/><path class="cls-7" d="M403.6,308.57c-.52,5-2.46,9.25-5.88,12.17C400.88,318,402.83,313.68,403.6,308.57Z" transform="translate(-330.26 -187.77)"/><path class="cls-7" d="M351.32,265.86l.11-.09-.13.12Z" transform="translate(-330.26 -187.77)"/><path class="cls-7" d="M351.68,265.54l0,0-.23.21.07-.07a.27.27,0,0,0,.08-.07Z" transform="translate(-330.26 -187.77)"/><path class="cls-7" d="M352,265.27l-.17.14.09-.07,0,0Z" transform="translate(-330.26 -187.77)"/><path class="cls-2" d="M480.28,299.75c-1.86,10-5.52,19.94-10.6,26.82-12.47,16.88-28.77,8.76-38.78-.05-4.68-4.12-6.73-10.87-6.32-18.6v-.25c0,.31.05.61.08.91.75,5,2.61,9.17,5.62,11.9a7.6,7.6,0,0,0,.61.52l.29.23.09.06,0,0,0,0,0,0,.09.08h0l.11.07c10.18,7.54,29.08,7.05,41.27-8.06A44.45,44.45,0,0,0,480.28,299.75Z" transform="translate(-330.26 -187.77)"/><path class="cls-6" d="M475.4,264.56c-10.12-7.32-27.84-1.26-40,13.88-7.68,9.49-11.39,20.4-10.77,29.23a9,9,0,0,0,.08.91c0-.22-.07-.44-.09-.66-1.35-10.4,2.09-23.86,10.2-33.91C447,258.87,465.25,257.07,475.4,264.56Z" transform="translate(-330.26 -187.77)"/><path class="cls-7" d="M482,275.47h0v0a19.45,19.45,0,0,0-5.37-9.91l-.23-.2,0,0-.27-.21,0,0-.57-.45-.06,0c-10.12-7.33-27.84-1.27-40,13.88-7.69,9.47-11.4,20.38-10.78,29.21a9,9,0,0,0,.08.91c.75,5,2.61,9.17,5.62,11.9a7.6,7.6,0,0,0,.61.52l.29.23.09.06,0,0,0,0,0,0,.09.08h0l.11.07c10.18,7.54,29.08,7.05,41.27-8.06a44.62,44.62,0,0,0,7.43-13.73C483.14,291.36,483.66,282.47,482,275.47Z" transform="translate(-330.26 -187.77)"/><path class="cls-7" d="M430.27,320.49a18.21,18.21,0,0,1-5.61-11.9C425.43,313.54,427.28,317.75,430.27,320.49Z" transform="translate(-330.26 -187.77)"/><path class="cls-8" d="M504,228.44l-47.3.24a8.56,8.56,0,0,1-8.61-8.52h0a8.57,8.57,0,0,1,8.52-8.62l47.3-.25a8.57,8.57,0,0,1,8.61,8.53h0A8.57,8.57,0,0,1,504,228.44Z" transform="translate(-330.26 -187.77)"/><path class="cls-9" d="M401.23,350.46a12,12,0,0,1,22.92-.22c1,3.05,5.82,1.74,4.82-1.33a17,17,0,0,0-32.56.22c-1,3.08,3.87,4.4,4.82,1.33Z" transform="translate(-330.26 -187.77)"/></svg>