<svg id="Livello_1" data-name="Livello 1" xmlns="http://www.w3.org/2000/svg" viewBox="0 0 167.76 219.93"><defs><style>.cls-1{fill:#1bae89;}.cls-2{fill:#1c8264;}.cls-3{fill:#1E90FF;}.cls-4{fill:#9b4a7e;}.cls-5{fill:#179e7f;}.cls-6{fill:#1f6e55;}.cls-7{fill:#020303;}.cls-8{fill:#078136;}.cls-9{fill:#1d1d1b;}</style></defs><title>friend</title><path class="cls-1" d="M421.39,187.77c-46.33,0-83.88,17.39-83.88,68,0,45,29.66,98.8,68.78,110.22v7.56h0c13.5-5.28,28,0,28,0v-4.37a47.14,47.14,0,0,1-16.18-1.1c1.07.07,2.15.1,3.23.1a53.42,53.42,0,0,0,13-1.6h0c40.19-10,70.94-65,70.94-110.81C505.27,205.16,467.71,187.77,421.39,187.77ZM404.63,326.52c-10,8.81-26.31,16.92-38.79.05-5.07-6.88-8.72-16.83-10.59-26.81-2.87-8.38-3.39-17.25-1.69-24.26v0a20,20,0,0,1,.75-2.86c.06-.18.13-.36.2-.54l.12-.33.07-.12,0-.07c0-.13.11-.25.16-.37s.19-.44.3-.66.33-.67.51-1a1.4,1.4,0,0,0,.1-.16l.2-.33a4.78,4.78,0,0,1,.26-.42l0,0,.05-.08v0l0,0v0l.07-.09a14.81,14.81,0,0,1,2.35-2.71l.08-.07,0,0,.1-.08,0,0,.09-.07,0,0,.1-.09.07-.05.06-.06.06-.05c.23-.18.45-.36.7-.53l.17-.12c10.19-7.31,28.27-5.42,40.39,9.6,8.11,10,11.56,23.51,10.2,33.91.45,7.77-1.6,14.52-6.28,18.64Zm72.3.05c-12.47,16.88-28.78,8.76-38.79-.05-4.67-4.12-6.72-10.87-6.31-18.6-1.35-10.4,2.09-23.86,10.2-33.92,12.21-15.13,30.47-16.94,40.62-9.44l.07.05.57.44,0,0,.26.22,0,0,.2.18.11.09.08.08.17.15.27.26a17.58,17.58,0,0,1,4.72,9.12c0,.09,0,.17,0,.26h0c1.7,7,1.18,15.89-1.68,24.27-1.87,10-5.53,20-10.6,26.84Z" transform="translate(-337.51 -187.77)"/><path class="cls-1" d="M408.64,373.23c-.79.11-1.57.24-2.35.37h0C407.07,373.46,407.84,373.34,408.64,373.23Z" transform="translate(-337.51 -187.77)"/><path class="cls-1" d="M434.33,373.59h0l-.14,0Z" transform="translate(-337.51 -187.77)"/><path class="cls-1" d="M434.33,366.62v2.6a47,47,0,0,1-16.16-1.1c1.07.07,2.15.1,3.22.1A53.2,53.2,0,0,0,434.33,366.62Z" transform="translate(-337.51 -187.77)"/><path class="cls-2" d="M434.33,366.62v2.6h0a47,47,0,0,1-16.16-1.1c1.07.07,2.15.1,3.22.1A53.2,53.2,0,0,0,434.33,366.62Z" transform="translate(-337.51 -187.77)"/><path class="cls-3" d="M488.43,407.7H352.18c0-11.26,22.25-26.69,47.44-32.72a27.66,27.66,0,0,0,20.69,9.74,28.29,28.29,0,0,0,14-3.82,31.59,31.59,0,0,0,7.41-5.74C466.62,381.32,488.43,396.55,488.43,407.7Z" transform="translate(-337.51 -187.77)"/><path class="cls-3" d="M406.06,373.64c-.87.15-1.73.31-2.59.48C404.33,373.94,405.19,373.78,406.06,373.64Z" transform="translate(-337.51 -187.77)"/><path class="cls-3" d="M408.64,373.23c-.79.11-1.57.24-2.35.37h0l-.23,0,.23-.05h0C407.07,373.46,407.84,373.34,408.64,373.23Z" transform="translate(-337.51 -187.77)"/><path class="cls-3" d="M435.08,373.72l-.76-.13h0l-.14,0,.15,0Z" transform="translate(-337.51 -187.77)"/><path class="cls-3" d="M438.82,374.46l-2.4-.49C437.22,374.12,438,374.29,438.82,374.46Z" transform="translate(-337.51 -187.77)"/><path class="cls-4" d="M441.73,375.14a31.27,31.27,0,0,1-7.4,5.74,28.4,28.4,0,0,1-14,3.83A27.69,27.69,0,0,1,399.64,375l.95-.23,1-.22,1.94-.4,2.58-.48.24,0h0c.12.15,4.25,5.08,14,5.08s13.88-4.93,14-5.08h0l.76.13,1.32.24c.8.16,1.6.34,2.4.49l.5.11c.76.17,1.51.33,2.26.53Z" transform="translate(-337.51 -187.77)"/><path class="cls-5" d="M434.18,373.57l.14,0c-.12.15-4.25,5.08-14,5.08s-13.88-4.93-14-5.08c.78-.13,1.56-.26,2.35-.37-.79.11-1.57.23-2.35.36,13.5-5.28,28,0,28,0Z" transform="translate(-337.51 -187.77)"/><path class="cls-5" d="M408.64,373.23c-.79.11-1.57.24-2.35.37h0C407.07,373.46,407.84,373.34,408.64,373.23Z" transform="translate(-337.51 -187.77)"/><path class="cls-5" d="M434.33,373.59h0l-.14,0Z" transform="translate(-337.51 -187.77)"/><path class="cls-1" d="M358.35,266.09a20.24,20.24,0,0,0-4.78,9.37,20,20,0,0,1,.75-2.86l.2-.54.12-.33.09-.21c.09-.22.19-.43.29-.64l.12-.27.05-.11a1.51,1.51,0,0,1,.09-.18l.08-.17c.07-.11.13-.22.19-.33l.07-.12v0c0-.05.05-.1.07-.14l.1-.16.2-.34.12-.2.14-.21,0,0,.05-.08v0l0,0v0l.07-.08a2.2,2.2,0,0,1,.17-.25l.13-.18.16-.21a6.44,6.44,0,0,1,.52-.65l.17-.2c.18-.21.37-.41.57-.61l.18-.18.22-.22.11-.09-.13.12Z" transform="translate(-337.51 -187.77)"/><path class="cls-1" d="M411,307.91c.41,7.74-1.66,14.49-6.32,18.61-10,8.81-26.31,16.92-38.79.05-5.07-6.88-8.72-16.83-10.59-26.81a45,45,0,0,0,7.42,13.72c12.23,15.14,31.19,15.59,41.36,8l.23-.17.37-.29.33-.28c3.16-2.74,5.11-7.06,5.88-12.17,0-.3.06-.61.08-.91.63-8.82-3.08-19.73-10.76-29.23-8.43-10.46-19.49-16.58-28.86-16.95H370c-.21,0-.42,0-.62,0s-.33,0-.47,0l-.49.05h0l-.22,0h-.1c-.56.07-1.11.16-1.66.28l-.57.14-.56.15h0l-.49.16-.08,0-.47.16-.12.05-.39.16-.19.08-.38.16-.11.06-.47.23,0,0-.43.23-.19.11-.33.18-.49.32a5.11,5.11,0,0,0-.48.33l-.51.38c-.19.14-.33.27-.5.41l-.16-.19-.05.05-.07.06.06-.06.06-.05c.23-.19.45-.36.7-.53l.17-.12c10.2-7.33,28.27-5.42,40.39,9.6C408.85,284.06,412.29,297.52,411,307.91Z" transform="translate(-337.51 -187.77)"/><path class="cls-1" d="M487.54,299.75c-1.87,10-5.53,19.94-10.6,26.82-12.48,16.88-28.78,8.76-38.79-.05-4.68-4.12-6.73-10.87-6.31-18.6-1.35-10.4,2.09-23.86,10.2-33.92,12.2-15.13,30.47-16.94,40.62-9.44-10.12-7.32-27.84-1.26-40,13.88-7.68,9.49-11.39,20.4-10.77,29.23a9,9,0,0,0,.08.91c.75,5,2.61,9.17,5.62,11.9a7.6,7.6,0,0,0,.61.52l.29.23.09.06,0,0,0,0,0,0,.09.08h0l.11.07c10.18,7.54,29.08,7.05,41.27-8.06A44.85,44.85,0,0,0,487.54,299.75Z" transform="translate(-337.51 -187.77)"/><path class="cls-5" d="M487.54,299.75c-1.87,10-5.53,19.94-10.6,26.82-12.48,16.88-28.78,8.76-38.79-.05-4.68-4.12-6.73-10.87-6.31-18.6-1.35-10.4,2.09-23.86,10.2-33.92,12.2-15.13,30.47-16.94,40.62-9.44-10.12-7.32-27.84-1.26-40,13.88-7.68,9.49-11.39,20.4-10.77,29.23a9,9,0,0,0,.08.91c.75,5,2.61,9.17,5.62,11.9a7.6,7.6,0,0,0,.61.52l.29.23.09.06,0,0,0,0,0,0,.09.08h0l.11.07c10.18,7.54,29.08,7.05,41.27-8.06A44.85,44.85,0,0,0,487.54,299.75Z" transform="translate(-337.51 -187.77)"/><path class="cls-2" d="M404.63,326.52c-10,8.81-26.31,16.92-38.79.05-5.07-6.88-8.72-16.83-10.59-26.81a45,45,0,0,0,7.42,13.72c12.23,15.14,31.19,15.59,41.36,8l.23-.17.37-.29.33-.28c3.16-2.74,5.11-7.06,5.88-12.17,0-.3.06-.61.08-.91v.25C411.36,315.65,409.31,322.4,404.63,326.52Z" transform="translate(-337.51 -187.77)"/><path class="cls-6" d="M356.62,268.11a15.12,15.12,0,0,1,1.73-2,20,20,0,0,0-4.78,9.36,19.91,19.91,0,0,1,.75-2.85c.06-.18.13-.36.2-.54l.12-.33.05-.13s0-.05,0-.08.1-.24.15-.37.16-.36.25-.54l.14-.29.09-.17.19-.33.06-.12v0l.18-.3L356,269l.13-.2.23-.35,0,0v0A2.18,2.18,0,0,0,356.62,268.11Z" transform="translate(-337.51 -187.77)"/><path class="cls-6" d="M358.93,265.54l0,0-.23.21.07-.07a.27.27,0,0,0,.08-.07Z" transform="translate(-337.51 -187.77)"/><path class="cls-6" d="M359.19,265.3l0,0-.16.14.08-.07Z" transform="translate(-337.51 -187.77)"/><path class="cls-6" d="M411,307.91c0,.22-.06.44-.1.66,0-.3.06-.6.08-.91.62-8.82-3.09-19.73-10.77-29.23-8.43-10.46-19.49-16.58-28.86-16.95H370c-.21,0-.42,0-.62,0s-.33,0-.47,0l-.49.05h0l-.22,0h-.1c-.56.07-1.11.16-1.66.28l-.57.14-.56.15h0l-.49.16-.08,0-.47.16-.12.05-.39.16-.19.08-.38.16-.11.06-.47.23,0,0-.43.23-.19.11-.33.18-.49.32a5.11,5.11,0,0,0-.48.33l-.51.38c-.19.14-.33.27-.5.41l-.16-.19c.23-.18.46-.36.7-.53l.17-.12c10.2-7.33,28.27-5.42,40.39,9.6C408.85,284.06,412.29,297.52,411,307.91Z" transform="translate(-337.51 -187.77)"/><path class="cls-7" d="M400.16,278.43c-8.43-10.46-19.49-16.58-28.86-16.95H370c-.21,0-.42,0-.62,0s-.33,0-.47,0l-.49.05h0l-.22,0h-.1c-.56.07-1.11.16-1.66.28l-.57.14-.56.15h0l-.49.16-.08,0-.47.16-.12.05-.39.16-.19.08-.38.16-.11.06-.47.23,0,0-.43.23-.19.11-.33.18-.49.32a5.78,5.78,0,0,0-.48.33l-.51.38c-.19.14-.33.27-.5.41l-.16-.19-.05.05-.07.06-.07,0-.06.05-.17.15,0,0-.06.05-.23.21h0l0,0-.13.12-.2.21a20,20,0,0,0-4.78,9.36v.05c-1.7,7-1.18,15.88,1.69,24.25a44.87,44.87,0,0,0,7.42,13.72c12.23,15.14,31.19,15.59,41.36,8l.23-.18.37-.29.33-.28c3.16-2.73,5.11-7.05,5.88-12.17,0-.3.06-.6.08-.91C411.53,298.84,407.84,287.93,400.16,278.43Z" transform="translate(-337.51 -187.77)"/><path class="cls-7" d="M358.58,265.86l.1-.09-.12.12-.21.2a20.24,20.24,0,0,0-4.78,9.37,20,20,0,0,1,.75-2.86l.2-.54.12-.33.09-.21c.09-.22.19-.43.29-.64l.12-.27.05-.11a1.51,1.51,0,0,1,.09-.18l.08-.17c.07-.11.13-.22.19-.33l.07-.12v0c0-.05.05-.1.07-.14l.1-.16.2-.34.12-.2.14-.21,0,0,.05-.08v0l0,0v0l.07-.08a2.2,2.2,0,0,1,.17-.25l.13-.18.16-.21a6.44,6.44,0,0,1,.52-.65l.17-.2c.18-.21.37-.41.57-.61l.18-.18A3.4,3.4,0,0,0,358.58,265.86Z" transform="translate(-337.51 -187.77)"/><path class="cls-7" d="M368.12,261.6c-.56.07-1.11.16-1.66.28l-.57.14-.56.16h0l-.49.15-.08,0-.47.17-.12,0-.39.16-.19.08-.38.17-.11,0-.47.23,0,0-.43.23-.19.11-.33.19-.49.31a5.11,5.11,0,0,0-.48.33c-.14.12-.33.25-.51.39s-.33.27-.5.41l-.16-.2-.05.05-.07.06.06-.06.06-.05c.23-.18.45-.36.7-.53l.17-.12A16.56,16.56,0,0,1,368.12,261.6Z" transform="translate(-337.51 -187.77)"/><path class="cls-7" d="M410.85,308.57c-.52,5-2.46,9.25-5.88,12.17C408.13,318,410.08,313.68,410.85,308.57Z" transform="translate(-337.51 -187.77)"/><path class="cls-7" d="M358.58,265.86l.1-.09-.12.12Z" transform="translate(-337.51 -187.77)"/><path class="cls-7" d="M358.93,265.54l0,0-.23.21.07-.07a.27.27,0,0,0,.08-.07Z" transform="translate(-337.51 -187.77)"/><path class="cls-7" d="M359.23,265.27l-.16.14.08-.07,0,0Z" transform="translate(-337.51 -187.77)"/><path class="cls-2" d="M487.54,299.75c-1.87,10-5.53,19.94-10.6,26.82-12.48,16.88-28.78,8.76-38.79-.05-4.68-4.12-6.73-10.87-6.31-18.6a1,1,0,0,1,0-.25c0,.31,0,.61.07.91.75,5,2.61,9.17,5.62,11.9.2.18.4.36.61.52l.29.23.09.06,0,0,0,0,0,0,.1.08h0l.1.07c10.18,7.54,29.08,7.05,41.27-8.06A44.69,44.69,0,0,0,487.54,299.75Z" transform="translate(-337.51 -187.77)"/><path class="cls-6" d="M482.65,264.56c-10.12-7.32-27.83-1.26-40,13.88-7.67,9.49-11.38,20.4-10.76,29.23a9.06,9.06,0,0,0,.07.91c0-.22-.07-.44-.09-.66-1.35-10.4,2.09-23.86,10.2-33.91C454.24,258.87,472.5,257.07,482.65,264.56Z" transform="translate(-337.51 -187.77)"/><path class="cls-7" d="M489.21,275.47h0v0a19.38,19.38,0,0,0-5.37-9.91l-.22-.2,0,0-.26-.21,0,0-.58-.45-.06,0c-10.12-7.33-27.84-1.27-40,13.88-7.68,9.47-11.39,20.38-10.77,29.21a9.06,9.06,0,0,0,.07.91c.75,5,2.61,9.17,5.62,11.9a7.6,7.6,0,0,0,.61.52l.29.23.09.06,0,0,0,0,0,0,.1.08h0l.1.07c10.18,7.54,29.08,7.05,41.27-8.06a44.65,44.65,0,0,0,7.44-13.73C490.39,291.36,490.92,282.47,489.21,275.47Z" transform="translate(-337.51 -187.77)"/><path class="cls-7" d="M437.53,320.49a18.18,18.18,0,0,1-5.62-11.9C432.68,313.54,434.53,317.75,437.53,320.49Z" transform="translate(-337.51 -187.77)"/><path class="cls-9" d="M432.14,340.27a12,12,0,0,1-22.91.22c-1-3.05-5.83-1.74-4.82,1.33a17,17,0,0,0,32.56-.23c.95-3.08-3.88-4.4-4.83-1.32Z" transform="translate(-337.51 -187.77)"/></svg>