<svg id="Livello_1" data-name="Livello 1" xmlns="http://www.w3.org/2000/svg" viewBox="0 0 173.87 220.96"><defs><style>.cls-1{fill:#1bae89;}.cls-2{fill:#1c8264;}.cls-3{fill:#1E90FF;}.cls-4{fill:#9b4a7e;}.cls-5{fill:#179e7f;}.cls-6{fill:#1f6e55;}.cls-7{fill:#020303;}.cls-8{fill:#1d1d1b;}.cls-9{fill:#ffa500;}.cls-10{fill:#303030;}</style></defs><title>friend_pending</title><path class="cls-1" d="M418.33,187.25c-46.33,0-83.87,17.39-83.87,68.05,0,45,29.66,98.8,68.78,110.22v7.56h0c13.49-5.29,28,0,28,0v-4.37a47.12,47.12,0,0,1-16.18-1.1c1.07.07,2.15.1,3.22.1a53,53,0,0,0,13-1.61h0c40.18-10,70.94-65,70.94-110.8C502.21,204.64,464.66,187.25,418.33,187.25ZM401.58,326c-10,8.82-26.32,16.93-38.79.05-5.07-6.87-8.73-16.83-10.6-26.81-2.86-8.37-3.39-17.24-1.69-24.25v-.05a20,20,0,0,1,.76-2.85c.06-.18.12-.36.19-.54l.13-.33.06-.13a.16.16,0,0,0,0-.07l.15-.37.3-.66c.16-.33.34-.66.52-1a.86.86,0,0,1,.1-.16l.19-.33a3.74,3.74,0,0,1,.27-.42l0,0,0-.08v0l0,0v0l.06-.09a14.18,14.18,0,0,1,2.36-2.71l.08-.08s0,0,0,0l.09-.08.05-.05.08-.07,0,0,.11-.09.06-.06.06-.05.06-.06c.23-.18.46-.36.7-.52l.17-.13c10.2-7.31,28.28-5.41,40.39,9.61,8.12,10.05,11.57,23.5,10.21,33.9.45,7.78-1.6,14.52-6.28,18.64Zm72.29.05c-12.47,16.88-28.77,8.77-38.78-.05-4.68-4.12-6.73-10.86-6.31-18.6-1.35-10.4,2.09-23.86,10.2-33.91,12.2-15.13,30.47-16.94,40.62-9.44l.06,0,.58.45,0,0,.26.22,0,0,.2.17.1.1.09.08a1.14,1.14,0,0,1,.16.15l.27.26a17.54,17.54,0,0,1,4.72,9.12,2.21,2.21,0,0,1,0,.25h0c1.71,7,1.19,15.89-1.68,24.28-1.86,10-5.52,19.95-10.6,26.83Z" transform="translate(-334.46 -187.25)"/><path class="cls-1" d="M405.58,372.72q-1.17.16-2.34.36h0C404,373,404.78,372.83,405.58,372.72Z" transform="translate(-334.46 -187.25)"/><path class="cls-1" d="M431.28,373.08h0l-.15,0Z" transform="translate(-334.46 -187.25)"/><path class="cls-1" d="M431.28,366.1v2.61a47.33,47.33,0,0,1-16.17-1.1c1.08.07,2.15.1,3.23.1A52.79,52.79,0,0,0,431.28,366.1Z" transform="translate(-334.46 -187.25)"/><path class="cls-2" d="M431.28,366.1v2.61h0a47.33,47.33,0,0,1-16.17-1.1c1.08.07,2.15.1,3.23.1A52.79,52.79,0,0,0,431.28,366.1Z" transform="translate(-334.46 -187.25)"/><path class="cls-3" d="M485.38,407.18H349.13c0-11.25,22.24-26.68,47.44-32.71a27.63,27.63,0,0,0,20.68,9.74,28.34,28.34,0,0,0,14-3.83,31.53,31.53,0,0,0,7.41-5.74C463.57,380.8,485.38,396,485.38,407.18Z" transform="translate(-334.46 -187.25)"/><path class="cls-3" d="M403,373.12c-.87.15-1.72.31-2.58.48Q401.71,373.33,403,373.12Z" transform="translate(-334.46 -187.25)"/><path class="cls-3" d="M405.58,372.72q-1.17.16-2.34.36h0l-.23,0,.23,0h0C404,373,404.78,372.83,405.58,372.72Z" transform="translate(-334.46 -187.25)"/><path class="cls-3" d="M432,373.2l-.75-.13h0l-.15,0,.15,0Z" transform="translate(-334.46 -187.25)"/><path class="cls-3" d="M435.76,374l-2.4-.49C434.16,373.61,435,373.77,435.76,374Z" transform="translate(-334.46 -187.25)"/><path class="cls-4" d="M438.68,374.63a31.74,31.74,0,0,1-7.4,5.74,28.29,28.29,0,0,1-14,3.82,27.65,27.65,0,0,1-20.68-9.74l1-.22,1-.22,1.93-.41c.86-.17,1.72-.33,2.59-.48l.23,0h0c.13.16,4.25,5.09,14,5.09s13.87-4.93,14-5.09h0l.75.13,1.33.25c.8.15,1.6.33,2.4.49l.5.11c.75.17,1.51.33,2.25.53Z" transform="translate(-334.46 -187.25)"/><path class="cls-5" d="M431.12,373.06l.15,0c-.13.16-4.26,5.09-14,5.09s-13.88-4.93-14-5.09q1.17-.19,2.34-.36-1.17.16-2.34.36c13.49-5.29,28,0,28,0Z" transform="translate(-334.46 -187.25)"/><path class="cls-5" d="M405.58,372.72q-1.17.16-2.34.36h0C404,373,404.78,372.83,405.58,372.72Z" transform="translate(-334.46 -187.25)"/><path class="cls-5" d="M431.28,373.08h0l-.15,0Z" transform="translate(-334.46 -187.25)"/><path class="cls-1" d="M355.29,265.58a20.1,20.1,0,0,0-4.77,9.36,19.91,19.91,0,0,1,.75-2.85c.06-.18.12-.36.2-.54l.12-.33a1,1,0,0,1,.09-.21c.08-.22.18-.43.28-.64l.12-.27.05-.11.09-.18.09-.17c.06-.12.13-.23.19-.33l.06-.13h0a1.09,1.09,0,0,1,.08-.15s.06-.11.1-.16l.19-.33.13-.21.14-.21,0,0,0-.08v0l0,0v0l.06-.09.18-.24.12-.18.16-.22a7.81,7.81,0,0,1,.53-.64,1.56,1.56,0,0,1,.16-.2l.58-.62.17-.17.23-.22.1-.1-.12.12Z" transform="translate(-334.46 -187.25)"/><path class="cls-1" d="M407.89,307.39c.42,7.75-1.65,14.49-6.31,18.61-10,8.82-26.32,16.93-38.79.05-5.07-6.87-8.73-16.83-10.6-26.81A44.9,44.9,0,0,0,359.62,313c12.23,15.15,31.19,15.6,41.35,8l.23-.18.38-.29.33-.28c3.16-2.73,5.11-7.05,5.88-12.17,0-.3,0-.6.07-.9.63-8.83-3.08-19.73-10.75-29.24-8.44-10.45-19.5-16.57-28.86-16.94H367c-.2,0-.41,0-.61,0s-.33,0-.48,0l-.48,0h0l-.22,0h-.11a15.84,15.84,0,0,0-1.65.29l-.58.13-.55.16h0l-.49.15-.09,0-.46.17-.12,0-.4.16-.19.08-.37.17-.11.05-.47.23-.05,0-.42.23-.19.11-.33.19-.5.31a5,5,0,0,0-.47.33c-.14.12-.33.25-.52.39s-.33.27-.49.41l-.16-.2-.05.05-.08.06.06-.06.06-.05c.23-.18.46-.36.7-.53l.17-.12c10.2-7.33,28.28-5.42,40.39,9.6C405.8,283.54,409.24,297,407.89,307.39Z" transform="translate(-334.46 -187.25)"/><path class="cls-1" d="M484.48,299.23c-1.86,10-5.53,19.94-10.6,26.82-12.47,16.88-28.77,8.77-38.79-.05-4.67-4.12-6.72-10.86-6.31-18.6-1.34-10.4,2.09-23.86,10.21-33.91,12.2-15.13,30.46-16.94,40.61-9.44-10.11-7.33-27.83-1.27-40,13.88-7.67,9.49-11.38,20.39-10.76,29.23a8.86,8.86,0,0,0,.07.9c.75,5,2.62,9.17,5.62,11.9a7.87,7.87,0,0,0,.62.53l.28.22.09.07,0,0,.05,0,0,0,.09.07h0l.1.08c10.19,7.53,29.08,7.05,41.28-8.06A44.66,44.66,0,0,0,484.48,299.23Z" transform="translate(-334.46 -187.25)"/><path class="cls-5" d="M484.48,299.23c-1.86,10-5.53,19.94-10.6,26.82-12.47,16.88-28.77,8.77-38.79-.05-4.67-4.12-6.72-10.86-6.31-18.6-1.34-10.4,2.09-23.86,10.21-33.91,12.2-15.13,30.46-16.94,40.61-9.44-10.11-7.33-27.83-1.27-40,13.88-7.67,9.49-11.38,20.39-10.76,29.23a8.86,8.86,0,0,0,.07.9c.75,5,2.62,9.17,5.62,11.9a7.87,7.87,0,0,0,.62.53l.28.22.09.07,0,0,.05,0,0,0,.09.07h0l.1.08c10.19,7.53,29.08,7.05,41.28-8.06A44.66,44.66,0,0,0,484.48,299.23Z" transform="translate(-334.46 -187.25)"/><path class="cls-2" d="M401.58,326c-10,8.82-26.32,16.93-38.79.05-5.07-6.87-8.73-16.83-10.6-26.81A44.9,44.9,0,0,0,359.62,313c12.23,15.15,31.19,15.6,41.35,8l.23-.18.38-.29.33-.28c3.16-2.73,5.11-7.05,5.88-12.17,0-.3,0-.6.07-.9v.24C408.31,315.14,406.26,321.88,401.58,326Z" transform="translate(-334.46 -187.25)"/><path class="cls-6" d="M353.57,267.59a15.05,15.05,0,0,1,1.72-2,20.24,20.24,0,0,0-4.78,9.37,20,20,0,0,1,.76-2.85c.06-.18.12-.36.19-.54l.13-.33.05-.14,0-.07.15-.37c.09-.18.17-.37.26-.54l.14-.29a1.4,1.4,0,0,1,.09-.17l.18-.33.07-.13h0l.18-.31.19-.33.13-.21.22-.34,0,0v0A2.24,2.24,0,0,0,353.57,267.59Z" transform="translate(-334.46 -187.25)"/><path class="cls-6" d="M355.88,265l0,0-.23.21.07-.07.08-.07A.08.08,0,0,0,355.88,265Z" transform="translate(-334.46 -187.25)"/><path class="cls-6" d="M356.14,264.79l0,0-.17.14.09-.07Z" transform="translate(-334.46 -187.25)"/><path class="cls-6" d="M407.89,307.39l-.09.66c0-.29.05-.6.07-.9.62-8.83-3.09-19.73-10.76-29.24-8.44-10.45-19.5-16.57-28.86-16.94H367c-.2,0-.41,0-.61,0s-.33,0-.48,0l-.48,0h0l-.22,0h-.11a15.84,15.84,0,0,0-1.65.29l-.58.13-.55.16h0l-.49.15-.09,0-.46.17-.12,0-.4.16-.19.08-.37.17-.11.05-.47.23-.05,0-.42.23-.19.11-.33.19-.5.31a5,5,0,0,0-.47.33c-.14.12-.33.25-.52.39s-.33.27-.49.41l-.16-.2c.22-.18.45-.36.69-.53l.17-.12c10.2-7.33,28.28-5.42,40.39,9.6C405.8,283.54,409.24,297,407.89,307.39Z" transform="translate(-334.46 -187.25)"/><path class="cls-7" d="M397.11,277.91c-8.44-10.45-19.5-16.57-28.86-16.94H367c-.2,0-.41,0-.61,0s-.33,0-.48,0l-.48,0h0l-.22,0h-.11a15.84,15.84,0,0,0-1.65.29l-.58.13-.55.16h0l-.49.15-.09,0-.46.17-.12,0-.4.16-.19.08-.37.17-.11.05-.47.23-.05,0-.42.23-.19.11-.33.19-.5.31c-.16.11-.33.22-.47.33a6.39,6.39,0,0,1-.52.39c-.18.13-.33.27-.49.41l-.16-.2-.05.05-.08.06-.06.05-.06.06-.17.14,0,0-.05.05-.23.21,0,0,0,0-.12.12-.21.21a20.24,20.24,0,0,0-4.78,9.37v0c-1.7,7-1.17,15.88,1.69,24.25A44.78,44.78,0,0,0,359.64,313c12.23,15.15,31.19,15.6,41.35,8l.23-.17.38-.29.33-.29c3.16-2.73,5.11-7,5.88-12.17,0-.29.05-.6.07-.9C408.48,298.32,404.78,287.42,397.11,277.91Z" transform="translate(-334.46 -187.25)"/><path class="cls-7" d="M355.52,265.35l.1-.1-.12.12-.21.21a20.1,20.1,0,0,0-4.77,9.36,19.91,19.91,0,0,1,.75-2.85c.06-.18.12-.36.2-.54l.12-.33a1,1,0,0,1,.09-.21c.08-.22.18-.43.28-.64l.12-.27.05-.11.09-.18.09-.17c.06-.12.13-.23.19-.33l.06-.13h0a1.09,1.09,0,0,1,.08-.15s.06-.11.1-.16l.19-.33.13-.21.14-.21,0,0,0-.08v0l0,0v0l.06-.09.18-.24.12-.18.16-.22a7.81,7.81,0,0,1,.53-.64,1.56,1.56,0,0,1,.16-.2l.58-.62.17-.17C355.31,265.5,355.44,265.42,355.52,265.35Z" transform="translate(-334.46 -187.25)"/><path class="cls-7" d="M365.06,261.09a15.79,15.79,0,0,0-1.65.28l-.58.14-.55.15h0l-.49.16-.09,0-.46.17-.12.05-.4.15-.19.08-.37.17-.11.06-.47.22-.05,0-.42.22-.19.11-.33.19-.5.32a5,5,0,0,0-.47.33l-.51.38c-.19.14-.34.27-.5.41l-.16-.19-.05,0-.08.06.06-.05.06-.06c.23-.18.46-.36.7-.52l.17-.13A16.58,16.58,0,0,1,365.06,261.09Z" transform="translate(-334.46 -187.25)"/><path class="cls-7" d="M407.8,308.05c-.52,5-2.46,9.25-5.88,12.17C405.08,317.49,407,313.17,407.8,308.05Z" transform="translate(-334.46 -187.25)"/><path class="cls-7" d="M355.52,265.35l.1-.1-.12.12Z" transform="translate(-334.46 -187.25)"/><path class="cls-7" d="M355.88,265l0,0-.23.21.07-.07.08-.07A.08.08,0,0,0,355.88,265Z" transform="translate(-334.46 -187.25)"/><path class="cls-7" d="M356.18,264.76l-.17.14.09-.07,0,0Z" transform="translate(-334.46 -187.25)"/><path class="cls-2" d="M484.48,299.23c-1.86,10-5.53,19.94-10.6,26.82-12.47,16.88-28.77,8.77-38.79-.05-4.67-4.12-6.72-10.86-6.31-18.6v-.24c0,.3,0,.61.08.9.74,5,2.61,9.17,5.62,11.9a7.72,7.72,0,0,0,.61.53l.29.22a.22.22,0,0,0,.09.07l0,0,0,0,0,0,.09.07h0l.11.08C446,328.54,464.85,328.06,477,313A44.71,44.71,0,0,0,484.48,299.23Z" transform="translate(-334.46 -187.25)"/><path class="cls-6" d="M479.6,264.05c-10.12-7.33-27.84-1.27-40,13.88-7.68,9.49-11.39,20.39-10.77,29.23a6.69,6.69,0,0,0,.08.9q-.06-.33-.09-.66c-1.35-10.4,2.09-23.85,10.2-33.91C451.18,258.36,469.45,256.55,479.6,264.05Z" transform="translate(-334.46 -187.25)"/><path class="cls-7" d="M486.15,275h0v0a19.41,19.41,0,0,0-5.36-9.91l-.23-.2,0,0-.27-.22,0,0-.57-.44-.07-.05c-10.11-7.32-27.83-1.26-40,13.88-7.68,9.48-11.39,20.38-10.77,29.22a6.69,6.69,0,0,0,.08.9c.74,5,2.61,9.17,5.62,11.9a7.72,7.72,0,0,0,.61.53l.29.22a.22.22,0,0,0,.09.07l0,0,0,0,0,0,.09.07h0l.11.08c10.18,7.53,29.08,7.05,41.27-8.06a44.85,44.85,0,0,0,7.43-13.73C487.34,290.85,487.86,282,486.15,275Z" transform="translate(-334.46 -187.25)"/><path class="cls-7" d="M434.47,320a18.2,18.2,0,0,1-5.62-11.89C429.63,313,431.48,317.23,434.47,320Z" transform="translate(-334.46 -187.25)"/><path class="cls-8" d="M429.8,343.59a12,12,0,0,1-22.92.22c-1-3-5.82-1.74-4.82,1.33a17,17,0,0,0,32.56-.22c.95-3.08-3.87-4.4-4.82-1.33Z" transform="translate(-334.46 -187.25)"/><circle class="cls-9" cx="145.14" cy="192.23" r="28.73"/><path class="cls-10" d="M485.35,384.53,471.3,401.22a4,4,0,0,1-5.63.42h0a4,4,0,0,1-.53-5.62l14.05-16.68a4,4,0,0,1,5.63-.43h0A4,4,0,0,1,485.35,384.53Z" transform="translate(-334.46 -187.25)"/><path class="cls-10" d="M482.27,385.88a4,4,0,0,1-4.06-4h0l-.12-22.24a4,4,0,0,1,4-4.06h0a4,4,0,0,1,4,4l.12,22.24A4,4,0,0,1,482.27,385.88Z" transform="translate(-334.46 -187.25)"/></svg>