<svg id="Livello_1" data-name="Livello 1" xmlns="http://www.w3.org/2000/svg" viewBox="0 0 173.87 220.96"><defs><style>.cls-1{fill:#1bae89;}.cls-2{fill:#1c8264;}.cls-3{fill:#1E90FF;}.cls-4{fill:#9b4a7e;}.cls-5{fill:#179e7f;}.cls-6{fill:#1f6e55;}.cls-7{fill:#020303;}.cls-8{fill:#1d1d1b;}.cls-9{fill:#078136;}</style></defs><title>friend_active</title><path class="cls-1" d="M418.33,321.2c-46.33,0-83.87,17.39-83.87,68,0,45,29.66,98.81,68.78,110.23V507h0c13.49-5.29,28,0,28,0v-4.37a47.12,47.12,0,0,1-16.18-1.1c1.07.07,2.15.1,3.22.1a53,53,0,0,0,13-1.61h0c40.18-10,70.94-65,70.94-110.81C502.21,338.59,464.66,321.2,418.33,321.2ZM401.58,460c-10,8.82-26.32,16.93-38.79.05-5.07-6.87-8.73-16.83-10.6-26.81-2.86-8.37-3.39-17.24-1.69-24.25v-.05a20.44,20.44,0,0,1,.76-2.86c.06-.17.12-.35.19-.53l.13-.33.06-.13a.16.16,0,0,0,0-.07l.15-.37.3-.66c.16-.33.34-.66.52-1a.86.86,0,0,1,.1-.16l.19-.33a3,3,0,0,1,.27-.42l0,0,0-.08v0l0,0v0l.06-.08a14.55,14.55,0,0,1,2.36-2.72l.08-.07,0,0,.09-.08.05-.05.08-.07,0,0,.11-.08.06-.06.06-.05.06-.06c.23-.18.46-.36.7-.53l.17-.12c10.2-7.31,28.28-5.41,40.39,9.61,8.12,10,11.57,23.5,10.21,33.9.45,7.77-1.6,14.52-6.28,18.64Zm72.29.05c-12.47,16.88-28.77,8.77-38.78-.05-4.68-4.12-6.73-10.86-6.31-18.6-1.35-10.4,2.09-23.86,10.2-33.91,12.2-15.13,30.47-16.94,40.62-9.44l.06,0c.19.15.39.29.58.45l0,0,.26.21,0,0,.2.17.1.1.09.07a1.21,1.21,0,0,1,.16.16l.27.26a17.54,17.54,0,0,1,4.72,9.12,2.21,2.21,0,0,1,0,.25h0c1.71,7,1.19,15.89-1.68,24.28-1.86,10-5.52,19.95-10.6,26.83Z" transform="translate(-334.46 -321.2)"/><path class="cls-1" d="M405.58,506.66l-2.34.37h0C404,506.9,404.78,506.77,405.58,506.66Z" transform="translate(-334.46 -321.2)"/><path class="cls-1" d="M431.28,507h0l-.15,0Z" transform="translate(-334.46 -321.2)"/><path class="cls-1" d="M431.28,500.05v2.61a47.33,47.33,0,0,1-16.17-1.1c1.08.07,2.15.1,3.23.1A52.79,52.79,0,0,0,431.28,500.05Z" transform="translate(-334.46 -321.2)"/><path class="cls-2" d="M431.28,500.05v2.61h0a47.33,47.33,0,0,1-16.17-1.1c1.08.07,2.15.1,3.23.1A53.77,53.77,0,0,0,431.28,500.05Z" transform="translate(-334.46 -321.2)"/><path class="cls-3" d="M485.38,541.13H349.13c0-11.25,22.24-26.68,47.44-32.71a27.67,27.67,0,0,0,20.68,9.74,28.44,28.44,0,0,0,14-3.83,31.53,31.53,0,0,0,7.41-5.74C463.57,514.75,485.38,530,485.38,541.13Z" transform="translate(-334.46 -321.2)"/><path class="cls-3" d="M403,507.07c-.87.15-1.72.31-2.58.48Q401.71,507.28,403,507.07Z" transform="translate(-334.46 -321.2)"/><path class="cls-3" d="M405.58,506.66l-2.34.37h0l-.23,0,.23,0h0C404,506.9,404.78,506.77,405.58,506.66Z" transform="translate(-334.46 -321.2)"/><path class="cls-3" d="M432,507.15l-.75-.13h0l-.15,0,.15,0Z" transform="translate(-334.46 -321.2)"/><path class="cls-3" d="M435.76,507.9l-2.4-.49C434.16,507.56,435,507.72,435.76,507.9Z" transform="translate(-334.46 -321.2)"/><path class="cls-4" d="M438.68,508.57a31.47,31.47,0,0,1-7.4,5.74,28.3,28.3,0,0,1-14,3.83,27.65,27.65,0,0,1-20.68-9.74l1-.23,1-.21,1.93-.41c.86-.17,1.72-.33,2.59-.48l.23,0h0c.13.16,4.25,5.08,14,5.08s13.87-4.92,14-5.08h0l.75.13,1.33.25c.8.15,1.6.33,2.4.49l.5.11c.75.17,1.51.33,2.25.53Z" transform="translate(-334.46 -321.2)"/><path class="cls-5" d="M431.12,507l.15,0c-.13.16-4.26,5.08-14,5.08s-13.88-4.92-14-5.08l2.34-.37c-.78.11-1.56.24-2.34.37,13.49-5.29,28,0,28,0Z" transform="translate(-334.46 -321.2)"/><path class="cls-5" d="M405.58,506.66l-2.34.37h0C404,506.9,404.78,506.77,405.58,506.66Z" transform="translate(-334.46 -321.2)"/><path class="cls-5" d="M431.28,507h0l-.15,0Z" transform="translate(-334.46 -321.2)"/><path class="cls-1" d="M355.29,399.53a20.1,20.1,0,0,0-4.77,9.36,20.4,20.4,0,0,1,.75-2.86c.06-.17.12-.35.2-.53l.12-.33a1,1,0,0,1,.09-.21c.08-.22.18-.43.28-.64l.12-.28.05-.1.09-.18.09-.17c.06-.12.13-.23.19-.33l.06-.13h0a1.09,1.09,0,0,1,.08-.15,1.4,1.4,0,0,1,.1-.16l.19-.33.13-.21.14-.21,0,0,0-.08v0l0,0v0l.06-.09.18-.24.12-.18.16-.22a7.81,7.81,0,0,1,.53-.64,1.56,1.56,0,0,1,.16-.2c.19-.21.38-.42.58-.62l.17-.17.23-.22.1-.1-.12.12Z" transform="translate(-334.46 -321.2)"/><path class="cls-1" d="M407.89,441.34c.42,7.74-1.65,14.49-6.31,18.61-10,8.82-26.32,16.93-38.79.05-5.07-6.87-8.73-16.83-10.6-26.81a44.9,44.9,0,0,0,7.43,13.72c12.23,15.14,31.19,15.59,41.35,8l.23-.18.38-.29.33-.28c3.16-2.73,5.11-7.05,5.88-12.17,0-.3,0-.6.07-.91.63-8.82-3.08-19.72-10.75-29.23-8.44-10.45-19.5-16.57-28.86-16.94H367c-.2,0-.41,0-.61,0s-.33,0-.48,0l-.48,0h0l-.22,0h-.11c-.55.07-1.1.16-1.65.28l-.58.14-.55.16h0l-.49.15-.09,0-.46.17-.12,0-.4.16-.19.08-.37.17-.11,0-.47.23-.05,0-.42.23-.19.11-.33.19-.5.31a5,5,0,0,0-.47.33c-.14.12-.33.25-.52.39s-.33.27-.49.41l-.16-.2-.05,0-.08.06.06-.06.06,0c.23-.18.46-.36.7-.53l.17-.12c10.2-7.33,28.28-5.42,40.39,9.6C405.8,417.49,409.24,431,407.89,441.34Z" transform="translate(-334.46 -321.2)"/><path class="cls-1" d="M484.48,433.18c-1.86,10-5.53,19.94-10.6,26.82-12.47,16.88-28.77,8.77-38.79-.05-4.67-4.12-6.72-10.86-6.31-18.6-1.34-10.4,2.09-23.86,10.21-33.91,12.2-15.13,30.46-16.94,40.61-9.44-10.11-7.33-27.83-1.27-40,13.88-7.67,9.49-11.38,20.39-10.76,29.23a8.86,8.86,0,0,0,.07.9c.75,5,2.62,9.17,5.62,11.9.2.18.4.36.62.53l.28.22.09.07,0,0,.05,0,0,0,.09.08h0l.1.08c10.19,7.53,29.08,7,41.28-8.06A44.77,44.77,0,0,0,484.48,433.18Z" transform="translate(-334.46 -321.2)"/><path class="cls-5" d="M484.48,433.18c-1.86,10-5.53,19.94-10.6,26.82-12.47,16.88-28.77,8.77-38.79-.05-4.67-4.12-6.72-10.86-6.31-18.6-1.34-10.4,2.09-23.86,10.21-33.91,12.2-15.13,30.46-16.94,40.61-9.44-10.11-7.33-27.83-1.27-40,13.88-7.67,9.49-11.38,20.39-10.76,29.23a8.86,8.86,0,0,0,.07.9c.75,5,2.62,9.17,5.62,11.9.2.18.4.36.62.53l.28.22.09.07,0,0,.05,0,0,0,.09.08h0l.1.08c10.19,7.53,29.08,7,41.28-8.06A44.77,44.77,0,0,0,484.48,433.18Z" transform="translate(-334.46 -321.2)"/><path class="cls-2" d="M401.58,460c-10,8.82-26.32,16.93-38.79.05-5.07-6.87-8.73-16.83-10.6-26.81a44.9,44.9,0,0,0,7.43,13.72c12.23,15.14,31.19,15.59,41.35,8l.23-.18.38-.29.33-.28c3.16-2.73,5.11-7.05,5.88-12.17,0-.3,0-.6.07-.91v.25C408.31,449.08,406.26,455.83,401.58,460Z" transform="translate(-334.46 -321.2)"/><path class="cls-6" d="M353.57,401.54a15.05,15.05,0,0,1,1.72-2,20.2,20.2,0,0,0-4.78,9.37,20.44,20.44,0,0,1,.76-2.86c.06-.17.12-.35.19-.53l.13-.33.05-.14,0-.07.15-.37c.09-.19.17-.37.26-.55l.14-.28a.91.91,0,0,1,.09-.17l.18-.33.07-.13h0l.18-.31.19-.33.13-.21.22-.34,0,0v0A2.24,2.24,0,0,0,353.57,401.54Z" transform="translate(-334.46 -321.2)"/><path class="cls-6" d="M355.88,399l0,0-.23.21.07-.07.08-.07Z" transform="translate(-334.46 -321.2)"/><path class="cls-6" d="M356.14,398.74l0,0-.17.15.09-.08Z" transform="translate(-334.46 -321.2)"/><path class="cls-6" d="M407.89,441.34l-.09.66c0-.29.05-.6.07-.9.62-8.83-3.09-19.73-10.76-29.24-8.44-10.45-19.5-16.57-28.86-16.94H367c-.2,0-.41,0-.61,0s-.33,0-.48,0l-.48,0h0l-.22,0h-.11c-.55.07-1.1.16-1.65.28l-.58.14-.55.16h0l-.49.15-.09,0-.46.17-.12,0-.4.16-.19.08-.37.17-.11,0-.47.23-.05,0-.42.23-.19.11-.33.19-.5.31a5,5,0,0,0-.47.33c-.14.12-.33.25-.52.39s-.33.27-.49.41l-.16-.2c.22-.18.45-.36.69-.53l.17-.12c10.2-7.33,28.28-5.42,40.39,9.6C405.8,417.49,409.24,431,407.89,441.34Z" transform="translate(-334.46 -321.2)"/><path class="cls-7" d="M397.11,411.86c-8.44-10.45-19.5-16.57-28.86-16.94H367c-.2,0-.41,0-.61,0s-.33,0-.48,0l-.48,0h0l-.22,0h-.11c-.55.07-1.1.16-1.65.28l-.58.14-.55.16h0l-.49.15-.09,0-.46.17-.12,0-.4.16-.19.08-.37.17-.11,0-.47.23-.05,0-.42.23-.19.11-.33.19-.5.31c-.16.11-.33.22-.47.33s-.33.26-.52.39-.33.27-.49.41l-.16-.2-.05,0-.08.06-.06.05-.06.06-.17.14,0,0-.05.05-.23.21,0,0,0,0-.12.12-.21.21a20.2,20.2,0,0,0-4.78,9.37v0c-1.7,7-1.17,15.88,1.69,24.25a44.78,44.78,0,0,0,7.43,13.72c12.23,15.15,31.19,15.6,41.35,8l.23-.17.38-.3.33-.28c3.16-2.73,5.11-7.05,5.88-12.17,0-.29.05-.6.07-.9C408.48,432.27,404.78,421.37,397.11,411.86Z" transform="translate(-334.46 -321.2)"/><path class="cls-7" d="M355.52,399.3l.1-.1-.12.12-.21.21a20.1,20.1,0,0,0-4.77,9.36,20.4,20.4,0,0,1,.75-2.86c.06-.17.12-.35.2-.53l.12-.33a1,1,0,0,1,.09-.21c.08-.22.18-.43.28-.64l.12-.28.05-.1.09-.18.09-.17c.06-.12.13-.23.19-.33l.06-.13h0a1.09,1.09,0,0,1,.08-.15,1.4,1.4,0,0,1,.1-.16l.19-.33.13-.21.14-.21,0,0,0-.08v0l0,0v0l.06-.09.18-.24.12-.18.16-.22a7.81,7.81,0,0,1,.53-.64,1.56,1.56,0,0,1,.16-.2c.19-.21.38-.42.58-.62l.17-.17C355.31,399.45,355.44,399.37,355.52,399.3Z" transform="translate(-334.46 -321.2)"/><path class="cls-7" d="M365.06,395a15.79,15.79,0,0,0-1.65.28l-.58.14-.55.15h0l-.49.16-.09,0-.46.17-.12,0-.4.16-.19.08-.37.17-.11,0-.47.23-.05,0-.42.22-.19.11-.33.19-.5.31c-.16.11-.32.22-.47.34l-.51.38c-.19.14-.34.27-.5.41l-.16-.19-.05,0-.08.06.06,0,.06-.06c.23-.18.46-.36.7-.53l.17-.12A16.58,16.58,0,0,1,365.06,395Z" transform="translate(-334.46 -321.2)"/><path class="cls-7" d="M407.8,442c-.52,5-2.46,9.25-5.88,12.17C405.08,451.44,407,447.12,407.8,442Z" transform="translate(-334.46 -321.2)"/><path class="cls-7" d="M355.52,399.3l.1-.1-.12.12Z" transform="translate(-334.46 -321.2)"/><path class="cls-7" d="M355.88,399l0,0-.23.21.07-.07.08-.07Z" transform="translate(-334.46 -321.2)"/><path class="cls-7" d="M356.18,398.7l-.17.15.09-.08,0,0Z" transform="translate(-334.46 -321.2)"/><path class="cls-2" d="M484.48,433.18c-1.86,10-5.53,19.94-10.6,26.82-12.47,16.88-28.77,8.77-38.79-.05-4.67-4.12-6.72-10.86-6.31-18.6v-.24c0,.3,0,.61.08.9.74,5,2.61,9.17,5.62,11.9.19.18.4.36.61.53l.29.22a.22.22,0,0,0,.09.07l0,0,0,0,0,0,.09.08h0l.11.08c10.18,7.53,29.08,7,41.27-8.06A44.71,44.71,0,0,0,484.48,433.18Z" transform="translate(-334.46 -321.2)"/><path class="cls-6" d="M479.6,398c-10.12-7.33-27.84-1.27-40,13.88-7.68,9.49-11.39,20.39-10.77,29.23a6.69,6.69,0,0,0,.08.9q-.06-.33-.09-.66c-1.35-10.4,2.09-23.85,10.2-33.91C451.18,392.31,469.45,390.5,479.6,398Z" transform="translate(-334.46 -321.2)"/><path class="cls-7" d="M486.15,408.91h0v0a19.41,19.41,0,0,0-5.36-9.91l-.23-.2,0,0-.27-.22,0,0-.57-.44-.07-.05c-10.11-7.33-27.83-1.26-40,13.88-7.68,9.48-11.39,20.38-10.77,29.22a6.69,6.69,0,0,0,.08.9c.74,5,2.61,9.17,5.62,11.9.19.18.4.36.61.53l.29.22a.22.22,0,0,0,.09.07l0,0,0,0,0,0,.09.08h0l.11.08c10.18,7.53,29.08,7,41.27-8.06a44.85,44.85,0,0,0,7.43-13.73C487.34,424.8,487.86,415.9,486.15,408.91Z" transform="translate(-334.46 -321.2)"/><path class="cls-7" d="M434.47,453.92A18.2,18.2,0,0,1,428.85,442C429.63,447,431.48,451.18,434.47,453.92Z" transform="translate(-334.46 -321.2)"/><path class="cls-8" d="M429.8,477.54a12,12,0,0,1-22.92.22c-1-3-5.82-1.74-4.82,1.33a17,17,0,0,0,32.56-.22c.95-3.08-3.87-4.4-4.82-1.33Z" transform="translate(-334.46 -321.2)"/><circle class="cls-9" cx="145.14" cy="192.23" r="28.73"/></svg>