<svg id="Livello_1" data-name="Livello 1" xmlns="http://www.w3.org/2000/svg" viewBox="0 0 272.02 272.01">
  <defs>
    <style>
      .cls-1 {
        fill: #303030;
      }
    </style>
  </defs>
  <title>gear</title>
  <path class="cls-1" d="M419.51,399.81A71.28,71.28,0,0,1,367,446.91a73.17,73.17,0,0,1-42.33-3.62l-1.85-.74a5.23,5.23,0,0,0-5.94,1.46L214.42,564A35.8,35.8,0,1,1,164,513.5L283.93,411a5.23,5.23,0,0,0,1.46-5.93l-.74-1.84A72.89,72.89,0,0,1,281,360.93a71.3,71.3,0,0,1,47.1-52.51,72.77,72.77,0,0,1,23.29-3.9h.12a5.24,5.24,0,0,1,3.61,9l-22.39,22.39c-7.48,7.47-12.14,16.79-13.13,26.24a42,42,0,0,0,46.19,46.19c9.45-1,18.77-5.64,26.25-13.12l22.39-22.39a5.25,5.25,0,0,1,9,3.72A72.9,72.9,0,0,1,419.51,399.81Z" transform="translate(-151.4 -304.52)"/>
</svg>
