<svg id="Livello_1" data-name="Livello 1" xmlns="http://www.w3.org/2000/svg" viewBox="0 0 528.23 367.32"><defs><style>.cls-1{fill:#ac5440;}.cls-2{fill:#ceb7a3;}.cls-3{fill:#d29c2d;}.cls-4{fill:#b0773b;}.cls-5{fill:#ad643e;}.cls-6{fill:#86433f;}</style></defs><title>media</title><rect class="cls-1" x="0.05" width="528.14" height="367.32"/><path class="cls-2" d="M561.58,393.68v1.22h-.16c-3,.25-6.25.37-9.73.38l-3.6-.06c2.28-.34,4.56-.67,6.83-1s4.35-.57,6.52-.83Z" transform="translate(-33.52 -216.45)"/><path class="cls-3" d="M431.32,390.07a137.51,137.51,0,1,0-272.43,30.49c3.29-.14,6.73-.26,10.29-.37,17.91-.53,38.92-.61,59.94.28l5.14.22c33.7,1.46,64.95,3.12,92.33.18a162.6,162.6,0,0,0,33-6.7c9.24-3,19.79-6.15,31.06-9.13h0l.36-.1c12.83-3.38,26.55-6.51,40.3-8.95,0-.59,0-1.17,0-1.76C431.38,392.84,431.36,391.45,431.32,390.07Zm-22.25,4-1.53-.68,1.88-.37C409.31,393.41,409.19,393.76,409.07,394.11Z" transform="translate(-33.52 -216.45)"/><path class="cls-3" d="M409.08,394.11l-1.53-.68,1.88-.37C409.32,393.41,409.2,393.76,409.08,394.11Z" transform="translate(-33.52 -216.45)"/><path class="cls-3" d="M334.42,518.81l2.07-.07Z" transform="translate(-33.52 -216.45)"/><path class="cls-3" d="M409.43,393.06c-.11.35-.23.7-.35,1.05l-1.53-.68Z" transform="translate(-33.52 -216.45)"/><path class="cls-3" d="M561.41,394.91a95.79,95.79,0,0,1-9.73.38C555.16,395.28,558.41,395.16,561.41,394.91Z" transform="translate(-33.52 -216.45)"/><path class="cls-3" d="M56.74,432.5c-2,0-3.75.09-5.46.18l-13.84,1.63-3.92.46v-.62c1.2-.07,2.36-.18,3.46-.32l1-.11a122.7,122.7,0,0,1,15-1.24C54.11,432.46,55.38,432.47,56.74,432.5Z" transform="translate(-33.52 -216.45)"/><path class="cls-3" d="M409.43,393.06c-.11.35-.23.7-.35,1.05l-1.53-.68Z" transform="translate(-33.52 -216.45)"/><path class="cls-4" d="M409.43,393.06c-.11.35-.23.7-.35,1.05l-1.53-.68Z" transform="translate(-33.52 -216.45)"/><path class="cls-4" d="M551.68,395.29c-1.14,0-2.32,0-3.53,0h-.31c-17.8-.28-41.05-2.81-69.58-4-1-.05-2-.08-3-.11,2.44-.08,4.85-.1,7.21-.08,2.16,0,4.29.08,6.36.19,24.12,1.19,43.91,3.6,59.25,4Z" transform="translate(-33.52 -216.45)"/><path class="cls-5" d="M56.74,432.5c-2,0-3.75.09-5.46.18-4.3.23-8.07.62-12.27,1l-1.19.11c-1.37.14-2.81.25-4.3.32,1.2-.07,2.36-.18,3.46-.32l1-.11a122.7,122.7,0,0,1,15-1.24C54.11,432.46,55.38,432.47,56.74,432.5Z" transform="translate(-33.52 -216.45)"/><path class="cls-2" d="M447.75,393.43l2.44.68.55-1.05C450.57,393.39,448,393.43,447.75,393.43Zm113.82.25-.14-.25c-2.17.26-4.35.54-6.52.83s-4.55.63-6.83,1l0,0h0l.28.16a6.91,6.91,0,0,0,1.15.44l.44.12.28.07a3.48,3.48,0,0,0,.44.1,18.55,18.55,0,0,0,2,.3,24.67,24.67,0,0,0,2.59.14l.86,0q.52,0,1-.06l.7-.07h0l.46-.07a11.13,11.13,0,0,0,1.31-.28L560,396a2.93,2.93,0,0,0,1.55-1A1.22,1.22,0,0,0,561.57,393.68Z" transform="translate(-33.52 -216.45)"/><path class="cls-2" d="M561.66,393.68l-.14-.25c-2.17.26-4.35.54-6.52.83s-4.55.63-6.83,1c-15.34-.41-35.13-2.82-59.25-4-2.07-.11-4.2-.18-6.36-.19-2.36,0-4.77,0-7.21.08-7.87.22-16.11.9-24.52,1.95-.17.33-2.72.37-3,.37h0c-1.94.26-3.87.54-5.81.83q-5.26.8-10.55,1.73c0-.59,0-1.17,0-1.76,0-1.39,0-2.78-.06-4.16A137.51,137.51,0,1,0,159,420.56c-3.1.14-6.07.28-8.89.43-15.15.81-25.94,1.88-29.21,2.7-4.66,1.18-40,5.5-67.88,8.79a122.7,122.7,0,0,0-15,1.24l-1,.11c-1.1.14-2.26.25-3.46.32V216.45H561.66Z" transform="translate(-33.52 -216.45)"/><path class="cls-5" d="M409.43,393.06c-.11.35-.23.7-.35,1.05l-1.53-.68Z" transform="translate(-33.52 -216.45)"/><path class="cls-5" d="M561.57,395v79.66c-5.34,0-11,.05-16.67,0l-6,0c-14.63-.08-29-.34-38.71-.78l-.77,0-.78-.05c-1.37-.08-2.83-.2-4.36-.35l-1.51-.16-1.26-.14c-3.2-.37-6.67-.85-10.37-1.42l-2.07-.33-1.87-.3c-1-.15-2-.32-3-.49l-6.36-1.1-3-.53-.93-.17c-6.18-1.12-12.66-2.33-19.26-3.56-6.9-1.29-13.93-2.59-20.86-3.81l-2.84-.5-6.15-1-4.07-.66c-4-.65-8-1.24-11.85-1.76-5.27-.72-10.32-1.31-15-1.69h0c-15.38-1.27-37.7-1.52-61.14-1.36-26.65.18-54.74.88-75.7,1.21h0l-9.49.13h-.2c-5.89.06-11,0-15.8-.25-1.66-.08-3.28-.18-4.86-.29-1-.07-2.09-.16-3.12-.25l-1.54-.14c-.51,0-1-.09-1.52-.15l-2.41-.26-1.07-.13-2-.25-3.42-.47-2.06-.31c-2.31-.36-4.67-.75-7.13-1.17l-3-.53-4-.74-3.91-.72-7-1.31-3-.56-.73-.13-3.44-.63-.1,0-.92-.17-3-.53-3.53-.63c-4.81-.85-10.06-1.75-15.86-2.7l-4.45-.73q-4.55-.73-9.54-1.5l-2.53-.39h0l-1.55-.24-4.77-.72c-15.2-2.27-27.09-3.9-36.61-5-12.67-1.51-21.12-2.15-27.56-2.27-1.36,0-2.63,0-3.83,0,27.83-3.29,63.22-7.61,67.88-8.79,3.27-.82,14.06-1.89,29.21-2.7,2.82-.15,5.79-.29,8.89-.43,3.29-.14,6.73-.26,10.29-.37,17.91-.53,38.92-.61,59.94.28l5.14.22c33.7,1.46,64.95,3.12,92.33.18a162.6,162.6,0,0,0,33-6.7c9.24-3,19.79-6.15,31.06-9.13h0l.36-.1c12.83-3.38,26.55-6.51,40.3-8.95q5.28-.93,10.55-1.73c1.94-.29,3.87-.57,5.81-.83h0l2.44.68.55-1.05c8.41-1.05,16.65-1.73,24.52-1.95,1,0,2,.06,3,.11,28.53,1.23,51.78,3.76,69.58,4h.31l.28.16a6.91,6.91,0,0,0,1.15.44l.44.12.28.07a3.48,3.48,0,0,0,.44.1,18.55,18.55,0,0,0,2,.3,24.67,24.67,0,0,0,2.59.14l.86,0q.52,0,1-.06l.7-.07h0l.46-.07a11.13,11.13,0,0,0,1.31-.28L560,396A2.93,2.93,0,0,0,561.57,395Z" transform="translate(-33.52 -216.45)"/><path class="cls-5" d="M447.75,393.43c.27,0,2.82,0,3-.37l-.55,1.05Z" transform="translate(-33.52 -216.45)"/><path class="cls-5" d="M548.08,395.23l0,0h-.29c-17.8-.28-41.05-2.81-69.58-4-1-.05-2-.08-3-.11,2.44-.08,4.85-.1,7.21-.08,2.16,0,4.29.08,6.36.19C513,392.41,532.74,394.82,548.08,395.23Z" transform="translate(-33.52 -216.45)"/><path class="cls-5" d="M548.15,395.26l.28.16a2.69,2.69,0,0,1-.29-.16Z" transform="translate(-33.52 -216.45)"/><path class="cls-5" d="M552.69,396.45a24.82,24.82,0,0,0,2.59.14A24.67,24.67,0,0,1,552.69,396.45Z" transform="translate(-33.52 -216.45)"/><path class="cls-1" d="M561.57,394.9V395a2.93,2.93,0,0,1-1.55,1l-.37.12a11.13,11.13,0,0,1-1.31.28l-.46.07h0l-.7.07q-.49,0-1,.06l-.86,0a24.67,24.67,0,0,1-2.59-.14,18.55,18.55,0,0,1-2-.3,3.48,3.48,0,0,1-.44-.1L550,396l-.44-.12a6.91,6.91,0,0,1-1.15-.44,2.69,2.69,0,0,1-.29-.16h0l0,0,3.6.06a95.79,95.79,0,0,0,9.73-.38h.16Z" transform="translate(-33.52 -216.45)"/><path class="cls-1" d="M56.74,432.5c-2,0-3.75.09-5.46.18l1.63-.2C54.11,432.46,55.38,432.47,56.74,432.5Z" transform="translate(-33.52 -216.45)"/><path class="cls-1" d="M561.57,474.63v27.94c-18.08,1.05-35.23,2.16-48.53,3.52h0a166.93,166.93,0,0,0-19.7,2.89,95.86,95.86,0,0,1-9.48,1.58l-1.19.15q-2.73.33-5.9.65l-.88.09-1.83.18-4.52.42-1.28.11q-2.94.26-6.08.5l-1.27.1-.28,0-1.57.12-2.6.19-3.44.25-2.34.16-2.38.16-1.48.1-2.14.13c-3.66.23-7.42.46-11.25.68l-3.63.21-7.69.41-3.42.18-3.43.18-4.06.2-6.48.31-2.63.12-4,.18-3.71.17-8.05.35-2.39.1-5.88.24-5.23.21-5.1.2-3.22.12-3.32.13-3,.11-4.64.17-5.76.2-2.16.07-3.5.12-2.27.08-2.16.07-1.17,0-2.07.07-2,.06-.94,0-1.76.06-1.6,0-.74,0-.69,0-4.9.15s-7.05.42-18.84,1.08l-3,.16-2.18.12-1.26.07-4.72.26-2.35.13-.61,0-1.51.08-1.76.09-2.77.15-3.44.19-4.93.26-2.12.11-2.59.14-3.05.16-3.09.16-11.85.61-3.46.18-2,.1-4.18.21-4.23.21-2.54.12-4.23.21-2.12.1-6.45.31-8.7.4-4.39.2-4.4.2c-2.21.11-4.42.2-6.64.3l-4.43.19-2.49.11-3.66.16c-7.18.3-14.35.59-21.41.85l-3.29.13-5.44.2-3.18.11-9.8.33-2,.07c-6.66.21-13.12.39-19.3.54l-2.45.06c-4.11.09-8.09.17-11.9.23-7.47.12-14.32.16-20.37.13-9.21-.06-20.37.23-32.78.75-7.1.3-14.62.69-22.42,1.13V434.77l3.92-.46,13.84-1.63c1.71-.09,3.51-.16,5.46-.18,6.44.12,14.89.76,27.56,2.27,9.52,1.13,21.41,2.76,36.61,5l4.77.72,1.55.24h0l2.53.39q5,.77,9.54,1.5l4.45.73c5.8.95,11,1.85,15.86,2.7l3.53.63,3,.53.92.17.1,0,3.44.63.73.13,3,.56,7,1.31,3.91.72,4,.74,3,.53c2.46.42,4.82.81,7.13,1.17l2.06.31,3.42.47,2,.25,1.07.13,2.41.26c.5.06,1,.11,1.52.15l1.54.14c1,.1,2.06.18,3.12.25,1.58.11,3.2.21,4.86.29,4.76.22,9.91.31,15.8.25h.2l9.49-.13h0c21-.33,49.05-1,75.7-1.21,23.44-.16,45.76.09,61.14,1.36h0c4.7.38,9.75,1,15,1.69,3.84.52,7.81,1.11,11.85,1.76l4.07.66,6.15,1,2.84.5c6.93,1.22,14,2.52,20.86,3.81,6.6,1.23,13.08,2.44,19.26,3.56l.93.17,3,.53,6.36,1.1c1,.17,2,.34,3,.49l1.87.3,2.07.33c3.7.57,7.17,1.05,10.37,1.42l1.26.14,1.51.16c1.53.15,3,.27,4.36.35l.78.05.77,0c9.71.44,24.08.7,38.71.78l6,0C550.59,474.68,556.23,474.67,561.57,474.63Z" transform="translate(-33.52 -216.45)"/><path class="cls-6" d="M56.74,432.5c-2,0-3.75.09-5.46.18l-13.84,1.63-3.92.46v-.62c1.2-.07,2.36-.18,3.46-.32l1-.11a122.7,122.7,0,0,1,15-1.24C54.11,432.46,55.38,432.47,56.74,432.5Z" transform="translate(-33.52 -216.45)"/><path class="cls-6" d="M561.57,502.57v81.2H33.52V530.54c7.8-.44,15.32-.83,22.42-1.13,12.41-.52,23.57-.81,32.78-.75,6,0,12.9,0,20.37-.13,3.81-.06,7.79-.14,11.9-.23l2.45-.06c6.18-.15,12.64-.33,19.3-.54l2-.07,9.8-.33,3.18-.11,5.44-.2,3.29-.13c7.06-.26,14.23-.55,21.41-.85l3.66-.16,2.49-.11,4.43-.19c2.22-.1,4.43-.19,6.64-.3l4.4-.2,4.39-.2,8.7-.4,6.45-.31,2.12-.1,4.23-.21,2.54-.12,4.23-.21,4.18-.21,2-.1,3.46-.18,11.85-.61,3.09-.16,3.05-.16,2.59-.14,2.12-.11,4.93-.26,3.44-.19,2.77-.15,1.76-.09,1.51-.08.61,0,2.35-.13,4.72-.26,1.26-.07,2.18-.12,3-.16c11.79-.66,18.84-1.08,18.84-1.08l4.9-.15.69,0,.74,0,1.6,0,1.76-.06.94,0,2-.06,2.07-.07,1.17,0,2.16-.07,2.27-.08,3.5-.12,2.16-.07,5.76-.2,4.64-.17,3-.11,3.32-.13,3.22-.12,5.1-.2,5.23-.21,5.88-.24,2.39-.1,8.05-.35,3.71-.17,4-.18,2.63-.12,6.48-.31,4.06-.2,3.43-.18,3.42-.18,7.69-.41,3.63-.21c3.83-.22,7.59-.45,11.25-.68l2.14-.13,1.48-.1,2.38-.16,2.34-.16,3.44-.25,2.6-.19,1.57-.12.28,0,1.27-.1q3.13-.24,6.08-.5l1.28-.11,4.52-.42,1.83-.18.88-.09q3.17-.32,5.9-.65l1.19-.15a95.86,95.86,0,0,0,9.48-1.58,166.93,166.93,0,0,1,19.7-2.89h0C526.34,504.73,543.49,503.62,561.57,502.57Z" transform="translate(-33.52 -216.45)"/></svg>