<svg id="Livello_1" data-name="Livello 1" xmlns="http://www.w3.org/2000/svg" viewBox="0 0 550.43 550.43"><defs><style>.cls-1{fill:#f4e76a;}.cls-2{fill:#f7f2b0;}.cls-3{fill:#a2aba0;opacity:0.71;}.cls-4{fill:#1d1d1b;}.cls-5{fill:#fff;}.cls-6{fill:#ee9c8b;}</style></defs><title>moon</title><path class="cls-1" d="M298,145.44A275.24,275.24,0,0,0,22.78,420.66c0,152,123.23,275.21,275.23,275.21,147.77,0,268.36-116.5,274.92-262.66q.29-6.24.29-12.55C573.22,268.66,450,145.44,298,145.44ZM472.54,318.7A49,49,0,0,1,483.65,320a24.42,24.42,0,1,1,34.89,31.11,48.85,48.85,0,0,1-90.13,37.39,33.28,33.28,0,0,0,5.91-51.31A48.69,48.69,0,0,1,472.54,318.7ZM292.1,408.48a33.17,33.17,0,0,1,33,29.67,17.33,17.33,0,1,1-14.63,31.12,33.17,33.17,0,1,1-18.36-60.79Z" transform="translate(-22.78 -145.44)"/><path class="cls-2" d="M298,145.44a274.36,274.36,0,0,0-195,81A257.55,257.55,0,0,0,206.27,573.14c3.16,1.75,6.36,3.42,9.61,5a255.43,255.43,0,0,0,53.63,19.51h0q5.25,1.27,10.59,2.32a258,258,0,0,0,50.06,4.87c112.1,0,207.45-71.66,242.76-171.67q.29-6.24.29-12.55C573.22,268.66,450,145.44,298,145.44ZM319.73,472a17.18,17.18,0,0,1-9.27-2.7,33.16,33.16,0,1,1,14.63-31.12A17.33,17.33,0,0,1,319.73,472ZM518.54,351.08a48.85,48.85,0,0,1-90.13,37.39,33.28,33.28,0,0,0,5.91-51.31A48.88,48.88,0,0,1,483.65,320a24.42,24.42,0,1,1,34.89,31.11Z" transform="translate(-22.78 -145.44)"/><circle class="cls-2" cx="220.03" cy="442.17" r="39.3"/><circle class="cls-1" cx="220.03" cy="442.17" r="28.53"/><path class="cls-3" d="M443.79,360.37a33.3,33.3,0,0,1-15.38,28.1,48.8,48.8,0,0,1,5.91-51.31A33.14,33.14,0,0,1,443.79,360.37Z" transform="translate(-22.78 -145.44)"/><path class="cls-1" d="M518.54,351.08a48.85,48.85,0,0,1-90.13,37.39,33.28,33.28,0,0,0,5.91-51.31A48.88,48.88,0,0,1,483.65,320a24.42,24.42,0,1,1,34.89,31.11Z" transform="translate(-22.78 -145.44)"/><circle class="cls-1" cx="185.37" cy="110.58" r="32.75"/><circle class="cls-1" cx="340.65" cy="94.2" r="16.37"/><path class="cls-1" d="M337.07,454.63a17.32,17.32,0,0,1-26.61,14.64,33.16,33.16,0,1,1,14.63-31.12A17.33,17.33,0,0,1,337.07,454.63Z" transform="translate(-22.78 -145.44)"/><path class="cls-4" d="M227.33,360.36a33.24,33.24,0,1,1-33.18-33.18A33.23,33.23,0,0,1,227.33,360.36Z" transform="translate(-22.78 -145.44)"/><circle class="cls-5" cx="150.39" cy="214.97" r="11.81"/><path class="cls-6" d="M221,441.61a26.87,26.87,0,1,1-26.82-26.83A26.87,26.87,0,0,1,221,441.61Z" transform="translate(-22.78 -145.44)"/><path class="cls-4" d="M443.79,360.37a33.3,33.3,0,0,1-15.38,28.1,33,33,0,0,1-17.8,5.19,33.26,33.26,0,1,1,33.18-33.29Z" transform="translate(-22.78 -145.44)"/><circle class="cls-5" cx="366.86" cy="214.97" r="11.81"/><path class="cls-6" d="M437.43,441.61a26.87,26.87,0,1,1-26.82-26.83A26.87,26.87,0,0,1,437.43,441.61Z" transform="translate(-22.78 -145.44)"/><path class="cls-4" d="M362.76,468.53c0,1.5-.07,3-.22,4.51,0,.36-.08.72-.12,1.08-.1.93.17-1,0-.11-.12.76-.25,1.52-.4,2.27a47.54,47.54,0,0,1-2.47,8.34,3.09,3.09,0,0,0-.23.57s.43-1,.2-.49c-.15.32-.28.65-.43,1-.32.7-.66,1.39-1,2.07q-1,1.92-2.13,3.75t-2.54,3.73l-.29.37c-.3.44.31-.39.31-.39-.23.12-.52.65-.69.86-.5.62-1,1.22-1.53,1.81a60.81,60.81,0,0,1-6.56,6.38c-.58.49-1.18,1-1.77,1.44-.44.35.36-.29.36-.28a2.73,2.73,0,0,1-.53.4c-.35.27-.71.53-1.07.78q-1.89,1.37-3.89,2.6a73.56,73.56,0,0,1-8.6,4.55,10,10,0,0,1-1.12.49l.39-.16-.65.26c-.81.33-1.63.65-2.46.95q-2.34.86-4.74,1.57a81.56,81.56,0,0,1-10.13,2.3l-1.29.2-.55.08c-.72.11.94-.11.21,0s-1.74.21-2.61.29c-1.84.18-3.67.29-5.52.35a86.35,86.35,0,0,1-10.91-.35l-2.43-.27c-.94-.11.07,0,.21,0a3.47,3.47,0,0,0-.55-.08l-1.47-.23c-1.76-.28-3.5-.62-5.24-1a79.84,79.84,0,0,1-9.8-2.91c-.72-.26-1.43-.54-2.14-.82-.14-.06-1.38-.59-.69-.28s-.63-.28-.84-.38q-2.28-1-4.49-2.19a70.29,70.29,0,0,1-8.14-5.05l-.94-.69-.39-.3c-.46-.32.37.29.36.29a11.27,11.27,0,0,1-1.91-1.55q-1.8-1.5-3.48-3.15c-1.06-1-2.09-2.11-3.08-3.23-.48-.55-1-1.11-1.43-1.69l-.68-.85c-.35-.42.3.4.3.39-.05-.2-.36-.47-.47-.63a52.5,52.5,0,0,1-4.66-7.48c-.3-.6-.59-1.19-.87-1.8-.15-.32-.29-.65-.44-1s-.06-.65.15.35a4,4,0,0,0-.23-.57c-.55-1.37-1-2.77-1.45-4.18s-.75-2.76-1-4.16c-.14-.7-.26-1.41-.37-2.12-.18-1.16.09.84,0,0,0-.41-.09-.82-.13-1.23-.14-1.45-.2-2.91-.2-4.36a5,5,0,0,0-10,0c0,13.46,5.45,26.1,14.24,36.17,9.17,10.5,21.82,17.78,35.09,21.74a90.57,90.57,0,0,0,45.77,1.33c13.73-3.14,26.9-9.8,37-19.71a57,57,0,0,0,17.19-34.86c.15-1.56.22-3.11.23-4.67a5,5,0,0,0-10,0Z" transform="translate(-22.78 -145.44)"/></svg>