<svg id="Livello_1" data-name="Livello 1" xmlns="http://www.w3.org/2000/svg" viewBox="0 0 155.19 214.24"><defs><style>.cls-1{fill:#1E90FF;}.cls-2{fill:#0f71dd;}.cls-3{fill:#efefef;}.cls-4{fill:#c5d9df;}</style></defs><title>place</title><path class="cls-1" d="M337.09,646c-2.9-3.34-71.08-82.39-70.23-135.48A77.59,77.59,0,0,1,422,513c-.85,53.09-71.53,129.92-74.54,133.17A7,7,0,0,1,337.09,646Z" transform="translate(-266.85 -434.14)"/><path class="cls-2" d="M422,513a77.67,77.67,0,0,0-76.34-78.82l-3.44,214.22a7,7,0,0,0,5.24-2.23C350.5,642.89,421.18,566.06,422,513Z" transform="translate(-266.85 -434.14)"/><path class="cls-3" d="M343.82,550.76a39,39,0,1,1,39.66-38.4A39.08,39.08,0,0,1,343.82,550.76Z" transform="translate(-266.85 -434.14)"/><path class="cls-4" d="M345.07,472.7l-1.25,78.06a39,39,0,1,0,1.25-78.06Z" transform="translate(-266.85 -434.14)"/></svg>