<svg id="Livello_1" data-name="Livello 1" xmlns="http://www.w3.org/2000/svg" viewBox="0 0 142.62 90.05"><defs><style>.cls-1,.cls-2{fill:#17ad88;}.cls-2{stroke:#1a8164;stroke-miterlimit:10;}.cls-3{fill:#1a8163;}.cls-4{fill:#323c90;}.cls-5{fill:#eb568c;}.cls-6{fill:#99497d;}.cls-7{fill:#139d7f;}.cls-8{fill:#010202;}.cls-9{fill:#1d6d54;}.cls-10{fill:#1e1e1c;}.cls-11{fill:#dade50;}</style></defs><title>people</title><path class="cls-1" d="M310,522.64v-.08c0,.1,0,.2,0,.31s-.09.49-.14.73v0c0,.07,0,.15,0,.22a11.61,11.61,0,0,1,0,1.45v0a9.21,9.21,0,0,1-.16,1.09,10,10,0,0,0,.21-1.37v0a10.81,10.81,0,0,0,.12-2.23Zm8.2,12.67c0,2.4-2.65,3.82-4.93,3.82s-4.91-1.42-4.94-3.82a1,1,0,0,0-1.91,0,6,6,0,0,0,4.52,5.38,7.77,7.77,0,0,0,7.52-1.66,5.3,5.3,0,0,0,1.65-3.72A1,1,0,0,0,318.16,535.31Zm3.57-24.78a13.54,13.54,0,0,0-1.07,1.18,16.47,16.47,0,0,0-3.56,11.81c-.14,2.68.58,5,2.2,6.45.36.32.74.63,1.13.92-.39-.3-.76-.6-1.11-.92-1.61-1.4-2.32-3.7-2.2-6.33v-.21a16.44,16.44,0,0,1,3.56-11.72A15,15,0,0,1,321.73,510.53Zm4.61-3a10.86,10.86,0,0,1,1.2-.35A10.86,10.86,0,0,0,326.34,507.57Zm10.09,13.24a28.46,28.46,0,0,1-.93,3.69,27.73,27.73,0,0,0,1-3.84A.94.94,0,0,1,336.43,520.81Z" transform="translate(-200.57 -467.87)"/><path class="cls-2" d="M313.47,481.69c-16.12,0-29.19,6.05-29.19,23.68,0,15.67,10.33,34.39,23.94,38.36v2.63h0l.38-.14.4-.13a5.9,5.9,0,0,1,.72-.2l.46-.1.47-.08.41-.05.46-.06.44,0h1.1c.44,0,.87,0,1.27.07h0l.44,0h.05l.21,0c.32,0,.61.09.88.15l.51.1c.26,0,.5.11.75.18h0l.23.07.44.13,0,0v-1.51c-.15,0-.29,0-.43,0l-.41,0a3.2,3.2,0,0,1-.44,0h-1.45l-.53,0a4.6,4.6,0,0,1-.52-.06h-.06l-.31,0-.22,0-.18,0-.5-.09-.56-.13h0c.17,0,.35,0,.53,0h.93c.24,0,.48,0,.71,0h.31l.75-.07.46-.06c.45-.06.9-.15,1.36-.25l.54-.12h0c7-1.74,13.16-7.4,17.6-14.61a47.53,47.53,0,0,0,7.1-24C342.67,487.74,329.6,481.69,313.47,481.69Zm-19.42,47.43a22.43,22.43,0,0,1-3.52-8.3.85.85,0,0,1-.06-.17,16.66,16.66,0,0,1-.69-2.74.08.08,0,0,0,0,0,17,17,0,0,1-.4-3.56,13.07,13.07,0,0,1,.33-3,7.05,7.05,0,0,1,1.57-3.12l.26-.27,0,0,0,0,.08-.07.09-.07.2-.16h0c2-1.46,5-1.4,7.9-.08l.31.1c-2.83-1.34-5.68-1.53-7.77-.33,3.66-2.26,9.79-1.5,13.94,3.56A16.42,16.42,0,0,1,310,522.63a.64.64,0,0,0,0,.07.76.76,0,0,0,0-.15,12.09,12.09,0,0,0-.76-4.92c.13.46.25.93.34,1.38l0,.08a14.81,14.81,0,0,1,.26,4c0,.16,0,.32,0,.47,0-.24.1-.49.14-.73s0-.21,0-.31v.24h0a10.81,10.81,0,0,1-.12,2.23v0a10,10,0,0,1-.21,1.37,9.21,9.21,0,0,0,.16-1.09,6.6,6.6,0,0,1-2,3.76C304.2,532.16,298.45,535,294.05,529.12ZM318.42,539a7.77,7.77,0,0,1-7.52,1.66,6,6,0,0,1-4.52-5.38,1,1,0,0,1,1.91,0c0,2.4,2.65,3.82,4.94,3.82s4.9-1.42,4.93-3.82a1,1,0,0,1,1.91,0A5.3,5.3,0,0,1,318.42,539ZM335.5,524.5c-.13.41-.28.82-.44,1.23A18,18,0,0,1,332.8,530h0a9.93,9.93,0,0,1-2,2,8.81,8.81,0,0,1-.78.52,5.12,5.12,0,0,1-.52.27c-.26.12-.53.21-.79.3a6.86,6.86,0,0,1-3.48.12,7.79,7.79,0,0,1-.83-.22,11.89,11.89,0,0,1-2.75-1.29c-.43-.26-.85-.55-1.25-.85s-.77-.6-1.13-.92c-1.62-1.42-2.34-3.77-2.2-6.45a16.47,16.47,0,0,1,3.56-11.81,13.54,13.54,0,0,1,1.07-1.18l.37-.35a11,11,0,0,1,.91-.78,12.46,12.46,0,0,1,3.33-1.83,10.86,10.86,0,0,1,1.2-.35,9.87,9.87,0,0,1,4.07-.14,7.78,7.78,0,0,1,3.2,1.35h0l.2.15.09.08.07.06,0,0,0,0,.06.06.09.09a6,6,0,0,1,1.65,3.17v.08a13,13,0,0,1,.33,3,17.08,17.08,0,0,1-.92,5.45l0,.18a.94.94,0,0,0,.06-.15A27.73,27.73,0,0,1,335.5,524.5Z" transform="translate(-200.57 -467.87)"/><path class="cls-1" d="M309,546.23l-.81.13h0Z" transform="translate(-200.57 -467.87)"/><path class="cls-1" d="M318,546.36Z" transform="translate(-200.57 -467.87)"/><path class="cls-1" d="M318,543.93v.91a16.4,16.4,0,0,1-5.63-.38c.38,0,.76,0,1.12,0A19.09,19.09,0,0,0,318,543.93Z" transform="translate(-200.57 -467.87)"/><path class="cls-3" d="M318,543.93v.91h0a16.4,16.4,0,0,1-5.63-.38c.38,0,.76,0,1.12,0a18.1,18.1,0,0,0,4.51-.57Z" transform="translate(-200.57 -467.87)"/><path class="cls-4" d="M336.81,557.71H289.39c0-3.74,7.74-8.86,16.51-10.88a9.78,9.78,0,0,0,7.2,3.23,10.26,10.26,0,0,0,4.88-1.27,10.74,10.74,0,0,0,2.57-1.91C329.22,549,336.81,554,336.81,557.71Z" transform="translate(-200.57 -467.87)"/><path class="cls-5" d="M308.14,546.39l-.9.17A5.7,5.7,0,0,1,308.14,546.39Z" transform="translate(-200.57 -467.87)"/><path class="cls-5" d="M309,546.23l-.81.13h0Z" transform="translate(-200.57 -467.87)"/><path class="cls-5" d="M318.24,546.39l-.26,0h0Z" transform="translate(-200.57 -467.87)"/><path class="cls-5" d="M319.54,546.66l-.83-.17Z" transform="translate(-200.57 -467.87)"/><path class="cls-6" d="M320.55,546.9a10.8,10.8,0,0,1-2.57,2,10,10,0,0,1-4.88,1.34,9.65,9.65,0,0,1-7.2-3.39l.33-.08.33-.08.68-.14.9-.17h.08c0,.06,1.48,1.77,4.88,1.77s4.83-1.71,4.88-1.77h0l.26,0,.47.08.83.17.18,0,.78.18Z" transform="translate(-200.57 -467.87)"/><path class="cls-7" d="M317.92,546.35H318c0,.06-1.48,1.77-4.88,1.77s-4.83-1.71-4.87-1.77l.81-.12-.81.12c4.69-1.84,9.75,0,9.75,0Z" transform="translate(-200.57 -467.87)"/><path class="cls-7" d="M309,546.23l-.81.13h0Z" transform="translate(-200.57 -467.87)"/><path class="cls-7" d="M318,546.36Z" transform="translate(-200.57 -467.87)"/><path class="cls-1" d="M309.84,525v0a10,10,0,0,1-.21,1.37,9.21,9.21,0,0,0,.16-1.09v0a11.61,11.61,0,0,0,0-1.45.59.59,0,0,0,0-.14.25.25,0,0,1,0-.08v0a.37.37,0,0,0,0-.11h0a.06.06,0,0,1,0,0v0A13.31,13.31,0,0,1,309.84,525Z" transform="translate(-200.57 -467.87)"/><path class="cls-8" d="M336.45,520.66a15.82,15.82,0,0,1-2.58,4.78c-4.25,5.26-10.83,5.42-14.37,2.8l0,0,0,0h0l0,0-.11-.08-.21-.19a6.9,6.9,0,0,1-1.95-4.14c0-.1,0-.21,0-.31-.22-3.08,1.07-6.87,3.74-10.18,4.25-5.27,10.42-7.38,13.93-4.83h0l.2.16h0l.09.07h0l.08.08a6.79,6.79,0,0,1,1.87,3.44h0A15.92,15.92,0,0,1,336.45,520.66Z" transform="translate(-200.57 -467.87)"/><path class="cls-1" d="M336.49,520.66a27.73,27.73,0,0,1-1,3.84c-.13.41-.28.82-.44,1.23A18,18,0,0,1,332.8,530a10.13,10.13,0,0,1-2,2,8.81,8.81,0,0,1-.78.52l-.52.27c-.26.12-.53.21-.79.3a6.86,6.86,0,0,1-3.48.12,7.79,7.79,0,0,1-.83-.22,11.89,11.89,0,0,1-2.75-1.29A16.72,16.72,0,0,1,319.3,530c-1.62-1.42-2.34-3.77-2.2-6.45a16.47,16.47,0,0,1,3.56-11.81,14,14,0,0,1,1.44-1.53,11,11,0,0,1,.91-.78,12.46,12.46,0,0,1,3.33-1.83,10.86,10.86,0,0,1,1.2-.35,9.87,9.87,0,0,1,4.07-.14,7.83,7.83,0,0,1,3.18,1.35c-3.52-2.55-9.68-.44-13.93,4.83-2.66,3.3-4,7.1-3.74,10.17v.16a1,1,0,0,0,0,.16,6.92,6.92,0,0,0,1.95,4.14l.05.05.05,0,.11.09.1.07,0,0,0,0,0,0a9.87,9.87,0,0,0,8.91,1.07,11.49,11.49,0,0,0,3.89-2.24,13.72,13.72,0,0,0,1.58-1.64c.28-.35.55-.72.8-1.1h0a14.6,14.6,0,0,0,1.75-3.51A.94.94,0,0,0,336.49,520.66Z" transform="translate(-200.57 -467.87)"/><path class="cls-7" d="M336.49,520.66a27.73,27.73,0,0,1-1,3.84c-.13.41-.28.82-.44,1.23A18,18,0,0,1,332.8,530a10.13,10.13,0,0,1-2,2,8.81,8.81,0,0,1-.78.52l-.52.27c-.26.12-.53.21-.79.3a6.86,6.86,0,0,1-3.48.12,7.79,7.79,0,0,1-.83-.22,11.89,11.89,0,0,1-2.75-1.29A16.72,16.72,0,0,1,319.3,530c-1.62-1.42-2.34-3.77-2.2-6.45a16.47,16.47,0,0,1,3.56-11.81,14,14,0,0,1,1.44-1.53,11,11,0,0,1,.91-.78,12.46,12.46,0,0,1,3.33-1.83,10.86,10.86,0,0,1,1.2-.35,9.87,9.87,0,0,1,4.07-.14,7.83,7.83,0,0,1,3.18,1.35c-3.52-2.55-9.68-.44-13.93,4.83-2.66,3.3-4,7.1-3.74,10.17v.16a1,1,0,0,0,0,.16,6.92,6.92,0,0,0,1.95,4.14l.05.05.05,0,.11.09.1.07,0,0,0,0,0,0a9.87,9.87,0,0,0,8.91,1.07,11.49,11.49,0,0,0,3.89-2.24,13.72,13.72,0,0,0,1.58-1.64c.28-.35.55-.72.8-1.1h0a14.6,14.6,0,0,0,1.75-3.51A.94.94,0,0,0,336.49,520.66Z" transform="translate(-200.57 -467.87)"/><path class="cls-9" d="M309.84,523.5a1.81,1.81,0,0,1,0,.23,1.19,1.19,0,0,1,0-.32A.27.27,0,0,0,309.84,523.5Z" transform="translate(-200.57 -467.87)"/><path class="cls-3" d="M336.49,520.66a27.73,27.73,0,0,1-1,3.84c-.13.41-.28.82-.44,1.23A18,18,0,0,1,332.8,530a10.13,10.13,0,0,1-2,2,8.81,8.81,0,0,1-.78.52l-.52.27c-.26.12-.53.21-.79.3a6.86,6.86,0,0,1-3.48.12,7.79,7.79,0,0,1-.83-.22,11.89,11.89,0,0,1-2.75-1.29A16.72,16.72,0,0,1,319.3,530c-1.62-1.42-2.34-3.77-2.2-6.45v-.09a.75.75,0,0,0,0,.21.45.45,0,0,0,0,.11,6.92,6.92,0,0,0,1.95,4.14l.06.05.05,0,.11.09.1.07,0,0,0,0,0,0a9.87,9.87,0,0,0,8.91,1.07,11.49,11.49,0,0,0,3.89-2.24,12.85,12.85,0,0,0,1.56-1.64c.29-.35.56-.72.82-1.1h0a14.6,14.6,0,0,0,1.75-3.51A.94.94,0,0,0,336.49,520.66Z" transform="translate(-200.57 -467.87)"/><path class="cls-9" d="M334.79,508.42c-3.52-2.55-9.68-.44-13.93,4.82-2.66,3.31-4,7.1-3.75,10.18a1.16,1.16,0,0,0,0,.32l0-.24a16.45,16.45,0,0,1,3.55-11.8C324.91,506.44,331.26,505.81,334.79,508.42Z" transform="translate(-200.57 -467.87)"/><path class="cls-10" d="M320.07,535.31a5.3,5.3,0,0,1-1.65,3.72,7.77,7.77,0,0,1-7.52,1.66,6,6,0,0,1-4.52-5.38,1,1,0,0,1,1.91,0c0,2.4,2.65,3.82,4.94,3.82s4.9-1.42,4.93-3.82A1,1,0,0,1,320.07,535.31Z" transform="translate(-200.57 -467.87)"/><path class="cls-8" d="M309.84,523.13a6.92,6.92,0,0,1-1.74,3.71l-.19.19-.22.19-.1.07,0,0,0,0,0,0a6.91,6.91,0,0,1-.86.54,8.81,8.81,0,0,1-1.25.56A11.38,11.38,0,0,1,293,524.55a15.6,15.6,0,0,1-2.66-4.76,18.16,18.16,0,0,1-.53-1.88.08.08,0,0,0,0,0,17,17,0,0,1-.4-3.56,13.07,13.07,0,0,1,.33-3,7.05,7.05,0,0,1,1.57-3.12l.26-.27,0,0,0,0,.08-.07.09-.07.2-.16h0c2-1.46,5-1.4,7.9-.08a17.23,17.23,0,0,1,6.22,4.9,17.52,17.52,0,0,1,3.45,6.62l0,.08A14.81,14.81,0,0,1,309.84,523.13Z" transform="translate(-200.57 -467.87)"/><path class="cls-8" d="M305.38,528.47a11.38,11.38,0,0,1-12.45-3.9,15.71,15.71,0,0,1-2.62-4.78,15.6,15.6,0,0,0,2.66,4.76A11.38,11.38,0,0,0,305.38,528.47Z" transform="translate(-200.57 -467.87)"/><path class="cls-8" d="M309.91,522.57a1.12,1.12,0,0,0,0,.32c0,.08,0,.16,0,.24a14.81,14.81,0,0,0-.26-4A11.16,11.16,0,0,1,309.91,522.57Z" transform="translate(-200.57 -467.87)"/><path class="cls-3" d="M309.78,525.3v0a6.6,6.6,0,0,1-2,3.76c-3.53,3.06-9.28,5.89-13.68,0a22.43,22.43,0,0,1-3.52-8.3c-.09-.34-.15-.69-.22-1a15.71,15.71,0,0,0,2.62,4.78,11.38,11.38,0,0,0,12.45,3.9,8.81,8.81,0,0,0,1.25-.56,6.54,6.54,0,0,0,.91-.56l0,0,0,0,0,0,.1-.08L308,527l.19-.19a6.52,6.52,0,0,0,1.64-3.2c0,.07,0,.15,0,.22A11.61,11.61,0,0,1,309.78,525.3Z" transform="translate(-200.57 -467.87)"/><path class="cls-3" d="M305.38,528.47a11.38,11.38,0,0,1-12.45-3.9,15.71,15.71,0,0,1-2.62-4.78,15.6,15.6,0,0,0,2.66,4.76A11.38,11.38,0,0,0,305.38,528.47Z" transform="translate(-200.57 -467.87)"/><path class="cls-3" d="M310,522.81a10.81,10.81,0,0,1-.12,2.23v0a1,1,0,0,1-.05.24,11.61,11.61,0,0,0,0-1.45c0-.07,0-.15,0-.22v0c0-.24.1-.49.14-.73s0-.21,0-.31v.25Z" transform="translate(-200.57 -467.87)"/><path class="cls-3" d="M292,507.54c.14-.1.29-.19.44-.28C292.28,507.35,292.13,507.44,292,507.54Z" transform="translate(-200.57 -467.87)"/><path class="cls-3" d="M310,522.63a.64.64,0,0,0,0,.07.76.76,0,0,0,0-.15,12.09,12.09,0,0,0-.76-4.92h0a18,18,0,0,0-3-5.26,17.51,17.51,0,0,0-6-4.76h0c-2.83-1.34-5.68-1.53-7.77-.33,3.66-2.26,9.79-1.5,13.94,3.56A16.42,16.42,0,0,1,310,522.63Z" transform="translate(-200.57 -467.87)"/><path class="cls-1" d="M226.74,522.64a.11.11,0,0,0,0-.08c0,.1,0,.2,0,.31a6.26,6.26,0,0,1-.14.73v0a1.64,1.64,0,0,0,0,.22,11.61,11.61,0,0,1,0,1.45s0,0,0,0a9.24,9.24,0,0,1-.15,1.09,10,10,0,0,0,.21-1.37v0a10.8,10.8,0,0,0,.13-2.23A1,1,0,0,0,226.74,522.64ZM235,535.31c0,2.4-2.65,3.82-4.94,3.82s-4.9-1.42-4.94-3.82a1,1,0,0,0-1.9,0,6,6,0,0,0,4.52,5.38,7.77,7.77,0,0,0,7.52-1.66,5.29,5.29,0,0,0,1.64-3.72A1,1,0,0,0,235,535.31Zm3.57-24.78a15.44,15.44,0,0,0-1.08,1.18,16.51,16.51,0,0,0-3.55,11.81c-.14,2.68.57,5,2.2,6.45a12.92,12.92,0,0,0,1.13.92c-.39-.3-.76-.6-1.11-.92-1.61-1.4-2.32-3.7-2.21-6.33a.09.09,0,0,1,0,0,.86.86,0,0,1,0-.16,16.49,16.49,0,0,1,3.56-11.72A15.06,15.06,0,0,1,238.52,510.53Zm4.61-3a10.86,10.86,0,0,1,1.2-.35A10.86,10.86,0,0,0,243.13,507.57Zm10.09,13.24a30.18,30.18,0,0,1-.93,3.69,29.22,29.22,0,0,0,1-3.84A.94.94,0,0,1,253.22,520.81Z" transform="translate(-200.57 -467.87)"/><path class="cls-2" d="M230.26,481.69c-16.12,0-29.19,6.05-29.19,23.68,0,15.67,10.32,34.39,23.94,38.36v2.63h0l.38-.14.4-.13a6.29,6.29,0,0,1,.71-.2l.47-.1.47-.08.41-.05.45-.06.45,0h1.09c.44,0,.88,0,1.28.07h0l.44,0h0l.22,0q.47.06.87.15l.52.1q.38.07.75.18h0l.23.07.44.13.05,0v-1.51c-.15,0-.29,0-.44,0l-.4,0a3.38,3.38,0,0,1-.45,0H232l-.52,0a4.78,4.78,0,0,1-.53-.06h-.05l-.31,0-.22,0-.19,0-.49-.09-.57-.13h.05c.17,0,.35,0,.53,0h.93c.24,0,.48,0,.71,0h.31l.75-.07.46-.06c.45-.06.9-.15,1.35-.25l.54-.12h0c7-1.74,13.16-7.4,17.59-14.61a47.44,47.44,0,0,0,7.11-24C259.45,487.74,246.39,481.69,230.26,481.69Zm-19.42,47.43a22.27,22.27,0,0,1-3.52-8.3.49.49,0,0,1-.06-.17,15.74,15.74,0,0,1-.7-2.74v0a16.33,16.33,0,0,1-.4-3.56,13.07,13.07,0,0,1,.33-3,7,7,0,0,1,1.57-3.12,3.25,3.25,0,0,1,.26-.27l0,0,0,0,.08-.07.09-.07.2-.16h0c2-1.46,5-1.4,7.91-.08l.31.1c-2.83-1.34-5.69-1.53-7.77-.33,3.66-2.26,9.79-1.5,13.93,3.56a16.33,16.33,0,0,1,3.62,11.81.2.2,0,0,1,0,.07.76.76,0,0,0,0-.15,12.26,12.26,0,0,0-.76-4.92c.13.46.25.93.34,1.38v.08a14.06,14.06,0,0,1,.26,4c0,.16,0,.32-.05.47a6.26,6.26,0,0,0,.14-.73c0-.11,0-.21,0-.31a.11.11,0,0,1,0,.08.86.86,0,0,1,0,.16s0,0,0,0a10.8,10.8,0,0,1-.13,2.23v0a10,10,0,0,1-.21,1.37,9.24,9.24,0,0,0,.15-1.09,6.55,6.55,0,0,1-2.05,3.76C221,532.16,215.23,535,210.84,529.12ZM235.21,539a7.77,7.77,0,0,1-7.52,1.66,6,6,0,0,1-4.52-5.38,1,1,0,0,1,1.9,0c0,2.4,2.66,3.82,4.94,3.82s4.9-1.42,4.94-3.82a1,1,0,0,1,1.9,0A5.29,5.29,0,0,1,235.21,539Zm17.08-14.53c-.13.41-.28.82-.44,1.23a18.33,18.33,0,0,1-2.26,4.27h0a9.9,9.9,0,0,1-2,2,8.81,8.81,0,0,1-.78.52,4.39,4.39,0,0,1-.53.27,7.38,7.38,0,0,1-.78.3,6.86,6.86,0,0,1-3.48.12,8.67,8.67,0,0,1-.84-.22,12,12,0,0,1-2.74-1.29,13.72,13.72,0,0,1-1.25-.85,12.92,12.92,0,0,1-1.13-.92c-1.63-1.42-2.34-3.77-2.2-6.45a16.51,16.51,0,0,1,3.55-11.81,15.44,15.44,0,0,1,1.08-1.18l.36-.35c.3-.28.61-.54.92-.78a12.31,12.31,0,0,1,3.33-1.83,10.86,10.86,0,0,1,1.2-.35,9.83,9.83,0,0,1,4.06-.14,7.76,7.76,0,0,1,3.21,1.35h0l.2.15.09.08.07.06,0,0,0,0,.06.06.09.09a6,6,0,0,1,1.64,3.17v.08a12.47,12.47,0,0,1,.34,3,17.08,17.08,0,0,1-.92,5.45l0,.18a.94.94,0,0,0,.06-.15A29.22,29.22,0,0,1,252.29,524.5Z" transform="translate(-200.57 -467.87)"/><path class="cls-1" d="M225.82,546.23l-.81.13h0Z" transform="translate(-200.57 -467.87)"/><path class="cls-1" d="M234.76,546.36Z" transform="translate(-200.57 -467.87)"/><path class="cls-1" d="M234.76,543.93v.91a16.36,16.36,0,0,1-5.62-.38c.38,0,.76,0,1.12,0A18.94,18.94,0,0,0,234.76,543.93Z" transform="translate(-200.57 -467.87)"/><path class="cls-3" d="M234.76,543.93v.91h0a16.36,16.36,0,0,1-5.62-.38c.38,0,.76,0,1.12,0a18,18,0,0,0,4.5-.57Z" transform="translate(-200.57 -467.87)"/><path class="cls-11" d="M253.59,557.71H206.18c0-3.74,7.74-8.86,16.51-10.88a9.76,9.76,0,0,0,7.19,3.23,10.2,10.2,0,0,0,4.88-1.27,10.8,10.8,0,0,0,2.58-1.91C246,549,253.59,554,253.59,557.71Z" transform="translate(-200.57 -467.87)"/><path class="cls-5" d="M224.92,546.39l-.89.17A5.38,5.38,0,0,1,224.92,546.39Z" transform="translate(-200.57 -467.87)"/><path class="cls-5" d="M225.82,546.23l-.81.13h0Z" transform="translate(-200.57 -467.87)"/><path class="cls-5" d="M235,546.39l-.27,0h0Z" transform="translate(-200.57 -467.87)"/><path class="cls-5" d="M236.33,546.66l-.84-.17Z" transform="translate(-200.57 -467.87)"/><path class="cls-6" d="M237.34,546.9a10.85,10.85,0,0,1-2.58,2,9.94,9.94,0,0,1-4.88,1.34,9.63,9.63,0,0,1-7.19-3.39l.33-.08.33-.08.68-.14.89-.17H225c0,.06,1.48,1.77,4.87,1.77s4.84-1.71,4.88-1.77h0l.27,0,.46.08.84.17.17,0,.79.18Z" transform="translate(-200.57 -467.87)"/><path class="cls-7" d="M234.71,546.35h0c0,.06-1.48,1.77-4.88,1.77s-4.83-1.71-4.88-1.77l.82-.12-.82.12c4.7-1.84,9.76,0,9.76,0Z" transform="translate(-200.57 -467.87)"/><path class="cls-7" d="M225.82,546.23l-.81.13h0Z" transform="translate(-200.57 -467.87)"/><path class="cls-7" d="M234.76,546.36Z" transform="translate(-200.57 -467.87)"/><path class="cls-1" d="M226.62,525v0a10,10,0,0,1-.21,1.37,9.24,9.24,0,0,0,.15-1.09s0,0,0,0a11.61,11.61,0,0,0,0-1.45s0-.09,0-.14a.25.25,0,0,1,0-.08v0s0-.07,0-.11h0v0a.08.08,0,0,0,0,0A13.27,13.27,0,0,1,226.62,525Z" transform="translate(-200.57 -467.87)"/><path class="cls-8" d="M253.24,520.66a15.63,15.63,0,0,1-2.59,4.78c-4.24,5.26-10.82,5.42-14.36,2.8l0,0,0,0h0l0,0-.1-.08-.21-.19a6.9,6.9,0,0,1-2-4.14c0-.1,0-.21,0-.31-.21-3.08,1.08-6.87,3.75-10.18,4.24-5.27,10.41-7.38,13.93-4.83h0l.21.16h0l.09.07h0l.08.08a6.7,6.7,0,0,1,1.86,3.44h0A15.81,15.81,0,0,1,253.24,520.66Z" transform="translate(-200.57 -467.87)"/><path class="cls-1" d="M253.28,520.66a29.22,29.22,0,0,1-1,3.84c-.13.41-.28.82-.44,1.23a18.33,18.33,0,0,1-2.26,4.27,10.41,10.41,0,0,1-2,2,8.81,8.81,0,0,1-.78.52l-.53.27a7.38,7.38,0,0,1-.78.3,6.86,6.86,0,0,1-3.48.12,8.67,8.67,0,0,1-.84-.22,12,12,0,0,1-2.74-1.29,16.72,16.72,0,0,1-2.38-1.77c-1.63-1.42-2.34-3.77-2.2-6.45a16.51,16.51,0,0,1,3.55-11.81,15.08,15.08,0,0,1,1.44-1.53c.3-.28.61-.54.92-.78a12.31,12.31,0,0,1,3.33-1.83,10.86,10.86,0,0,1,1.2-.35,9.83,9.83,0,0,1,4.06-.14,7.87,7.87,0,0,1,3.19,1.35c-3.52-2.55-9.69-.44-13.93,4.83-2.66,3.3-4,7.1-3.75,10.17a.86.86,0,0,0,0,.16,1,1,0,0,0,0,.16,6.92,6.92,0,0,0,1.95,4.14l.05.05,0,0,.1.09.11.07,0,0,0,0,0,0a9.87,9.87,0,0,0,8.91,1.07,11.45,11.45,0,0,0,3.88-2.24,12.32,12.32,0,0,0,1.58-1.64,10.63,10.63,0,0,0,.8-1.1h0a15.6,15.6,0,0,0,1-1.77,13.92,13.92,0,0,0,.73-1.74A.94.94,0,0,0,253.28,520.66Z" transform="translate(-200.57 -467.87)"/><path class="cls-7" d="M253.28,520.66a29.22,29.22,0,0,1-1,3.84c-.13.41-.28.82-.44,1.23a18.33,18.33,0,0,1-2.26,4.27,10.41,10.41,0,0,1-2,2,8.81,8.81,0,0,1-.78.52l-.53.27a7.38,7.38,0,0,1-.78.3,6.86,6.86,0,0,1-3.48.12,8.67,8.67,0,0,1-.84-.22,12,12,0,0,1-2.74-1.29,16.72,16.72,0,0,1-2.38-1.77c-1.63-1.42-2.34-3.77-2.2-6.45a16.51,16.51,0,0,1,3.55-11.81,15.08,15.08,0,0,1,1.44-1.53c.3-.28.61-.54.92-.78a12.31,12.31,0,0,1,3.33-1.83,10.86,10.86,0,0,1,1.2-.35,9.83,9.83,0,0,1,4.06-.14,7.87,7.87,0,0,1,3.19,1.35c-3.52-2.55-9.69-.44-13.93,4.83-2.66,3.3-4,7.1-3.75,10.17a.86.86,0,0,0,0,.16,1,1,0,0,0,0,.16,6.92,6.92,0,0,0,1.95,4.14l.05.05,0,0,.1.09.11.07,0,0,0,0,0,0a9.87,9.87,0,0,0,8.91,1.07,11.45,11.45,0,0,0,3.88-2.24,12.32,12.32,0,0,0,1.58-1.64,10.63,10.63,0,0,0,.8-1.1h0a15.6,15.6,0,0,0,1-1.77,13.92,13.92,0,0,0,.73-1.74A.94.94,0,0,0,253.28,520.66Z" transform="translate(-200.57 -467.87)"/><path class="cls-9" d="M226.63,523.5a1.81,1.81,0,0,1,0,.23,1.77,1.77,0,0,1,0-.32A.28.28,0,0,0,226.63,523.5Z" transform="translate(-200.57 -467.87)"/><path class="cls-3" d="M253.28,520.66a29.22,29.22,0,0,1-1,3.84c-.13.41-.28.82-.44,1.23a18.33,18.33,0,0,1-2.26,4.27,10.41,10.41,0,0,1-2,2,8.81,8.81,0,0,1-.78.52l-.53.27a7.38,7.38,0,0,1-.78.3,6.86,6.86,0,0,1-3.48.12,8.67,8.67,0,0,1-.84-.22,12,12,0,0,1-2.74-1.29,16.72,16.72,0,0,1-2.38-1.77c-1.63-1.42-2.34-3.77-2.2-6.45v-.09a1.48,1.48,0,0,0,0,.21.52.52,0,0,0,0,.11,6.87,6.87,0,0,0,2,4.14.15.15,0,0,0,.06.05l0,0,.1.09.11.07,0,0,0,0,0,0a9.87,9.87,0,0,0,8.91,1.07,11.45,11.45,0,0,0,3.88-2.24,12.92,12.92,0,0,0,1.57-1.64,12.45,12.45,0,0,0,.81-1.1h0a15.6,15.6,0,0,0,1-1.77,13.92,13.92,0,0,0,.73-1.74A.94.94,0,0,0,253.28,520.66Z" transform="translate(-200.57 -467.87)"/><path class="cls-9" d="M251.58,508.42c-3.52-2.55-9.69-.44-13.93,4.82-2.66,3.31-4,7.1-3.75,10.18a1.16,1.16,0,0,0,0,.32l0-.24a16.46,16.46,0,0,1,3.56-11.8C241.69,506.44,248.05,505.81,251.58,508.42Z" transform="translate(-200.57 -467.87)"/><path class="cls-10" d="M236.85,535.31a5.29,5.29,0,0,1-1.64,3.72,7.77,7.77,0,0,1-7.52,1.66,6,6,0,0,1-4.52-5.38,1,1,0,0,1,1.9,0c0,2.4,2.66,3.82,4.94,3.82s4.9-1.42,4.94-3.82A1,1,0,0,1,236.85,535.31Z" transform="translate(-200.57 -467.87)"/><path class="cls-8" d="M226.62,523.13a6.84,6.84,0,0,1-1.73,3.71l-.19.19-.23.19-.09.07,0,0,0,0,0,0a6.91,6.91,0,0,1-.86.54,8.81,8.81,0,0,1-1.25.56,11.38,11.38,0,0,1-12.41-3.92,15.6,15.6,0,0,1-2.66-4.76,18.22,18.22,0,0,1-.54-1.88v0a16.33,16.33,0,0,1-.4-3.56,13.07,13.07,0,0,1,.33-3,7,7,0,0,1,1.57-3.12,3.25,3.25,0,0,1,.26-.27l0,0,0,0,.08-.07.09-.07.2-.16h0c2-1.46,5-1.4,7.91-.08A18.31,18.31,0,0,1,226.35,519v.08A14.06,14.06,0,0,1,226.62,523.13Z" transform="translate(-200.57 -467.87)"/><path class="cls-8" d="M222.17,528.47a11.38,11.38,0,0,1-12.45-3.9,15.5,15.5,0,0,1-2.62-4.78,15.6,15.6,0,0,0,2.66,4.76A11.38,11.38,0,0,0,222.17,528.47Z" transform="translate(-200.57 -467.87)"/><path class="cls-8" d="M226.7,522.57a1.12,1.12,0,0,0,0,.32,2,2,0,0,1,0,.24,14.06,14.06,0,0,0-.26-4A11.18,11.18,0,0,1,226.7,522.57Z" transform="translate(-200.57 -467.87)"/><path class="cls-3" d="M226.57,525.3s0,0,0,0a6.55,6.55,0,0,1-2.05,3.76c-3.52,3.06-9.28,5.89-13.67,0a22.27,22.27,0,0,1-3.52-8.3c-.09-.34-.15-.69-.22-1a15.5,15.5,0,0,0,2.62,4.78,11.38,11.38,0,0,0,12.45,3.9,8.81,8.81,0,0,0,1.25-.56,5.9,5.9,0,0,0,.9-.56l0,0,0,0,0,0,.1-.08.22-.18.19-.19a6.52,6.52,0,0,0,1.64-3.2,1.64,1.64,0,0,0,0,.22A11.61,11.61,0,0,1,226.57,525.3Z" transform="translate(-200.57 -467.87)"/><path class="cls-3" d="M222.17,528.47a11.38,11.38,0,0,1-12.45-3.9,15.5,15.5,0,0,1-2.62-4.78,15.6,15.6,0,0,0,2.66,4.76A11.38,11.38,0,0,0,222.17,528.47Z" transform="translate(-200.57 -467.87)"/><path class="cls-3" d="M226.75,522.81a10.8,10.8,0,0,1-.13,2.23v0c0,.08,0,.16-.05.24a11.61,11.61,0,0,0,0-1.45,1.64,1.64,0,0,1,0-.22v0a6.26,6.26,0,0,0,.14-.73c0-.11,0-.21,0-.31a.11.11,0,0,1,0,.08A1,1,0,0,1,226.75,522.81Z" transform="translate(-200.57 -467.87)"/><path class="cls-3" d="M208.78,507.54c.14-.1.29-.19.44-.28C209.07,507.35,208.92,507.44,208.78,507.54Z" transform="translate(-200.57 -467.87)"/><path class="cls-3" d="M226.77,522.63a.2.2,0,0,1,0,.07.76.76,0,0,0,0-.15,12.26,12.26,0,0,0-.76-4.92h0a18,18,0,0,0-3-5.26,17.61,17.61,0,0,0-6-4.76h0c-2.83-1.34-5.68-1.53-7.77-.33,3.66-2.26,9.79-1.5,13.93,3.56A16.33,16.33,0,0,1,226.77,522.63Z" transform="translate(-200.57 -467.87)"/><path class="cls-1" d="M268.73,516.61v-.09c0,.12,0,.24,0,.36,0,.29-.1.58-.16.86v0c0,.09,0,.17,0,.27a12,12,0,0,1,0,1.7.09.09,0,0,1,0,0,10.22,10.22,0,0,1-.18,1.27,11.53,11.53,0,0,0,.25-1.61v0a11.85,11.85,0,0,0,.15-2.62Zm9.66,14.93c0,2.83-3.12,4.5-5.81,4.5s-5.78-1.67-5.82-4.5a1.12,1.12,0,0,0-2.24,0c0,3.13,2.47,5.47,5.32,6.34a9.2,9.2,0,0,0,8.86-2,6.26,6.26,0,0,0,1.94-4.38A1.13,1.13,0,0,0,278.39,531.54Zm4.2-29.19a17.12,17.12,0,0,0-1.26,1.39,19.38,19.38,0,0,0-4.18,13.91c-.17,3.15.67,5.92,2.59,7.6.41.37.86.74,1.33,1.09-.46-.36-.9-.72-1.31-1.09-1.9-1.65-2.73-4.36-2.6-7.46a.13.13,0,0,1,0-.06,1.09,1.09,0,0,1,0-.18,19.4,19.4,0,0,1,4.19-13.81C281.75,503.25,282.17,502.79,282.59,502.35Zm5.44-3.49c.47-.16.94-.3,1.41-.41A10.7,10.7,0,0,0,288,498.86Zm11.89,15.6a36.75,36.75,0,0,1-1.1,4.34,33.15,33.15,0,0,0,1.16-4.51A1.77,1.77,0,0,1,299.92,514.46Z" transform="translate(-200.57 -467.87)"/><path class="cls-2" d="M272.87,468.37c-19,0-34.39,7.13-34.39,27.9,0,18.46,12.16,40.51,28.2,45.18v3.1h0l.44-.16.48-.16a8,8,0,0,1,.84-.23l.55-.12.55-.09.49-.06.53-.07.52,0,.46,0h.83c.52,0,1,0,1.51.09h0l.52.06h0l.26,0c.37.05.71.11,1,.17l.61.12.87.22h0l.27.07.52.17,0,0v-1.79c-.17,0-.34,0-.51,0l-.47.05a4.64,4.64,0,0,1-.53,0h-1.29a3,3,0,0,1-.42,0l-.61-.05-.62-.07h-.07l-.36-.06a2.3,2.3,0,0,1-.26,0l-.22,0-.58-.11c-.2,0-.46-.09-.67-.15h0c.21,0,.41,0,.63,0h1.1l.83,0h.23l.13,0,.89-.08.54-.07c.53-.08,1.06-.17,1.6-.29l.63-.15h0c8.23-2.05,15.51-8.71,20.73-17.2s8.37-18.83,8.37-28.22C307.26,475.5,291.87,468.37,272.87,468.37ZM250,524.25a26.26,26.26,0,0,1-4.15-9.78,1.18,1.18,0,0,1-.07-.2A19.61,19.61,0,0,1,245,511v0a19.8,19.8,0,0,1-.47-4.2,15.27,15.27,0,0,1,.39-3.53,8.37,8.37,0,0,1,1.84-3.68c.1-.11.21-.21.32-.31l0,0,0,0,.09-.09.11-.08.23-.19h0c2.4-1.72,5.86-1.64,9.31-.09l.36.11c-3.33-1.57-6.69-1.8-9.15-.39,4.32-2.66,11.54-1.75,16.42,4.2a19.29,19.29,0,0,1,4.26,13.92.15.15,0,0,0,0,.07v-.17a14.18,14.18,0,0,0-.89-5.79c.16.54.29,1.08.4,1.62l0,.09a17,17,0,0,1,.3,4.76c0,.19,0,.37-.05.55.06-.28.12-.57.16-.86,0-.12,0-.24,0-.36v.3a11.85,11.85,0,0,1-.15,2.62v0a11.53,11.53,0,0,1-.25,1.61,10.22,10.22,0,0,0,.18-1.27,7.71,7.71,0,0,1-2.41,4.42C262,527.83,255.17,531.16,250,524.25Zm28.71,11.67a9.2,9.2,0,0,1-8.86,2c-2.85-.87-5.28-3.21-5.32-6.34a1.12,1.12,0,0,1,2.24,0c0,2.83,3.13,4.5,5.82,4.5s5.77-1.67,5.81-4.5a1.13,1.13,0,0,1,2.25,0A6.26,6.26,0,0,1,278.7,535.92Zm20.12-17.12c-.16.49-.34,1-.52,1.45a21.34,21.34,0,0,1-2.66,5h0a11.23,11.23,0,0,1-2.34,2.41c-.3.22-.61.43-.91.61a5.12,5.12,0,0,1-.62.31,6.61,6.61,0,0,1-.93.36,7.93,7.93,0,0,1-4.1.14c-.33-.07-.65-.15-1-.25a14.44,14.44,0,0,1-3.23-1.52c-.51-.31-1-.65-1.47-1s-.92-.72-1.33-1.09c-1.92-1.68-2.76-4.45-2.59-7.6a19.38,19.38,0,0,1,4.18-13.91,17.12,17.12,0,0,1,1.26-1.39c.15-.15.29-.28.44-.41a13,13,0,0,1,1.07-.92,15,15,0,0,1,3.93-2.16,10.7,10.7,0,0,1,1.41-.41,11.46,11.46,0,0,1,4.79-.16,9,9,0,0,1,3.77,1.58h0l.23.19.11.09.09.07,0,0,0,0,.07.06.11.11a7.16,7.16,0,0,1,1.94,3.74v.09a15.3,15.3,0,0,1,.39,3.54,20,20,0,0,1-1.08,6.41l0,.22a1.77,1.77,0,0,0,.06-.17A33.15,33.15,0,0,1,298.82,518.8Z" transform="translate(-200.57 -467.87)"/><path class="cls-1" d="M267.64,544.41l-1,.14h0Z" transform="translate(-200.57 -467.87)"/><path class="cls-1" d="M278.17,544.55Z" transform="translate(-200.57 -467.87)"/><path class="cls-1" d="M278.17,541.69v1.07a19.16,19.16,0,0,1-6.62-.44c.44,0,.89,0,1.32,0A21.51,21.51,0,0,0,278.17,541.69Z" transform="translate(-200.57 -467.87)"/><path class="cls-3" d="M278.17,541.69v1.07h0a19.16,19.16,0,0,1-6.62-.44c.44,0,.89,0,1.32,0a21.5,21.5,0,0,0,5.3-.66Z" transform="translate(-200.57 -467.87)"/><path class="cls-5" d="M300.35,557.92H244.5c0-4.4,9.12-10.43,19.45-12.81a11.58,11.58,0,0,0,8.47,3.81,12.19,12.19,0,0,0,5.75-1.5,12.76,12.76,0,0,0,3-2.25C291.41,547.6,300.35,553.56,300.35,557.92Z" transform="translate(-200.57 -467.87)"/><path class="cls-5" d="M266.58,544.59l-1.05.2A7.76,7.76,0,0,1,266.58,544.59Z" transform="translate(-200.57 -467.87)"/><path class="cls-5" d="M267.64,544.41l-1,.14h0Z" transform="translate(-200.57 -467.87)"/><path class="cls-5" d="M278.48,544.59l-.31-.05h0Z" transform="translate(-200.57 -467.87)"/><path class="cls-5" d="M280,544.91l-1-.2Z" transform="translate(-200.57 -467.87)"/><path class="cls-6" d="M281.21,545.19a12.88,12.88,0,0,1-3,2.35,11.6,11.6,0,0,1-5.75,1.57,11.29,11.29,0,0,1-8.47-4l.39-.1.39-.09.8-.16,1.05-.2h.1c.05.07,1.74,2.08,5.74,2.08s5.7-2,5.75-2.08h0l.31,0,.55.1,1,.21.2,0,.93.22Z" transform="translate(-200.57 -467.87)"/><path class="cls-7" d="M278.11,544.55h.06c-.06.06-1.75,2.08-5.75,2.08s-5.69-2-5.74-2.08c.31-.06.64-.11.95-.15-.31,0-.64.09-.95.15,5.53-2.18,11.49,0,11.49,0Z" transform="translate(-200.57 -467.87)"/><path class="cls-7" d="M267.64,544.41l-1,.14h0Z" transform="translate(-200.57 -467.87)"/><path class="cls-7" d="M278.17,544.55Z" transform="translate(-200.57 -467.87)"/><path class="cls-1" d="M268.58,519.44v0a11.53,11.53,0,0,1-.25,1.61,10.22,10.22,0,0,0,.18-1.27.09.09,0,0,0,0,0,12,12,0,0,0,0-1.7,1.13,1.13,0,0,0,0-.18.31.31,0,0,1,0-.09v0s0-.08,0-.13h0a.13.13,0,0,1,0-.06v.05A13.89,13.89,0,0,1,268.58,519.44Z" transform="translate(-200.57 -467.87)"/><path class="cls-8" d="M299.93,514.28a18.08,18.08,0,0,1-3,5.63c-5,6.2-12.75,6.39-16.92,3.3l-.05,0,0,0h0l0,0-.12-.08-.25-.22a8.12,8.12,0,0,1-2.3-4.88c0-.13,0-.25,0-.38-.26-3.62,1.26-8.08,4.41-12,5-6.21,12.27-8.69,16.41-5.69h0l.24.18h0l.1.09h0l.1.09a8,8,0,0,1,2.2,4.06h0A18.53,18.53,0,0,1,299.93,514.28Z" transform="translate(-200.57 -467.87)"/><path class="cls-1" d="M300,514.29a33.15,33.15,0,0,1-1.16,4.51c-.16.49-.34,1-.52,1.45a21.34,21.34,0,0,1-2.66,5,12,12,0,0,1-2.33,2.41c-.3.22-.61.43-.91.61s-.41.22-.62.31a6.61,6.61,0,0,1-.93.36,7.93,7.93,0,0,1-4.1.14c-.33-.07-.65-.15-1-.25a14.44,14.44,0,0,1-3.23-1.52,20.2,20.2,0,0,1-2.8-2.09c-1.92-1.68-2.76-4.45-2.59-7.6a19.38,19.38,0,0,1,4.18-13.91,16.29,16.29,0,0,1,1.7-1.8,13,13,0,0,1,1.07-.92,15,15,0,0,1,3.93-2.16,10.7,10.7,0,0,1,1.41-.41,11.46,11.46,0,0,1,4.79-.16,9.07,9.07,0,0,1,3.75,1.58c-4.14-3-11.41-.52-16.41,5.69-3.13,3.89-4.67,8.36-4.41,12a1.09,1.09,0,0,0,0,.18.65.65,0,0,0,0,.19,8.1,8.1,0,0,0,2.3,4.88s0,0,.05.05a.19.19,0,0,0,.07.06l.12.11.12.09,0,0,.05,0,0,0a11.67,11.67,0,0,0,10.5,1.27,13.58,13.58,0,0,0,4.57-2.65,14.23,14.23,0,0,0,1.86-1.93c.34-.42.65-.84,1-1.29h0a18.77,18.77,0,0,0,1.21-2.08,18.48,18.48,0,0,0,.86-2A1.77,1.77,0,0,0,300,514.29Z" transform="translate(-200.57 -467.87)"/><path class="cls-7" d="M300,514.29a33.15,33.15,0,0,1-1.16,4.51c-.16.49-.34,1-.52,1.45a21.34,21.34,0,0,1-2.66,5,12,12,0,0,1-2.33,2.41c-.3.22-.61.43-.91.61s-.41.22-.62.31a6.61,6.61,0,0,1-.93.36,7.93,7.93,0,0,1-4.1.14c-.33-.07-.65-.15-1-.25a14.44,14.44,0,0,1-3.23-1.52,20.2,20.2,0,0,1-2.8-2.09c-1.92-1.68-2.76-4.45-2.59-7.6a19.38,19.38,0,0,1,4.18-13.91,16.29,16.29,0,0,1,1.7-1.8,13,13,0,0,1,1.07-.92,15,15,0,0,1,3.93-2.16,10.7,10.7,0,0,1,1.41-.41,11.46,11.46,0,0,1,4.79-.16,9.07,9.07,0,0,1,3.75,1.58c-4.14-3-11.41-.52-16.41,5.69-3.13,3.89-4.67,8.36-4.41,12a1.09,1.09,0,0,0,0,.18.65.65,0,0,0,0,.19,8.1,8.1,0,0,0,2.3,4.88s0,0,.05.05a.19.19,0,0,0,.07.06l.12.11.12.09,0,0,.05,0,0,0a11.67,11.67,0,0,0,10.5,1.27,13.58,13.58,0,0,0,4.57-2.65,14.23,14.23,0,0,0,1.86-1.93c.34-.42.65-.84,1-1.29h0a18.77,18.77,0,0,0,1.21-2.08,18.48,18.48,0,0,0,.86-2A1.77,1.77,0,0,0,300,514.29Z" transform="translate(-200.57 -467.87)"/><path class="cls-9" d="M268.59,517.63a1.26,1.26,0,0,1,0,.27,1.67,1.67,0,0,1,0-.38A.41.41,0,0,0,268.59,517.63Z" transform="translate(-200.57 -467.87)"/><path class="cls-3" d="M300,514.29a33.15,33.15,0,0,1-1.16,4.51c-.16.49-.34,1-.52,1.45a21.34,21.34,0,0,1-2.66,5,12,12,0,0,1-2.33,2.41c-.3.22-.61.43-.91.61s-.41.22-.62.31a6.61,6.61,0,0,1-.93.36,7.93,7.93,0,0,1-4.1.14c-.33-.07-.65-.15-1-.25a14.44,14.44,0,0,1-3.23-1.52,20.2,20.2,0,0,1-2.8-2.09c-1.92-1.68-2.76-4.45-2.59-7.6v-.1a2,2,0,0,0,0,.24.69.69,0,0,0,0,.13,8.2,8.2,0,0,0,2.29,4.88l.07.05a.19.19,0,0,0,.07.06l.12.11.12.09,0,0,.05,0,0,0a11.67,11.67,0,0,0,10.5,1.27,13.58,13.58,0,0,0,4.57-2.65,15.46,15.46,0,0,0,1.85-1.93q.51-.63,1-1.29h0a18.77,18.77,0,0,0,1.21-2.08,18.48,18.48,0,0,0,.86-2A1.77,1.77,0,0,0,300,514.29Z" transform="translate(-200.57 -467.87)"/><path class="cls-9" d="M298,499.86c-4.14-3-11.41-.52-16.41,5.68-3.13,3.9-4.67,8.37-4.41,12a1.5,1.5,0,0,0,0,.37l0-.27a19.4,19.4,0,0,1,4.18-13.9C286.34,497.53,293.82,496.78,298,499.86Z" transform="translate(-200.57 -467.87)"/><path class="cls-10" d="M280.64,531.54a6.26,6.26,0,0,1-1.94,4.38,9.2,9.2,0,0,1-8.86,2c-2.85-.87-5.28-3.21-5.32-6.34a1.12,1.12,0,0,1,2.24,0c0,2.83,3.13,4.5,5.82,4.5s5.77-1.67,5.81-4.5A1.13,1.13,0,0,1,280.64,531.54Z" transform="translate(-200.57 -467.87)"/><path class="cls-8" d="M268.58,517.19a8,8,0,0,1-2,4.37,1.58,1.58,0,0,1-.23.22,2.75,2.75,0,0,1-.26.22l-.11.1,0,0,0,0-.05,0a10.2,10.2,0,0,1-1,.64,11.62,11.62,0,0,1-1.48.65,13.4,13.4,0,0,1-14.61-4.62,18.18,18.18,0,0,1-3.13-5.6A19.35,19.35,0,0,1,245,511v0a19.8,19.8,0,0,1-.47-4.2,15.27,15.27,0,0,1,.39-3.53,8.37,8.37,0,0,1,1.84-3.68c.1-.11.21-.21.32-.31l0,0,0,0,.09-.09.11-.08.23-.19h0c2.4-1.72,5.86-1.64,9.31-.09a20.39,20.39,0,0,1,7.33,5.77,20.63,20.63,0,0,1,4.06,7.8l0,.09A17,17,0,0,1,268.58,517.19Z" transform="translate(-200.57 -467.87)"/><path class="cls-8" d="M263.33,523.48a13.38,13.38,0,0,1-14.66-4.6,18.14,18.14,0,0,1-3.08-5.62,18.18,18.18,0,0,0,3.13,5.6A13.4,13.4,0,0,0,263.33,523.48Z" transform="translate(-200.57 -467.87)"/><path class="cls-8" d="M268.68,516.53a1.17,1.17,0,0,0,0,.37,2.47,2.47,0,0,1-.06.29,17,17,0,0,0-.3-4.76A13.42,13.42,0,0,1,268.68,516.53Z" transform="translate(-200.57 -467.87)"/><path class="cls-3" d="M268.52,519.75a.09.09,0,0,1,0,0,7.71,7.71,0,0,1-2.41,4.42c-4.15,3.61-10.93,6.94-16.11,0a26.26,26.26,0,0,1-4.15-9.78c-.1-.4-.18-.81-.25-1.21a18.14,18.14,0,0,0,3.08,5.62,13.38,13.38,0,0,0,14.66,4.6,11.62,11.62,0,0,0,1.48-.65,8.62,8.62,0,0,0,1.06-.66l.05,0,0,0,0,0,.12-.09a1.64,1.64,0,0,0,.25-.21,2.39,2.39,0,0,0,.23-.22,7.66,7.66,0,0,0,1.93-3.77c0,.09,0,.17,0,.27A12,12,0,0,1,268.52,519.75Z" transform="translate(-200.57 -467.87)"/><path class="cls-3" d="M263.33,523.48a13.38,13.38,0,0,1-14.66-4.6,18.14,18.14,0,0,1-3.08-5.62,18.18,18.18,0,0,0,3.13,5.6A13.4,13.4,0,0,0,263.33,523.48Z" transform="translate(-200.57 -467.87)"/><path class="cls-3" d="M268.73,516.82a11.85,11.85,0,0,1-.15,2.62v0a2.47,2.47,0,0,1-.06.29,12,12,0,0,0,0-1.7c0-.1,0-.18,0-.27v0c.06-.28.12-.57.16-.86,0-.12,0-.24,0-.36v.3Z" transform="translate(-200.57 -467.87)"/><path class="cls-3" d="M247.56,498.83c.17-.12.35-.23.52-.33C247.91,498.61,247.73,498.71,247.56,498.83Z" transform="translate(-200.57 -467.87)"/><path class="cls-3" d="M268.76,516.61a.15.15,0,0,0,0,.07v-.17a14.18,14.18,0,0,0-.89-5.79,0,0,0,0,0,0,0,21.17,21.17,0,0,0-3.57-6.19,20.79,20.79,0,0,0-7-5.62h0c-3.33-1.57-6.69-1.8-9.15-.38,4.32-2.67,11.54-1.76,16.42,4.19A19.29,19.29,0,0,1,268.76,516.61Z" transform="translate(-200.57 -467.87)"/></svg>