<svg width="512" height="512" xmlns="http://www.w3.org/2000/svg">

 <g>
  <title>background</title>
  <rect fill="none" id="canvas_background" height="402" width="582" y="-1" x="-1"/>
 </g>
 <g>
  <title>Layer 1</title>
  <g id="svg_1">
   <path id="svg_2" fill="#365e7d" d="m345.166,300.794c101.153,67.98 166.269,133.096 166.269,133.096s6.469,22.284 -24.396,53.149s-53.149,24.396 -53.149,24.396s-65.116,-65.116 -133.096,-166.269"/>
   <path id="svg_3" fill="#2b4d66" d="m300.8,345.165l16.111,-16.111c78.096,85.992 143.225,152.142 158.903,167.964c-24.896,19.354 -41.921,14.419 -41.921,14.419s-65.12,-65.12 -133.093,-166.272z"/>
   <circle id="svg_4" r="201.374" fill="#b96658" cy="201.374" cx="201.375"/>
   <path id="svg_5" fill="#b4546c" d="m216.598,402.189c-5.031,0.372 -10.095,0.564 -15.216,0.564c-111.214,0 -201.382,-90.167 -201.382,-201.382c0,-111.214 90.168,-201.37 201.382,-201.37c5.121,0 10.185,0.192 15.216,0.564c-104.109,7.772 -186.166,94.702 -186.166,200.806s82.057,193.046 186.166,200.818z"/>
   <circle id="svg_6" r="137.629" fill="#d3effb" cy="201.374" cx="201.171"/>
   <path id="svg_7" fill="#9dc6fb" d="m225.219,337.009c-7.621,1.321 -15.464,1.999 -23.459,1.999c-76.011,0 -137.634,-61.622 -137.634,-137.634s61.623,-137.634 137.634,-137.634c7.995,0 15.838,0.678 23.459,1.999c-64.825,11.128 -114.163,67.619 -114.163,135.635s49.338,124.507 114.163,135.635z"/>
   <path id="svg_8" fill="#b4546c" d="m201.171,357.436c-86.053,0 -156.063,-70.009 -156.063,-156.063c0,-86.053 70.009,-156.062 156.063,-156.062c86.053,0 156.062,70.009 156.062,156.062c0,86.054 -70.009,156.063 -156.062,156.063zm0,-289.381c-73.512,0 -133.319,59.806 -133.319,133.318s59.807,133.319 133.319,133.319s133.318,-59.807 133.318,-133.319s-59.806,-133.318 -133.318,-133.318z"/>
  </g>
  <ellipse ry="20" rx="20" id="svg_9" cy="491" cx="21" stroke-width="0" stroke="#000" fill="#303030"/>
  <ellipse ry="20" rx="20" id="svg_10" cy="491" cx="81" stroke-width="0" stroke="#000" fill="#303030"/>
  <ellipse ry="20" rx="20" id="svg_11" cy="491" cx="141" stroke-width="0" stroke="#000" fill="#303030"/>
 </g>
</svg>