<svg id="Livello_1" data-name="Livello 1" xmlns="http://www.w3.org/2000/svg" viewBox="0 0 199.24 184.08"><defs><style>.cls-1{fill:#eeac29;}.cls-2{fill:#ed7552;}.cls-3{fill:#010101;}.cls-4{fill:#f3e668;}.cls-5{fill:#f7f2af;}.cls-6{fill:#f4cc4a;}</style></defs><title>star</title><ellipse class="cls-1" cx="40.64" cy="74.68" rx="5.97" ry="5.91"/><path class="cls-1" d="M218.57,273.64a6,6,0,0,1-9.7,4.61,5.83,5.83,0,0,1-3.15.9,5.91,5.91,0,1,1,0-11.82,6,6,0,0,1,3.73,1.3,6,6,0,0,1,9.12,5Z" transform="translate(-139.72 -117.71)"/><ellipse class="cls-1" cx="88.22" cy="58.17" rx="5.57" ry="5.51"/><path class="cls-1" d="M235.86,187.06a3,3,0,1,1-2.47-3.4A3,3,0,0,1,235.86,187.06Z" transform="translate(-139.72 -117.71)"/><path class="cls-1" d="M240.27,118.75a4.93,4.93,0,0,0-1.93,2.06l-25.91,52a4.9,4.9,0,0,1-3.71,2.67l-57.9,8.35a4.94,4.94,0,0,0-2.78,1.4,4.84,4.84,0,0,0,.05,6.9L190,232.56a4.83,4.83,0,0,1,1.42,4.33L181.52,294a4.85,4.85,0,0,0,3.93,5.61l-3.06,1.6a5,5,0,0,1-6.75-2.08,4.9,4.9,0,0,1-.5-3.14l10-57.89a4.91,4.91,0,0,0-1.44-4.38l-42.52-41a4.94,4.94,0,0,1,2.78-8.42l58.71-8.45a5,5,0,0,0,3.76-2.7l26.25-52.67a5,5,0,0,1,6.68-2.28A4.61,4.61,0,0,1,240.27,118.75Z" transform="translate(-139.72 -117.71)"/><path class="cls-1" d="M242.92,237.5a5.12,5.12,0,0,1-5.14,5.09,5,5,0,0,1-1.83-.33,14.31,14.31,0,0,1-1.17,2.43,14.56,14.56,0,0,1-1.15,1.67,15.28,15.28,0,0,1-26.87-6.25,7,7,0,0,1-1,.07,7.08,7.08,0,1,1,0-14.15h0A7.2,7.2,0,0,1,210,227.4a15.3,15.3,0,0,1,26.29,5.25,4.87,4.87,0,0,1,1.54-.23A5.11,5.11,0,0,1,242.92,237.5Z" transform="translate(-139.72 -117.71)"/><path class="cls-1" d="M274.17,181.13a9,9,0,0,1-17.7,2.36,5.7,5.7,0,0,1-1.25.13,5.91,5.91,0,1,1,4.59-9.68,9,9,0,0,1,5.34-1.74,8.79,8.79,0,0,1,2.48.35l.3.59a5,5,0,0,0,3.76,2.71l.81.11A8.82,8.82,0,0,1,274.17,181.13Z" transform="translate(-139.72 -117.71)"/><path class="cls-1" d="M275.46,230.7a7.15,7.15,0,1,1-7.18-7h0A7.11,7.11,0,0,1,275.46,230.7Z" transform="translate(-139.72 -117.71)"/><path class="cls-1" d="M292.07,230.76a5.46,5.46,0,0,1-.39,2l-1,.95a5,5,0,0,0-1.13,1.63,5.51,5.51,0,1,1,2.5-4.6Z" transform="translate(-139.72 -117.71)"/><path class="cls-1" d="M294.47,268.19a7.08,7.08,0,0,1-13.54-2.8,7,7,0,0,1,1.29-4c0-.13,0-.26,0-.4a3,3,0,0,1,3-3,2.92,2.92,0,0,1,1.65.5,7.46,7.46,0,0,1,1.16-.1,7.08,7.08,0,0,1,5.17,2.23Z" transform="translate(-139.72 -117.71)"/><path class="cls-1" d="M298.46,299.67a5,5,0,0,1-3.26,2,5.08,5.08,0,0,1-3.16-.49l-52.5-27.34a5.23,5.23,0,0,0-1.41-.48l2.34-1.22a5,5,0,0,1,4.59,0l51.81,27A4.76,4.76,0,0,0,298.46,299.67Z" transform="translate(-139.72 -117.71)"/><path class="cls-2" d="M212.86,233.09a7.11,7.11,0,0,1-6.1,7,7,7,0,0,1-1,.07,7.08,7.08,0,1,1,0-14.15h0A7.2,7.2,0,0,1,210,227.4,7.05,7.05,0,0,1,212.86,233.09Z" transform="translate(-139.72 -117.71)"/><path class="cls-2" d="M275.46,230.7a7.15,7.15,0,1,1-7.18-7h0A7.11,7.11,0,0,1,275.46,230.7Z" transform="translate(-139.72 -117.71)"/><path class="cls-3" d="M234.78,244.69a14.56,14.56,0,0,1-1.15,1.67,11.86,11.86,0,0,1-1.34-.31c-3.77-1.1-7.08-4.18-7.12-8.26a.91.91,0,0,1,1.82,0,6.17,6.17,0,0,0,2,4.41A9.52,9.52,0,0,0,234.78,244.69Z" transform="translate(-139.72 -117.71)"/><path class="cls-4" d="M211.69,273.24a6,6,0,0,1-6,5.91,5.91,5.91,0,1,1,0-11.82,6,6,0,0,1,3.73,1.3A5.89,5.89,0,0,1,211.69,273.24Z" transform="translate(-139.72 -117.71)"/><path class="cls-4" d="M261.19,177.71a5.93,5.93,0,0,1-4.72,5.78,5.7,5.7,0,0,1-1.25.13,5.91,5.91,0,1,1,4.59-9.68A5.86,5.86,0,0,1,261.19,177.71Z" transform="translate(-139.72 -117.71)"/><path class="cls-4" d="M235.86,187.06a3,3,0,1,1-2.47-3.4A3,3,0,0,1,235.86,187.06Z" transform="translate(-139.72 -117.71)"/><path class="cls-4" d="M288.17,261a3,3,0,0,1-5.95.4c0-.13,0-.26,0-.4a3,3,0,0,1,3-3,3,3,0,0,1,3,3Z" transform="translate(-139.72 -117.71)"/><path class="cls-5" d="M330.38,184.29,272.5,176a8.82,8.82,0,0,1,1.67,5.17,9,9,0,0,1-17.7,2.36,5.7,5.7,0,0,1-1.25.13,5.91,5.91,0,1,1,4.59-9.68,9,9,0,0,1,5.34-1.74,8.79,8.79,0,0,1,2.48.35l-25.95-52.08a5.11,5.11,0,0,0-1.41-1.72,4.93,4.93,0,0,0-1.93,2.06l-25.91,52a4.9,4.9,0,0,1-3.71,2.67l-57.9,8.35a4.94,4.94,0,0,0-2.78,1.4,4.84,4.84,0,0,0,.05,6.9L190,232.56a4.83,4.83,0,0,1,1.42,4.33L181.52,294a4.85,4.85,0,0,0,3.93,5.61l49.44-25.74a5.07,5.07,0,0,1,3.24-.48l2.34-1.22a5,5,0,0,1,4.59,0l51.81,27a4.76,4.76,0,0,0,1.59.5,4.93,4.93,0,0,0,.83-3.67l-4.82-27.81a7.08,7.08,0,0,1-13.54-2.8,7,7,0,0,1,1.29-4c0-.13,0-.26,0-.4a3,3,0,0,1,3-3,2.92,2.92,0,0,1,1.65.5,7.46,7.46,0,0,1,1.16-.1,7.08,7.08,0,0,1,5.17,2.23l-3.9-22.51a4.87,4.87,0,0,1,.31-2.75,5.51,5.51,0,1,1,2.5-4.6,5.46,5.46,0,0,1-.39,2l41.48-40.05a4.94,4.94,0,0,0-2.78-8.44Zm-150,14a5.91,5.91,0,1,1,6-5.91A5.95,5.95,0,0,1,180.36,198.3Zm55.5-11.24a3,3,0,1,1-2.47-3.4A3,3,0,0,1,235.86,187.06Zm-7.92-16.7a5.52,5.52,0,1,1-5.57,5.52A5.54,5.54,0,0,1,227.94,170.36ZM212.61,279.55a6,6,0,0,1-3.74-1.3,5.83,5.83,0,0,1-3.15.9,5.91,5.91,0,1,1,0-11.82,6,6,0,0,1,3.73,1.3,5.93,5.93,0,1,1,3.16,10.92Zm9.06-27.44a15.19,15.19,0,0,1-14.91-12,7,7,0,0,1-1,.07,7.08,7.08,0,1,1,0-14.15h0A7.2,7.2,0,0,1,210,227.4a15.3,15.3,0,0,1,26.29,5.25,4.87,4.87,0,0,1,1.54-.23,5.09,5.09,0,1,1,0,10.17,5,5,0,0,1-1.83-.33,14.31,14.31,0,0,1-1.17,2.43,14.56,14.56,0,0,1-1.15,1.67A15.26,15.26,0,0,1,221.67,252.11Zm46.67-14.31a7.08,7.08,0,1,1-.06-14.15h0a7.08,7.08,0,1,1,0,14.15Z" transform="translate(-139.72 -117.71)"/><ellipse class="cls-6" cx="40.64" cy="74.68" rx="5.97" ry="5.91"/><path class="cls-6" d="M218.57,273.64a6,6,0,0,1-9.7,4.61,5.83,5.83,0,0,1-3.15.9,5.91,5.91,0,1,1,0-11.82,6,6,0,0,1,3.73,1.3,6,6,0,0,1,9.12,5Z" transform="translate(-139.72 -117.71)"/><ellipse class="cls-6" cx="88.22" cy="58.17" rx="5.57" ry="5.51"/><path class="cls-6" d="M235.86,187.06a3,3,0,1,1-2.47-3.4A3,3,0,0,1,235.86,187.06Z" transform="translate(-139.72 -117.71)"/><path class="cls-6" d="M238.13,273.4l-49.46,25.75a4.87,4.87,0,0,1-3.22.47l49.44-25.74A5.07,5.07,0,0,1,238.13,273.4Z" transform="translate(-139.72 -117.71)"/><path class="cls-6" d="M242.92,237.5a5.12,5.12,0,0,1-5.14,5.09,5,5,0,0,1-1.83-.33,14.31,14.31,0,0,1-1.17,2.43,14.56,14.56,0,0,1-1.15,1.67,15.28,15.28,0,0,1-26.87-6.25,7,7,0,0,1-1,.07,7.08,7.08,0,1,1,0-14.15h0A7.2,7.2,0,0,1,210,227.4a15.3,15.3,0,0,1,26.29,5.25,4.87,4.87,0,0,1,1.54-.23A5.11,5.11,0,0,1,242.92,237.5Z" transform="translate(-139.72 -117.71)"/><path class="cls-6" d="M275.46,230.7a7.15,7.15,0,1,1-7.18-7h0A7.11,7.11,0,0,1,275.46,230.7Z" transform="translate(-139.72 -117.71)"/><path class="cls-6" d="M338.91,189.34a4.83,4.83,0,0,1-1.43,2.79l-41.93,40.45a4.83,4.83,0,0,0-1.42,4.33L304,294a4.9,4.9,0,0,1-4,5.64,5,5,0,0,1-1.54,0,4.93,4.93,0,0,0,.83-3.67l-4.82-27.81a7.08,7.08,0,0,1-13.54-2.8,7,7,0,0,1,1.29-4c0-.13,0-.26,0-.4a3,3,0,0,1,3-3,2.92,2.92,0,0,1,1.65.5,7.46,7.46,0,0,1,1.16-.1,7.08,7.08,0,0,1,5.17,2.23l-3.9-22.51a4.87,4.87,0,0,1,.31-2.75,5.51,5.51,0,1,1,2.5-4.6,5.46,5.46,0,0,1-.39,2l41.48-40.05a4.94,4.94,0,0,0-2.78-8.44L272.5,176a8.82,8.82,0,0,1,1.67,5.17,9,9,0,0,1-17.7,2.36,5.7,5.7,0,0,1-1.25.13,5.91,5.91,0,1,1,4.59-9.68,9,9,0,0,1,5.34-1.74,8.79,8.79,0,0,1,2.48.35l-25.95-52.08a5.11,5.11,0,0,0-1.41-1.72,5,5,0,0,1,6.93,2.06v0l25.9,52a4.94,4.94,0,0,0,3.71,2.67l57.93,8.34A4.88,4.88,0,0,1,338.91,189.34Z" transform="translate(-139.72 -117.71)"/><path class="cls-4" d="M218.57,273.64a6,6,0,0,1-9.7,4.61,5.88,5.88,0,0,1,.58-9.62,6,6,0,0,1,9.12,5Z" transform="translate(-139.72 -117.71)"/><path class="cls-4" d="M274.17,181.13a9,9,0,0,1-17.7,2.36,8.74,8.74,0,0,1-.33-2.36,8.89,8.89,0,0,1,3.67-7.19,9,9,0,0,1,5.34-1.74,8.79,8.79,0,0,1,2.48.35A9,9,0,0,1,272.5,176,8.82,8.82,0,0,1,274.17,181.13Z" transform="translate(-139.72 -117.71)"/><ellipse class="cls-4" cx="88.22" cy="58.17" rx="5.57" ry="5.51"/><path class="cls-4" d="M295.06,265.39a6.92,6.92,0,0,1-.59,2.8,7.08,7.08,0,0,1-13.54-2.8,7,7,0,0,1,1.29-4,7.08,7.08,0,0,1,4.61-2.86,7.46,7.46,0,0,1,1.16-.1,7.08,7.08,0,0,1,5.17,2.23A6.91,6.91,0,0,1,295.06,265.39Z" transform="translate(-139.72 -117.71)"/><path class="cls-4" d="M236.89,237a14.88,14.88,0,0,1-.94,5.23,14.31,14.31,0,0,1-1.17,2.43,14.56,14.56,0,0,1-1.15,1.67,15.28,15.28,0,0,1-26.87-6.25A15,15,0,0,1,210,227.4a15.3,15.3,0,0,1,26.29,5.25A15,15,0,0,1,236.89,237Z" transform="translate(-139.72 -117.71)"/><path class="cls-4" d="M242.92,237.5a5.12,5.12,0,0,1-5.14,5.09,5,5,0,0,1-1.83-.33,5.07,5.07,0,0,1,.29-9.61,4.87,4.87,0,0,1,1.54-.23A5.11,5.11,0,0,1,242.92,237.5Z" transform="translate(-139.72 -117.71)"/><path class="cls-4" d="M292.07,230.76a5.51,5.51,0,0,1-2.5,4.6,5.51,5.51,0,1,1,2.5-4.6Z" transform="translate(-139.72 -117.71)"/><ellipse class="cls-4" cx="40.64" cy="74.68" rx="5.97" ry="5.91"/></svg>