<svg id="Livello_1" data-name="Livello 1" xmlns="http://www.w3.org/2000/svg" viewBox="0 0 784.91 785.32">
  <defs>
    <style>
      .cls-1 {
        fill: #efad2a;
      }

      .cls-2 {
        fill: #fcbf16;
      }
    </style>
  </defs>
  <title>sun</title>
  <circle class="cls-1" cx="463.44" cy="386.53" r="17.99"/>
  <circle class="cls-1" cx="447.48" cy="550.28" r="12.06"/>
  <circle class="cls-1" cx="318.42" cy="465.33" r="8.99"/>
  <circle class="cls-1" cx="594.67" cy="433.13" r="17.99"/>
  <circle class="cls-1" cx="358" cy="283.59" r="31.16"/>
  <circle class="cls-1" cx="358" cy="320.27" r="12.06"/>
  <circle class="cls-1" cx="255.69" cy="381.51" r="12.06"/>
  <circle class="cls-1" cx="333.87" cy="462.27" r="12.06"/>
  <path class="cls-2" d="M959.53,152.18c-25.61,46.08-18.08,103.31-47.82,148-3,4.52.94,10.1,7.32,10.36l83.71,3.42c5.75.23,10.07-4.08,8.63-8.62-17.23-54.32-37.89-106.25-35.31-151a5.76,5.76,0,0,0-1.43-4.2C970.79,145.79,961.59,146.28,959.53,152.18Z" transform="translate(-567.73 -147.25)"/>
  <circle class="cls-1" cx="521.34" cy="256.23" r="17.99"/>
  <path class="cls-1" d="M965.94,927.64c25.61-46.08,18.08-103.31,47.81-148,3-4.51-.94-10.1-7.31-10.36l-83.71-3.41c-5.75-.23-10.07,4.08-8.63,8.62,17.22,54.32,37.89,106.24,35.31,151a5.75,5.75,0,0,0,1.42,4.2C954.68,934,963.88,933.54,965.94,927.64Z" transform="translate(-567.73 -147.25)"/>
  <path class="cls-1" d="M572.66,542.11c46.08,25.61,103.31,18.08,148,47.81,4.52,3,10.1-.94,10.36-7.31l3.41-83.71c.24-5.75-4.07-10.07-8.61-8.63-54.32,17.23-106.25,37.89-151.05,35.31a5.73,5.73,0,0,0-4.2,1.42C566.26,530.85,566.76,540.05,572.66,542.11Z" transform="translate(-567.73 -147.25)"/>
  <path class="cls-2" d="M1347.71,538.27c-46.09-25.61-103.31-18.08-148-47.81-4.52-3-10.1.94-10.36,7.31l-3.41,83.71c-.24,5.75,4.08,10.07,8.61,8.63,54.32-17.23,106.25-37.89,151.06-35.31a5.75,5.75,0,0,0,4.2-1.42C1354.1,549.53,1353.61,540.33,1347.71,538.27Z" transform="translate(-567.73 -147.25)"/>
  <path class="cls-2" d="M1245.94,273.33c-50.69,14.48-85.84,60.27-138.47,70.85-5.32,1.07-6.48,7.81-2.16,12.5l56.78,61.6c3.9,4.24,10,4.24,12.2,0,26.23-50.59,48.33-101.93,81.84-131.79a5.68,5.68,0,0,0,2-4C1258.42,276.77,1251.57,270.62,1245.94,273.33Z" transform="translate(-567.73 -147.25)"/>
  <path class="cls-1" d="M682.4,806.49c50.69-14.48,85.84-60.27,138.47-70.85,5.32-1.07,6.48-7.81,2.16-12.5l-56.78-61.61c-3.9-4.23-10-4.23-12.19,0-26.24,50.59-48.34,101.92-81.85,131.78a5.76,5.76,0,0,0-2,4C669.92,803,676.77,809.2,682.4,806.49Z" transform="translate(-567.73 -147.25)"/>
  <path class="cls-2" d="M1236.13,819c-14.48-50.7-60.26-85.84-70.85-138.48-1.07-5.32-7.81-6.47-12.5-2.15l-61.6,56.78c-4.23,3.9-4.24,10,0,12.19,50.59,26.23,101.92,48.33,131.78,81.84a5.75,5.75,0,0,0,4,2C1232.69,831.46,1238.85,824.61,1236.13,819Z" transform="translate(-567.73 -147.25)"/>
  <path class="cls-1" d="M687.34,260.2c14.48,50.7,60.27,85.84,70.86,138.48,1.07,5.31,7.8,6.47,12.49,2.15l61.61-56.78c4.23-3.9,4.23-10,0-12.19C781.72,305.63,730.39,283.52,700.53,250a5.76,5.76,0,0,0-4-2C690.79,247.72,684.63,254.57,687.34,260.2Z" transform="translate(-567.73 -147.25)"/>
  <path class="cls-2" d="M1088.75,236.5c-35.54,19.28-42.57,59-81.67,75.71-4,1.7-1.6,6.85,4.35,9.57l78.14,35.71c5.37,2.45,10.5,1.42,10.27-2.07-2.84-41.71-9.52-83.26,4-111a3.33,3.33,0,0,0-.3-3.26C1101,236.91,1092.15,233.54,1088.75,236.5Z" transform="translate(-567.73 -147.25)"/>
  <path class="cls-2" d="M1258.84,432.38c-36.64-17.1-72.73.86-109.44-20.6-3.71-2.17-6.47,2.78-5.11,9.18L1162.07,505c1.23,5.78,5.12,9.29,7.77,7,31.84-27.1,61.27-57.19,91.56-62.8a3.37,3.37,0,0,0,2.44-2.19C1265.77,442.43,1263.24,433.35,1258.84,432.38Z" transform="translate(-567.73 -147.25)"/>
  <path class="cls-2" d="M1263.52,667.25c-17.76-36.33-57.11-45-72.19-84.8-1.52-4-6.77-1.9-9.74,3.93l-39,76.56c-2.68,5.26-1.86,10.44,1.63,10.35,41.8-1.07,83.6-6,110.69,8.68a3.35,3.35,0,0,0,3.27-.17C1262.59,679.43,1266.33,670.78,1263.52,667.25Z" transform="translate(-567.73 -147.25)"/>
  <path class="cls-1" d="M1077.69,857.3c15.42-37.39-4.17-72.62,15.6-110.28,2-3.8-3.08-6.32-9.41-4.68l-83.15,21.6c-5.72,1.48-9.05,5.53-6.67,8.08,28.52,30.57,59.92,58.6,66.91,88.6a3.32,3.32,0,0,0,2.3,2.33C1068,864.67,1076.92,861.74,1077.69,857.3Z" transform="translate(-567.73 -147.25)"/>
  <path class="cls-1" d="M828.4,852.62c37.52-18.24,44-58.26,85.34-73.8,4.19-1.57,1.53-6.89-4.91-9.87L824.2,729.8c-5.82-2.7-11.29-1.84-10.94,1.71,4.19,42.44,12.48,84.86-1.21,112.45a3.31,3.31,0,0,0,.42,3.32C815.33,851.75,824.84,855.49,828.4,852.62Z" transform="translate(-567.73 -147.25)"/>
  <path class="cls-1" d="M645.38,679.15c39.4,9.06,70.94-16,111.33-2.73,4.08,1.35,5.74-4.07,3.08-10l-35-78.48c-2.4-5.39-6.94-8-9.07-5.24-25.47,33.15-48,68.72-76.4,80.55a3.34,3.34,0,0,0-1.93,2.64C636.5,670.76,640.87,679.11,645.38,679.15Z" transform="translate(-567.73 -147.25)"/>
  <path class="cls-1" d="M639,419.29c21.29,34.38,61.31,39.13,80.27,77.2,1.92,3.84,6.93,1.21,9.31-4.89l31.17-80.06c2.14-5.5.81-10.57-2.65-10.13-41.48,5.22-82.59,14.27-111,2.38a3.35,3.35,0,0,0-3.24.49C638.68,407.09,635.82,416.07,639,419.29Z" transform="translate(-567.73 -147.25)"/>
  <path class="cls-2" d="M834.32,227c-12.06,38.59,10.56,72-5.81,111.21-1.65,4,3.62,6,9.78,3.84l80.93-28.84c5.56-2,8.52-6.31,5.93-8.64-31.11-27.94-64.85-53.09-74.47-82.35a3.33,3.33,0,0,0-2.49-2.13C843.36,218.8,834.7,222.52,834.32,227Z" transform="translate(-567.73 -147.25)"/>
  <path class="cls-1" d="M848.07,227c-12.05,38.6,10.56,72-5.81,111.22a3.08,3.08,0,0,0-.09,2.46l-3.88,1.38c-6.16,2.19-11.44.13-9.78-3.84C844.88,299,822.26,265.6,834.32,227c.38-4.49,9-8.2,13.87-6.9a3.32,3.32,0,0,1,2.49,2.12c.07.2.13.41.21.61A6.24,6.24,0,0,0,848.07,227Z" transform="translate(-567.73 -147.25)"/>
  <g>
    <path class="cls-1" d="M1204.22,540.31A243.17,243.17,0,0,1,961,783.52c-134.32,0-243.2-108.88-243.2-243.21C717.8,440,778.47,354,865.1,316.75A242.25,242.25,0,0,1,961,297.11C1095.33,297.11,1204.22,406,1204.22,540.31Z" transform="translate(-567.73 -147.25)"/>
    <path class="cls-2" d="M1204.22,540.31a242.83,242.83,0,0,1-95.79,193.46,242.37,242.37,0,0,1-95.93,19.65c-134.31,0-243.21-108.88-243.21-243.2A242.8,242.8,0,0,1,865.1,316.75,242.25,242.25,0,0,1,961,297.11C1095.33,297.11,1204.22,406,1204.22,540.31Z" transform="translate(-567.73 -147.25)"/>
  </g>
  <circle class="cls-1" cx="439.32" cy="386.53" r="17.99"/>
  <circle class="cls-1" cx="423.36" cy="550.28" r="12.06"/>
  <circle class="cls-1" cx="294.3" cy="465.33" r="8.99"/>
  <circle class="cls-1" cx="570.55" cy="433.13" r="17.99"/>
  <circle class="cls-1" cx="333.87" cy="283.59" r="31.16"/>
  <circle class="cls-1" cx="333.87" cy="320.27" r="12.06"/>
  <circle class="cls-1" cx="231.57" cy="381.51" r="12.06"/>
  <circle class="cls-1" cx="309.75" cy="462.27" r="12.06"/>
  <circle class="cls-1" cx="497.21" cy="256.23" r="17.99"/>
  <path class="cls-1" d="M1227.82,831.44a5.59,5.59,0,0,1-3.84-1.89q-1.77-2-3.61-3.86a166.49,166.49,0,0,0-20.21-17.48,284.32,284.32,0,0,0-23.88-15.74c-8.69-5.17-17.58-10-26.54-14.69-9.35-4.89-18.78-9.62-28.22-14.34q-7.21-3.63-14.42-7.26-3.63-1.83-7.24-3.68a49.26,49.26,0,0,1-6.78-4.37,2.62,2.62,0,0,1-.35-.3,1.66,1.66,0,0,1-.33-.63,4.35,4.35,0,0,1,.46-3.33,12.54,12.54,0,0,1,2.14-2.69c.94-1,1.82-2,2.83-2.93a5.32,5.32,0,0,0,2.16,2c48.83,25.2,98.38,46.44,127.2,78.63a5.51,5.51,0,0,0,3.83,1.89,8.7,8.7,0,0,0,5.46-1.75l.23.77C1239.32,825.18,1233.39,831.76,1227.82,831.44Z" transform="translate(-567.73 -147.25)"/>
</svg>
