<svg id="Livello_1" data-name="Livello 1" xmlns="http://www.w3.org/2000/svg" viewBox="0 0 200 200"><defs><style>.cls-1{fill:#010101;}.cls-2{fill:#fff;}.cls-3{fill:#1E90FF;}.cls-4{fill:#eb5b58;}</style></defs><title>ToDo</title><rect class="cls-1" x="25.02" y="11.31" width="148.48" height="177.65" rx="5.79" transform="translate(-16.99 20.36) rotate(-10.79)"/><rect class="cls-2" x="37.83" y="25.64" width="121.09" height="142.29" rx="4.96" transform="translate(-16.38 20.13) rotate(-10.79)"/><path class="cls-3" d="M72.3,43h0a4.09,4.09,0,0,1,1.08,5.68h0L60.72,67.32a4.07,4.07,0,0,1-5.67,1.08h0A4.07,4.07,0,0,1,54,62.74h0L66.63,44.1A4.08,4.08,0,0,1,72.3,43Z"/><path class="cls-3" d="M51.84,56.7l7.6,5.16a4.09,4.09,0,0,1,1.08,5.68h0a4.09,4.09,0,0,1-5.67,1.08l-7.6-5.17a4.08,4.08,0,0,1-1.08-5.67h0A4.08,4.08,0,0,1,51.84,56.7Z"/><path class="cls-3" d="M79.62,81.41h0a4.08,4.08,0,0,1,1.08,5.67h0L68,105.72a4.09,4.09,0,0,1-5.67,1.08h0a4.08,4.08,0,0,1-1.08-5.67h0L73.94,82.49a4.09,4.09,0,0,1,5.68-1.08Z"/><path class="cls-3" d="M59.16,95.09l7.6,5.17a4.09,4.09,0,0,1,1.08,5.67h0A4.09,4.09,0,0,1,62.16,107l-7.59-5.16a4.09,4.09,0,0,1-1.08-5.68h0A4.09,4.09,0,0,1,59.16,95.09Z"/><path class="cls-3" d="M79.62,81.41h0a4.08,4.08,0,0,1,1.08,5.67h0L68,105.72a4.09,4.09,0,0,1-5.67,1.08h0a4.08,4.08,0,0,1-1.08-5.67h0L73.94,82.49a4.09,4.09,0,0,1,5.68-1.08Z"/><path class="cls-3" d="M59.16,95.09l7.6,5.17a4.09,4.09,0,0,1,1.08,5.67h0A4.09,4.09,0,0,1,62.16,107l-7.59-5.16a4.09,4.09,0,0,1-1.08-5.68h0A4.09,4.09,0,0,1,59.16,95.09Z"/><rect class="cls-4" x="58.78" y="127.58" width="8.17" height="28.4" rx="1.61" transform="translate(-25.43 14.28) rotate(-10.79)"/><rect class="cls-4" x="70.65" y="135.57" width="8.17" height="28.47" rx="1.61" transform="translate(207.9 48.35) rotate(79.21)"/><rect class="cls-4" x="66.86" y="115.71" width="8.17" height="28.47" rx="1.61" transform="translate(185.31 35.92) rotate(79.21)"/><rect class="cls-4" x="78.72" y="123.78" width="8.17" height="28.4" rx="1.61" transform="translate(-24.37 17.95) rotate(-10.79)"/><rect class="cls-1" x="88.06" y="46.28" width="50.94" height="8.43" rx="1.66" transform="translate(-7.45 22.15) rotate(-10.79)"/><rect class="cls-1" x="95.5" y="85.34" width="50.94" height="8.43" rx="1.66" transform="translate(-14.63 24.23) rotate(-10.79)"/><rect class="cls-1" x="103.07" y="125.05" width="50.94" height="8.43" rx="1.66" transform="translate(-21.93 26.35) rotate(-10.79)"/></svg>