<svg id="Livello_1" data-name="Livello 1" xmlns="http://www.w3.org/2000/svg" viewBox="0 0 200 200"><defs><style>.cls-1{fill:#1E90FF;}.cls-2{fill:#fff;}.cls-3{fill:#1E90FF;}.cls-4{fill:#eb5b58;}.cls-5{fill:#010101;}</style></defs><title>ToDo_active</title><rect class="cls-1" x="22.39" y="11.51" width="147.92" height="176.98" rx="5.77" transform="translate(-17.02 19.81) rotate(-10.79)"/><rect class="cls-2" x="36.53" y="27.39" width="119.52" height="140.45" rx="4.9" transform="translate(-16.57 19.75) rotate(-10.79)"/><path class="cls-3" d="M70.55,44.52h0a4,4,0,0,1,1.12,5.55l0,.06h0L59.11,68.53a4,4,0,0,1-5.55,1.1l0,0h0a4,4,0,0,1-1-5.56v0h0L65,45.61a4,4,0,0,1,5.55-1.12Z"/><path class="cls-3" d="M50.36,58.05l7.5,5.09A4,4,0,0,1,59,68.69l0,.06h0a4,4,0,0,1-5.55,1.1l-.05,0-7.5-5.1a4,4,0,0,1-1.1-5.54l0-.06h0A4,4,0,0,1,50.31,58l0,0Z"/><path class="cls-3" d="M77.78,82.44h0A4,4,0,0,1,78.88,88l0,0h0l-12.54,18.4a4,4,0,0,1-5.55,1.11l0,0h0A4,4,0,0,1,59.62,102l0,0h0L72.17,83.5a4,4,0,0,1,5.55-1.1Z"/><path class="cls-3" d="M57.58,95.94l7.51,5.1a4,4,0,0,1,1.1,5.55l0,0h0a4,4,0,0,1-5.56,1l0,0-7.5-5.09A4,4,0,0,1,52,97l0-.07h0a4,4,0,0,1,5.57-1Z"/><path class="cls-3" d="M77.78,82.44h0A4,4,0,0,1,78.88,88l0,0h0l-12.54,18.4a4,4,0,0,1-5.55,1.11l0,0h0A4,4,0,0,1,59.62,102l0,0h0L72.17,83.5a4,4,0,0,1,5.55-1.1Z"/><path class="cls-3" d="M57.58,95.94l7.51,5.1a4,4,0,0,1,1.1,5.55l0,0h0a4,4,0,0,1-5.56,1l0,0-7.5-5.09A4,4,0,0,1,52,97l0-.07h0a4,4,0,0,1,5.57-1Z"/><rect class="cls-4" x="57.21" y="128.01" width="8.06" height="28.03" rx="1.59" transform="translate(-25.51 13.98) rotate(-10.79)"/><rect class="cls-4" x="58.91" y="145.93" width="28.1" height="8.06" rx="1.59" transform="translate(-26.78 16.31) rotate(-10.79)"/><rect class="cls-4" x="55.16" y="126.3" width="28.1" height="8.06" rx="1.59" transform="translate(-23.18 15.26) rotate(-10.79)"/><rect class="cls-4" x="76.89" y="124.27" width="8.06" height="28.03" rx="1.59" transform="translate(-24.46 17.59) rotate(-10.79)"/><rect class="cls-5" x="86.11" y="47.76" width="50.28" height="8.32" rx="1.64" transform="translate(-7.75 21.75) rotate(-10.79)"/><rect class="cls-5" x="93.45" y="86.31" width="50.28" height="8.32" rx="1.64" transform="translate(-14.84 23.8) rotate(-10.79)"/><rect class="cls-5" x="100.92" y="125.51" width="50.28" height="8.32" rx="1.64" transform="translate(-22.05 25.89) rotate(-10.79)"/></svg>