<svg id="Livello_1" data-name="Livello 1" xmlns="http://www.w3.org/2000/svg" viewBox="0 0 507.65 665.55">
  <defs>
    <style>
      .cls-1 {
        fill: #17ad88;
      }

      .cls-2 {
        fill: #1a8163;
      }

      .cls-3 {
        fill: #99497d;
      }

      .cls-4 {
        fill: #eb568c;
      }

      .cls-5 {
        fill: #139d7f;
      }

      .cls-6 {
        fill: #1d6d54;
      }

      .cls-7 {
        fill: #010202;
      }
    </style>
  </defs>
  <title>user</title>
  <path class="cls-1" d="M297.82,88.28C157.62,88.28,44,140.91,44,294.19c0,136.23,89.75,299,208.14,333.56v22.88h0c40.83-16,84.83,0,84.83,0V637.4A142.57,142.57,0,0,1,288,634.07c3.24.21,6.5.31,9.76.31A161.13,161.13,0,0,0,337,629.51h0c121.6-30.33,214.68-196.6,214.68-335.32C551.66,140.91,438,88.28,297.82,88.28Zm-50.7,419.89c-30.25,26.67-79.64,51.21-117.39.14-15.34-20.8-26.4-50.92-32.07-81.13C89,401.84,87.41,375,92.55,353.78v-.13A61.88,61.88,0,0,1,94.83,345c.19-.54.38-1.08.6-1.62l.37-1L96,342a1.51,1.51,0,0,0,.11-.22c.14-.38.31-.75.46-1.12.3-.67.6-1.32.92-2q.72-1.5,1.56-3c.1-.17.19-.33.3-.49l.58-1c.25-.43.5-.85.8-1.27l.06-.09.16-.24v-.07l.06-.08v-.1l.19-.26a44,44,0,0,1,7.14-8.21,2.4,2.4,0,0,0,.24-.22.25.25,0,0,0,.12-.11l.28-.24.14-.13.26-.22.12-.11.32-.27.19-.16.19-.17.18-.16c.69-.55,1.38-1.09,2.11-1.6l.52-.37c30.85-22.13,85.56-16.39,122.23,29.06,24.55,30.42,35,71.14,30.88,102.6C267.48,475.28,261.27,495.7,247.12,508.17Zm218.78.14c-37.74,51.09-87.08,26.53-117.38-.14-14.15-12.47-20.35-32.88-19.1-56.3-4.07-31.47,6.33-72.19,30.88-102.62,36.93-45.79,92.2-51.27,122.92-28.57l.19.14c.58.43,1.17.88,1.74,1.34a.36.36,0,0,1,.09.09c.28.22.54.44.8.66a.27.27,0,0,0,.08.07l.61.52.32.3.26.23c.17.15.34.3.5.46l.81.79c7.32,7.23,12.05,16.71,14.29,27.6a6.92,6.92,0,0,1,.14.77h0c5.17,21.18,3.59,48.09-5.08,73.46-5.64,30.29-16.72,60.39-32.07,81.2Z" transform="translate(-43.99 -88.28)"/>
  <path class="cls-1" d="M259.23,649.53c-2.37.34-4.74.71-7.09,1.11h0C254.49,650.23,256.82,649.86,259.23,649.53Z" transform="translate(-43.99 -88.28)"/>
  <path class="cls-1" d="M337,650.63h0l-.44-.08Z" transform="translate(-43.99 -88.28)"/>
  <path class="cls-1" d="M337,629.52v7.88a142.57,142.57,0,0,1-48.92-3.33c3.24.21,6.5.31,9.76.31A161.12,161.12,0,0,0,337,629.52Z" transform="translate(-43.99 -88.28)"/>
  <path class="cls-2" d="M337,629.51v7.89h0a142.57,142.57,0,0,1-48.92-3.33c3.24.21,6.5.31,9.76.31A161.13,161.13,0,0,0,337,629.51Z" transform="translate(-43.99 -88.28)"/>
  <path class="cls-3" d="M500.71,753.83H88.39c0-34.06,67.32-80.75,143.56-99a83.71,83.71,0,0,0,62.6,29.48A85.83,85.83,0,0,0,337,672.73a95.73,95.73,0,0,0,22.42-17.37C434.71,674,500.71,720.1,500.71,753.83Z" transform="translate(-43.99 -88.28)"/>
  <path class="cls-4" d="M251.42,650.76c-2.62.45-5.22.94-7.82,1.45Q247.5,651.4,251.42,650.76Z" transform="translate(-43.99 -88.28)"/>
  <path class="cls-4" d="M259.23,649.53c-2.37.34-4.74.71-7.09,1.11h0l-.7.12.7-.13h0C254.49,650.23,256.82,649.86,259.23,649.53Z" transform="translate(-43.99 -88.28)"/>
  <path class="cls-4" d="M339.25,651l-2.28-.39h0l-.44-.08.45.07Z" transform="translate(-43.99 -88.28)"/>
  <path class="cls-4" d="M350.57,653.26c-2.42-.52-4.84-1-7.27-1.48C345.73,652.23,348.16,652.73,350.57,653.26Z" transform="translate(-43.99 -88.28)"/>
  <path class="cls-4" d="M359.39,655.31A95.73,95.73,0,0,1,337,672.68a85.83,85.83,0,0,1-42.42,11.58A83.71,83.71,0,0,1,232,654.78l2.89-.68,2.9-.66c1.95-.42,3.91-.83,5.86-1.23,2.6-.51,5.2-1,7.82-1.45l.71-.12h0c.38.47,12.87,15.38,42.41,15.38s42-14.91,42.41-15.38h0l2.28.39,4,.75c2.43.46,4.85,1,7.27,1.48l1.52.33c2.28.51,4.56,1,6.82,1.6Z" transform="translate(-43.99 -88.28)"/>
  <path class="cls-5" d="M336.52,650.56l.44.08c-.38.47-12.87,15.38-42.41,15.38s-42-14.91-42.41-15.38c2.35-.4,4.72-.77,7.09-1.11-2.37.33-4.74.7-7.09,1.1,40.83-16,84.83,0,84.83,0Z" transform="translate(-43.99 -88.28)"/>
  <path class="cls-5" d="M259.23,649.53c-2.37.34-4.74.71-7.09,1.11h0C254.49,650.23,256.82,649.86,259.23,649.53Z" transform="translate(-43.99 -88.28)"/>
  <path class="cls-5" d="M337,650.63h0l-.44-.08Z" transform="translate(-43.99 -88.28)"/>
  <path class="cls-1" d="M107.05,325.31c-6.81,7-11.63,16.79-14.46,28.34A61.88,61.88,0,0,1,94.87,345c.19-.54.38-1.08.6-1.62l.37-1a5.41,5.41,0,0,1,.26-.64c.26-.66.57-1.3.87-1.94l.36-.82.15-.33c.08-.18.18-.36.27-.54s.17-.34.27-.51c.19-.35.38-.69.56-1l.2-.38v-.05c.07-.15.16-.3.24-.44s.19-.33.3-.49l.58-1,.39-.62.41-.65.06-.09.16-.24v-.07l.06-.08v-.1l.19-.26c.17-.25.35-.5.53-.74l.38-.54c.15-.22.32-.44.49-.66.5-.67,1-1.31,1.58-1.95q.24-.3.51-.6c.56-.64,1.13-1.25,1.73-1.86.18-.18.34-.36.53-.53s.45-.45.69-.67.2-.2.31-.29l-.37.36Z" transform="translate(-43.99 -88.28)"/>
  <path class="cls-1" d="M266.22,451.85c1.26,23.43-5,43.85-19.1,56.32-30.25,26.67-79.64,51.21-117.39.14-15.34-20.8-26.4-50.92-32.07-81.13a135.72,135.72,0,0,0,22.48,41.52c37,45.83,94.38,47.19,125.14,24.23.24-.17.46-.35.7-.53s.76-.58,1.13-.88l1-.85c9.56-8.27,15.47-21.34,17.79-36.83.11-.9.18-1.82.24-2.74,1.9-26.7-9.32-59.7-32.55-88.46-25.53-31.64-59-50.16-87.34-51.28h-3.86c-.62,0-1.25,0-1.86.06s-1,0-1.44.09l-1.47.13h0l-.66.07h-.32a50.13,50.13,0,0,0-5,.85c-.6.13-1.17.27-1.75.42s-1.12.3-1.68.47h-.05l-1.49.47-.25.08c-.49.16-.94.33-1.42.51l-.36.13c-.41.16-.8.31-1.19.48-.19.07-.39.15-.58.24-.38.16-.76.33-1.13.51l-.34.16c-.48.22-.94.45-1.42.69l-.13.07c-.43.22-.87.45-1.29.69l-.57.33-1,.57c-.51.31-1,.63-1.5.95a15.69,15.69,0,0,0-1.43,1c-.43.35-1,.76-1.56,1.17s-1,.81-1.5,1.24l-.49-.59-.15.14-.23.18.19-.17.18-.16c.69-.55,1.38-1.09,2.11-1.6l.52-.37C144,298,198.69,303.78,235.36,349.23,259.89,379.67,270.29,420.4,266.22,451.85Z" transform="translate(-43.99 -88.28)"/>
  <path class="cls-1" d="M498,427.15c-5.65,30.22-16.73,60.35-32.08,81.16-37.74,51.09-87.08,26.53-117.38-.14-14.15-12.47-20.35-32.88-19.1-56.3-4.07-31.47,6.33-72.19,30.88-102.62,36.93-45.79,92.2-51.27,122.92-28.57-30.62-22.17-84.24-3.83-121.17,42-23.23,28.72-34.46,61.72-32.58,88.46,0,.92.13,1.84.23,2.74,2.26,15,7.9,27.75,17,36,.59.56,1.21,1.09,1.86,1.6.28.23.58.46.87.68a1.35,1.35,0,0,0,.27.2l.06.05.13.09.12.09.28.23h0a1.72,1.72,0,0,0,.32.23c30.81,22.8,88,21.33,124.9-24.39A135.53,135.53,0,0,0,498,427.15Z" transform="translate(-43.99 -88.28)"/>
  <path class="cls-5" d="M498,427.15c-5.65,30.22-16.73,60.35-32.08,81.16-37.74,51.09-87.08,26.53-117.38-.14-14.15-12.47-20.35-32.88-19.1-56.3-4.07-31.47,6.33-72.19,30.88-102.62,36.93-45.79,92.2-51.27,122.92-28.57-30.62-22.17-84.24-3.83-121.17,42-23.23,28.72-34.46,61.72-32.58,88.46,0,.92.13,1.84.23,2.74,2.26,15,7.9,27.75,17,36,.59.56,1.21,1.09,1.86,1.6.28.23.58.46.87.68a1.35,1.35,0,0,0,.27.2l.06.05.13.09.12.09.28.23h0a1.72,1.72,0,0,0,.32.23c30.81,22.8,88,21.33,124.9-24.39A135.53,135.53,0,0,0,498,427.15Z" transform="translate(-43.99 -88.28)"/>
  <path class="cls-2" d="M247.12,508.17c-30.25,26.67-79.64,51.21-117.39.14-15.34-20.8-26.4-50.92-32.07-81.13a135.72,135.72,0,0,0,22.48,41.52c37,45.83,94.38,47.19,125.14,24.23.24-.17.46-.35.7-.53s.76-.58,1.13-.88l1-.85c9.56-8.27,15.47-21.34,17.79-36.83.11-.9.18-1.82.24-2.74v.75C267.48,475.28,261.27,495.7,247.12,508.17Z" transform="translate(-43.99 -88.28)"/>
  <path class="cls-6" d="M101.82,331.4a47.45,47.45,0,0,1,5.22-6.11c-6.81,7-11.63,16.79-14.46,28.34A61.88,61.88,0,0,1,94.86,345c.19-.54.38-1.08.6-1.62l.37-1,.15-.42a1.51,1.51,0,0,0,.11-.22c.14-.38.31-.75.46-1.12.25-.55.5-1.1.77-1.64l.42-.87c.09-.17.17-.34.27-.51.19-.35.38-.69.56-1l.2-.38v-.05l.54-.93.58-1,.39-.62c.23-.35.46-.7.68-1.05l.06-.08v-.05A6.1,6.1,0,0,0,101.82,331.4Z" transform="translate(-43.99 -88.28)"/>
  <path class="cls-6" d="M108.82,323.62l.12-.1-.69.64.21-.21a2.4,2.4,0,0,0,.24-.22A.25.25,0,0,0,108.82,323.62Z" transform="translate(-43.99 -88.28)"/>
  <path class="cls-6" d="M109.6,322.92l.13-.1-.51.43.26-.22Z" transform="translate(-43.99 -88.28)"/>
  <path class="cls-6" d="M266.22,451.85c-.08.67-.17,1.33-.29,2,.11-.9.18-1.82.24-2.74,1.87-26.71-9.35-59.71-32.58-88.47-25.53-31.64-59-50.16-87.34-51.28h-3.86c-.62,0-1.25,0-1.86.06s-1,0-1.44.09l-1.47.13h0l-.66.07h-.32a50.13,50.13,0,0,0-5,.85c-.6.13-1.17.27-1.75.42s-1.12.3-1.68.47h-.05l-1.49.47-.25.08c-.49.16-.94.33-1.42.51l-.36.13c-.41.16-.8.31-1.19.48-.19.07-.39.15-.58.24-.38.16-.76.33-1.13.51l-.34.16c-.48.22-.94.45-1.42.69l-.13.07c-.43.22-.87.45-1.29.69l-.57.33-1,.57c-.51.31-1,.63-1.5.95a15.69,15.69,0,0,0-1.43,1c-.43.35-1,.76-1.56,1.17s-1,.81-1.5,1.24l-.49-.59c.68-.55,1.38-1.09,2.1-1.61l.52-.37C144,298,198.69,303.78,235.36,349.23,259.89,379.67,270.29,420.4,266.22,451.85Z" transform="translate(-43.99 -88.28)"/>
  <path class="cls-7" d="M233.59,362.64c-25.53-31.64-59-50.16-87.34-51.28h-3.86c-.62,0-1.25,0-1.86.06s-1,0-1.44.09l-1.47.13h0l-.66.07h-.32a50.13,50.13,0,0,0-5,.85c-.6.13-1.17.27-1.75.42s-1.12.3-1.68.47h-.05l-1.49.47-.25.08c-.49.16-.94.33-1.42.51l-.36.13c-.41.16-.8.31-1.19.48-.19.07-.39.15-.58.24-.38.16-.76.33-1.13.51l-.34.16c-.48.22-.94.45-1.42.69l-.13.07c-.43.22-.87.45-1.29.69l-.57.33-1,.57c-.51.31-1,.63-1.5.95s-1,.66-1.43,1-1,.77-1.56,1.17-1,.81-1.5,1.24l-.49-.59-.15.14-.23.18-.19.16-.19.17-.51.43s-.11.09-.14.13l-.16.14-.69.64-.06.05-.12.11-.37.36-.63.63c-6.81,7-11.63,16.79-14.46,28.34v.13c-5.14,21.17-3.55,48.06,5.11,73.4a135.72,135.72,0,0,0,22.48,41.52c37,45.83,94.38,47.19,125.14,24.23.24-.17.46-.35.7-.53s.76-.58,1.13-.88l1-.85c9.56-8.27,15.47-21.34,17.79-36.83.11-.9.18-1.82.24-2.74C268,424.4,256.82,391.4,233.59,362.64Z" transform="translate(-43.99 -88.28)"/>
  <path class="cls-7" d="M107.74,324.61c.11-.1.2-.2.31-.29l-.37.36-.63.63c-6.81,7-11.63,16.79-14.46,28.34A61.88,61.88,0,0,1,94.87,345c.19-.54.38-1.08.6-1.62l.37-1a5.41,5.41,0,0,1,.26-.64c.26-.66.57-1.3.87-1.94l.36-.82.15-.33c.08-.18.18-.36.27-.54s.17-.34.27-.51c.19-.35.38-.69.56-1l.2-.38v-.05c.07-.15.16-.3.24-.44s.19-.33.3-.49l.58-1,.39-.62.41-.65.06-.09.16-.24v-.07l.06-.08v-.1l.19-.26c.17-.25.35-.5.53-.74l.38-.54c.15-.22.32-.44.49-.66.5-.67,1-1.31,1.58-1.95q.24-.3.51-.6c.56-.64,1.13-1.25,1.73-1.86.18-.18.34-.36.53-.53S107.5,324.83,107.74,324.61Z" transform="translate(-43.99 -88.28)"/>
  <path class="cls-7" d="M136.61,311.72a50.13,50.13,0,0,0-5,.85c-.6.13-1.17.27-1.75.42s-1.12.3-1.68.47h-.05l-1.49.47-.25.08c-.49.16-.94.33-1.42.51l-.36.13c-.41.16-.8.31-1.19.48-.19.07-.39.15-.58.24-.38.16-.76.33-1.13.51l-.34.16c-.48.22-.94.45-1.42.69l-.13.07c-.43.22-.87.45-1.29.69l-.57.33-1,.57c-.51.31-1,.63-1.5.95a15.69,15.69,0,0,0-1.43,1c-.43.35-1,.76-1.56,1.17s-1,.81-1.5,1.24l-.49-.59-.15.14-.23.18.19-.17.18-.16c.69-.55,1.38-1.09,2.11-1.6l.52-.37A50.07,50.07,0,0,1,136.61,311.72Z" transform="translate(-43.99 -88.28)"/>
  <path class="cls-7" d="M265.93,453.84c-1.57,15.05-7.44,28-17.79,36.83C257.7,482.4,263.61,469.33,265.93,453.84Z" transform="translate(-43.99 -88.28)"/>
  <path class="cls-7" d="M107.74,324.61c.11-.1.2-.2.31-.29l-.37.36Z" transform="translate(-43.99 -88.28)"/>
  <path class="cls-7" d="M108.82,323.62l.12-.1-.69.64.21-.21a2.4,2.4,0,0,0,.24-.22A.25.25,0,0,0,108.82,323.62Z" transform="translate(-43.99 -88.28)"/>
  <path class="cls-7" d="M109.73,322.82l-.51.43.26-.22.12-.11Z" transform="translate(-43.99 -88.28)"/>
  <path class="cls-2" d="M498,427.15c-5.65,30.22-16.73,60.35-32.08,81.16-37.74,51.09-87.08,26.53-117.38-.14-14.15-12.47-20.35-32.88-19.1-56.3a4.45,4.45,0,0,1,0-.73c.05.92.13,1.84.23,2.74,2.26,15,7.9,27.75,17,36,.59.56,1.21,1.09,1.86,1.6.28.23.58.46.87.68a1.35,1.35,0,0,0,.27.2l.06.05.13.09.12.09.28.23h0a1.72,1.72,0,0,0,.32.23c30.81,22.8,88,21.33,124.9-24.39A135.45,135.45,0,0,0,498,427.15Z" transform="translate(-43.99 -88.28)"/>
  <path class="cls-6" d="M483.22,320.68c-30.62-22.17-84.24-3.83-121.17,42-23.23,28.72-34.46,61.72-32.58,88.46,0,.92.13,1.84.23,2.74-.1-.67-.21-1.34-.28-2-4.07-31.47,6.33-72.19,30.88-102.62C397.23,303.46,452.5,298,483.22,320.68Z" transform="translate(-43.99 -88.28)"/>
  <path class="cls-7" d="M503.06,353.69h0v-.07c-3.07-12.51-8.51-23-16.24-30l-.68-.6a.27.27,0,0,1-.08-.07c-.26-.22-.52-.44-.8-.66a.51.51,0,0,1-.09-.08c-.57-.46-1.16-.91-1.74-1.35l-.19-.14c-30.62-22.17-84.24-3.83-121.17,42-23.25,28.68-34.48,61.68-32.6,88.42,0,.92.13,1.84.23,2.74,2.26,15,7.9,27.75,17,36,.59.56,1.21,1.09,1.86,1.6.28.23.58.46.87.68a1.35,1.35,0,0,0,.27.2l.06.05.13.09.12.09.28.23h0a1.72,1.72,0,0,0,.32.23c30.81,22.8,88,21.33,124.9-24.39A135.57,135.57,0,0,0,498,427.11C506.65,401.78,508.23,374.87,503.06,353.69Z" transform="translate(-43.99 -88.28)"/>
  <path class="cls-7" d="M346.66,489.92c-9.82-8.81-15.43-21.41-17-36C332,468.89,337.6,481.63,346.66,489.92Z" transform="translate(-43.99 -88.28)"/>
</svg>
