<svg id="Livello_1" data-name="Livello 1" xmlns="http://www.w3.org/2000/svg" viewBox="0 0 172.16 236.03"><defs><style>.cls-1{fill:#fae70f;}</style></defs><title>trashyellow</title><rect class="cls-1" x="147.7" y="441.29" width="171.18" height="24.22" rx="10.56" transform="translate(473.53 -85.33) rotate(89.7)"/><rect class="cls-1" x="221.57" y="514.54" width="141.06" height="24.22" rx="10.56" transform="translate(-214.7 -301.49) rotate(-0.3)"/><rect class="cls-1" x="264.61" y="440.83" width="171.03" height="24.22" rx="10.56" transform="translate(589.28 -202.62) rotate(89.7)"/><rect class="cls-1" x="220.8" y="367.73" width="140.73" height="24.22" rx="10.56" transform="translate(-213.92 -301.5) rotate(-0.3)"/><rect class="cls-1" x="205.68" y="423.89" width="133.84" height="24.53" rx="10.56" transform="translate(-374.03 408.01) rotate(-90.3)"/><rect class="cls-1" x="245.26" y="457.76" width="134.07" height="24.53" rx="10.56" transform="translate(-368.01 481.75) rotate(-90.3)"/><path class="cls-1" d="M371.34,367.83c-43.77-22.75-93.4-32.11-150.54-24.31a10.56,10.56,0,0,1-8.74-12.11l.49-3.05a10.56,10.56,0,0,1,12.11-8.75c48.31-8.61,98.4-1.22,150.54,24.31A10.57,10.57,0,0,1,383.94,356l-.49,3A10.56,10.56,0,0,1,371.34,367.83Z" transform="translate(-211.92 -303.04)"/><rect class="cls-1" x="281.45" y="305.62" width="51.23" height="21.12" rx="10.56" transform="translate(-153.46 -350.81) rotate(9.83)"/></svg>