<svg id="Livello_1" data-name="Livello 1" xmlns="http://www.w3.org/2000/svg" viewBox="0 0 210.83 246.74"><defs><style>.cls-1{fill:#fae70f;}</style></defs><title>edityellow</title><path class="cls-1" d="M306,417.54a2.69,2.69,0,0,1-1.33,3.5l-37.58,17a2.65,2.65,0,0,1-3.46-3.53l16.88-38.31a2.57,2.57,0,0,1,3.76-1.14,8.52,8.52,0,0,1,2.39-6.63l72.49-74a8.1,8.1,0,0,1,11.61,0l14.54,14.85a8.51,8.51,0,0,1,0,11.85l-72.5,74A8.13,8.13,0,0,1,306,417.54Z" transform="translate(-192.44 -297.44)"/><rect class="cls-1" x="93.95" y="407.03" width="235" height="36.88" rx="10.56" transform="translate(443.35 -85.65) rotate(89.7)"/><rect class="cls-1" x="193.64" y="506.85" width="191.4" height="36.88" rx="10.56" transform="translate(-195.21 -295.9) rotate(-0.3)"/><rect class="cls-1" x="289.83" y="448.43" width="152.9" height="36.88" rx="10.56" transform="translate(638.77 -199.31) rotate(89.7)"/><rect class="cls-1" x="192.59" y="307.97" width="121.19" height="36.88" rx="10.56" transform="translate(-194.16 -296.09) rotate(-0.3)"/><path class="cls-1" d="M402.3,325.11l-5.53,5.65a3.26,3.26,0,0,1-4.69,0l-21.47-21.89a3.45,3.45,0,0,1,0-4.79l5.53-5.65a3.26,3.26,0,0,1,4.69,0l21.47,21.89A3.45,3.45,0,0,1,402.3,325.11Z" transform="translate(-192.44 -297.44)"/></svg>