<svg id="Livello_1" data-name="Livello 1" xmlns="http://www.w3.org/2000/svg" xmlns:xlink="http://www.w3.org/1999/xlink" viewBox="0 0 395.95 382.22"><defs><style>.cls-1{fill:url(#Sfumatura_senza_nome_2);}.cls-2{fill:#724c21;}.cls-3{fill:#31aa4e;}.cls-4{fill:#7ebb43;}.cls-5{fill:#64b32e;}.cls-6{fill:#b36049;}.cls-7{fill:#9a513f;}.cls-8{fill:#f59d1b;}.cls-9{fill:#ffe571;}.cls-10{fill:#ffd405;}.cls-11{fill:#fcbf05;}.cls-12{fill:#fdc500;}</style><linearGradient id="Sfumatura_senza_nome_2" x1="139.56" y1="484.8" x2="512.12" y2="484.8" gradientUnits="userSpaceOnUse"><stop offset="0" stop-color="#f9b233"/><stop offset="1" stop-color="#e6332a"/></linearGradient></defs><title>experiencesunplus</title><path class="cls-1" d="M512.12,484.8c0,102.88-83.4,186.28-186.28,186.28S139.56,587.68,139.56,484.8A186.27,186.27,0,0,1,325.84,298.52C428.72,298.52,512.12,381.92,512.12,484.8Z" transform="translate(-130.8 -290.3)"/><path class="cls-2" d="M474.48,598.53a186.28,186.28,0,0,1-297.28,0C190.32,576.67,225,559,269.94,550.87c1.73-.32,3.47-.61,5.22-.89s3.74-.6,5.63-.86c1.38-.2,2.78-.39,4.18-.56.48-.07,1-.13,1.45-.18,1.23-.16,2.47-.31,3.71-.44q5.76-.65,11.68-1.07c7.83-.57,15.86-.87,24-.87q7.28,0,14.39.31c2.4.1,4.79.23,7.15.39q9.12.59,17.87,1.68,2.81.33,5.56.73h.07q5.22.74,10.28,1.65a243.89,243.89,0,0,1,35.33,9C444.23,569.12,465,582.73,474.48,598.53Z" transform="translate(-130.8 -290.3)"/><path class="cls-3" d="M447.18,426.13c-1.62-4.45-9-4.45-10.58,0l-32.76,90.81a5.62,5.62,0,0,0,3.37,7.21L451,528.89l13.11-55.59Z" transform="translate(-130.8 -290.3)"/><path class="cls-4" d="M525.71,555.91a5.68,5.68,0,0,1-4.61,2.37H485.59l-9.91-8.56L437.61,517l32.77-90.8a5.84,5.84,0,0,1,10.59,0l45.42,124.58A5.67,5.67,0,0,1,525.71,555.91Z" transform="translate(-130.8 -290.3)"/><path class="cls-5" d="M525.71,555.91a5.68,5.68,0,0,1-4.61,2.37H485.59l-9.91-8.56v-127a5.39,5.39,0,0,1,5.29,3.38l45.42,124.58A5.67,5.67,0,0,1,525.71,555.91Z" transform="translate(-130.8 -290.3)"/><path class="cls-6" d="M490.88,522.81l-9.57,9.68v4.39a5.63,5.63,0,0,1-11.26,0V496.34a5.63,5.63,0,0,1,11.26,0V516.5l1.69-1.58a5.58,5.58,0,0,1,7.88,7.89Z" transform="translate(-130.8 -290.3)"/><path class="cls-7" d="M490.88,522.81l-9.57,9.68v4.39a5.57,5.57,0,0,1-5.63,5.63v-51.8a5.58,5.58,0,0,1,5.63,5.63V516.5l1.69-1.58a5.58,5.58,0,0,1,7.88,7.89Z" transform="translate(-130.8 -290.3)"/><path class="cls-8" d="M525.83,606.29l-56.69-90.47a5.68,5.68,0,0,0-4.72-2.59H385.58l19.47,57.49L439.75,615H521.1a5.7,5.7,0,0,0,4.95-2.93A5.54,5.54,0,0,0,525.83,606.29Z" transform="translate(-130.8 -290.3)"/><path class="cls-9" d="M439.75,615H391.22l-5.64-11.26L380,615H340.16a5.86,5.86,0,0,1-4.84-2.7,5.76,5.76,0,0,1-.22-5.41L380,517.51h11.26Z" transform="translate(-130.8 -290.3)"/><path class="cls-10" d="M439.75,615H391.22l-5.64-11.26V517.51h5.64Z" transform="translate(-130.8 -290.3)"/><path class="cls-11" d="M391.22,517.51V615H380V517.51l.57-1.12a5.64,5.64,0,0,1,10.13,0Z" transform="translate(-130.8 -290.3)"/><circle class="cls-10" cx="77.33" cy="90.06" r="77.33"/><rect class="cls-12" x="258.91" y="42.34" width="115.38" height="30.7" rx="10.56"/><rect class="cls-12" x="389.71" y="332.64" width="115.38" height="30.7" rx="10.56" transform="translate(664.59 -389.71) rotate(90)"/></svg>