<svg id="Livello_1" data-name="Livello 1" xmlns="http://www.w3.org/2000/svg" xmlns:xlink="http://www.w3.org/1999/xlink" viewBox="0 0 404.02 372.56"><defs><style>.cls-1{fill:url(#Sfumatura_senza_nome_3);}.cls-2{fill:#16172d;}.cls-3{fill:#efeccf;}.cls-4{fill:#3a3a3a;}.cls-5{fill:#666765;}.cls-6{fill:#333230;}.cls-7{fill:#302f2f;}</style><linearGradient id="Sfumatura_senza_nome_3" y1="186.28" x2="372.56" y2="186.28" gradientUnits="userSpaceOnUse"><stop offset="0" stop-color="#284596"/><stop offset="0.11" stop-color="#273f8a"/><stop offset="0.49" stop-color="#252f68"/><stop offset="0.8" stop-color="#242554"/><stop offset="1" stop-color="#23214c"/></linearGradient></defs><title>experiencenight</title><circle class="cls-1" cx="186.28" cy="186.28" r="186.28"/><path class="cls-2" d="M429.84,535.53a185.5,185.5,0,0,1-296.5,0c13.08-21.86,47.71-39.52,92.49-47.66,1.73-.32,3.46-.61,5.21-.89s3.73-.6,5.62-.86c1.37-.2,2.77-.39,4.16-.56.48-.07,1-.13,1.45-.18,1.23-.16,2.46-.31,3.7-.44q5.75-.65,11.65-1.07c7.81-.57,15.82-.87,24-.87q7.26,0,14.35.31c2.39.1,4.78.23,7.13.39q9.1.58,17.82,1.68,2.81.33,5.55.73h.07q5.21.74,10.25,1.65a242.6,242.6,0,0,1,35.24,9C399.67,506.12,420.37,519.73,429.84,535.53Z" transform="translate(-95.83 -236.97)"/><path class="cls-3" d="M233,339.73a11.76,11.76,0,0,0-12.56-4.34,32.27,32.27,0,0,1-9.59,1.37H210c-18.27-.45-33.35-16.29-33.35-35a34.35,34.35,0,0,1,22.16-32,11.52,11.52,0,0,0-.23-21.7,70.81,70.81,0,0,0-21.93-3.43c-37.68,0-69.28,31.6-69.28,69.29s31.6,68.51,69.28,68.51A69,69,0,0,0,233,353,11.7,11.7,0,0,0,233,339.73Z" transform="translate(-95.83 -236.97)"/><path class="cls-4" d="M420.29,373c-1.62-4.45-9-4.45-10.58,0L377,463.76a5.62,5.62,0,0,0,3.36,7.21l43.75,4.74,13.12-55.59Z" transform="translate(-95.83 -236.97)"/><path class="cls-5" d="M498.82,502.73a5.7,5.7,0,0,1-4.62,2.37H458.69l-9.91-8.56-38.06-32.77L443.49,373a5.84,5.84,0,0,1,10.58,0l45.42,124.59A5.69,5.69,0,0,1,498.82,502.73Z" transform="translate(-95.83 -236.97)"/><path class="cls-6" d="M498.82,502.73a5.7,5.7,0,0,1-4.62,2.37H458.69l-9.91-8.56v-127a5.38,5.38,0,0,1,5.29,3.37L499.5,497.55A5.73,5.73,0,0,1,498.82,502.73Z" transform="translate(-95.83 -236.97)"/><path class="cls-7" d="M464,469.63l-9.57,9.68v4.39a5.63,5.63,0,0,1-11.26,0V443.16a5.63,5.63,0,0,1,11.26,0v20.16l1.69-1.58a5.58,5.58,0,1,1,7.88,7.89Z" transform="translate(-95.83 -236.97)"/><path class="cls-4" d="M464,469.63l-9.57,9.68v4.39a5.57,5.57,0,0,1-5.63,5.63v-51.8a5.57,5.57,0,0,1,5.63,5.63v20.16l1.69-1.58a5.58,5.58,0,1,1,7.88,7.89Z" transform="translate(-95.83 -236.97)"/><path class="cls-7" d="M498.93,553.11l-56.68-90.47a5.7,5.7,0,0,0-4.73-2.59H358.69l19.46,57.49,34.71,44.24H494.2a5.73,5.73,0,0,0,5-2.93A5.54,5.54,0,0,0,498.93,553.11Z" transform="translate(-95.83 -236.97)"/><path class="cls-5" d="M412.86,561.78H364.32l-5.63-11.26-5.63,11.26H313.27a5.84,5.84,0,0,1-4.84-2.7,5.73,5.73,0,0,1-.23-5.41l44.86-89.34h11.26Z" transform="translate(-95.83 -236.97)"/><path class="cls-6" d="M412.86,561.78H364.32l-5.63-11.26V464.33h5.63Z" transform="translate(-95.83 -236.97)"/><path class="cls-4" d="M364.32,464.33v97.45H353.06V464.33l.56-1.12a5.65,5.65,0,0,1,10.14,0Z" transform="translate(-95.83 -236.97)"/></svg>