<svg id="Livello_1" data-name="Livello 1" xmlns="http://www.w3.org/2000/svg" viewBox="0 0 175.6 227.27"><defs><style>.cls-1{fill:#12ad87;}.cls-2{fill:#188062;}.cls-3{fill:#ea558b;}.cls-4{fill:#97487c;}.cls-5{fill:#0f9c7f;}.cls-6{fill:#1d6c54;}.cls-7{fill:#010101;}.cls-8{fill:#1d1d1b;}.cls-9{fill:#fae70f;}</style></defs><title>logoutyellow</title><path class="cls-1" d="M360.25,433.73c-11.42,15.45-26.37,8-35.52-.05-4.28-3.77-6.16-9.95-5.78-17-1.23-9.53,1.92-21.85,9.34-31.06,11.18-13.85,27.91-15.51,37.2-8.64l.06,0,.52.4,0,0,.24.2,0,0,.18.16.1.09.08.07.15.14.25.24a16.14,16.14,0,0,1,4.32,8.35c0,.08,0,.15,0,.23v0c1.56,6.4,1.08,14.55-1.54,22.23C368.25,418.31,364.9,427.43,360.25,433.73ZM309.39,306.62c-42.43,0-76.82,15.92-76.82,62.31,0,41.22,27.16,90.49,63,100.94v6.92a33.39,33.39,0,0,1,12.15-2.15,43.72,43.72,0,0,1,13.52,2.15v-4a43.24,43.24,0,0,1-14.8-1c1,.06,2,.09,3,.09a48.5,48.5,0,0,0,11.84-1.48h0c36.79-9.18,65-59.49,65-101.47C386.2,322.54,351.81,306.62,309.39,306.62ZM294.05,433.68c-9.16,8.07-24.11,15.5-35.53,0-4.64-6.29-8-15.4-9.71-24.54-2.61-7.68-3.1-15.81-1.54-22.22v0a18.17,18.17,0,0,1,.69-2.61l.18-.49c0-.1.08-.2.11-.29l.08-.2c0-.11.09-.22.14-.34l.18-.37.05-.12a.93.93,0,0,0,0-.1s.05-.11.08-.16a1.19,1.19,0,0,0,.08-.16,3.07,3.07,0,0,0,.17-.31.34.34,0,0,0,.06-.12h0a.76.76,0,0,1,.07-.13l.09-.16.18-.29a4.11,4.11,0,0,1,.24-.39l0,0,0-.06h0l0,0s0,0,0,0v0h0l0-.08.16-.22.12-.17.15-.2a12.4,12.4,0,0,1,1.62-1.78l0,0,.08-.08.07-.06.07-.06.05-.05,0,0,.16-.14s0,0,.06,0l.05-.05,0,0,0,0,.06-.05c.21-.16.41-.33.63-.48l.16-.11c9.33-6.7,25.89-5,37,8.79,7.42,9.21,10.57,21.53,9.34,31.05C300.2,423.73,298.32,429.91,294.05,433.68Z" transform="translate(-210.6 -306.62)"/><path class="cls-1" d="M297.71,476.46c-.72.1-1.43.21-2.15.34h0C296.28,476.67,297,476.56,297.71,476.46Z" transform="translate(-210.6 -306.62)"/><path class="cls-1" d="M321.23,476.79h0l-.13,0Z" transform="translate(-210.6 -306.62)"/><path class="cls-1" d="M321.23,470.4v2.39a43,43,0,0,1-14.8-1c1,.07,2,.1,2.95.1A48.51,48.51,0,0,0,321.23,470.4Z" transform="translate(-210.6 -306.62)"/><path class="cls-2" d="M321.23,470.4v2.39h0a43,43,0,0,1-14.8-1c1,.07,2,.1,2.95.1a48.51,48.51,0,0,0,11.85-1.48Z" transform="translate(-210.6 -306.62)"/><path class="cls-3" d="M370.78,508H246c0-10.3,20.37-24.43,43.44-30a24.92,24.92,0,0,0,6.11,5.22A24.28,24.28,0,0,0,308.4,487a26,26,0,0,0,12.83-3.5,29,29,0,0,0,6.79-5.26C350.81,483.86,370.78,497.82,370.78,508Z" transform="translate(-210.6 -306.62)"/><path class="cls-3" d="M295.34,476.83l-2.36.44C293.76,477.11,294.55,477,295.34,476.83Z" transform="translate(-210.6 -306.62)"/><path class="cls-3" d="M297.71,476.46c-.72.1-1.43.21-2.15.34h0l-.22,0,.22,0h0C296.28,476.67,297,476.56,297.71,476.46Z" transform="translate(-210.6 -306.62)"/><path class="cls-3" d="M321.92,476.91l-.69-.11h0l-.13,0,.13,0Z" transform="translate(-210.6 -306.62)"/><path class="cls-3" d="M325.35,477.59c-.73-.16-1.47-.31-2.2-.45C323.88,477.28,324.62,477.43,325.35,477.59Z" transform="translate(-210.6 -306.62)"/><path class="cls-4" d="M328,478.21a29,29,0,0,1-6.79,5.26A26,26,0,0,1,308.4,487a24.28,24.28,0,0,1-12.84-3.7,24.92,24.92,0,0,1-6.11-5.22l.88-.21.87-.2,1.78-.37,2.36-.44.22,0h0c.12.14,3.9,4.65,12.84,4.65s12.71-4.51,12.83-4.65h0l.69.11,1.23.23c.73.14,1.47.29,2.2.45l.46.1c.69.15,1.38.31,2.06.48Z" transform="translate(-210.6 -306.62)"/><path class="cls-5" d="M321.1,476.77l.13,0c-.12.14-3.9,4.65-12.84,4.65s-12.71-4.51-12.83-4.65c.72-.13,1.43-.24,2.15-.34-.72.1-1.43.21-2.15.33,12.36-4.85,25.67,0,25.67,0Z" transform="translate(-210.6 -306.62)"/><path class="cls-5" d="M297.71,476.46c-.72.1-1.43.21-2.15.34h0C296.28,476.67,297,476.56,297.71,476.46Z" transform="translate(-210.6 -306.62)"/><path class="cls-5" d="M321.23,476.79h0l-.13,0Z" transform="translate(-210.6 -306.62)"/><path class="cls-1" d="M294.05,433.68c-9.16,8.07-24.11,15.5-35.53,0-4.64-6.29-8-15.4-9.71-24.54a41,41,0,0,0,6.81,12.56c11.19,13.87,28.56,14.28,37.86,7.33l.22-.16.34-.26.31-.26c2.89-2.51,4.68-6.46,5.39-11.15,0-.27.05-.55.07-.82,0,.07,0,.15,0,.22C300.2,423.73,298.32,429.91,294.05,433.68Z" transform="translate(-210.6 -306.62)"/><path class="cls-1" d="M332.58,431.81l-.92-.13Z" transform="translate(-210.6 -306.62)"/><path class="cls-1" d="M370,409.17c-1.71,9.14-5.06,18.26-9.71,24.56-11.42,15.45-26.37,8-35.52-.05-4.28-3.77-6.16-9.95-5.78-17-1.23-9.53,1.92-21.85,9.34-31.06,11.18-13.85,27.91-15.51,37.2-8.64-9.27-6.71-25.49-1.16-36.67,12.69-7,8.72-10.43,18.69-9.86,26.79,0,.27,0,.55.07.82.69,4.55,2.39,8.4,5.13,10.91.19.17.37.33.57.48l.26.21.08.06,0,0,0,0s0,0,0,0l.08.07h0l.09.07c9.33,6.9,26.64,6.45,37.8-7.38A41.06,41.06,0,0,0,370,409.17Z" transform="translate(-210.6 -306.62)"/><path class="cls-5" d="M332.58,431.81l-.92-.13Z" transform="translate(-210.6 -306.62)"/><path class="cls-5" d="M370,409.17c-1.71,9.14-5.06,18.26-9.71,24.56-11.42,15.45-26.37,8-35.52-.05-4.28-3.77-6.16-9.95-5.78-17-1.23-9.53,1.92-21.85,9.34-31.06,11.18-13.85,27.91-15.51,37.2-8.64-9.27-6.71-25.49-1.16-36.67,12.69-7,8.72-10.43,18.69-9.86,26.79,0,.27,0,.55.07.82.69,4.55,2.39,8.4,5.13,10.91.19.17.37.33.57.48l.26.21.08.06,0,0,0,0s0,0,0,0l.08.07h0l.09.07c9.33,6.9,26.64,6.45,37.8-7.38A41.06,41.06,0,0,0,370,409.17Z" transform="translate(-210.6 -306.62)"/><path class="cls-2" d="M294.05,433.68c-9.16,8.07-24.11,15.5-35.53,0-4.64-6.29-8-15.4-9.71-24.54a41,41,0,0,0,6.81,12.56c11.19,13.87,28.56,14.28,37.86,7.33l.22-.16.34-.26.31-.26c2.89-2.51,4.68-6.46,5.39-11.15,0-.27.05-.55.07-.82,0,.07,0,.15,0,.22C300.2,423.73,298.32,429.91,294.05,433.68Z" transform="translate(-210.6 -306.62)"/><path class="cls-6" d="M299.82,416.64c0,.2-.05.4-.08.6,0-.27.05-.55.07-.82C299.81,416.49,299.82,416.57,299.82,416.64Z" transform="translate(-210.6 -306.62)"/><path class="cls-7" d="M299.82,416.64c0-.07,0-.15,0-.22,0,.27,0,.55-.07.82-.71,4.69-2.5,8.64-5.39,11.15l-.31.26-.34.26-.22.16c-9.3,6.95-26.67,6.54-37.86-7.33a41,41,0,0,1-6.81-12.56c-2.61-7.68-3.1-15.81-1.54-22.22v0a18.42,18.42,0,0,1,4.38-8.57l.19-.19.11-.11,0,0h0a1.59,1.59,0,0,0,.13-.13l.07-.06.05-.05,0,0,.16-.14s0,0,.06,0l.05-.05,0,0,0,0,0,0c.21-.17.41-.33.63-.49l.16-.11c9.33-6.7,25.89-5,37,8.79C297.9,394.8,301.05,407.12,299.82,416.64Z" transform="translate(-210.6 -306.62)"/><path class="cls-7" d="M299.74,417.24a16.5,16.5,0,0,1-5.39,11.15C297.24,425.88,299,421.93,299.74,417.24Z" transform="translate(-210.6 -306.62)"/><path class="cls-2" d="M332.58,431.81l-.92-.13Z" transform="translate(-210.6 -306.62)"/><path class="cls-2" d="M370,409.17c-1.71,9.14-5.06,18.26-9.71,24.56-11.42,15.45-26.37,8-35.52-.05-4.28-3.77-6.16-9.95-5.78-17a1.55,1.55,0,0,1,0-.22c0,.27,0,.55.07.82.69,4.55,2.39,8.4,5.13,10.91.19.17.37.33.57.48l.26.21.08.06,0,0,0,0s0,0,0,0l.08.07h0l.09.07c9.33,6.9,26.64,6.45,37.8-7.38A41.06,41.06,0,0,0,370,409.17Z" transform="translate(-210.6 -306.62)"/><path class="cls-6" d="M365.49,377c-9.27-6.71-25.49-1.16-36.67,12.69-7,8.72-10.43,18.69-9.86,26.79,0,.27,0,.55.07.82,0-.2-.06-.4-.08-.6-1.23-9.53,1.92-21.85,9.34-31.06C339.47,371.74,356.2,370.08,365.49,377Z" transform="translate(-210.6 -306.62)"/><path class="cls-7" d="M371.5,386.94v0a17.83,17.83,0,0,0-4.92-9.08l-.2-.18,0,0-.24-.2,0,0-.52-.41-.06,0c-9.27-6.71-25.49-1.16-36.67,12.69-7,8.72-10.43,18.69-9.86,26.79,0,.27,0,.55.07.82.69,4.55,2.39,8.4,5.13,10.91.19.17.37.33.57.48l.26.21.08.06,0,0,0,0s0,0,0,0l.08.07h0l.09.07c9.33,6.9,26.64,6.45,37.8-7.38A41.06,41.06,0,0,0,370,409.17C372.58,401.49,373.06,393.34,371.5,386.94Z" transform="translate(-210.6 -306.62)"/><path class="cls-7" d="M324.16,428.16A16.64,16.64,0,0,1,319,417.25C319.72,421.8,321.42,425.65,324.16,428.16Z" transform="translate(-210.6 -306.62)"/><path class="cls-7" d="M332.58,431.81l-.92-.13Z" transform="translate(-210.6 -306.62)"/><path class="cls-7" d="M332.58,431.81l-.92-.13Z" transform="translate(-210.6 -306.62)"/><path class="cls-8" d="M295.74,460.34c.09-6.32,7-10.06,13-10.06s12.91,3.74,13,10.06c0,3.22,5,3.23,5,0-.1-6.95-5.51-12.24-11.89-14.17-6.7-2-14.69-.59-19.79,4.37a14,14,0,0,0-4.31,9.8c-.05,3.22,4.95,3.22,5,0Z" transform="translate(-210.6 -306.62)"/><rect class="cls-9" x="4.61" y="181.71" width="84.57" height="22.5" rx="8.21"/><rect class="cls-9" x="207.49" y="499.58" width="52.35" height="22.5" rx="8.21" transform="translate(219.05 -322.23) rotate(45)"/><rect class="cls-9" x="207.49" y="478.34" width="52.35" height="22.5" rx="8.21" transform="translate(-488.36 2) rotate(-45)"/></svg>