<svg id="Livello_1" data-name="Livello 1" xmlns="http://www.w3.org/2000/svg" viewBox="0 0 167.14 139.54"><defs><style>.cls-1{fill:#fae70f;}</style></defs><title>mediayellow</title><path class="cls-1" d="M340,408.52a8.83,8.83,0,1,1-8.83-8.84A8.83,8.83,0,0,1,340,408.52Z" transform="translate(-214.43 -350.89)"/><path class="cls-1" d="M369.57,350.89H226.43a12,12,0,0,0-12,12v68.19l41.46-41.47a5.85,5.85,0,0,1,8.24,0l66.75,66.75,20.68-20.69a5.84,5.84,0,0,1,8.23,0l21.78,21.78V362.89A12,12,0,0,0,369.57,350.89Zm-38.44,71.48A13.85,13.85,0,1,1,345,408.52,13.85,13.85,0,0,1,331.13,422.37Z" transform="translate(-214.43 -350.89)"/><path class="cls-1" d="M381.57,473.92v4.51a12,12,0,0,1-12,12H226.43a12,12,0,0,1-12-12V447.54L260,402l66.75,66.75a5.83,5.83,0,0,0,8.23,0L355.68,448Z" transform="translate(-214.43 -350.89)"/><path class="cls-1" d="M340,408.52a8.83,8.83,0,1,1-8.83-8.84A8.83,8.83,0,0,1,340,408.52Z" transform="translate(-214.43 -350.89)"/><path class="cls-1" d="M340,408.52a8.83,8.83,0,1,1-8.83-8.84A8.83,8.83,0,0,1,340,408.52Z" transform="translate(-214.43 -350.89)"/></svg>