<svg id="Livello_1" data-name="Livello 1" xmlns="http://www.w3.org/2000/svg" viewBox="0 0 167.14 139.54"><defs><style>.cls-1{fill:#fae70f;}.cls-2{fill:#918836;}</style></defs><title>nomediayellow</title><path class="cls-1" d="M342.71,406.85a8.83,8.83,0,1,1-8.83-8.84A8.83,8.83,0,0,1,342.71,406.85Z" transform="translate(-217.18 -349.22)"/><path class="cls-1" d="M372.32,349.22H229.18a12,12,0,0,0-12,12v68.19l41.46-41.47a5.85,5.85,0,0,1,8.24,0l66.75,66.75L354.31,434a5.84,5.84,0,0,1,8.23,0l21.78,21.78V361.22A12,12,0,0,0,372.32,349.22ZM333.88,420.7a13.85,13.85,0,1,1,13.85-13.85A13.85,13.85,0,0,1,333.88,420.7Z" transform="translate(-217.18 -349.22)"/><path class="cls-1" d="M384.32,472.25v4.51a12,12,0,0,1-12,12H229.18a12,12,0,0,1-12-12V445.87l45.58-45.58L329.51,467a5.83,5.83,0,0,0,8.23,0l20.69-20.68Z" transform="translate(-217.18 -349.22)"/><path class="cls-1" d="M342.71,406.85a8.83,8.83,0,1,1-8.83-8.84A8.83,8.83,0,0,1,342.71,406.85Z" transform="translate(-217.18 -349.22)"/><path class="cls-1" d="M342.71,406.85a8.83,8.83,0,1,1-8.83-8.84A8.83,8.83,0,0,1,342.71,406.85Z" transform="translate(-217.18 -349.22)"/><path class="cls-2" d="M331,426.66a51.27,51.27,0,0,0-14-28.39c-.69-.73-1.43-1.45-2.18-2.15a56.34,56.34,0,0,0-6.31-5.08c-.55-.38-1.1-.75-1.67-1.11-.83-.55-1.66-1.05-2.52-1.52-.39-.24-.8-.47-1.21-.68s-1-.52-1.46-.78l-.34-.16a60.92,60.92,0,0,0-41.87-4.38l-.65.17c-.66.16-1.29.35-1.95.54-.23.07-.47.14-.7.23a1,1,0,0,0-.3.09l-1.51.5-2,.75c-.77.3-1.55.63-2.31,1-1.5.65-3,1.38-4.43,2.18a58.05,58.05,0,0,0-7.09,4.56c-1.52,1.16-3,2.39-4.43,3.72-22.32,20.77-22.32,54.44,0,75.21s58.35,20.76,80.68.11l.12-.11C327.88,459.15,333.3,442.52,331,426.66Zm-92.58,29a38.17,38.17,0,0,1,0-44.54A41.62,41.62,0,0,1,244,404.8c.41-.38.83-.76,1.25-1.11.2-.19.42-.37.62-.54s.7-.57,1-.83.67-.52,1-.75,1-.73,1.49-1.05,1-.67,1.52-1a37.36,37.36,0,0,1,3.28-1.81c.4-.21.81-.42,1.23-.59a2.64,2.64,0,0,1,.38-.18c.42-.2.84-.38,1.28-.56l.5-.2c.46-.19.94-.37,1.41-.53s1-.35,1.51-.52,1.21-.38,1.82-.54,1.2-.32,1.8-.46c.43-.1.85-.2,1.29-.28s1-.2,1.53-.27a9,9,0,0,1,1-.17c.31-.05.63-.1.94-.12s.83-.11,1.25-.14c.2,0,.41,0,.62-.05.44-.05.89-.08,1.33-.09a45.52,45.52,0,0,1,29.05,8.27l-30.06,28L240.23,458C239.59,457.25,239,456.47,238.43,455.67Zm67,6.35a43.56,43.56,0,0,1-15.88,9.42,46.5,46.5,0,0,1-29.67,0,43.74,43.74,0,0,1-11.63-5.92l60.94-56.73a39.66,39.66,0,0,1,3,4.23c.45.71.88,1.44,1.27,2.17s.78,1.5,1.12,2.25c.47,1,.9,2,1.26,3.08.23.64.45,1.3.65,2a35.9,35.9,0,0,1,1,4c.13.67.23,1.34.32,2s.14,1.07.18,1.62c0,.33.06.65.07,1,.05.74.08,1.49.08,2.23A38.93,38.93,0,0,1,305.46,462Z" transform="translate(-217.18 -349.22)"/></svg>