<svg id="Livello_1" data-name="Livello 1" xmlns="http://www.w3.org/2000/svg" viewBox="0 0 230.31 268.75"><defs><style>.cls-1{fill:#fae70f;}</style></defs><title>refreshyellow</title><path class="cls-1" d="M415.06,465.27c-1.18-2.78.86,2.54,1.21,3.6.72,2.16,1.37,4.35,1.93,6.55s1.07,4.48,1.48,6.74c.21,1.13.41,2.28.56,3.43-.36-2.65-.05.11,0,1.31a97.67,97.67,0,0,1,.18,13.47c0,.63-.74,7.49-.27,4.15-.41,2.92-1,5.82-1.69,8.69a97.7,97.7,0,0,1-3.66,11.69c-1.61,4.21,1-1.93-.92,2.14-.89,1.89-1.84,3.76-2.85,5.59a97,97,0,0,1-5.89,9.38c-.53.76-1.08,1.49-1.63,2.24.36-.49,2.37-2.87.25-.39-1.35,1.57-2.68,3.15-4.09,4.66a99,99,0,0,1-7.45,7.18c-1,.84-4.94,3.81-1.73,1.51-1.88,1.35-3.74,2.7-5.68,3.95a96.23,96.23,0,0,1-9.05,5.15c-.83.42-1.67.82-2.51,1.22-.54.25-3.3,1.45-1.05.5s-.55.19-1.1.4c-1.1.42-2.2.82-3.31,1.19a97,97,0,0,1-10.95,3c-1.88.4-3.77.7-5.66,1,4.27-.73-1.87.13-3.17.22a98.35,98.35,0,0,1-10.86.14c-1.85-.08-3.7-.26-5.55-.4-3.8-.28.6-.08.68.15,0-.14-3.81-.62-4-.67a95.78,95.78,0,0,1-9.87-2.38c-1.71-.51-3.4-1.07-5.09-1.67-.83-.3-1.65-.65-2.49-.94-2.12-.72,3.09,1.47,0,0s-6.34-3-9.4-4.84Q299.17,562,297,560.5c-.73-.48-1.46-1-2.18-1.48-.44-.31-3.56-2.45-1.35-.92,2,1.41-.27-.21-.75-.62-.67-.56-1.35-1.11-2-1.68q-1.74-1.5-3.4-3.07a97.64,97.64,0,0,1-8-8.61c-.56-.67-1.1-1.35-1.65-2,.08.1,1.87,2.71.84,1-.91-1.48-2-2.86-3-4.32a96.36,96.36,0,0,1-5.56-9.72,43.6,43.6,0,0,1-2.23-4.81c1.34,3.84-.13-.53-.61-1.91a95.57,95.57,0,0,1-3.14-11c-.35-1.55-.66-3.11-.93-4.67-.15-.87-.36-1.83-.42-2.71.28,4.23.21,1.61.14.68a117.44,117.44,0,0,1-.44-12.58c0-1.63.13-3.26.26-4.88.07-.92.2-1.84.25-2.76.17-2.63-.56,3.28-.11.69A114.39,114.39,0,0,1,265,473.84c.83-3,1.54-7.63,3.4-10.15-.26.35-1.67,3.68-.26.63.37-.81.73-1.61,1.12-2.41q1.29-2.67,2.74-5.27c1.93-3.47,4.32-6.6,6.39-10,1.3-2.12-2.05,2.41-.43.51.71-.83,1.37-1.7,2.08-2.53q1.91-2.24,3.95-4.37a115.67,115.67,0,0,1,9.17-8.4c.75-.63,2.7-1.74-.53.41.91-.6,1.77-1.29,2.67-1.91q2.43-1.68,5-3.21a107.5,107.5,0,0,1,10.53-5.51c3.05-1.42-.28,0-.63.26a13.88,13.88,0,0,1,3.12-1.18q2.85-1,5.74-1.86a114.82,114.82,0,0,1,12.59-2.76c2.14-.37-1.37.24-1.38.19s4-.37,4.14-.38c2.33-.17,4.66-.23,7-.25,9.41-.07,18.44-8.23,18-18s-7.91-18.07-18-18C303.53,380,269,398.45,247,429c-21.29,29.54-26.75,70.68-14,104.76,13,34.66,41.25,61.86,77.13,72,37.83,10.69,78.71.69,108.09-25.1A115,115,0,0,0,452.07,527c7.83-26.79,4.85-54.51-5.93-79.91-3.69-8.71-17.18-11.27-24.63-6.46-9.05,5.83-10.41,15.31-6.45,24.63Z" transform="translate(-226.17 -341.28)"/><rect class="cls-1" x="315.99" y="361.85" width="85.81" height="36.88" rx="10.56" transform="translate(117.59 561.68) rotate(-135)"/><rect class="cls-1" x="315.99" y="396.65" width="85.81" height="36.88" rx="10.56" transform="translate(680.01 113.55) rotate(135)"/></svg>