<svg id="Livello_1" data-name="Livello 1" xmlns="http://www.w3.org/2000/svg" viewBox="0 0 546.59 510.05"><defs><style>.cls-1{fill:#efad2b;}.cls-2{fill:#010101;}.cls-3{fill:#fff;}.cls-4{fill:#ee7551;}.cls-5{fill:#f4e769;}.cls-6{fill:#f5cd4b;}</style></defs><title>star</title><path class="cls-1" d="M304.47,172.71l72,145.94a13.71,13.71,0,0,0,10.32,7.5l161.05,23.4a13.71,13.71,0,0,1,7.6,23.38L438.92,486.53A13.69,13.69,0,0,0,435,498.66l27.51,160.4a13.71,13.71,0,0,1-19.89,14.45l-144-75.73a13.71,13.71,0,0,0-12.76,0l-144,75.73a13.71,13.71,0,0,1-19.89-14.45l27.51-160.4a13.71,13.71,0,0,0-3.94-12.13L28.89,372.93a13.7,13.7,0,0,1,7.6-23.38l161-23.4a13.71,13.71,0,0,0,10.32-7.5l72-145.94A13.71,13.71,0,0,1,304.47,172.71Z" transform="translate(-24.73 -165.06)"/><path class="cls-2" d="M232.05,416.63a26.24,26.24,0,1,1-26.19-26.19A26.23,26.23,0,0,1,232.05,416.63Z" transform="translate(-24.73 -165.06)"/><circle class="cls-3" cx="164.58" cy="251.6" r="9.32"/><path class="cls-2" d="M403.75,416.62a26.24,26.24,0,1,1-26.19-26.19A26.23,26.23,0,0,1,403.75,416.62Z" transform="translate(-24.73 -165.06)"/><circle class="cls-3" cx="336.28" cy="251.59" r="9.32"/><path class="cls-4" d="M225.42,484.76a19.61,19.61,0,1,1-19.57-19.57A19.6,19.6,0,0,1,225.42,484.76Z" transform="translate(-24.73 -165.06)"/><path class="cls-4" d="M397.12,478.13a19.61,19.61,0,1,1-19.57-19.57A19.6,19.6,0,0,1,397.12,478.13Z" transform="translate(-24.73 -165.06)"/><path class="cls-2" d="M313,497.77c-.08,8.88-7.54,15.61-15.85,18.06-9.2,2.72-20.27,1-27.33-5.82a17.19,17.19,0,0,1-5.56-12.24c0-3.22-5-3.22-5,0,.1,11.31,9.2,19.85,19.52,22.89,11,3.24,24.13.88,32.42-7.33a22.3,22.3,0,0,0,6.8-15.55c0-3.23-5-3.23-5,0Z" transform="translate(-24.73 -165.06)"/><circle class="cls-5" cx="181.09" cy="430.94" r="16.37"/><circle class="cls-5" cx="316.87" cy="166.25" r="16.37"/><circle class="cls-5" cx="255.67" cy="190.81" r="8.19"/><circle class="cls-5" cx="399.06" cy="396.88" r="8.19"/><path class="cls-6" d="M319.6,173.72l71.06,144a13.53,13.53,0,0,0,10.18,7.4l158.89,23.09a13.53,13.53,0,0,1,7.5,23.07l-115,112.06a13.52,13.52,0,0,0-3.89,12l27.14,158.25a13.53,13.53,0,0,1-19.62,14.26L313.77,593.09a13.54,13.54,0,0,0-12.59,0L159.06,667.8a13.52,13.52,0,0,1-19.62-14.26l27.14-158.25a13.52,13.52,0,0,0-3.89-12l-115-112.07a13.52,13.52,0,0,1,7.5-23.07l158.89-23.09a13.52,13.52,0,0,0,10.18-7.4l71.06-144A13.52,13.52,0,0,1,319.6,173.72Z" transform="translate(-24.73 -165.06)"/><path class="cls-2" d="M250.94,417.74a26.24,26.24,0,1,1-26.19-26.19A26.23,26.23,0,0,1,250.94,417.74Z" transform="translate(-24.73 -165.06)"/><circle class="cls-3" cx="183.47" cy="252.7" r="9.32"/><path class="cls-2" d="M422.65,417.73a26.24,26.24,0,1,1-26.19-26.19A26.23,26.23,0,0,1,422.65,417.73Z" transform="translate(-24.73 -165.06)"/><circle class="cls-3" cx="355.17" cy="252.7" r="9.32"/><path class="cls-4" d="M244.31,485.87a19.61,19.61,0,1,1-19.57-19.57A19.6,19.6,0,0,1,244.31,485.87Z" transform="translate(-24.73 -165.06)"/><path class="cls-4" d="M416,479.24a19.61,19.61,0,1,1-19.57-19.57A19.6,19.6,0,0,1,416,479.24Z" transform="translate(-24.73 -165.06)"/><path class="cls-2" d="M331.84,498.88c-.08,8.88-7.54,15.61-15.85,18.06-9.2,2.72-20.27,1-27.33-5.82a17.19,17.19,0,0,1-5.56-12.24c0-3.22-5-3.22-5,0,.1,11.31,9.2,19.85,19.52,22.89,11,3.24,24.12.88,32.42-7.33a22.3,22.3,0,0,0,6.8-15.55c0-3.23-5-3.23-5,0Z" transform="translate(-24.73 -165.06)"/><circle class="cls-5" cx="199.98" cy="432.05" r="16.37"/><circle class="cls-5" cx="335.76" cy="167.35" r="16.37"/><circle class="cls-5" cx="274.56" cy="191.92" r="8.19"/><circle class="cls-5" cx="417.95" cy="397.99" r="8.19"/></svg>