<svg id="Livello_1" data-name="Livello 1" xmlns="http://www.w3.org/2000/svg" viewBox="0 0 561.63 562.15"><defs><style>.cls-1{fill:#efad2a;}.cls-2{fill:#fcbf16;}.cls-3{fill:#29badb;}.cls-4{fill:#1d1d1b;}.cls-5{fill:#fff;}</style></defs><title>sun</title><path class="cls-1" d="M514.21,434.2A218.14,218.14,0,0,1,296,652.39c-120.49,0-218.17-97.68-218.17-218.19A218,218,0,0,1,296,216C416.53,216,514.21,313.71,514.21,434.2Z" transform="translate(-17.15 -146.24)"/><path class="cls-2" d="M514.21,434.2a217.84,217.84,0,0,1-85.93,173.56,217.37,217.37,0,0,1-86,17.63C221.73,625.39,124,527.71,124,407.21a217.83,217.83,0,0,1,86-173.56A217.48,217.48,0,0,1,296,216C416.53,216,514.21,313.71,514.21,434.2Z" transform="translate(-17.15 -146.24)"/><path class="cls-2" d="M486.09,625.44l-32.47-65.92-30.38,25.55,58.21,44.19A3.09,3.09,0,0,0,486.09,625.44Z" transform="translate(-17.15 -146.24)"/><circle class="cls-1" cx="454.73" cy="245.54" r="15.25"/><circle class="cls-1" cx="301.98" cy="420.97" r="10.23"/><path class="cls-2" d="M536.89,560.11l-57-46.59-17.08,35.93,71.45,16.07A3.09,3.09,0,0,0,536.89,560.11Z" transform="translate(-17.15 -146.24)"/><path class="cls-2" d="M575.94,423.45l-75.51-8.67,5.2,40.73,71-25.89A3.19,3.19,0,0,0,575.94,423.45Z" transform="translate(-17.15 -146.24)"/><path class="cls-2" d="M506.32,252.11l-73.53,33.66L460,320l50.43-62.66A3.4,3.4,0,0,0,506.32,252.11Z" transform="translate(-17.15 -146.24)"/><path class="cls-1" d="M67.13,587,147,572.55l-17.9-40L64.48,580.91A3.41,3.41,0,0,0,67.13,587Z" transform="translate(-17.15 -146.24)"/><path class="cls-1" d="M19.28,421.77l70.33,23.29,3.13-39.9L19.81,415.74A3.11,3.11,0,0,0,19.28,421.77Z" transform="translate(-17.15 -146.24)"/><path class="cls-1" d="M75.28,283l32.07,48.71,27.8-39.52L79.52,277C77,276.34,73.86,280.81,75.28,283Z" transform="translate(-17.15 -146.24)"/><path class="cls-2" d="M215.54,161.3l-6.39,84.2,45-7.53-31.79-77.74A3.55,3.55,0,0,0,215.54,161.3Z" transform="translate(-17.15 -146.24)"/><path class="cls-2" d="M378,188.47l-34.42,44.67L387,246.23l-2.41-55.74C384.43,188,379.51,186.49,378,188.47Z" transform="translate(-17.15 -146.24)"/><path class="cls-1" d="M293.76,706.52l29.7-64.19-55.82-4.22,17.68,67.72C286.11,708.84,292.45,709.36,293.76,706.52Z" transform="translate(-17.15 -146.24)"/><path class="cls-1" d="M138.17,194.23l19.68,73,35.75-19.76-50-56.17A3.17,3.17,0,0,0,138.17,194.23Z" transform="translate(-17.15 -146.24)"/><path class="cls-2" d="M307.33,148.88l-24.18,83.4L330,234.19l-15.61-85A3.65,3.65,0,0,0,307.33,148.88Z" transform="translate(-17.15 -146.24)"/><path class="cls-2" d="M449.93,216.55,395,261.77l30.82,23,28.76-64.68A3,3,0,0,0,449.93,216.55Z" transform="translate(-17.15 -146.24)"/><path class="cls-2" d="M553.82,328.35l-81.1,12.77L489.9,382l66.46-47.45A3.45,3.45,0,0,0,553.82,328.35Z" transform="translate(-17.15 -146.24)"/><path class="cls-1" d="M413.93,690.93,402,621.35l-39.55,19,45.45,53.39C409.94,696.13,414.45,694,413.93,690.93Z" transform="translate(-17.15 -146.24)"/><path class="cls-1" d="M119.05,641.47l60.35-37.18-27.3-26.85L115,637.36A3,3,0,0,0,119.05,641.47Z" transform="translate(-17.15 -146.24)"/><path class="cls-1" d="M31.62,502.74l69.69,3.37-7.24-37-63.49,28A2.93,2.93,0,0,0,31.62,502.74Z" transform="translate(-17.15 -146.24)"/><path class="cls-1" d="M39.85,354.47l65.93,24.62,4.39-37.76-69.6,7.44A3,3,0,0,0,39.85,354.47Z" transform="translate(-17.15 -146.24)"/><path class="cls-2" d="M562.75,488.29l-68.16-27.83-5.79,39.36,73-5.58A3.09,3.09,0,0,0,562.75,488.29Z" transform="translate(-17.15 -146.24)"/><path d="M424.65,370c0,49.48-28,89.59-62.51,89.59S299.63,419.46,299.63,370Z" transform="translate(-17.15 -146.24)"/><path class="cls-3" d="M410.83,379.89c0,38.54-21.79,69.78-48.69,69.78s-48.69-31.24-48.69-69.78Z" transform="translate(-17.15 -146.24)"/><path d="M290.73,370c0,49.48-28,89.59-62.51,89.59S165.71,419.46,165.71,370Z" transform="translate(-17.15 -146.24)"/><path class="cls-3" d="M276.91,379.89c0,38.54-21.8,69.78-48.69,69.78s-48.7-31.24-48.7-69.78Z" transform="translate(-17.15 -146.24)"/><path class="cls-4" d="M291.37,376.19c.22-.2.45-.39.68-.57l-1,.78a11.05,11.05,0,0,1,2.3-1.34l-1.2.5a11.18,11.18,0,0,1,2.41-.66l-1.33.18a10.63,10.63,0,0,1,2.76,0l-1.33-.18a10.43,10.43,0,0,1,2.53.7l-1.19-.51a10.91,10.91,0,0,1,2.21,1.31l-1-.78a10.78,10.78,0,0,1,1.53,1.49,5,5,0,0,0,8.53-3.54,5.59,5.59,0,0,0-1.46-3.54,14.93,14.93,0,0,0-21.48-.91,5,5,0,0,0,0,7.07,5.11,5.11,0,0,0,7.07,0Z" transform="translate(-17.15 -146.24)"/><path class="cls-4" d="M322.89,500.61c0,.62,0,1.25-.09,1.87,0,.15,0,.31,0,.46,0,.55.08-.57.08-.56a6.19,6.19,0,0,0-.19,1.06,28.08,28.08,0,0,1-1.13,3.8c-.17.5.21-.49.21-.49a2,2,0,0,0-.19.42c-.13.28-.26.56-.4.83-.31.59-.64,1.18-1,1.74s-.7,1-1,1.55c-.53.74.6-.72,0,0-.24.28-.47.57-.72.84a26.5,26.5,0,0,1-3,2.91l-.39.33c.56-.49-.26.19-.42.3-.59.42-1.19.82-1.81,1.2a33.19,33.19,0,0,1-3.77,2,2.58,2.58,0,0,0-.48.21s.91-.37.39-.17l-1.15.45c-.73.26-1.46.5-2.2.72a37.71,37.71,0,0,1-4.45,1l-.55.08c-.57.11.38,0,.4,0a4,4,0,0,0-1.12.13c-.82.08-1.64.13-2.47.16a39.61,39.61,0,0,1-5-.14l-1.12-.12c-.58-.06.39,0,.4.05a1.92,1.92,0,0,0-.55-.08c-.79-.13-1.57-.28-2.35-.46a37.92,37.92,0,0,1-4.31-1.25L283.3,519c-.89-.34.77.36-.09,0-.68-.31-1.36-.63-2-1a33.82,33.82,0,0,1-3.59-2.2c-.19-.14-.69-.38-.8-.59,0,0,.79.65.37.28l-.38-.31c-.55-.45-1.07-.92-1.58-1.41s-1.13-1.13-1.65-1.73c-.24-.27-.47-.57-.71-.84s.3.37.3.39-.31-.42-.37-.51a23.94,23.94,0,0,1-2.2-3.72c-.06-.14-.12-.28-.19-.42-.29-.57.36,1,.15.35-.12-.33-.26-.66-.38-1-.24-.72-.45-1.46-.63-2.2-.08-.35-.15-.7-.21-1.06,0-.15,0-.3-.08-.45-.13-.64.09,1.06.06.41s-.12-1.55-.13-2.33a5,5,0,0,0-10,0c.11,14.28,11.45,25.15,24.49,29,13.74,4.12,30.1,1.11,40.49-9.09a28.49,28.49,0,0,0,8.74-20,5,5,0,0,0-10,0Z" transform="translate(-17.15 -146.24)"/><circle class="cls-1" cx="211.07" cy="349.15" r="15.25"/><circle class="cls-1" cx="345" cy="349.15" r="15.25"/><path class="cls-5" d="M226.31,414.5c-2.25,6.52-5,11.22-6.13,10.52-.36-.23-.52-1-.48-2.12-4.09,9.34-8.15,15.18-10.1,14-2.6-1.62-.54-15,4.6-29.89s11.42-25.65,14-24c2,1.22,1.27,9.14-1.41,19.37.63-.77,1.16-1.1,1.52-.87C229.46,402.15,228.56,408,226.31,414.5Z" transform="translate(-17.15 -146.24)"/><path class="cls-5" d="M246,401c-.77,2.21-1.7,3.81-2.09,3.57-.12-.07-.17-.33-.16-.72-1.39,3.18-2.77,5.17-3.44,4.75-.88-.55-.18-5.1,1.57-10.16s3.88-8.73,4.77-8.18c.66.42.43,3.11-.48,6.59.21-.26.39-.37.51-.3C247.06,396.83,246.75,398.81,246,401Z" transform="translate(-17.15 -146.24)"/><path class="cls-5" d="M356.69,413.29c-2.25,6.52-5,11.22-6.13,10.51-.37-.22-.52-1-.49-2.12-4.08,9.35-8.14,15.19-10.1,14-2.6-1.61-.53-15,4.61-29.88s11.42-25.65,14-24c2,1.21,1.27,9.14-1.41,19.36.63-.76,1.16-1.09,1.52-.87C359.84,400.94,358.93,406.78,356.69,413.29Z" transform="translate(-17.15 -146.24)"/><path class="cls-5" d="M376.37,399.82c-.77,2.21-1.7,3.81-2.09,3.57-.12-.08-.18-.33-.16-.72-1.39,3.18-2.77,5.16-3.44,4.75-.88-.55-.18-5.1,1.57-10.17s3.88-8.72,4.76-8.17c.67.41.43,3.11-.48,6.59.22-.26.4-.38.52-.3C377.44,395.61,377.13,397.6,376.37,399.82Z" transform="translate(-17.15 -146.24)"/><path class="cls-1" d="M195.45,687.7l40.45-58.21L200.14,615.8l-10.08,69.78A3,3,0,0,0,195.45,687.7Z" transform="translate(-17.15 -146.24)"/></svg>