<svg id="Livello_1" data-name="Livello 1" xmlns="http://www.w3.org/2000/svg" viewBox="0 0 64.95 77.79"><title>userminus_fill</title><path d="M340.13,383.15H310.51c-.43,0-.86,0-1.29,0a3,3,0,0,1-2-5.23c1.25-1.11,3.48-.76,5-.76h26.59c.43,0,.87,0,1.3,0a3,3,0,0,1,0,6c-.8,0-.8,1.29,0,1.25a4.25,4.25,0,0,0,.35-8.48c-1.55-.13-3.16,0-4.72,0H314.91c-1.87,0-3.75-.06-5.62,0-4.28.13-6,5.93-2,8,1.5.78,3.66.48,5.3.48h27.57A.63.63,0,0,0,340.13,383.15Z" transform="translate(-279.43 -312.98)"/><path d="M329.64,385.82c.29,1.61.51,3.27.68,4.95H281.18c1.22-12.11,5.25-22.5,10.88-29a26.32,26.32,0,1,1,27.38,0,41.29,41.29,0,0,1,7.23,12.8H308.88a5.63,5.63,0,1,0,0,11.25Z" transform="translate(-279.43 -312.98)"/></svg>