<svg id="Livello_1" data-name="Livello 1" xmlns="http://www.w3.org/2000/svg" viewBox="0 0 507.67 665.55"><defs><style>.cls-1{fill:#12ad87;}.cls-2{fill:#188062;}.cls-3{fill:#97487c;}.cls-4{fill:#ea558b;}.cls-5{fill:#0f9c7f;}.cls-6{fill:#1d6c54;}.cls-7{fill:#010101;}</style></defs><title>useralien</title><path class="cls-1" d="M298,87.88c-140.2,0-253.83,52.63-253.83,205.91,0,136.23,89.75,299,208.14,333.56v22.88h0c40.83-16,84.83,0,84.83,0V637a142.82,142.82,0,0,1-48.92-3.33c3.24.21,6.5.31,9.76.31a161.63,161.63,0,0,0,39.16-4.87h0c121.6-30.33,214.68-196.6,214.68-335.32C551.84,140.51,438.2,87.88,298,87.88ZM247.3,507.77c-30.25,26.67-79.64,51.21-117.39.14-15.34-20.8-26.4-50.92-32.07-81.13-8.66-25.34-10.25-52.23-5.11-73.4l0-.13a63.05,63.05,0,0,1,2.28-8.65c.19-.54.38-1.08.6-1.62.12-.32.24-.64.37-1l.15-.42a2.26,2.26,0,0,0,.11-.22c.14-.38.31-.75.46-1.12.3-.67.6-1.32.92-2,.48-1,1-2,1.56-3,.1-.17.19-.33.3-.49l.58-1c.25-.43.5-.85.8-1.27l.06-.09.16-.24,0-.07a.33.33,0,0,0,.06-.08s0,0,0-.05,0,0,0-.05a2.48,2.48,0,0,1,.19-.26,43.64,43.64,0,0,1,7.14-8.21,2.61,2.61,0,0,0,.24-.22.43.43,0,0,0,.12-.11l.28-.24s.09-.08.14-.13l.26-.22.12-.11a2.69,2.69,0,0,1,.32-.27l.19-.16.19-.17.18-.16c.69-.55,1.38-1.09,2.11-1.6l.52-.37c30.85-22.13,85.56-16.39,122.23,29.06,24.55,30.42,35,71.14,30.88,102.6C267.66,474.88,261.45,495.3,247.3,507.77Zm218.78.14C428.34,559,379,534.44,348.7,507.77c-14.15-12.47-20.35-32.88-19.1-56.3-4.07-31.47,6.33-72.19,30.88-102.62,36.93-45.79,92.2-51.27,122.92-28.57l.19.14c.58.43,1.17.88,1.74,1.34,0,0,.07.05.09.09.28.22.54.44.8.66a.5.5,0,0,0,.08.07l.61.52.32.3a1.94,1.94,0,0,1,.26.23c.17.15.34.3.5.46s.55.53.81.79c7.32,7.23,12.05,16.71,14.29,27.6a6.92,6.92,0,0,1,.14.77.08.08,0,0,0,0,0c5.17,21.18,3.59,48.09-5.08,73.46C492.51,457,481.43,487.1,466.08,507.91Z" transform="translate(-44.16 -87.88)"/><path class="cls-1" d="M259.41,649.13c-2.37.34-4.74.71-7.09,1.11h0C254.67,649.83,257,649.46,259.41,649.13Z" transform="translate(-44.16 -87.88)"/><path class="cls-1" d="M337.15,650.23h0l-.44-.08Z" transform="translate(-44.16 -87.88)"/><path class="cls-1" d="M337.15,629.12V637a142.82,142.82,0,0,1-48.92-3.33c3.24.21,6.5.31,9.76.31A161.63,161.63,0,0,0,337.15,629.12Z" transform="translate(-44.16 -87.88)"/><path class="cls-2" d="M337.16,629.11V637h0a142.82,142.82,0,0,1-48.92-3.33c3.24.21,6.5.31,9.76.31a161.63,161.63,0,0,0,39.16-4.87Z" transform="translate(-44.16 -87.88)"/><path class="cls-3" d="M500.89,753.43H88.57c0-34.06,67.32-80.75,143.56-99a81,81,0,0,0,20.18,17.24,80.2,80.2,0,0,0,42.42,12.24,85.93,85.93,0,0,0,42.42-11.58,95.78,95.78,0,0,0,22.42-17.37C434.89,673.59,500.89,719.7,500.89,753.43Z" transform="translate(-44.16 -87.88)"/><path class="cls-4" d="M251.6,650.36c-2.62.45-5.22.94-7.82,1.45Q247.68,651,251.6,650.36Z" transform="translate(-44.16 -87.88)"/><path class="cls-4" d="M259.41,649.13c-2.37.34-4.74.71-7.09,1.11h0l-.7.12.7-.13h0C254.67,649.83,257,649.46,259.41,649.13Z" transform="translate(-44.16 -87.88)"/><path class="cls-4" d="M339.43,650.63l-2.28-.39h0l-.44-.08.45.07Z" transform="translate(-44.16 -87.88)"/><path class="cls-4" d="M350.75,652.86c-2.42-.52-4.84-1-7.27-1.48C345.91,651.83,348.34,652.33,350.75,652.86Z" transform="translate(-44.16 -87.88)"/><path class="cls-4" d="M359.57,654.91a95.78,95.78,0,0,1-22.42,17.37,85.93,85.93,0,0,1-42.42,11.58,80.2,80.2,0,0,1-42.42-12.24,81,81,0,0,1-20.18-17.24l2.89-.68,2.9-.66q2.93-.64,5.86-1.23c2.6-.51,5.2-1,7.82-1.45l.71-.12h0c.38.47,12.87,15.38,42.41,15.38s42-14.91,42.41-15.38h0l2.28.39,4.05.75c2.43.46,4.85,1,7.27,1.48l1.52.33c2.28.51,4.56,1,6.82,1.6Z" transform="translate(-44.16 -87.88)"/><path class="cls-5" d="M336.7,650.16l.44.08c-.38.47-12.87,15.38-42.41,15.38s-42-14.91-42.41-15.38c2.35-.4,4.72-.77,7.09-1.11-2.37.33-4.74.7-7.09,1.1,40.83-16,84.83,0,84.83,0Z" transform="translate(-44.16 -87.88)"/><path class="cls-5" d="M259.41,649.13c-2.37.34-4.74.71-7.09,1.11h0C254.67,649.83,257,649.46,259.41,649.13Z" transform="translate(-44.16 -87.88)"/><path class="cls-5" d="M337.15,650.23h0l-.44-.08Z" transform="translate(-44.16 -87.88)"/><path class="cls-1" d="M100.78,411.54q-1.66-4-3-7.94C98.68,406.24,99.67,408.89,100.78,411.54Z" transform="translate(-44.16 -87.88)"/><path class="cls-1" d="M94,390.52c-.15-.71-.31-1.41-.45-2.11v0C93.73,389.09,93.89,389.8,94,390.52Z" transform="translate(-44.16 -87.88)"/><path class="cls-1" d="M107.23,324.91c-6.81,7-11.63,16.79-14.46,28.34a63.05,63.05,0,0,1,2.28-8.65c.19-.54.38-1.08.6-1.62.12-.32.24-.64.37-1s.16-.43.26-.64c.26-.66.57-1.3.87-1.94l.36-.82.15-.33c.08-.18.18-.36.27-.54s.17-.34.27-.51c.19-.35.38-.69.56-1l.2-.38a.17.17,0,0,0,0-.05c.07-.15.16-.3.24-.44s.19-.33.3-.49l.58-1,.39-.62.41-.65.06-.09.16-.24,0-.07a.33.33,0,0,0,.06-.08s0,0,0-.05,0,0,0-.05a2.48,2.48,0,0,1,.19-.26c.17-.25.35-.5.53-.74l.38-.54c.15-.22.32-.44.49-.66.5-.67,1-1.31,1.58-1.95q.24-.3.51-.6c.56-.64,1.13-1.25,1.73-1.86.18-.18.34-.36.53-.53s.45-.45.69-.67.2-.2.31-.29l-.37.36Z" transform="translate(-44.16 -87.88)"/><path class="cls-1" d="M266.4,451.45c1.26,23.43-4.95,43.85-19.1,56.32-30.25,26.67-79.64,51.21-117.39.14-15.34-20.8-26.4-50.92-32.07-81.13a135.71,135.71,0,0,0,22.48,41.52c37,45.83,94.38,47.19,125.14,24.23.24-.17.46-.35.7-.53s.76-.58,1.13-.88l1-.85c9.56-8.27,15.47-21.34,17.79-36.83.11-.9.18-1.82.24-2.74C268.22,424,257,391,233.77,362.24c-25.53-31.64-59-50.16-87.34-51.28l-1.34,0h-2.52c-.62,0-1.25,0-1.86.06s-1,0-1.44.09l-1.47.13h0l-.66.07-.32,0c-1.7.2-3.38.49-5,.85-.6.13-1.17.27-1.75.42s-1.12.3-1.68.47h-.05l-1.49.47-.25.08c-.49.16-.94.33-1.42.51l-.36.13c-.41.16-.8.31-1.19.48-.19.07-.39.15-.58.24-.38.16-.76.33-1.13.51a2.6,2.6,0,0,0-.34.16c-.48.22-.94.45-1.42.69l-.13.07c-.43.22-.87.45-1.29.69l-.57.33-1,.57c-.51.31-1,.63-1.5.95s-1,.65-1.43,1-1,.76-1.56,1.17-1,.81-1.5,1.24l-.49-.59-.15.14a1.54,1.54,0,0,0-.23.18l.19-.17.18-.16c.69-.55,1.38-1.09,2.11-1.6l.52-.37c30.85-22.13,85.56-16.39,122.23,29.06C260.07,379.27,270.47,420,266.4,451.45Z" transform="translate(-44.16 -87.88)"/><path class="cls-1" d="M374.66,501.58c-1-.12-2.06-.25-3.06-.42Q373.1,501.4,374.66,501.58Z" transform="translate(-44.16 -87.88)"/><path class="cls-1" d="M388.84,501.62c-1.18.12-2.36.21-3.54.26C386.48,501.82,387.66,501.73,388.84,501.62Z" transform="translate(-44.16 -87.88)"/><path class="cls-1" d="M457.88,465.89c-1,1-2,1.94-3.05,2.88C455.85,467.83,456.86,466.87,457.88,465.89Z" transform="translate(-44.16 -87.88)"/><path class="cls-1" d="M498.16,426.75c-5.65,30.22-16.73,60.35-32.08,81.16C428.34,559,379,534.44,348.7,507.77c-14.15-12.47-20.35-32.88-19.1-56.3-4.07-31.47,6.33-72.19,30.88-102.62,36.93-45.79,92.2-51.27,122.92-28.57-30.62-22.17-84.24-3.83-121.17,42C339,391,327.77,424,329.65,450.74c.05.92.13,1.84.23,2.74,2.26,15,7.9,27.75,17,36,.59.56,1.21,1.09,1.86,1.6.28.23.58.46.87.68a2.69,2.69,0,0,0,.27.2s0,0,.06.05l.13.09.12.09.28.23h0a2.62,2.62,0,0,0,.32.23c30.81,22.8,88,21.33,124.9-24.39A135.56,135.56,0,0,0,498.16,426.75Z" transform="translate(-44.16 -87.88)"/><path class="cls-1" d="M485.42,321.85s-.07-.05-.09-.08c-.57-.46-1.16-.91-1.74-1.35.58.43,1.17.88,1.74,1.34C485.35,321.79,485.4,321.81,485.42,321.85Z" transform="translate(-44.16 -87.88)"/><path class="cls-1" d="M503.47,382.48c-.3,1.95-.64,3.92-1.06,5.9v-.08C502.82,386.35,503.16,384.4,503.47,382.48Z" transform="translate(-44.16 -87.88)"/><path class="cls-1" d="M503.23,353.25a.15.15,0,0,0,0-.07c-3.07-12.51-8.51-23-16.24-30l-.68-.6.61.52.32.3a1.94,1.94,0,0,1,.26.23c.17.15.34.3.5.46s.55.53.81.79c7.32,7.23,12.05,16.71,14.29,27.6A6.92,6.92,0,0,1,503.23,353.25Z" transform="translate(-44.16 -87.88)"/><path class="cls-5" d="M374.66,501.58c-1-.12-2.06-.25-3.06-.42Q373.1,501.4,374.66,501.58Z" transform="translate(-44.16 -87.88)"/><path class="cls-5" d="M388.84,501.62c-1.18.12-2.36.21-3.54.26C386.48,501.82,387.66,501.73,388.84,501.62Z" transform="translate(-44.16 -87.88)"/><path class="cls-5" d="M457.88,465.89c-1,1-2,1.94-3.05,2.88C455.85,467.83,456.86,466.87,457.88,465.89Z" transform="translate(-44.16 -87.88)"/><path class="cls-5" d="M498.16,426.75c-5.65,30.22-16.73,60.35-32.08,81.16C428.34,559,379,534.44,348.7,507.77c-14.15-12.47-20.35-32.88-19.1-56.3-4.07-31.47,6.33-72.19,30.88-102.62,36.93-45.79,92.2-51.27,122.92-28.57-30.62-22.17-84.24-3.83-121.17,42C339,391,327.77,424,329.65,450.74c.05.92.13,1.84.23,2.74,2.26,15,7.9,27.75,17,36,.59.56,1.21,1.09,1.86,1.6.28.23.58.46.87.68a2.69,2.69,0,0,0,.27.2s0,0,.06.05l.13.09.12.09.28.23h0a2.62,2.62,0,0,0,.32.23c30.81,22.8,88,21.33,124.9-24.39A135.56,135.56,0,0,0,498.16,426.75Z" transform="translate(-44.16 -87.88)"/><path class="cls-5" d="M485.42,321.85s-.07-.05-.09-.08c-.57-.46-1.16-.91-1.74-1.35.58.43,1.17.88,1.74,1.34C485.35,321.79,485.4,321.81,485.42,321.85Z" transform="translate(-44.16 -87.88)"/><path class="cls-5" d="M503.47,382.48c-.3,1.95-.64,3.92-1.06,5.9v-.08C502.82,386.35,503.16,384.4,503.47,382.48Z" transform="translate(-44.16 -87.88)"/><path class="cls-5" d="M503.23,353.25a.15.15,0,0,0,0-.07c-3.07-12.51-8.51-23-16.24-30l-.68-.6.61.52.32.3a1.94,1.94,0,0,1,.26.23c.17.15.34.3.5.46s.55.53.81.79c7.32,7.23,12.05,16.71,14.29,27.6A6.92,6.92,0,0,1,503.23,353.25Z" transform="translate(-44.16 -87.88)"/><path class="cls-2" d="M94,390.52c-.15-.71-.31-1.41-.45-2.11v0C93.73,389.09,93.89,389.8,94,390.52Z" transform="translate(-44.16 -87.88)"/><path class="cls-2" d="M100.78,411.54q-1.66-4-3-7.94C98.68,406.24,99.67,408.89,100.78,411.54Z" transform="translate(-44.16 -87.88)"/><path class="cls-2" d="M247.3,507.77c-30.25,26.67-79.64,51.21-117.39.14-15.34-20.8-26.4-50.92-32.07-81.13a135.71,135.71,0,0,0,22.48,41.52c37,45.83,94.38,47.19,125.14,24.23.24-.17.46-.35.7-.53s.76-.58,1.13-.88l1-.85c9.56-8.27,15.47-21.34,17.79-36.83.11-.9.18-1.82.24-2.74,0,.25,0,.5,0,.75C267.66,474.88,261.45,495.3,247.3,507.77Z" transform="translate(-44.16 -87.88)"/><path class="cls-6" d="M94,390.52c-.15-.71-.31-1.41-.45-2.11v0C93.73,389.09,93.89,389.8,94,390.52Z" transform="translate(-44.16 -87.88)"/><path class="cls-6" d="M100.78,411.54q-1.66-4-3-7.94C98.68,406.24,99.67,408.89,100.78,411.54Z" transform="translate(-44.16 -87.88)"/><path class="cls-6" d="M102,331a46.9,46.9,0,0,1,5.22-6.11c-6.81,7-11.63,16.79-14.46,28.34a63.05,63.05,0,0,1,2.28-8.65c.19-.54.38-1.08.6-1.62.12-.32.24-.64.37-1l.15-.42a2.26,2.26,0,0,0,.11-.22c.14-.38.31-.75.46-1.12.25-.55.5-1.1.77-1.64l.42-.87c.09-.17.17-.34.27-.51.19-.35.38-.69.56-1l.2-.38a.17.17,0,0,0,0-.05l.54-.93.58-1,.39-.62c.23-.35.46-.7.68-1.05a.33.33,0,0,0,.06-.08s0,0,0-.05C101.51,331.72,101.76,331.36,102,331Z" transform="translate(-44.16 -87.88)"/><path class="cls-6" d="M109,323.22l.12-.1-.69.64.21-.21a2.61,2.61,0,0,0,.24-.22A.43.43,0,0,0,109,323.22Z" transform="translate(-44.16 -87.88)"/><path class="cls-6" d="M109.78,322.52a.45.45,0,0,1,.13-.1l-.51.43.26-.22Z" transform="translate(-44.16 -87.88)"/><path class="cls-6" d="M266.4,451.45c-.08.67-.17,1.33-.29,2,.11-.9.18-1.82.24-2.74C268.22,424,257,391,233.77,362.24c-25.53-31.64-59-50.16-87.34-51.28l-1.34,0h-2.52c-.62,0-1.25,0-1.86.06s-1,0-1.44.09l-1.47.13h0l-.66.07-.32,0c-1.7.2-3.38.49-5,.85-.6.13-1.17.27-1.75.42s-1.12.3-1.68.47h-.05l-1.49.47-.25.08c-.49.16-.94.33-1.42.51l-.36.13c-.41.16-.8.31-1.19.48-.19.07-.39.15-.58.24-.38.16-.76.33-1.13.51a2.6,2.6,0,0,0-.34.16c-.48.22-.94.45-1.42.69l-.13.07c-.43.22-.87.45-1.29.69l-.57.33-1,.57c-.51.31-1,.63-1.5.95s-1,.65-1.43,1-1,.76-1.56,1.17-1,.81-1.5,1.24l-.49-.59c.68-.55,1.38-1.09,2.1-1.61l.52-.37c30.85-22.13,85.56-16.39,122.23,29.06C260.07,379.27,270.47,420,266.4,451.45Z" transform="translate(-44.16 -87.88)"/><path class="cls-7" d="M233.77,362.24c-25.53-31.64-59-50.16-87.34-51.28l-1.34,0h-2.52c-.62,0-1.25,0-1.86.06s-1,0-1.44.09l-1.47.13h0l-.66.07-.32,0c-1.7.2-3.38.49-5,.85-.6.13-1.17.27-1.75.42s-1.12.3-1.68.47h-.05l-1.49.47-.25.08c-.49.16-.94.33-1.42.51l-.36.13c-.41.16-.8.31-1.19.48-.19.07-.39.15-.58.24-.38.16-.76.33-1.13.51a2.6,2.6,0,0,0-.34.16c-.48.22-.94.45-1.42.69l-.13.07c-.43.22-.87.45-1.29.69l-.57.33-1,.57c-.51.31-1,.63-1.5.95s-1,.66-1.43,1-1,.77-1.56,1.17-1,.81-1.5,1.24l-.49-.59-.15.14a1.54,1.54,0,0,0-.23.18l-.19.16a1.54,1.54,0,0,0-.19.17l-.51.43c-.05,0-.11.09-.14.13l-.16.14-.69.64-.06.05-.12.11-.37.36-.63.63c-6.81,7-11.63,16.79-14.46,28.34l0,.13c-5.14,21.17-3.55,48.06,5.11,73.4a135.71,135.71,0,0,0,22.48,41.52c37,45.83,94.38,47.19,125.14,24.23.24-.17.46-.35.7-.53s.76-.58,1.13-.88l1-.85c9.56-8.27,15.47-21.34,17.79-36.83.11-.9.18-1.82.24-2.74C268.22,424,257,391,233.77,362.24ZM93.59,388.41v0c.14.71.3,1.42.45,2.14C93.89,389.81,93.73,389.11,93.59,388.41Zm4.19,15.19c.9,2.64,1.89,5.29,3,7.94Q99.12,407.56,97.78,403.6Z" transform="translate(-44.16 -87.88)"/><path class="cls-7" d="M107.92,324.21c.11-.1.2-.2.31-.29l-.37.36-.63.63c-6.81,7-11.63,16.79-14.46,28.34a63.05,63.05,0,0,1,2.28-8.65c.19-.54.38-1.08.6-1.62.12-.32.24-.64.37-1s.16-.43.26-.64c.26-.66.57-1.3.87-1.94l.36-.82.15-.33c.08-.18.18-.36.27-.54s.17-.34.27-.51c.19-.35.38-.69.56-1l.2-.38a.17.17,0,0,0,0-.05c.07-.15.16-.3.24-.44s.19-.33.3-.49l.58-1,.39-.62.41-.65.06-.09.16-.24,0-.07a.33.33,0,0,0,.06-.08s0,0,0-.05,0,0,0-.05a2.48,2.48,0,0,1,.19-.26c.17-.25.35-.5.53-.74l.38-.54c.15-.22.32-.44.49-.66.5-.67,1-1.31,1.58-1.95q.24-.3.51-.6c.56-.64,1.13-1.25,1.73-1.86.18-.18.34-.36.53-.53S107.68,324.43,107.92,324.21Z" transform="translate(-44.16 -87.88)"/><path class="cls-7" d="M136.79,311.32c-1.7.2-3.38.49-5,.85-.6.13-1.17.27-1.75.42s-1.12.3-1.68.47h-.05l-1.49.47-.25.08c-.49.16-.94.33-1.42.51l-.36.13c-.41.16-.8.31-1.19.48-.19.07-.39.15-.58.24-.38.16-.76.33-1.13.51a2.6,2.6,0,0,0-.34.16c-.48.22-.94.45-1.42.69l-.13.07c-.43.22-.87.45-1.29.69l-.57.33-1,.57c-.51.31-1,.63-1.5.95s-1,.65-1.43,1-1,.76-1.56,1.17-1,.81-1.5,1.24l-.49-.59-.15.14a1.54,1.54,0,0,0-.23.18l.19-.17.18-.16c.69-.55,1.38-1.09,2.11-1.6l.52-.37A50,50,0,0,1,136.79,311.32Z" transform="translate(-44.16 -87.88)"/><path class="cls-7" d="M266.11,453.44c-1.57,15.05-7.44,28-17.79,36.83C257.88,482,263.79,468.93,266.11,453.44Z" transform="translate(-44.16 -87.88)"/><path class="cls-7" d="M100.78,411.54q-1.66-4-3-7.94C98.68,406.24,99.67,408.89,100.78,411.54Z" transform="translate(-44.16 -87.88)"/><path class="cls-7" d="M94,390.52c-.15-.71-.31-1.41-.45-2.11v0C93.73,389.09,93.89,389.8,94,390.52Z" transform="translate(-44.16 -87.88)"/><path class="cls-7" d="M107.92,324.21c.11-.1.2-.2.31-.29l-.37.36Z" transform="translate(-44.16 -87.88)"/><path class="cls-7" d="M109,323.22l.12-.1-.69.64.21-.21a2.61,2.61,0,0,0,.24-.22A.43.43,0,0,0,109,323.22Z" transform="translate(-44.16 -87.88)"/><path class="cls-7" d="M109.91,322.42l-.51.43.26-.22.12-.11A.45.45,0,0,1,109.91,322.42Z" transform="translate(-44.16 -87.88)"/><path class="cls-2" d="M374.66,501.58c-1-.12-2.06-.25-3.06-.42Q373.1,501.4,374.66,501.58Z" transform="translate(-44.16 -87.88)"/><path class="cls-2" d="M388.84,501.62c-1.18.12-2.36.21-3.54.26C386.48,501.82,387.66,501.73,388.84,501.62Z" transform="translate(-44.16 -87.88)"/><path class="cls-2" d="M457.88,465.89c-1,1-2,1.94-3.05,2.88C455.85,467.83,456.86,466.87,457.88,465.89Z" transform="translate(-44.16 -87.88)"/><path class="cls-2" d="M498.16,426.75c-5.65,30.22-16.73,60.35-32.08,81.16C428.34,559,379,534.44,348.7,507.77c-14.15-12.47-20.35-32.88-19.1-56.3a4.48,4.48,0,0,1,0-.73c.05.92.13,1.84.23,2.74,2.26,15,7.9,27.75,17,36,.59.56,1.21,1.09,1.86,1.6.28.23.58.46.87.68a2.69,2.69,0,0,0,.27.2s0,0,.06.05l.13.09.12.09.28.23h0a2.62,2.62,0,0,0,.32.23c30.81,22.8,88,21.33,124.9-24.39A135.56,135.56,0,0,0,498.16,426.75Z" transform="translate(-44.16 -87.88)"/><path class="cls-6" d="M457.88,465.89c-1,1-2,1.94-3.05,2.88C455.85,467.83,456.86,466.87,457.88,465.89Z" transform="translate(-44.16 -87.88)"/><path class="cls-6" d="M483.4,320.28c-30.62-22.17-84.24-3.83-121.17,42C339,391,327.77,424,329.65,450.74c.05.92.13,1.84.23,2.74-.1-.67-.21-1.34-.28-2-4.07-31.47,6.33-72.19,30.88-102.62C397.41,303.06,452.68,297.58,483.4,320.28Z" transform="translate(-44.16 -87.88)"/><path class="cls-6" d="M503.47,382.48c-.3,1.95-.64,3.92-1.06,5.9v-.08C502.82,386.35,503.16,384.4,503.47,382.48Z" transform="translate(-44.16 -87.88)"/><path class="cls-6" d="M503.23,353.25a.15.15,0,0,0,0-.07c-3.07-12.51-8.51-23-16.24-30a1.79,1.79,0,0,1,.25.22,1.94,1.94,0,0,1,.26.23c.17.15.34.3.5.46s.55.53.81.79c7.32,7.23,12.05,16.71,14.29,27.6A6.92,6.92,0,0,1,503.23,353.25Z" transform="translate(-44.16 -87.88)"/><path class="cls-7" d="M503.24,353.29a.08.08,0,0,1,0,0,.15.15,0,0,0,0-.07c-3.07-12.51-8.51-23-16.24-30l-.68-.6a.5.5,0,0,1-.08-.07c-.26-.22-.52-.44-.8-.66,0,0-.07-.05-.09-.08-.57-.46-1.16-.91-1.74-1.35l-.19-.14c-30.62-22.17-84.24-3.83-121.17,42C339,391,327.77,424,329.65,450.74c.05.92.13,1.84.23,2.74,2.26,15,7.9,27.75,17,36,.59.56,1.21,1.09,1.86,1.6.28.23.58.46.87.68a2.69,2.69,0,0,0,.27.2s0,0,.06.05l.13.09.12.09.28.23h0a2.62,2.62,0,0,0,.32.23c30.81,22.8,88,21.33,124.9-24.39a135.56,135.56,0,0,0,22.49-41.55C506.83,401.38,508.41,374.47,503.24,353.29ZM371.6,501.16q1.5.24,3.06.42C373.62,501.46,372.6,501.33,371.6,501.16Zm13.7.72c1.18-.06,2.36-.15,3.54-.26C387.66,501.74,386.48,501.83,385.3,501.88Zm69.53-33.11c1-.94,2-1.9,3.05-2.88C456.86,466.88,455.85,467.83,454.83,468.77Zm47.58-80.39v-.08c.41-1.95.75-3.9,1.06-5.82C503.17,384.43,502.83,386.4,502.41,388.38Zm1.75-11.62c-.11,1.25-.25,2.52-.43,3.79C503.91,379.28,504,378,504.16,376.76Z" transform="translate(-44.16 -87.88)"/><path class="cls-7" d="M346.84,489.52c-9.82-8.81-15.43-21.41-17-36C332.14,468.49,337.78,481.23,346.84,489.52Z" transform="translate(-44.16 -87.88)"/><path class="cls-7" d="M374.66,501.58c-1-.12-2.06-.25-3.06-.42Q373.1,501.4,374.66,501.58Z" transform="translate(-44.16 -87.88)"/><path class="cls-7" d="M388.84,501.62c-1.18.12-2.36.21-3.54.26C386.48,501.82,387.66,501.73,388.84,501.62Z" transform="translate(-44.16 -87.88)"/><path class="cls-7" d="M485.42,321.85s-.07-.05-.09-.08c-.57-.46-1.16-.91-1.74-1.35.58.43,1.17.88,1.74,1.34C485.35,321.79,485.4,321.81,485.42,321.85Z" transform="translate(-44.16 -87.88)"/><path class="cls-7" d="M503.22,353.18c-3.07-12.51-8.51-23-16.24-30l-.68-.6.61.52.32.3a1.94,1.94,0,0,1,.26.23c.17.15.34.3.5.46s.55.53.81.79c7.32,7.23,12.05,16.71,14.29,27.6C503.12,352.71,503.17,353,503.22,353.18Z" transform="translate(-44.16 -87.88)"/><path class="cls-7" d="M374.66,501.58c-1-.12-2.06-.25-3.06-.42Q373.1,501.4,374.66,501.58Z" transform="translate(-44.16 -87.88)"/><path class="cls-7" d="M388.84,501.62c-1.18.12-2.36.21-3.54.26C386.48,501.82,387.66,501.73,388.84,501.62Z" transform="translate(-44.16 -87.88)"/><path class="cls-7" d="M457.88,465.89c-1,1-2,1.94-3.05,2.88C455.85,467.83,456.86,466.87,457.88,465.89Z" transform="translate(-44.16 -87.88)"/><path class="cls-7" d="M503.47,382.48c-.3,1.95-.64,3.92-1.06,5.9v-.08C502.82,386.35,503.16,384.4,503.47,382.48Z" transform="translate(-44.16 -87.88)"/></svg>