<svg id="Livello_1" data-name="Livello 1" xmlns="http://www.w3.org/2000/svg" viewBox="0 0 69.04 85.73"><defs><style>.cls-1{fill:#fff;}</style></defs><title>userplus_fill</title><path d="M317.39,357.8a39.24,39.24,0,0,1,6,9.77v2.27H311.07a5.08,5.08,0,0,0-3.63,1.51,5.14,5.14,0,0,0,3.63,8.78h12.34v6.67H279.12c1.22-12.11,5.26-22.5,10.88-29a26.32,26.32,0,1,1,27.39,0Z" transform="translate(-277.38 -309.01)"/><rect class="cls-1" x="317.8" y="382.76" width="7.82" height="1.74" rx="0.5" transform="translate(-339.31 396.33) rotate(-90)"/><rect class="cls-1" x="315.18" y="363.37" width="13.33" height="2" rx="0.63" transform="translate(-319.91 377.2) rotate(-90)"/><path d="M345.17,375.11c-.2,3.86-5.06,3-7.69,3h-7.15a.64.64,0,0,0-.62.63c0,3.82.05,7.65,0,11.48a3.16,3.16,0,0,1-1.91,3.14,3,3,0,0,1-4.08-2.87c-.07-1.9,0-3.81,0-5.71v-6a.64.64,0,0,0-.63-.63c-3.82,0-7.65,0-11.48,0a3.16,3.16,0,0,1-3.14-1.91,3,3,0,0,1,2.87-4.08c1.9-.07,3.81,0,5.71,0h6a.64.64,0,0,0,.63-.62c0-3.83-.05-7.66,0-11.48a3.17,3.17,0,0,1,1.91-3.15,3,3,0,0,1,4.08,2.87c.07,1.9,0,3.81,0,5.71v6.05a.64.64,0,0,0,.62.62h7.27c2.61,0,7.39-.84,7.57,3,0,.8,1.29.8,1.25,0a4.33,4.33,0,0,0-4.25-4.25c-1.06,0-2.12,0-3.18,0h-8.66l.63.63v-6.17a49.48,49.48,0,0,0,0-6.21,4.27,4.27,0,0,0-8-1.26c-.84,1.76-.41,4.38-.41,6.25v7.39l.62-.63h-6.16a49.48,49.48,0,0,0-6.21,0,4.27,4.27,0,0,0-1.26,8c1.75.84,4.38.41,6.25.41h7.38l-.62-.62v6.16a49.48,49.48,0,0,0,0,6.21,4.27,4.27,0,0,0,8,1.26c.83-1.75.41-4.38.41-6.25v-7.38l-.63.62h8.55c1.09,0,2.18,0,3.27,0a4.33,4.33,0,0,0,4.27-4.24C346.46,374.3,345.21,374.3,345.17,375.11Z" transform="translate(-277.38 -309.01)"/></svg>