<?xml version="1.0" encoding="UTF-8"?>
<svg version="1.1" viewBox="0 0 1502 512" xmlns="http://www.w3.org/2000/svg">
<g transform="matrix(1 0 0 1 0 0)">
<circle class="st0" cx="254" cy="254" r="199"/>
<path class="st1" d="m152.2 98.4c3.7-1.4 7.3 6.5 17.1 10.8 3 1.3 7.3 2.5 11.2 0.9 1.3-0.5 2.4-1.4 2.3-1.9-0.2-1-4.5 0.8-7.3-1.5-1.9-1.5-1.2-3.2-3.2-4.9-2-1.6-4-0.5-4.9-1.8-1.3-1.8 0.4-6.1 3.4-7.5 1.4-0.6 3-0.4 6 0.2 3.8 0.8 6 1.2 8.3 2.8 3.1 2.4 2.4 4.3 5.1 5.5 2.6 1.1 5.6 0.8 7.9-0.9 1.7-1.3 1.7-2.5 3.2-2.8 2-0.5 4.7 1.1 4.9 2.6 0.1 1.8-3.4 3.4-4.1 3.7-3.1 1.3-4.9 0.4-7.5 2.3-1.5 0.8-2.2 2.5-1.4 4 0.1 0.3 0.3 0.6 0.6 0.9 0.3 0.4 1.6 1.7 9.9 1 3.4-0.3 5.3-0.4 6-1.3 2.6-2.4 0.4-6.1 3-8.3 1.8-1.4 4.3-1.5 6.3-0.2 0.9 0.8 1.4 1.7 1.6 2.8 0.5 2.4-0.6 3.2 0 5.3 0.1 0.2 0.8 2.2 2.3 2.5s2.6-1.2 4.3-2.6c2.2-1.8 4.4-3.4 6.9-4.9 6.4-3.6 14.7 0.1 16.4 0.9 3.1 1.2 5.8 3.1 7.9 5.7 1.9 2.2 3.2 4.7 3.9 7.5 0.5 1.9 0.5 4.1 0 6-0.9 3.1-3 5.8-5.9 7.3-3.1 1.4-6.8 1.4-9.9 0-1.8-0.4-3.3-1.6-4.3-3.2-1-1.9-0.9-4.7 0.6-5.9 1-0.8 1.9-0.2 4.1-1.3 0.8-0.4 2-1.1 2-1.8 0-1.2-2.7-1.9-3.7-2.3-2.6-1-5.4-1-8.1-0.2-1.4 0.5-1.8 1-4.6 2-0.9 0.3-1.3 0.4-2.3 0.9-1.7 0.6-2.4 1.1-3.7 1.6-1.9 0.9-4 1.5-6.1 2-1.1 0.3-2.2 0.5-3.2 0.6-1.8 0-3.8-0.2-5.5-0.9-1.7-0.4-8-1.6-13.2 0.9-0.6 0.3-1.3 0.6-1.8 1-3.4 2-5.2 3.1-5.7 4.9-0.3 1.4-0.1 2.9 0.6 4.1 0.5 0.9 1.2 1.5 2 2 0.9 0.6 1.8 1.3 2.8 1.8 0.8 0.3 1.5 0.8 2.3 1.3 2 1.6 2.3 4.4 2.5 5.9s-0.3 1.7-0.2 3.9c0.1 1.7 0.2 3.1 1 3.7 0.8 0.5 2.4 0 3.9-0.6 2.8-1.3 3.1-2.3 5.3-3.4 2.9-1.5 3.6-0.3 6.7-1.8 1.6-0.8 4-1.8 5.1-4.2 1.4-3-0.6-5.1 1.1-8.1 0.6-1.1 1.5-1.9 2.5-2.7 1.6-1.3 3.7-2.2 5.7-2.3 0.4 0 4.7-0.1 6.7 2.6 0.8 1.2 1.2 2.5 1.4 3.9 0.1 1 0.3 1.8 0.6 2.8 0.1 1 0.4 1.8 1 2.6 0.9 0.8 2 1.1 3.2 0.9 3-0.3 4.2-3 5.7-2.5 0.9 0.3 1.2 1.6 1.3 1.8 0.2 0.9-0.1 1.4-0.4 2.8-0.3 1-0.4 1.9-0.4 2.9 0.3 2.5 4.7 2.2 6.9 5.3 1.5 2.3 1.5 5.3 0 7.5-2.4 2.9-8.2 1.6-8.9 1.4-2.3-0.5-2.6-1.3-4.4-1.3-2.8 0.1-3.2 1.8-5.7 2-3 0.2-3.6-2.2-7.1-2.5-2.4-0.1-4.7 0.6-6.7 2-2.3 1.8-3.8 4.3-4.5 7.1-4.2 13.3-39.5 24.5-46.2 31.9-1.6 1.5-2.7 3.4-3.2 5.6-0.3 2 0.3 2.9-0.5 4.1-1.3 1.7-4.3 1.9-6.5 1.2-1.7-0.6-3.1-1.8-4.1-3.3s-0.6-2.2-1.5-3.8c-0.9-1.3-2-2.4-3.3-3.2-4.5-2.8-12.1-0.6-13.6-0.2-2.4 0.6-11.9 3.3-16.8 12.1-1.3 2.2-2.7 4.9-1.8 7.8 1 3 3.7 5.3 6.8 5.8 2.9 0.3 5.9-1.4 8.3-2.7 1.5-0.9 3.2-1.5 5-1.8 1.4-0.4 1.8-0.4 2-0.2 0.6 0.5 0 2.3-1.5 7.3-1.1 3.4-1.3 4.1-0.9 4.7 1.1 1.9 4.2 0.4 6.1 2.3 2.5 2.5-1.4 7 1.3 12.7 0.8 1.7 2 3.2 3.6 4.3 2 1.3 4.5 2 7 2 3.2 0.5 6.5 0.2 9.5-1 4.9-2.2 4.7-5.7 8-6 4.2-0.4 8.2 5.3 8.7 6 2.4 3.6 1.6 5.4 3.7 6.7 2.7 1.6 4.7-1.1 9.4-0.3 4.2 0.6 7 3.4 9.4 5.7 4.2 4.1 3.1 5.8 6.7 8.4 4.3 3.1 6.9 1.4 9.4 4.3 2.3 2.8 0.5 5 2.7 9.7 1.5 3.1 3.8 5.8 6.7 7.7 4.1 2.7 5.8 1.3 13.7 3.3 4.5 1.3 9.2 2.5 13.4 6.4 1.8 1.7 5.6 5.1 5.4 9.7-0.2 2-1 4.1-2.4 5.7-3.3 4.3-6.9 3-9.7 6-4.1 4.4 0.8 9.8-3 18.8-1.1 2.5-2.9 6.8-7 8.7-5.4 2.5-9.2-1.6-14 1.3-3.8 2.3-5.1 6.7-5.4 7.7-1.2 4 0.3 5.3-0.3 8.4-1.1 5.1-6.3 7.8-14.3 12.1-8.4 4.4-12.6 6.7-15.4 7.7-2 0.8-5.6 1.9-6 4.3-0.3 1.9 1.5 2.9 1.3 5.4s-2.3 2.8-3.3 5.1c-1.8 3.9 1.5 9.4 5.4 15.7 3.2 5.3 5.1 6.9 4.3 9.1-1 3.1-6.1 4-6.7 4-4.5 0.6-9.6-1.7-11.4-5.4-0.8-1.6-0.3-2.3-1.6-6-0.4-1.7-1.3-3.2-2.4-4.6-2-2.3-3.7-1.3-5.7-3.3s-2.3-5.3-2.4-7c0-1.2 0.1-1.4 1-6.7 1-5.5 1-6.4 1-7.3-0.1-2-0.4-4.1-1-6-0.9-3.2-1.8-6.4-3-9.4-2-5.2-0.3-9.3 3-28.1 2.5-14.1 2.4-16.4 1.4-18.8-2.5-5.8-6.3-5.2-12.7-12.4-2.5-2.7-9.7-10.8-10.3-22.1-0.1-2.2-0.6-13.5 6.4-20.7 2.9-3 6.8-5 7.3-9.4 0.3-1.9-0.2-3.9-1.3-5.4-1.6-1.7-4-1.7-6-2-4.3-0.5-8.5-1.8-12.4-4-6.5-3.9-3.6-9.7-11-16.7-3-2.7-6.5-4.7-10.3-6-7.2-2.3-9.1 0.5-13-1.3-7.8-3.7-10.9-19-10.3-29.7 0.2-4.7 1.3-10.2-1.7-12.4-1.3-0.9-2.9-1.1-4.3-0.3-2 1.4-1.6 5.7-0.6 8.4 0.8 2.2 1.5 2.3 1.7 4 0.2 2-0.5 5.1-2.7 6-2.5 1.3-5.7-0.6-7.3-2.7-2.4-2.9-1.8-7-1.4-11 0.2-1.9 0.5-3 1-6.7 0.4-3.3 0.3-4.5 0-5.7-0.4-1.5-1.1-1.9-3-4.6-3.2-5.2-0.4-12.5 0.9-15.7 7.5-18.5 27.8-40.7 27.9-40.7 18.2-19.8 29.1-29 35-26.1 2.5 1.3 5.5 5.3 8.5 4.3 0.3-1.3 0.2-2.4 1.5-3z"/>
<path class="st1" d="m451.6 259.3c-0.1 3.1-0.2 6.1-0.4 9.3-7.2 42.5-11.3 56.3-25.2 82.5-1.3 1.7-2.7 3.7-4.4 5.8-2.8 3.8-6.4 8.3-10.8 13.9s-7.5 9.6-9.4 8.8c-1.4-0.5-1.5-3-1.9-7.9-0.6-7.1 0.5-8.1-0.5-12.3-1.1-4.5-2.5-4.3-3-8.4-0.3-2.8 0.2-3.4 0.5-8.8 0.2-5.8-0.4-5.6 0-7.9 1.2-6.3 5.7-6.6 6.4-11.3 0.8-5.1-4.2-5.9-5.4-13.4-1.2-7.1 2.9-9.8 0.5-14.8-2.2-4.5-7.1-6.1-7.9-6.4-5.1-1.6-7.8 1-16.3 1.9-4.4 0.5-8.5 1.1-12.8 0-9.2-2.3-18.8-11.3-18.2-19.7 0.3-5.5 4.9-7 5-14.8 0-3.6-0.9-4.6 0-7.9 1-3.6 3-6.7 5.9-8.8 3.7-2.8 5.2-1.5 8.8-4 4.7-3.2 3.6-6.4 7.4-9.4 4.1-3.2 9.2-2.6 19.2-1.5 7.7 0.9 11.5 1.3 14.8 4.4s2.2 5.4 5.9 8.4c3.3 2.6 7.7 3.9 11.9 3.4 4-0.5 4.7-2.5 7.9-1.9 3.1 0.5 3.7 2.4 6.9 4 4.5 2.3 7.2-0.6 10.3 1.5 0.6 0.4 2 1.5 3.4 5.6 0.3 1 0.6 2 1 3v0.2c0.5 2.1 0.2 4.4 0.4 6.5z"/>
<path class="st1" d="m449.6 223.6-0.3 0.6c-0.5 0.4-1.1 0.8-1.7 0.9-3.2 1-6.3-0.8-8.3-1.7-1.9-0.6-3.6-1.9-4.7-3.6-2.4-3.8 0-8.4-1.2-8.9-1-0.4-2.6 2.4-5.9 5.6-2 2-7.3 7.1-9.5 5.9-2.8-1.4 2.3-11.2-1.2-22.3-1-2.9-2.5-5.6-4.4-8-2.5-3-4.4-3.7-5.1-3.9h-0.3c-1.6-0.4-3.2-0.4-4.9 0-2 0.4-5 1-5.6 3-0.1 0.2-0.2 0.5-0.2 0.9 0.2 1.4 0.8 2.8 1.6 4 1.3 2 3.2 3.7 5.6 4.4 3.4 1 5.3-1 6.8 0.3s0.2 3.1 1.5 6.8c0.9 2.2 2 4.2 3.6 5.9-0.6-0.6-1.3-1.3-2-1.7-1.7-0.9-4.1-1-4.7 0-0.8 1.3 1.8 3.1 1.2 4.4s-4.4 1-7.4 0.6c-0.8-0.1-7.8-1-7.8-2.4s5.5-1 7.1-4.4c0.4-1 0.6-2.2 0.3-3.2-1-2.8-4.6-1.9-7.8-5.1-3.1-3.1-2-6.4-4.4-7.1-1.8-0.6-2.7 1.4-6.6 2.4-4.3 1.2-5.5-0.9-8.9 0.3s-3.1 3-7.4 6.3c-2.8 2-6 3.6-9.5 4.4-4.1 1.4-8.6 1.5-12.8 0.3-2.3-0.8-6.6-2.2-8.6-6.3-2.5-4.9-1.1-11.9 2.7-14 5.1-2.9 11.3 4.9 17.6 1.5 2-1.3 3.8-3.1 4.7-5.4 2.3-4.4 0.5-7.5 2.7-9.2 2.2-1.6 4.3 0.9 8.3-0.6 2.9-1.1 4.5-3.3 5.9-5.4 3.4-4.7 2.5-7.8 5.1-8.9 1.9-0.9 2.8 0.6 6.3 0.9h1.3c1 0 2-0.1 3-0.2 1.9-0.3 4.2-1.2 5-3 0.6-1.6 0.3-3.4-0.9-4.7-1.4-1.2-3-0.4-5.1-0.2-1 0.1-2 0-3-0.3-0.2-0.1-0.3-0.1-0.5-0.2-2.8-1.5-4.3-5.2-4.5-8.1-0.2-4.2 1.8-8.2 5.4-10.5 0.3-0.2 0.8-0.3 1.2-0.4l0.4-0.1c3.4-1 6.6 0.6 8.8-1.7 1.7-1.8 0.9-3.9 2-4.4 0.9-0.4 2.2 0.1 3.7 1.3 1.3 1 2.5 2 3.6 3.2 2.7 2.9 5.2 6 7.5 9.2 1.4 1.8 2.6 3.7 3.8 5.4 0.1 0.2 0.2 0.4 0.4 0.5 2.4 3.7 4.3 7 6 10.1 1.3 2.3 2.3 4.3 3.2 6.1 1.8 3.6 3.3 6.7 4.5 9.3 0.3 0.6 0.5 1.2 0.9 1.8 0.9 2 1.5 3.6 1.9 4.5 0.2 0.5 0.8 1.9 1.6 3.9 0 0.1 0.1 0.1 0.1 0.2 0.4 1.2 1 2.6 1.5 4.1 1 2.8 2.2 6 3.1 9.5 0.5 1.8 1.1 3.8 2.2 7.5 0.6 1.9 1.1 4 1.5 6 0.4 2.5 0.2 2.5 0.6 5.1 0.4 4.8 1.6 7.3 1 8.8z"/>
<path class="st2" d="m235.6 451.6c-16.4-7.5-31.6-17.5-45.2-29.3l-0.1-0.1c-8.2-7.3-15.8-15.3-22.6-23.9l-0.1-0.1c-29.9-37.6-45.7-87.3-41.2-142.5 0.3-4.6 0.9-9.3 1.6-13.9 0.6-4.6 1.5-9.2 2.6-13.7v-0.1c1.8-8.4 4.3-16.6 7.3-24.7v-0.1c26.7-72.1 92.7-122.1 169.3-128.6 9.7-0.9 19.5-1 29.2-0.4-22.3-10.3-46.3-16.4-70.8-17.9-9.6-0.5-19.3-0.3-28.9 0.6-11.7 1-23.5 3-34.9 6l-1.5 0.4-1.1 0.3c-24.8 6.9-47.9 18.8-68.1 34.6l-0.2 0.1c-11.6 9.1-22.3 19.3-31.6 30.7l-0.1 0.2c-1.1 1.3-2 2.6-3 3.8l-0.6 0.8c-0.9 1.2-1.8 2.4-2.7 3.6-0.1 0.2-0.3 0.3-0.4 0.5-6.4 8.8-12.1 18.1-16.9 27.9l-0.1 0.4c-11.1 22.4-17.9 46.8-19.8 71.8-0.5 5.8-0.8 11.5-0.8 17.1 0.6 103.2 79.8 187.6 180.7 196.5z"/>
<path class="st3" d="m492.1 116.5c-1 6.1-3 12-6.1 17.4-0.3 0.5-0.6 1.1-1.1 1.6-3.7 5.4-8.1 10.1-13.2 14.2-3.8 3.1-7.8 6-11.9 8.6-0.1 0.1-0.2 0.1-0.4 0.2-7.8 5-15.8 9.4-24.3 13.3l-0.2 0.1c-6.5 3-12.5 5.6-17.6 7.5-8.3 3.2-14 5.2-14.8 5.4-0.2 0.1-0.5 0.1-0.8 0.2-0.5 0.1-1.1 0.1-1.5-0.1-0.4-0.1-0.9-0.2-1.3-0.4h-0.1c-1.1-0.6-1.8-1.7-2.2-2.9-1.4-7-2.5-14-3.3-21l-0.9-8.1c-0.4-4.2-0.8-8.5-1-12.7l-0.3-6.9v-5.9c0-5.7 0.3-11.5 1.1-17.2 0.4-3.4 1.1-6.9 1.8-10.3 1.2-5.4 3.1-10.6 5.8-15.4 3.4-5.9 8.1-11.1 13.7-15.2 22.2-16.2 53.2-11.2 69.4 11 3.1 4.3 5.6 9.2 7.2 14.2v0.1l0.6 2.4c0.1 0.4 0.2 0.9 0.3 1.2 0.2 0.9 0.4 1.8 0.5 2.7 0.1 0.5 0.2 1 0.2 1.5l0.3 3c0.8 3.8 0.7 7.6 0.1 11.5z"/>
<path class="st4" d="m492.1 116.5c-1 6.1-3 12-6.1 17.4-0.3 0.5-0.6 1.1-1.1 1.6-3.7 5.4-8.1 10.1-13.2 14.2-3.8 3.1-7.8 6-11.9 8.6-0.1 0.1-0.2 0.1-0.4 0.2-7.8 5-15.8 9.4-24.3 13.3l-0.2 0.1c-6.5 3-12.5 5.6-17.6 7.5-8.3 3.2-14 5.2-14.8 5.4-0.2 0.1-0.5 0.1-0.8 0.2-0.5 0.1-1.1 0.1-1.5-0.1-0.4-0.1-0.9-0.2-1.3-0.4h-0.1l22.2-38.3 0.4-0.6 4.3-7.3 4.5-7.8 7.1-12.2 0.2-0.3 0.3-0.5 0.1-0.1 0.3-0.4 4-6.9 3.3-5.7 9.7-16.6 0.1-0.2v-0.1l12.7-21.3c10.7 6.3 18.6 16.2 22.4 27.9v0.1l0.6 2.4c0.1 0.4 0.2 0.9 0.3 1.2 0.2 0.9 0.4 1.8 0.5 2.7 0.1 0.5 0.2 1 0.2 1.5l0.3 3c0.5 3.9 0.4 7.8-0.2 11.5z"/>
<path class="st5" d="m430.4 130.5c-12-6.9-16-22.2-9.1-34.2s22.2-16 34.2-9.1 16 22.2 9.1 34.2c-6.9 11.9-22.2 16-34.2 9.1z"/>
<path class="st6" d="m455.5 87.3-25.1 43.1c12 6.9 27.3 2.8 34.2-9.2 6.7-11.6 3-26.5-8.3-33.6-0.2-0.1-0.5-0.2-0.8-0.3z"/>
<path class="st7" d="m510.69 229.06c5.097-17.69-5.097-36.279-22.786-41.476-3.8976-13.392-8.7947-26.285-14.891-38.877-0.89946 0.79953-1.7989 1.4991-2.8982 2.3986-1.3991 1.1993-2.8982 2.2986-4.3974 3.2981 0-0.0999-0.0999-0.0999-0.0999-0.1999-10.494 6.9959-25.285 14.891-31.581 17.989 44.972 99.841 0.49969 217.37-99.34 262.25-25.484 11.493-53.268 17.49-81.351 17.59-109.43-0.0999-198.18-88.848-198.18-198.38 0-109.53 88.847-198.18 198.28-198.08 51.769 0 101.54 20.388 138.62 56.567 0.9994-10.294 4.2974-22.887 9.4943-30.582 7.7953-11.793 19.988-19.588 33.779-21.787-3.7977-1.2992-7.8953-1.8989-11.893-1.7989-6.7959-0.09994-13.492 1.9988-19.088 5.8965-11.193-8.7948-23.286-16.69-35.878-23.386 0.89946-1.5991 1.4991-3.2981 1.9988-5.1969 4.0975-14.791-4.4972-30.082-19.288-34.18-2.3985-0.59965-4.7972-0.99941-7.1957-1.0994-12.292-0.099941-23.586 7.8954-26.983 20.288-54.468-14.292-112.23-9.1946-163.3 14.591-8.295-12.193-24.785-15.291-36.977-6.9959-10.194 6.9959-14.291 20.088-9.7941 31.581-11.893-6.3962-26.584-1.8989-32.98 9.8942-4.0975 7.6955-3.8976 16.99 0.79952 24.486-10.693 11.993-19.988 24.985-28.083 38.777-3.9976-0.89947-7.9952-1.2992-12.093-1.2992-18.988 0-34.379 9.1946-34.379 20.388 0 9.9942 12.093 18.389 27.983 20.088-3.8976 10.694-6.9958 21.687-9.2944 32.781-10.594 1.3992-18.888 16.19-18.888 34.28 0 15.391 5.9964 28.583 14.291 32.881 1.599 23.986 6.9958 47.772 15.69 70.259-14.391 1.8989-24.685 15.291-22.686 29.882 0.59964 4.9971 2.6983 9.6943 5.8965 13.492-8.0951 4.6972-12.992 11.193-12.992 18.289 0 14.691 20.887 26.484 46.771 26.484 13.492 0 25.784-3.2981 34.279-8.495 18.089 18.989 39.176 34.78 62.463 46.972-0.0999 0.79953-0.0999 1.3992-0.0999 2.1987 0 14.691 11.893 26.584 26.584 26.584 8.1951 0 15.79-3.7978 20.887-10.094 20.787 5.6966 42.374 8.595 63.962 8.595h0.19988c-0.0999 0.49971-0.19988 0.99941-0.19988 1.4991 0 8.0952 15.491 14.591 34.579 14.591s34.579-6.4962 34.579-14.591c0-3.6978-2.9982-6.896-8.0951-9.3945 42.374-11.093 80.851-33.48 111.43-64.862 4.997 6.5961 16.09 11.093 29.082 11.093 17.489 0 31.681-8.2951 31.681-18.489 0-6.4962-5.6966-12.193-14.291-15.491 1.7989-2.6984 2.8982-5.7966 2.8982-9.0946 0-6.896-4.6972-12.992-12.292-17.19 16.29-28.483 26.484-59.765 30.182-92.346 7.9952-2.8983 13.292-10.494 13.292-18.989-0.0999-6.5961-3.0981-12.792-8.295-16.89 5.1968-4.4974 8.9946-10.294 10.893-16.69z"/>
</g>
<g transform="matrix(1 0 0 1 12 .0034374)" aria-label="World is Awesome .fun">
<path d="m837.93 176c-2.0429 0-3.649 0.49603-4.8164 1.4883-1.109 0.99225-1.6641 2.4233-1.6641 4.291 0 1.8094 0.55508 3.2384 1.6641 4.2891 1.1674 0.99225 2.7735 1.4883 4.8164 1.4883 4.3192 0 6.4785-1.9251 6.4785-5.7773s-2.1593-5.7793-6.4785-5.7793zm-282.53 0.70117c-2.1596 0-3.7068 0.6417-4.6406 1.9258-0.87551 1.2841-0.99165 2.8588-0.34961 4.7266l18.297 51.744c1.109 3.1518 3.1522 4.7266 6.1289 4.7266 1.5759 0 2.8022-0.37794 3.6777-1.1367 0.93388-0.75877 1.6917-1.926 2.2754-3.502l14.359-40.625 14.271 40.537c0.58367 1.6343 1.3415 2.8311 2.2754 3.5898 0.93388 0.75878 2.1897 1.1367 3.7656 1.1367s2.8298-0.37794 3.7637-1.1367c0.93388-0.75877 1.6937-1.926 2.2773-3.502l18.473-51.832c0.64204-1.8678 0.5259-3.4425-0.34961-4.7266-0.87552-1.2841-2.2475-1.9258-4.1152-1.9258-1.5176 0-2.7143 0.37794-3.5898 1.1367s-1.5762 1.8985-2.1016 3.416l-14.445 42.287-14.447-42.113c-0.58368-1.6343-1.2825-2.8311-2.0996-3.5898-0.81714-0.75878-1.9273-1.1367-3.3281-1.1367-2.6265 0-4.4945 1.5452-5.6035 4.6387l-14.709 41.588-14.008-41.674c-0.52531-1.5759-1.226-2.7156-2.1016-3.416-0.87551-0.75878-2.0999-1.1367-3.6758-1.1367zm178.78 0c-3.6188 0-5.4297 1.8385-5.4297 5.5156v41.41c0 10.915 4.8737 16.373 14.621 16.373 1.2841 0 2.5399-0.0866 3.7656-0.26172 1.3424-0.1751 2.305-0.67309 2.8887-1.4902 0.58367-0.81715 0.875-1.9549 0.875-3.4141 0-1.6927-0.14567-2.8009-0.4375-3.3262-0.29184-0.58367-0.84497-0.8179-1.6621-0.70117-0.40858 0.0583-0.81799 0.11738-1.2266 0.17578h-1.3125c-4.3776 0-6.5664-2.6258-6.5664-7.8789v-40.887c0-3.6772-1.8385-5.5156-5.5156-5.5156zm57.695 0c-3.6188 0-5.4277 1.8385-5.4277 5.5156v20.574c-1.2257-2.218-3.0642-3.9994-5.5156-5.3418s-5.1954-2.0137-8.2305-2.0137c-3.7355 0-7.0326 0.90545-9.8926 2.7148-2.8016 1.8094-4.9905 4.3781-6.5664 7.7051-1.5759 3.2686-2.3652 7.2073-2.3652 11.818 0 4.5527 0.78931 8.5229 2.3652 11.908 1.5759 3.327 3.7648 5.8937 6.5664 7.7031 2.86 1.8094 6.1571 2.7148 9.8926 2.7148 3.0935 0 5.8669-0.67122 8.3184-2.0137 2.4514-1.4008 4.2899-3.2688 5.5156-5.6035v1.8379c0 3.7355 1.809 5.6035 5.4277 5.6035 3.6188 0 5.4277-1.868 5.4277-5.6035v-52.004c0-3.6772-1.8385-5.5156-5.5156-5.5156zm156.37 0c-1.4008 0-2.6566 0.37794-3.7656 1.1367-1.0506 0.70041-1.9561 1.8972-2.7148 3.5898l-23.113 51.219c-0.93384 1.9845-0.96339 3.6773-0.0879 5.0781 0.87552 1.4008 2.336 2.0996 4.3789 2.0996 1.5176 0 2.6848-0.37794 3.502-1.1367 0.81714-0.75877 1.6045-1.9851 2.3633-3.6777l4.291-10.156h30.117l4.377 10.156c0.70041 1.6343 1.4878 2.8606 2.3633 3.6777 0.93388 0.75878 2.2192 1.1367 3.8535 1.1367 1.9845 0 3.386-0.67122 4.2031-2.0137 0.81715-1.4008 0.7581-3.1212-0.17578-5.1641l-23.201-51.219c-0.75877-1.6926-1.6938-2.8894-2.8027-3.5898-1.0506-0.75878-2.2454-1.1367-3.5879-1.1367zm441.61 0.4375-2.9766 0.26172c-5.7201 0.52531-10.098 2.3067-13.133 5.3418-3.0352 2.9767-4.5528 7.4706-4.5528 13.482v0.0879h-4.0273c-2.9184 0-4.3768 1.372-4.377 4.1152 1e-4 2.7433 1.4586 4.1133 4.377 4.1133h4.0273v29.68c0 3.7355 1.8385 5.6035 5.5157 5.6035 3.6188 0 5.4277-1.868 5.4277-5.6035v-29.68h7.4414c2.9184 0 4.3789-1.372 4.3789-4.1152s-1.4605-4.1133-4.3789-4.1133h-7.4414v-1.8398c0-2.9768 0.7598-5.1951 2.2773-6.6543 1.5176-1.4592 3.9387-2.3036 7.2657-2.5371l1.2265-0.0879c1.109-0.11673 1.9554-0.58324 2.5391-1.4004 0.584-0.87551 0.8458-1.84 0.7871-2.8906 0-1.109-0.3504-2.042-1.0508-2.8008s-1.8085-1.0796-3.3261-0.96289zm-441.78 12.432h0.17578l11.119 26.354h-22.414zm-284.54 5.8652c-4.4359 0-8.2881 0.90545-11.557 2.7148s-5.8078 4.3781-7.6172 7.7051-2.7148 7.2657-2.7148 11.818c0 4.5527 0.90545 8.5229 2.7148 11.908 1.8094 3.327 4.3486 5.8937 7.6172 7.7031s7.1207 2.7148 11.557 2.7148 8.288-0.90545 11.557-2.7148c3.2686-1.8094 5.8078-4.3762 7.6172-7.7031 1.8094-3.3853 2.7148-7.3555 2.7148-11.908 0-4.5527-0.90545-8.4914-2.7148-11.818-1.8094-3.327-4.3486-5.8957-7.6172-7.7051s-7.1207-2.7148-11.557-2.7148zm55.07 0c-6.8874 0.58368-11.383 3.3866-13.484 8.4062v-2.7148c0-3.6772-1.7794-5.5156-5.3398-5.5156s-5.3398 1.8385-5.3398 5.5156v33.094c0 3.7355 1.866 5.6035 5.6016 5.6035 3.6772 0 5.5176-1.868 5.5176-5.6035v-18.123c0-6.6539 3.5884-10.331 10.768-11.031l1.9258-0.17383c3.3269-0.3502 4.8446-2.0725 4.5527-5.166-0.29183-3.1518-1.6914-4.5828-4.2012-4.291zm153.21 0c-3.5604 0-6.7118 0.55507-9.4551 1.6641-2.7433 1.109-4.9026 2.6856-6.4785 4.7285-1.5176 2.0429-2.2774 4.464-2.2774 7.2656 0 6.3037 3.7065 10.156 11.119 11.557l8.7559 1.6641c3.6188 0.70042 5.4277 2.2771 5.4277 4.7285 0 1.5759-0.70076 2.8593-2.1016 3.8516-1.3425 0.93388-3.4132 1.4004-6.2148 1.4004-1.9845 0-3.9982-0.20275-6.041-0.61133-2.0429-0.46694-4.2317-1.2562-6.5664-2.3652-1.2257-0.58368-2.3064-0.67029-3.2402-0.26172-0.87553 0.40857-1.5172 1.0798-1.9258 2.0137-0.35016 0.87552-0.37971 1.8381-0.0879 2.8887 0.29184 0.99226 1.0516 1.8387 2.2774 2.5391 2.218 1.2841 4.7276 2.1895 7.5293 2.7148s5.457 0.78711 7.9668 0.78711c5.5449 0 9.9797-1.1968 13.307-3.5898 3.327-2.4514 4.9922-5.8075 4.9922-10.068 0-3.1518-0.99402-5.6615-2.9785-7.5293-1.9261-1.8678-4.7842-3.1512-8.5781-3.8516l-8.7559-1.6641c-3.327-0.58369-4.9902-2.1604-4.9902-4.7285 0-1.6343 0.67122-2.9472 2.0137-3.9394 1.4008-0.99225 3.5306-1.4883 6.3906-1.4883 1.5176 0 3.0942 0.20471 4.7285 0.61329 1.6927 0.40857 3.4426 1.0798 5.252 2.0137 1.2257 0.58367 2.3064 0.69981 3.2402 0.34961 0.93388-0.40858 1.6051-1.0503 2.0137-1.9258 0.46694-0.93388 0.58307-1.8964 0.34961-2.8887-0.1751-1.0506-0.8168-1.8675-1.9258-2.4512-4.0274-2.2763-8.6098-3.416-13.746-3.416zm205.04 0c-4.1441 0-7.8506 0.96449-11.119 2.8906-3.2102 1.8678-5.7494 4.4641-7.6172 7.791-1.8094 3.327-2.7129 7.2086-2.7129 11.645 0 4.5527 0.933 8.4934 2.8008 11.82 1.9262 3.327 4.6406 5.8937 8.1426 7.7031 3.5021 1.8094 7.675 2.7148 12.52 2.7148 2.2764 0 4.729-0.29133 7.3555-0.875 2.6849-0.64204 5.0489-1.6065 7.0918-2.8906 1.3425-0.81715 2.1593-1.7797 2.4512-2.8887 0.3502-1.1674 0.2911-2.2185-0.1758-3.1523-0.4086-0.93388-1.1389-1.546-2.1895-1.8379-1.0506-0.35021-2.3339-0.0864-3.8515 0.78906-1.6926 0.93388-3.5016 1.6051-5.4278 2.0137-1.8678 0.35021-3.5606 0.52539-5.0781 0.52539-7.938 0-12.316-3.8246-13.133-11.471h26.44c2.8016 0 4.2031-1.0787 4.2031-3.2383 0-6.6539-1.7795-11.908-5.3399-15.76-3.502-3.8523-8.2891-5.7793-14.359-5.7793zm45.352 0c-3.5604 0-6.7118 0.55507-9.4551 1.6641-2.7432 1.109-4.9025 2.6856-6.4785 4.7285-1.5175 2.0429-2.2773 4.464-2.2773 7.2656 0 6.3037 3.7065 10.156 11.119 11.557l8.7559 1.6641c3.6188 0.70042 5.4277 2.2771 5.4277 4.7285 0 1.5759-0.7007 2.8593-2.1015 3.8516-1.3425 0.93388-3.4152 1.4004-6.2168 1.4004-1.9845 0-3.9982-0.20275-6.0411-0.61133-2.0428-0.46694-4.2317-1.2562-6.5664-2.3652-1.2257-0.58368-2.3044-0.67029-3.2382-0.26172-0.8756 0.40857-1.5172 1.0798-1.9258 2.0137-0.3499 0.87552-0.3797 1.8381-0.088 2.8887 0.2918 0.99226 1.0516 1.8387 2.2773 2.5391 2.218 1.2841 4.7277 2.1895 7.5293 2.7148 2.8017 0.52531 5.457 0.78711 7.9668 0.78711 5.545 0 9.9797-1.1968 13.307-3.5898 3.3269-2.4514 4.9902-5.8075 4.9902-10.068 0-3.1518-0.9921-5.6615-2.9766-7.5293-1.9261-1.8678-4.7861-3.1512-8.58-3.8516l-8.7539-1.6641c-3.327-0.58369-4.9922-2.1604-4.9922-4.7285 0-1.6343 0.6712-2.9472 2.0136-3.9394 1.4008-0.99225 3.5326-1.4883 6.3926-1.4883 1.5175 0 3.0922 0.20471 4.7266 0.61329 1.6926 0.40857 3.4445 1.0798 5.2539 2.0137 1.2257 0.58367 2.3063 0.69981 3.2402 0.34961 0.9339-0.40858 1.6052-1.0503 2.0137-1.9258 0.4669-0.93388 0.5831-1.8964 0.3496-2.8887-0.1751-1.0506-0.8168-1.8675-1.9258-2.4512-4.0273-2.2763-8.6097-3.416-13.746-3.416zm45.264 0c-4.4359 0-8.288 0.90545-11.557 2.7148s-5.8078 4.3781-7.6172 7.7051-2.7129 7.2657-2.7129 11.818c0 4.5527 0.9035 8.5229 2.7129 11.908 1.8094 3.327 4.3486 5.8937 7.6172 7.7031s7.1207 2.7148 11.557 2.7148 8.2881-0.90545 11.557-2.7148c3.2686-1.8094 5.8078-4.3762 7.6172-7.7031 1.8094-3.3853 2.7149-7.3555 2.7149-11.908 0-4.5527-0.9055-8.4914-2.7149-11.818s-4.3486-5.8957-7.6172-7.7051c-3.2685-1.8094-7.1207-2.7148-11.557-2.7148zm54.982 0c-2.9767 0-5.6026 0.67122-7.8789 2.0137-2.2763 1.2841-4.0577 3.095-5.3418 5.4297v-1.752c0-3.6772-1.7794-5.5156-5.3398-5.5156s-5.3399 1.8385-5.3399 5.5156v33.094c0 3.7355 1.809 5.6035 5.4278 5.6035 3.6772 0 5.5156-1.868 5.5156-5.6035v-18.822c0-3.5604 0.8169-6.3339 2.4512-8.3184 1.6343-2.0429 3.8821-3.0644 6.7421-3.0645 2.5098 0 4.2893 0.7598 5.3399 2.2774 1.109 1.5176 1.6641 3.9111 1.6641 7.1797v20.748c0 3.7355 1.8384 5.6035 5.5156 5.6035 3.6188 0 5.4277-1.868 5.4277-5.6035v-18.822c0-3.5604 0.8169-6.3339 2.4512-8.3184 1.6343-2.0429 3.8822-3.0644 6.7422-3.0645 2.5681 0 4.3771 0.7598 5.4277 2.2774 1.109 1.5176 1.6641 3.9111 1.6641 7.1797v20.748c0 3.7355 1.8089 5.6035 5.4277 5.6035 3.6771 0 5.5156-1.868 5.5156-5.6035v-21.186c0-11.732-4.8147-17.6-14.445-17.6-3.2103 0-6.0703 0.75978-8.5801 2.2773-2.5098 1.4592-4.4369 3.5024-5.7793 6.1289-1.9845-5.6033-6.187-8.4062-12.607-8.4062zm71.793 0c-4.1441 0-7.8506 0.96449-11.119 2.8906-3.2102 1.8678-5.7493 4.4641-7.6171 7.791-1.8094 3.327-2.7149 7.2086-2.7149 11.645 0 4.5527 0.935 8.4934 2.8028 11.82 1.926 3.327 4.6386 5.8937 8.1406 7.7031s7.6769 2.7148 12.522 2.7148c2.2763 0 4.7269-0.29133 7.3535-0.875 2.6848-0.64204 5.0489-1.6065 7.0918-2.8906 1.3424-0.81715 2.1593-1.7797 2.4511-2.8887 0.3502-1.1674 0.2912-2.2185-0.1757-3.1523-0.4086-0.93388-1.1369-1.546-2.1875-1.8379-1.0506-0.35021-2.336-0.0864-3.8536 0.78906-1.6926 0.93388-3.5016 1.6051-5.4277 2.0137-1.8678 0.35021-3.5606 0.52539-5.0781 0.52539-7.938 0-12.316-3.8246-13.133-11.471h26.441c2.8016 0 4.2031-1.0787 4.2031-3.2383 0-6.6539-1.7814-11.908-5.3418-15.76-3.5021-3.8523-8.2872-5.7793-14.357-5.7793zm179.57 0c-3.0935 0-5.8945 0.64364-8.4043 1.9277-2.4514 1.2841-4.408 3.1501-5.8672 5.6016v-1.8379c0-3.6772-1.7794-5.5156-5.3398-5.5156-3.5605 0-5.3399 1.8385-5.3399 5.5156v33.094c0 3.7355 1.809 5.6035 5.4278 5.6035 3.6771 0 5.5156-1.868 5.5156-5.6035v-19.172c0-3.327 0.933-5.9843 2.8008-7.9688 1.9261-2.0429 4.4948-3.0644 7.705-3.0645 2.6266 0 4.5536 0.7598 5.7793 2.2774 1.2841 1.5176 1.9258 3.9387 1.9258 7.2656v20.662c0 3.7355 1.8385 5.6035 5.5156 5.6035 3.6188 0 5.4278-1.868 5.4278-5.6035v-21.186c0-11.732-5.0489-17.6-15.146-17.6zm-487.66 0.17578c-2.1596 0-3.6772 0.70074-4.5527 2.1016-0.81718 1.4008-0.84666 3.1232-0.0879 5.166l12.695 32.393c1.1674 3.0351 3.2696 4.5527 6.3047 4.5527 3.0935 0 5.1937-1.5452 6.3027-4.6387l8.7559-23.641 8.9297 23.727c1.109 3.0351 3.2112 4.5527 6.3047 4.5527 2.9767 0 5.077-1.5176 6.3027-4.5527l12.607-32.393c0.7588-1.8678 0.8179-3.531 0.1758-4.9902-0.642-1.5176-2.014-2.2773-4.1152-2.2773-1.1091 0-2.1307 0.29132-3.0645 0.875-0.8755 0.58367-1.6058 1.6643-2.1894 3.2402l-9.7168 26.879-9.8946-27.316c-0.8754-2.4514-2.5387-3.6777-4.9902-3.6777-2.3931 0-4.0564 1.2263-4.9902 3.6777l-9.8926 27.053-9.6309-26.354c-0.58367-1.6927-1.2844-2.8304-2.1016-3.4141-0.81715-0.64204-1.8683-0.96289-3.1523-0.96289zm417.18 0c-3.6188 0-5.4278 1.8385-5.4278 5.5156v21.188c0 11.79 5.2537 17.686 15.76 17.686 5.8951 0 10.271-2.4231 13.131-7.2676v1.4883c0 3.7355 1.7813 5.6035 5.3418 5.6035 3.5604 0 5.3398-1.868 5.3398-5.6035v-33.094c0-3.6772-1.8385-5.5156-5.5156-5.5156-3.6188 0-5.4278 1.8385-5.4278 5.5156v19.262c0 3.327-0.9329 6.0118-2.8007 8.0547-1.8678 1.9845-4.2613 2.9766-7.1797 2.9766-2.6849 0-4.6415-0.73026-5.8672-2.1894s-1.8379-3.7051-1.8379-6.7402v-21.363c0-3.6772-1.8385-5.5156-5.5156-5.5156zm-565.4 0.0879c-3.6188 0-5.4297 1.9841-5.4297 5.9531v32.131c0 1.8678 0.46847 3.3283 1.4024 4.3789 0.93388 1.0506 2.2763 1.5762 4.0273 1.5762 1.8094 0 3.1794-0.52556 4.1133-1.5762 0.93388-1.0506 1.4024-2.5112 1.4024-4.3789v-32.131c0-3.969-1.8385-5.9531-5.5156-5.9531zm239.36 7.1797c3.0934 0 5.4869 0.96253 7.1797 2.8887 1.7509 1.8678 2.743 4.5822 2.9765 8.1426h-21.537c0.4085-3.3853 1.6053-6.0702 3.5898-8.0547s4.5808-2.9766 7.7911-2.9766zm217.39 0c3.0935 0 5.487 0.96253 7.1797 2.8887 1.751 1.8678 2.7431 4.5822 2.9765 8.1426h-21.539c0.4085-3.3853 1.6053-6.0702 3.5898-8.0547s4.5827-2.9766 7.793-2.9766zm-631.16 0.875c3.2686 0 5.8944 1.1672 7.8789 3.502 1.9845 2.2763 2.9766 5.7486 2.9766 10.418 0 4.611-0.99207 8.1128-2.9766 10.506-1.9845 2.3347-4.6103 3.5039-7.8789 3.5039s-5.8944-1.1692-7.8789-3.5039c-1.9845-2.3931-2.9766-5.8948-2.9766-10.506 0-4.6694 0.99206-8.1416 2.9766-10.418 1.9845-2.3347 4.6103-3.502 7.8789-3.502zm112.24 0c3.2686 0 5.8944 1.1672 7.8789 3.502 1.9845 2.2763 2.9766 5.7486 2.9766 10.418 0 4.611-0.99207 8.1128-2.9766 10.506-1.9845 2.3347-4.6103 3.5039-7.8789 3.5039s-5.8944-1.1692-7.8789-3.5039c-1.9845-2.3931-2.9766-5.8948-2.9766-10.506 0-4.6694 0.99207-8.1416 2.9766-10.418 1.9845-2.3347 4.6103-3.502 7.8789-3.502zm391.7 0c3.2685 0 5.8963 1.1672 7.8809 3.502 1.9844 2.2763 2.9765 5.7486 2.9765 10.418 0 4.611-0.9921 8.1128-2.9765 10.506-1.9846 2.3347-4.6124 3.5039-7.8809 3.5039-3.2686 0-5.8944-1.1692-7.8789-3.5039-1.9845-2.3931-2.9766-5.8948-2.9766-10.506 0-4.6694 0.9921-8.1416 2.9766-10.418 1.9845-2.3347 4.6103-3.502 7.8789-3.502zm184.12 22.852c-1.9845 0-3.5907 0.61218-4.8164 1.8379-1.1674 1.1674-1.75 2.685-1.75 4.5527 0 1.9261 0.5826 3.5028 1.75 4.7285 1.2257 1.2257 2.8319 1.8379 4.8164 1.8379 2.0429 0 3.6176-0.61217 4.7266-1.8379 1.1673-1.2257 1.7519-2.8024 1.7519-4.7285 0-1.8678-0.5846-3.3854-1.7519-4.5527-1.109-1.2257-2.6837-1.8379-4.7266-1.8379z" fill="#dedede"/>
</g>
<g transform="matrix(1 0 0 1 12.00 .0037949)" aria-label="Pin your World">
<path d="m759.62 276c-0.85428 0-1.4585 0.24971-1.8144 0.74805-0.35595 0.49833-0.40932 1.1388-0.16016 1.9219l11.799 33.691c0.49833 1.3526 1.3351 2.0273 2.5098 2.0273 0.67631 0 1.1929-0.16011 1.5488-0.48047 0.35595-0.35595 0.65709-0.87057 0.90625-1.5469l10.252-29.314 10.145 29.314c0.24916 0.6763 0.56939 1.1909 0.96093 1.5469 0.39155 0.32036 0.90812 0.48047 1.5488 0.48047 0.67631 0 1.1929-0.16011 1.5488-0.48047 0.39155-0.35595 0.71177-0.87057 0.96094-1.5469l11.854-33.691c0.24917-0.78309 0.1958-1.4235-0.16015-1.9219-0.32036-0.49834-0.85407-0.74805-1.6016-0.74805-1.139 0-1.9053 0.62331-2.2969 1.8691l-10.357 30.006-10.252-29.846c-0.24917-0.67631-0.55225-1.1757-0.90821-1.4961-0.32035-0.35595-0.76446-0.5332-1.334-0.5332-1.1035 0-1.8869 0.67668-2.3496 2.0293l-10.357 29.58-10.092-29.74c-0.42714-1.2458-1.2106-1.8691-2.3496-1.8691zm106.25 0c-1.4238 0-2.1367 0.73005-2.1367 2.1894v27.23c0 2.9544 0.67668 5.2151 2.0293 6.7812 1.3526 1.5306 3.3102 2.2949 5.873 2.2949 0.28476 0 0.58785-0.0171 0.9082-0.0527 0.32036 0 0.62344-0.0362 0.9082-0.10742 1.2102-0.17798 1.8145-0.8718 1.8145-2.082 0-0.64072-0.0896-1.0677-0.26758-1.2812-0.14238-0.21358-0.40923-0.30318-0.80078-0.26758-0.24917 0-0.49693 0.0171-0.7461 0.0527-0.24916 0.0356-0.53511 0.0547-0.85546 0.0547-3.0256 0-4.5371-1.9042-4.5371-5.7129v-26.91c0-1.4594-0.73006-2.1894-2.1895-2.1894zm34.277 0c-1.4594 0-2.1895 0.73005-2.1895 2.1894v14.416c-0.74749-1.5662-1.9045-2.7937-3.4707-3.6836-1.5306-0.88988-3.309-1.3359-5.3379-1.3359-2.3137 0-4.3437 0.5528-6.0879 1.6562-1.7086 1.0678-3.0428 2.6156-4.0039 4.6445-0.92547 1.9933-1.3887 4.3779-1.3887 7.1543 0 2.7408 0.4632 5.1254 1.3887 7.1543 0.96107 1.9933 2.2953 3.543 4.0039 4.6465 1.7442 1.1034 3.7742 1.6543 6.0879 1.6543 2.0289 0 3.8073-0.4441 5.3379-1.334 1.5662-0.92547 2.7423-2.1892 3.5254-3.791v2.7754c0 1.495 0.71096 2.2422 2.1348 2.2422 1.4238 0 2.1367-0.74719 2.1367-2.2422v-33.957c0-1.4594-0.71292-2.1894-2.1367-2.1894zm-347.91 0.37305c-1.495 0-2.2422 0.74914-2.2422 2.2441v33.477c0 1.5306 0.73005 2.2949 2.1894 2.2949s2.1895-0.76433 2.1895-2.2949v-13.082h10.518c4.0578 0 7.1553-0.97781 9.291-2.9356 2.1713-1.9933 3.2559-4.7877 3.2559-8.3828 0-3.6307-1.0846-6.4251-3.2559-8.3828-2.1357-1.9577-5.2332-2.9375-9.291-2.9375zm33.104 0.16015c-1.8865 0-2.8301 0.87303-2.8301 2.6172 1e-5 1.7798 0.94354 2.6699 2.8301 2.6699s2.8301-0.89016 2.8301-2.6699c0-1.7442-0.94354-2.6172-2.8301-2.6172zm-30.967 3.4707h9.9844c5.8376 0 8.7559 2.5638 8.7559 7.6894 0 5.0901-2.9183 7.6348-8.7559 7.6348h-9.9844zm184.9 7.5293c-2.0645 0.0712-3.8448 0.55153-5.3398 1.4414-1.495 0.85428-2.5986 2.099-3.3106 3.7363v-2.8281c0-1.4594-0.71096-2.1894-2.1348-2.1894-1.3882 0-2.084 0.73005-2.084 2.1894v22.264c0 1.495 0.73006 2.2422 2.1895 2.2422s2.1894-0.74719 2.1894-2.2422v-12.92c0-2.3137 0.64045-4.1302 1.9219-5.4473 1.2814-1.3526 3.1514-2.136 5.6074-2.3496l0.85351-0.10547c1.3882-0.14238 2.0287-0.8362 1.9219-2.082-0.0712-1.2458-0.67542-1.8158-1.8145-1.709zm118.21 0c-2.0645 0.0712-3.8448 0.55153-5.3398 1.4414-1.495 0.85428-2.5986 2.099-3.3106 3.7363v-2.8281c0-1.4594-0.71096-2.1894-2.1348-2.1894-1.3882 0-2.082 0.73005-2.082 2.1894v22.264c0 1.495 0.7281 2.2422 2.1875 2.2422s2.1895-0.74719 2.1895-2.2422v-12.92c0-2.3137 0.64045-4.1302 1.9219-5.4473 1.2814-1.3526 3.1514-2.136 5.6074-2.3496l0.85352-0.10547c1.3882-0.14238 2.0287-0.8362 1.9219-2.082-0.0712-1.2458-0.67541-1.8158-1.8144-1.709zm-248.76 0.0527c-1.9577 0-3.7209 0.40983-5.2871 1.2285-1.5662 0.81869-2.7766 2.0462-3.6309 3.6836v-2.6152c0-1.4594-0.71096-2.1894-2.1348-2.1894-1.3882 0-2.082 0.73005-2.082 2.1894v22.264c0 1.495 0.71096 2.2422 2.1348 2.2422 1.4594 0 2.1895-0.74719 2.1895-2.2422v-12.92c0-2.4561 0.69381-4.4136 2.082-5.873 1.4238-1.495 3.328-2.2441 5.7129-2.2441 2.0645 0 3.5608 0.56994 4.4863 1.709 0.96107 1.1034 1.4414 2.8666 1.4414 5.2871v14.041c0 1.495 0.72809 2.2422 2.1875 2.2422 1.4238 0 2.1367-0.74719 2.1367-2.2422v-14.309c0-6.8343-3.0784-10.252-9.2363-10.252zm68.822 0c-2.5273 0-4.7155 0.5528-6.5664 1.6562s-3.2939 2.6683-4.3262 4.6973c-0.99667 1.9933-1.4941 4.3607-1.4941 7.1016 0 2.7408 0.49747 5.1254 1.4941 7.1543 1.0323 1.9933 2.4752 3.543 4.3262 4.6465 1.851 1.1034 4.0392 1.6543 6.5664 1.6543 2.4917 0 4.6627-0.55085 6.5137-1.6543 1.8865-1.1035 3.3276-2.6532 4.3242-4.6465 1.0323-2.0289 1.5488-4.4135 1.5488-7.1543s-0.51657-5.1082-1.5488-7.1016c-0.99667-2.0289-2.4377-3.5938-4.3242-4.6973-1.851-1.1034-4.022-1.6562-6.5137-1.6562zm148.16 0c-2.5272 0-4.7155 0.5528-6.5664 1.6562s-3.292 2.6683-4.3242 4.6973c-0.99666 1.9933-1.4961 4.3607-1.4961 7.1016 0 2.7408 0.49943 5.1254 1.4961 7.1543 1.0323 1.9933 2.4733 3.543 4.3242 4.6465 1.851 1.1034 4.0392 1.6543 6.5664 1.6543 2.4917 0 4.6627-0.55085 6.5137-1.6543 1.8865-1.1035 3.3295-2.6532 4.3262-4.6465 1.0323-2.0289 1.5488-4.4135 1.5488-7.1543s-0.51657-5.1082-1.5488-7.1016c-0.99666-2.0289-2.4396-3.5938-4.3262-4.6973-1.8509-1.1034-4.022-1.6562-6.5137-1.6562zm-186.5 0.10742c-0.96107 0-1.6187 0.30308-1.9746 0.9082-0.32035 0.60512-0.30322 1.3161 0.0527 2.1348l9.8242 22.852-3.2578 7.3691c-0.32036 0.78309-0.33749 1.4769-0.0527 2.082 0.28476 0.64072 0.83756 0.96094 1.6562 0.96094 0.60512 0 1.0664-0.12388 1.3867-0.37305 0.35595-0.24916 0.67617-0.69522 0.96093-1.3359l13.67-31.607c0.32035-0.78308 0.33749-1.4769 0.0527-2.082-0.28477-0.60512-0.83561-0.9082-1.6543-0.9082-0.60511 0-1.0683 0.12388-1.3887 0.37305-0.32035 0.24916-0.62344 0.69522-0.9082 1.3359l-8.1152 19.701-8.0625-19.701c-0.46274-1.139-1.1928-1.709-2.1894-1.709zm59.213 0c-1.4238 0-2.1367 0.73005-2.1367 2.1894v14.309c0 6.8699 3.1146 10.305 9.3438 10.305 1.851 0 3.5074-0.40983 4.9668-1.2285 1.495-0.85429 2.652-2.0647 3.4707-3.6309v2.5098c0 1.495 0.71096 2.2422 2.1348 2.2422 1.3882 0 2.082-0.74719 2.082-2.2422v-22.264c0-1.4594-0.71097-2.1894-2.1348-2.1894-1.4594 0-2.1894 0.73005-2.1894 2.1894v12.92c0 2.4561-0.69382 4.4327-2.082 5.9277-1.3882 1.4594-3.1857 2.1875-5.3926 2.1875-2.0289 0-3.5253-0.55084-4.4863-1.6543-0.92547-1.1034-1.3867-2.8113-1.3867-5.125v-14.256c0-1.4594-0.73005-2.1894-2.1894-2.1894zm-113.09 0.10547c-1.4238 0-2.1348 0.76629-2.1348 2.2969v21.838c0 1.5662 0.71096 2.3496 2.1348 2.3496 1.4594 0 2.1895-0.78342 2.1895-2.3496v-21.838c0-1.5306-0.73006-2.2969-2.1895-2.2969zm92.209 3.2578c2.4205 0 4.3609 0.85393 5.8203 2.5625s2.1894 4.1827 2.1894 7.4219c0 3.2036-0.73005 5.6777-2.1894 7.4219-1.4594 1.7086-3.3998 2.5625-5.8203 2.5625-2.4561 0-4.4136-0.85393-5.873-2.5625-1.4238-1.7442-2.1367-4.2183-2.1367-7.4219 0-3.2392 0.71291-5.7133 2.1367-7.4219 1.4594-1.7086 3.417-2.5625 5.873-2.5625zm148.16 0c2.4205 0 4.3609 0.85393 5.8203 2.5625s2.1895 4.1827 2.1895 7.4219c0 3.2036-0.73006 5.6777-2.1895 7.4219-1.4594 1.7086-3.3998 2.5625-5.8203 2.5625-2.4561 0-4.4136-0.85393-5.873-2.5625-1.4238-1.7442-2.1348-4.2183-2.1348-7.4219 0-3.2392 0.71096-5.7133 2.1348-7.4219 1.4594-1.7086 3.417-2.5625 5.873-2.5625zm64.338 0c2.4205 0 4.3609 0.85393 5.8203 2.5625s2.1895 4.1827 2.1895 7.4219c0 3.2036-0.73006 5.6777-2.1895 7.4219-1.4594 1.7086-3.3998 2.5625-5.8203 2.5625-2.4561 0-4.4136-0.85393-5.873-2.5625-1.4238-1.7442-2.1348-4.2183-2.1348-7.4219 0-3.2392 0.71096-5.7133 2.1348-7.4219 1.4594-1.7086 3.417-2.5625 5.873-2.5625z" fill="#dedede"/>
</g>
<style type="text/css">.st0{fill:#3DB9C4;}.st1{fill:#B1D17A;}.st2{opacity:0.55;fill:#3D9FA1;}.st3{fill:#DD3C3C;}.st4{fill:#EB5B58;}.st5{fill:#C5DAE0;}.st6{fill:#EFEEEE;}.st7{opacity:0.75;fill:#BCE1E5;}</style>
</svg>
